# This file uses centimeters as units for non-parametric coordinates.

mtllib scie.mtl
g default
v 0.500000 0.500000 -1.424177
v 0.500000 0.047548 -1.424177
v 1.748645 0.047548 -1.424177
v 1.940620 0.500000 -1.424177
v 0.500000 0.500000 -1.948243
v 1.940620 0.500000 -1.948243
v -1.479877 0.047548 2.203450
v -1.692533 0.047548 1.566372
v -2.113225 0.047548 1.574968
v -1.908900 0.047548 1.976472
v -1.414724 0.047548 0.363024
v -0.731681 0.047548 1.546739
v -0.731681 0.500000 1.546739
v -1.414724 0.500000 0.363024
v 0.500000 0.500000 0.249677
v 0.500000 0.047548 0.249677
v 1.940620 -0.093399 -1.948243
v 1.940620 0.047548 -1.948243
v 2.416117 0.047548 -1.948243
v 2.416117 -0.093398 -1.948243
v 2.872545 -0.489075 -1.749253
v 2.842695 -0.500000 -1.948243
v 2.869340 -0.488963 -1.937206
v 2.880376 -0.462319 -1.910561
v 2.851835 -0.500000 -1.726888
v -1.321672 -0.093399 1.558794
v -1.101673 -0.093399 1.960298
v -1.479877 -0.093399 2.203450
v -1.692533 -0.093399 1.566372
v 2.880376 -0.460183 -1.775788
v 2.416117 -0.500000 -1.424177
v 2.416117 -0.500000 -1.948243
v -1.908900 -0.093399 1.976472
v 2.842695 -0.093398 -1.948243
v 2.607651 -0.093398 -1.424177
v 2.855683 -0.093398 -1.729562
v 2.873830 -0.093398 -1.750140
v -1.101673 0.047548 1.960298
v -1.321672 0.047548 1.558794
v 2.880376 -0.093398 -1.776785
v 2.416117 0.500000 -1.948243
v 2.869340 -0.093398 -1.937206
v 2.842695 0.047548 -1.948243
v 2.880376 -0.093398 -1.910561
v -1.005161 -0.093399 1.552327
v -0.778895 -0.093399 2.189405
v 2.880376 0.047548 -1.776785
v 2.880376 0.460182 -1.775788
v 2.873830 0.047548 -1.750140
v 2.872545 0.489074 -1.749253
v 2.855683 0.047548 -1.729562
v 0.500000 -0.093399 0.843425
v 0.500000 -0.500000 0.843425
v 0.500000 -0.500000 0.249677
v 0.500000 -0.093399 0.249677
v 2.851835 0.500000 -1.726888
v 2.607651 0.047548 -1.424177
v -0.778895 0.047548 2.189405
v -1.005161 0.047548 1.552327
v 2.416117 0.500000 -1.424177
v 2.842695 0.500000 -1.948243
v 2.869340 0.488963 -1.937206
v -0.731681 -0.500000 1.546739
v -0.500000 -0.500000 1.948243
v -0.500000 -0.093399 1.948243
v -0.731681 -0.093399 1.546739
v 2.880376 0.462318 -1.910561
v 1.748645 -0.093399 -1.424177
v 1.940620 -0.500000 -1.424177
v 1.940620 -0.500000 0.046927
v 1.748645 -0.093399 0.046927
v 2.869340 0.047548 -1.937206
v 2.880376 0.047548 -1.910561
v 0.500000 0.500000 0.843425
v 1.748645 -0.093399 1.518030
v 2.416117 -0.500000 0.046927
v 0.500000 -0.500000 1.948243
v 0.500000 0.047548 0.843425
v 1.748645 0.047548 0.046927
v -0.500000 0.047548 1.948243
v 1.748645 0.047548 1.518030
v 1.940620 -0.500000 1.518030
v -0.500000 0.500000 1.948243
v 1.940620 0.500000 0.046927
v 2.607651 -0.093398 0.046927
v 0.500000 -0.093399 1.948243
v 1.940620 0.500000 1.518030
v 2.607650 0.047548 0.046927
v 0.500000 0.047548 1.948243
v 2.416117 0.500000 0.046927
v 0.500000 0.500000 1.948243
v 2.416117 -0.500000 1.518030
v 2.607650 -0.093399 1.518030
v 2.850782 -0.500000 1.820011
v 1.940620 -0.500000 1.948243
v 2.872256 -0.488673 1.843199
v 2.842695 -0.500000 1.948243
v 2.855683 -0.093399 1.823415
v 2.869339 -0.488963 1.937206
v 2.880376 -0.458719 1.870711
v 2.880376 -0.462319 1.910561
v 2.873830 -0.093399 1.843994
v 2.880376 -0.093399 1.870638
v 2.416117 0.500000 1.518030
v 2.851835 0.500000 1.820742
v 2.607650 0.047548 1.518030
v 2.855683 0.047548 1.823415
v 2.873830 0.047548 1.843994
v 2.872545 0.489075 1.843107
v 2.880376 0.047548 1.870638
v 2.880376 0.460183 1.869642
v 1.940620 -0.093399 1.948243
v 2.880376 0.462319 1.910561
v 2.842695 0.500000 1.948243
v 2.869339 0.488963 1.937206
v 1.940620 0.047548 1.948243
v 1.940620 0.500000 1.948243
v 2.416117 -0.500000 1.948243
v 2.416117 -0.093399 1.948243
v 2.416117 0.047548 1.948243
v 2.842695 -0.093399 1.948243
v 2.416117 0.500000 1.948243
v 2.880376 -0.093399 1.910561
v 2.869339 -0.093399 1.937206
v 2.842695 0.047548 1.948243
v 2.880376 0.047548 1.910561
v 2.869339 0.047548 1.937206
v 1.940620 -0.500000 -1.948243
v -1.414724 -0.500000 0.363024
v -2.348510 0.047548 2.220855
v -2.348510 -0.093399 2.220855
v -2.113225 -0.093399 1.574968
v 0.500000 -0.093399 -1.424177
v -1.670919 0.047548 0.384014
v -0.718104 0.500000 -1.397150
v -1.414724 -0.093399 0.363024
v -1.670919 -0.093399 0.384014
v -2.544299 0.047548 1.583777
v 0.500000 -0.500000 -1.424177
v 0.500000 0.047548 -1.948243
v -1.967425 0.047548 0.408307
v -2.765244 0.047548 1.993631
v -2.765244 -0.093399 1.993631
v -2.544299 -0.093399 1.583777
v -1.967425 -0.093399 0.408307
v 0.500000 -0.093399 -1.948243
v -2.952941 0.047548 1.592126
v -2.314846 0.047548 0.436771
v -3.187369 0.047548 2.237663
v -3.187369 -0.093399 2.237663
v -2.952941 -0.093399 1.592126
v -2.314846 -0.093399 0.436771
v 0.500000 -0.500000 -1.948243
v -2.708949 0.047548 0.469060
v -3.366870 0.047548 1.600585
v -0.500000 0.500000 -1.948243
v -2.708949 -0.093399 0.469060
v -3.366870 -0.093399 1.600585
v -0.718104 0.047548 -1.397150
v -3.647940 0.047548 2.011317
v -3.647940 -0.093399 2.011317
v -0.718104 -0.500000 -1.397150
v -3.112778 0.047548 0.502145
v -3.818499 0.047548 1.609813
v -0.995825 0.047548 -1.337083
v -0.500000 0.047548 -1.948243
v -3.112778 -0.093399 0.502145
v -3.818499 -0.093399 1.609813
v -4.089133 0.047548 2.255731
v -4.089133 -0.093399 2.255731
v -0.718104 -0.093399 -1.397150
v -0.995825 -0.093399 -1.337083
v -1.317245 0.047548 -1.267564
v -3.495592 0.047548 0.533509
v -0.500000 -0.093399 -1.948243
v -4.251125 0.047548 1.618653
v -1.317245 -0.093399 -1.267564
v -3.495592 -0.093399 0.533509
v -4.429125 0.047548 2.026969
v -4.429125 -0.093399 2.026969
v -4.251125 -0.093399 1.618653
v -1.693857 0.047548 -1.186108
v -0.500000 -0.500000 -1.948243
v -3.883359 0.047548 0.565279
v -1.693857 -0.093399 -1.186108
v -0.783775 0.047548 -1.880960
v -4.584517 0.047548 1.625465
v -3.883359 -0.093399 0.565279
v -4.779523 0.047548 2.269564
v -4.779523 -0.093399 2.269564
v -0.783775 -0.093399 -1.880960
v -2.121073 0.047548 -1.093706
v -4.584517 -0.093399 1.625465
v -1.112201 0.047548 -1.803090
v -2.121073 -0.093399 -1.093706
v -4.306443 0.047548 0.599942
v -1.112201 -0.093399 -1.803090
v -4.928111 0.047548 1.632486
v -4.306443 -0.093399 0.599942
v -1.497024 0.047548 -1.711848
v -2.558833 0.047548 -0.999025
v -4.928111 -0.093399 1.632486
v -5.263546 0.047548 2.043688
v -5.263546 -0.093399 2.043688
v -1.497024 -0.093399 -1.711848
v -2.558833 -0.093399 -0.999025
v -4.711726 0.047548 0.633147
v -5.402736 0.047548 1.642184
v -1.933553 0.047548 -1.608347
v -2.973812 0.047548 -0.909270
v -4.711726 -0.093399 0.633147
v -5.402736 -0.093399 1.642184
v -1.933553 -0.093399 -1.608347
v -5.664389 0.047548 2.287294
v -5.664389 -0.093399 2.287294
v -2.973812 -0.093399 -0.909270
v -5.024046 0.047548 0.658735
v -2.380856 0.047548 -1.502291
v -3.394160 0.047548 -0.818354
v -5.795795 0.047548 1.650215
v -5.024046 -0.093399 0.658735
v -2.380856 -0.093399 -1.502291
v -3.394160 -0.093399 -0.818354
v -6.048832 0.047548 2.059423
v -6.048832 -0.093399 2.059423
v -5.795795 -0.093399 1.650215
v -5.345924 0.047548 0.685106
v -2.804881 0.047548 -1.401754
v -3.852793 0.047548 -0.719158
v -5.345924 -0.093399 0.685106
v -6.172774 0.047548 1.657918
v -2.804881 -0.093399 -1.401754
v -3.852793 -0.093399 -0.719158
v -6.375010 0.047548 2.301532
v -6.375010 -0.093399 2.301532
v -6.172774 -0.093399 1.657918
v -5.790551 0.047548 0.721535
v -3.234393 0.047548 -1.299917
v -4.292129 0.047548 -0.624135
v -5.790551 -0.093399 0.721535
v -3.234393 -0.093399 -1.299917
v -6.492617 0.047548 1.664454
v -6.745885 0.047548 2.073389
v -6.745885 -0.093399 2.073389
v -4.292129 -0.093399 -0.624135
v -6.492617 -0.093399 1.664454
v -3.703023 0.047548 -1.188804
v -6.158768 0.047548 0.751702
v -4.630690 0.047548 -0.550909
v -6.856292 0.047548 1.671885
v -3.703023 -0.093399 -1.188804
v -6.158768 -0.093399 0.751702
v -4.630690 -0.093399 -0.550909
v -7.088574 0.047548 2.315830
v -7.088574 -0.093399 2.315830
v -6.856292 -0.093399 1.671885
v -9.615351 0.047548 1.026699
v -9.615473 0.047548 1.034910
v -9.611340 0.047548 1.034571
v -4.151937 0.047548 -1.082366
v -4.979613 0.047548 -0.475441
v -9.611340 -0.093399 1.034571
v -9.615473 -0.093399 1.034910
v -9.615351 -0.093399 1.026699
v -6.511920 0.047548 0.780636
v -7.192327 0.047548 1.678751
v -4.151937 -0.093399 -1.082366
v -4.979613 -0.093399 -0.475441
v -6.511920 -0.093399 0.780636
v -7.446091 0.047548 2.087419
v -7.446091 -0.093399 2.087419
v -7.192327 -0.093399 1.678751
v -4.497879 0.047548 -1.000343
v -5.461599 0.047548 -0.371194
v -6.811549 0.047548 0.805185
v -4.497879 -0.093399 -1.000343
v -7.542901 0.047548 1.685914
v -5.461599 -0.093399 -0.371194
v -6.811549 -0.093399 0.805185
v -7.762541 0.047548 2.329334
v -7.762541 -0.093399 2.329334
v -4.854408 0.047548 -0.915810
v -7.542901 -0.093399 1.685914
v -7.152237 0.047548 0.833097
v -5.860754 0.047548 -0.284862
v -4.854408 -0.093399 -0.915810
v -7.853207 0.047548 1.692255
v -7.152237 -0.093399 0.833097
v -5.860754 -0.093399 -0.284862
v -8.090004 0.047548 2.100321
v -8.090004 -0.093399 2.100321
v -5.346901 0.047548 -0.799040
v -7.853207 -0.093399 1.692255
v -7.467034 0.047548 0.858888
v -6.243579 0.047548 -0.202062
v -5.346901 -0.093399 -0.799040
v -8.174312 0.047548 1.698816
v -7.467034 -0.093399 0.858888
v -6.243579 -0.093399 -0.202062
v -8.422814 0.047548 2.342563
v -8.422814 -0.093399 2.342563
v -5.754757 0.047548 -0.702337
v -8.174312 -0.093399 1.698816
v -6.568383 0.047548 -0.131811
v -7.795451 0.047548 0.885796
v -5.754757 -0.093399 -0.702337
v -8.500661 0.047548 1.705484
v -6.568383 -0.093399 -0.131811
v -7.795451 -0.093399 0.885796
v -8.723829 0.047548 2.113021
v -8.723829 -0.093399 2.113021
v -6.145928 0.047548 -0.609590
v -8.500661 -0.093399 1.705484
v -6.937697 0.047548 -0.051933
v -8.086144 0.047548 0.909612
v -6.145928 -0.093399 -0.609590
v -8.795831 0.047548 1.711515
v -6.937697 -0.093399 -0.051933
v -8.086144 -0.093399 0.909612
v -9.058033 0.047548 2.355291
v -9.058033 -0.093399 2.355291
v -6.477813 0.047548 -0.530900
v -8.795831 -0.093399 1.711515
v -7.278944 0.047548 0.021874
v -8.386954 0.047548 0.934257
v -6.477813 -0.093399 -0.530900
v -7.278944 -0.093399 0.021874
v -9.123545 0.047548 1.718212
v -8.386954 -0.093399 0.934257
v -6.855178 0.047548 -0.441426
v -9.427376 0.047548 2.127117
v -9.427376 -0.093399 2.127117
v -7.634954 0.047548 0.098875
v -9.123545 -0.093399 1.718212
v -8.692677 0.047548 0.959305
v -6.855178 -0.093399 -0.441426
v -7.634954 -0.093399 0.098875
v -8.692677 -0.093399 0.959305
v -7.203865 0.047548 -0.358753
v -9.485716 0.047548 1.725612
v -7.950072 0.047548 0.167031
v -8.969191 0.047548 0.981960
v -7.203865 -0.093399 -0.358753
v -9.685485 0.047548 2.291617
v -9.685485 -0.093399 2.291617
v -9.485716 -0.093399 1.725612
v -7.950072 -0.093399 0.167031
v -8.969191 -0.093399 0.981960
v -7.567636 0.047548 -0.272502
v -8.276156 0.047548 0.237559
v -9.738813 0.047548 1.730783
v -9.892556 0.047548 2.136438
v -9.892556 -0.093399 2.136438
v -7.567636 -0.093399 -0.272502
v -8.276156 -0.093399 0.237559
v -9.738813 -0.093399 1.730783
v -7.889624 0.047548 -0.196159
v -9.941864 0.047548 1.734932
v -8.607567 0.047548 0.309239
v -7.889624 -0.093399 -0.196159
v -9.941864 -0.093399 1.734932
v -9.056510 -0.093399 1.106595
v -9.127354 -0.093399 1.177439
v -9.127354 0.047548 1.177439
v -9.056510 0.047548 1.106595
v -8.607567 -0.093399 0.309239
v -9.011025 -0.093399 1.017327
v -9.011025 0.047548 1.017327
v -9.216621 -0.093399 1.222923
v -9.216621 0.047548 1.222923
v -8.222816 0.047548 -0.117159
v -8.907314 0.047548 0.374070
v -8.222816 -0.093399 -0.117159
v -9.315576 -0.093399 1.238596
v -9.414530 -0.093399 1.222923
v -9.414530 0.047548 1.222923
v -9.315576 0.047548 1.238596
v -9.011025 -0.093399 0.819419
v -8.995353 -0.093399 0.918373
v -8.995353 0.047548 0.918373
v -9.011025 0.047548 0.819419
v -8.907314 -0.093399 0.374070
v -9.852573 0.047548 1.054335
v -8.561451 0.047548 -0.036868
v -9.503798 -0.093399 1.177439
v -9.503798 0.047548 1.177439
v -9.056510 -0.093399 0.730151
v -9.056510 0.047548 0.730151
v -9.852573 -0.093399 1.054335
v -8.561451 -0.093399 -0.036868
v -9.574641 -0.093399 1.106595
v -9.574641 0.047548 1.106595
v -9.127353 -0.093399 0.659307
v -9.127353 0.047548 0.659307
v -10.042790 0.047548 1.069920
v -8.867733 0.047548 0.035751
v -9.216621 -0.093399 0.613823
v -9.216621 0.047548 0.613823
v -10.042790 -0.093399 1.069920
v -8.867733 -0.093399 0.035751
v -9.620126 -0.093399 1.017327
v -9.635798 -0.093399 0.918373
v -9.635798 0.047548 0.918373
v -9.620126 0.047548 1.017327
v -9.207785 0.047548 0.116378
v -9.240111 0.047548 0.446050
v -9.620126 -0.093399 0.819419
v -9.620126 0.047548 0.819419
v -9.414530 -0.093399 0.613823
v -9.315576 -0.093399 0.598150
v -9.315576 0.047548 0.598150
v -9.414530 0.047548 0.613823
v -9.503798 -0.093399 0.659307
v -9.503798 0.047548 0.659307
v -9.574641 -0.093399 0.730151
v -9.574641 0.047548 0.730151
v -9.240111 -0.093399 0.446050
v -9.207785 -0.093399 0.116378
v -9.583591 0.047548 0.205482
v -9.607899 0.047548 0.525597
v -9.864922 0.047548 0.581188
v -10.071121 0.047548 0.625786
v -9.607899 -0.093399 0.525597
v -9.583591 -0.093399 0.205482
v -9.864922 -0.093399 0.581188
v -10.071121 -0.093399 0.625786
v -9.846216 0.047548 0.267750
v -9.846216 -0.093399 0.267750
v -10.056911 0.047548 0.317706
v -10.056911 -0.093399 0.317706
v -9.229429 -0.093399 1.224952
v -9.229429 0.047548 1.224952
v -9.005900 -0.093399 0.984967
v -9.005900 0.047548 0.984967
v -9.250555 -0.093399 0.608448
v -9.250555 0.047548 0.608448
v -9.612032 -0.093399 0.803534
v -9.612032 0.047548 0.803534
vt 0.412425 0.746569
vt 0.412425 0.667980
vt 0.442464 0.667980
vt 0.442464 0.746569
vt 0.412425 0.641323
vt 0.442464 0.641323
vt 0.412425 0.863430
vt 0.442464 0.863430
vt 0.412425 0.900018
vt 0.442464 0.900018
vt 0.228749 0.752453
vt 0.198710 0.752453
vt 0.198710 0.641323
vt 0.228749 0.641323
vt 0.228749 0.791874
vt 0.198710 0.791874
vt 0.189353 0.752453
vt 0.189353 0.641323
vt 0.189353 0.791874
vt 0.162358 0.752453
vt 0.162358 0.641323
vt 0.162358 0.791874
vt 0.307815 0.653802
vt 0.307822 0.641323
vt 0.309591 0.643092
vt 0.309733 0.652040
vt 0.334085 0.641323
vt 0.334085 0.643092
vt 0.334085 0.651974
vt 0.334085 0.653743
vt 0.343442 0.641323
vt 0.343442 0.643092
vt 0.343442 0.651974
vt 0.334085 0.655109
vt 0.307090 0.655287
vt 0.343442 0.653743
vt 0.372749 0.641323
vt 0.370980 0.643092
vt 0.370838 0.652040
vt 0.334085 0.675384
vt 0.307090 0.675384
vt 0.343442 0.655109
vt 0.372756 0.653802
vt 0.334085 0.773053
vt 0.307090 0.773053
vt 0.343442 0.675384
vt 0.373482 0.655287
vt 0.343442 0.773053
vt 0.334085 0.870723
vt 0.307090 0.870723
vt 0.373482 0.675384
vt 0.373482 0.773053
vt 0.343442 0.870723
vt 0.307090 0.890772
vt 0.334085 0.890998
vt 0.373482 0.870723
vt 0.343442 0.890998
vt 0.307842 0.892311
vt 0.334085 0.892364
vt 0.373482 0.890820
vt 0.343442 0.892364
vt 0.309830 0.894138
vt 0.334085 0.894133
vt 0.372756 0.892305
vt 0.343442 0.894133
vt 0.309591 0.896784
vt 0.307822 0.898553
vt 0.334085 0.896784
vt 0.370838 0.894067
vt 0.343442 0.896784
vt 0.334085 0.898553
vt 0.370980 0.896784
vt 0.372749 0.898553
vt 0.343442 0.898553
vt 0.379456 0.667980
vt 0.379456 0.641323
vt 0.406451 0.641323
vt 0.406451 0.667980
vt 0.379456 0.746569
vt 0.406451 0.746569
vt 0.379456 0.863430
vt 0.406451 0.863430
vt 0.379456 0.900018
vt 0.406451 0.900018
vt 0.261719 0.836662
vt 0.234724 0.836662
vt 0.234724 0.738992
vt 0.261719 0.738992
vt 0.234724 0.641323
vt 0.261719 0.641323
vt 0.271076 0.836662
vt 0.271076 0.738992
vt 0.271076 0.641323
vt 0.301115 0.836662
vt 0.301115 0.738992
vt 0.301115 0.641323
vt 0.001940 0.974238
vt 0.001940 0.968312
vt 0.011297 0.968312
vt 0.011297 0.974238
vt 0.001940 0.963608
vt 0.011297 0.963608
vt 0.001940 0.980808
vt 0.001940 0.976387
vt 0.011297 0.976387
vt 0.011297 0.980808
vt 0.001940 0.987378
vt 0.011297 0.987378
vt 0.001940 0.993305
vt 0.011297 0.993305
vt 0.001940 0.998008
vt 0.011297 0.998008
vt 0.147026 0.876376
vt 0.147026 0.849719
vt 0.156383 0.849719
vt 0.156383 0.876376
vt 0.147026 0.839417
vt 0.156383 0.839417
vt 0.147026 0.920528
vt 0.156383 0.920528
vt 0.147026 0.950014
vt 0.156383 0.950014
vt 0.147026 0.970468
vt 0.156383 0.970468
vt 0.017312 0.987378
vt 0.017312 0.980808
vt 0.026669 0.980808
vt 0.026669 0.987378
vt 0.017312 0.974238
vt 0.026669 0.974238
vt 0.017312 0.993305
vt 0.017312 0.988523
vt 0.017312 0.988000
vt 0.026669 0.988000
vt 0.026669 0.988523
vt 0.026669 0.993305
vt 0.017312 0.973184
vt 0.017312 0.968312
vt 0.026669 0.968312
vt 0.026669 0.973184
vt 0.017312 0.998008
vt 0.026669 0.998008
vt 0.017312 0.963608
vt 0.026669 0.963608
vt 0.971802 0.798841
vt 0.937009 0.798841
vt 0.937009 0.703195
vt 0.971802 0.703195
vt 0.935214 0.879713
vt 0.971802 0.865233
vt 0.937009 0.671626
vt 0.971802 0.671626
vt 0.818353 0.925963
vt 0.825878 0.798841
vt 0.839339 0.703195
vt 0.839339 0.671626
vt 0.957106 0.642698
vt 0.971802 0.643305
vt 0.739764 0.880615
vt 0.786458 0.798841
vt 0.741670 0.703195
vt 0.741670 0.671626
vt 0.958591 0.641323
vt 0.971070 0.641536
vt 0.713107 0.865233
vt 0.713107 0.798841
vt 0.713107 0.703195
vt 0.713107 0.671626
vt 0.713107 0.643305
vt 0.721572 0.642698
vt 0.720088 0.641323
vt 0.713840 0.641536
vt 0.160237 0.067048
vt 0.202534 0.081166
vt 0.201963 0.109097
vt 0.175307 0.095531
vt 0.176380 0.041938
vt 0.203037 0.056544
vt 0.277530 0.122483
vt 0.275386 0.148648
vt 0.201378 0.137717
vt 0.159082 0.124718
vt 0.161170 0.020508
vt 0.203466 0.035531
vt 0.279420 0.099417
vt 0.385276 0.081254
vt 0.379141 0.109618
vt 0.273190 0.175459
vt 0.200824 0.164847
vt 0.174167 0.152386
vt 0.177181 0.001992
vt 0.203837 0.017374
vt 0.281033 0.079731
vt 0.390684 0.056250
vt 0.420181 0.068186
vt 0.413309 0.097168
vt 0.372855 0.138682
vt 0.271108 0.200875
vt 0.200262 0.192329
vt 0.157966 0.180411
vt 0.282426 0.062722
vt 0.395300 0.034911
vt 0.426239 0.042637
vt 0.406268 0.126866
vt 0.366896 0.166233
vt 0.268998 0.226619
vt 0.199650 0.222313
vt 0.172993 0.210990
vt 0.399288 0.016472
vt 0.431409 0.020832
vt 0.399593 0.155017
vt 0.360860 0.194141
vt 0.266697 0.254709
vt 0.199063 0.251036
vt 0.156766 0.240281
vt 0.435876 0.001992
vt 0.392832 0.183533
vt 0.354274 0.224590
vt 0.264492 0.281616
vt 0.198611 0.273171
vt 0.171954 0.262854
vt 0.385455 0.214647
vt 0.347966 0.253758
vt 0.262794 0.302352
vt 0.198144 0.295983
vt 0.155848 0.286117
vt 0.378388 0.244451
vt 0.343104 0.276236
vt 0.261043 0.323722
vt 0.197501 0.327494
vt 0.170844 0.318253
vt 0.372943 0.267419
vt 0.338094 0.299402
vt 0.258624 0.353242
vt 0.196967 0.353590
vt 0.154670 0.344865
vt 0.367331 0.291089
vt 0.331172 0.331402
vt 0.256621 0.377688
vt 0.196456 0.378618
vt 0.169799 0.370389
vt 0.359578 0.323787
vt 0.325441 0.357902
vt 0.254700 0.401135
vt 0.196022 0.399853
vt 0.153725 0.392045
vt 0.353158 0.350865
vt 0.319943 0.383319
vt 0.253071 0.421027
vt 0.195529 0.423998
vt 0.168872 0.416668
vt 0.347000 0.376836
vt 0.315279 0.404883
vt 0.251217 0.443646
vt 0.195073 0.446308
vt 0.152776 0.439420
vt 0.341776 0.398870
vt 0.309976 0.429403
vt 0.249505 0.464546
vt 0.194597 0.469583
vt 0.167941 0.463156
vt 0.335835 0.423924
vt 0.305076 0.452059
vt 0.247719 0.486351
vt 0.194176 0.490185
vt 0.151879 0.484166
vt 0.330346 0.447074
vt 0.299964 0.475695
vt 0.246137 0.505650
vt 0.193741 0.511504
vt 0.167084 0.505907
vt 0.324620 0.471225
vt 0.295439 0.496616
vt 0.244501 0.525621
vt 0.193298 0.533171
vt 0.151001 0.528002
vt 0.319552 0.492603
vt 0.290756 0.518266
vt 0.242838 0.545919
vt 0.192898 0.552768
vt 0.166241 0.547987
vt 0.314307 0.514724
vt 0.285997 0.540268
vt 0.241334 0.564277
vt 0.192453 0.574525
vt 0.150156 0.570176
vt 0.308976 0.537207
vt 0.281693 0.560169
vt 0.241134 0.566714
vt 0.238986 0.567055
vt 0.233059 0.570075
vt 0.228356 0.574778
vt 0.225336 0.580705
vt 0.225201 0.581555
vt 0.191962 0.598570
vt 0.165305 0.594697
vt 0.304155 0.557541
vt 0.276914 0.582264
vt 0.266132 0.582958
vt 0.265775 0.580705
vt 0.262756 0.574778
vt 0.258052 0.570075
vt 0.252125 0.567055
vt 0.245556 0.566014
vt 0.224296 0.587274
vt 0.225336 0.593844
vt 0.228356 0.599771
vt 0.233059 0.604474
vt 0.237841 0.606911
vt 0.237819 0.607185
vt 0.191618 0.615374
vt 0.154383 0.611833
vt 0.298802 0.580118
vt 0.271633 0.606682
vt 0.253180 0.606957
vt 0.258052 0.604474
vt 0.262756 0.599771
vt 0.265775 0.593844
vt 0.266816 0.587274
vt 0.238364 0.607177
vt 0.236529 0.622927
vt 0.191343 0.628855
vt 0.164686 0.625581
vt 0.292886 0.605068
vt 0.238986 0.607494
vt 0.245556 0.608535
vt 0.252125 0.607494
vt 0.267942 0.623747
vt 0.235494 0.635556
vt 0.288752 0.622505
vt 0.264981 0.637437
vt 0.285435 0.636493
vt 0.448438 0.643305
vt 0.449171 0.641536
vt 0.461650 0.641323
vt 0.463134 0.642698
vt 0.483232 0.671626
vt 0.448438 0.671626
vt 0.483232 0.703196
vt 0.448438 0.703196
vt 0.483232 0.798841
vt 0.448438 0.798841
vt 0.580901 0.671626
vt 0.580901 0.703196
vt 0.448438 0.865233
vt 0.485026 0.879713
vt 0.678571 0.671626
vt 0.678571 0.703196
vt 0.594362 0.798841
vt 0.601887 0.925963
vt 0.707133 0.703196
vt 0.707133 0.671626
vt 0.633782 0.798841
vt 0.680476 0.880615
vt 0.707133 0.798841
vt 0.698620 0.642768
vt 0.707133 0.643305
vt 0.707133 0.865233
vt 0.700159 0.641343
vt 0.706400 0.641536
vt 0.675252 0.056544
vt 0.701909 0.041938
vt 0.718052 0.067048
vt 0.675756 0.081166
vt 0.674823 0.035531
vt 0.717120 0.020508
vt 0.702983 0.095532
vt 0.676326 0.109097
vt 0.598869 0.099417
vt 0.600759 0.122483
vt 0.674452 0.017374
vt 0.701109 0.001992
vt 0.597257 0.079732
vt 0.719208 0.124718
vt 0.676911 0.137717
vt 0.602903 0.148648
vt 0.487605 0.056250
vt 0.493013 0.081254
vt 0.595863 0.062722
vt 0.482990 0.034911
vt 0.704122 0.152386
vt 0.677465 0.164847
vt 0.605099 0.175459
vt 0.499148 0.109618
vt 0.452051 0.042637
vt 0.458108 0.068186
vt 0.479002 0.016472
vt 0.446881 0.020832
vt 0.720324 0.180411
vt 0.678027 0.192329
vt 0.607182 0.200875
vt 0.505434 0.138682
vt 0.464980 0.097168
vt 0.442414 0.001992
vt 0.705296 0.210990
vt 0.678640 0.222313
vt 0.609291 0.226620
vt 0.511393 0.166233
vt 0.472021 0.126866
vt 0.721523 0.240281
vt 0.679227 0.251036
vt 0.611592 0.254709
vt 0.517429 0.194141
vt 0.478696 0.155017
vt 0.706335 0.262854
vt 0.679679 0.273171
vt 0.613797 0.281616
vt 0.524015 0.224590
vt 0.485457 0.183533
vt 0.722442 0.286118
vt 0.680145 0.295983
vt 0.615496 0.302352
vt 0.530324 0.253758
vt 0.492834 0.214647
vt 0.707445 0.318253
vt 0.680789 0.327494
vt 0.617247 0.323722
vt 0.535185 0.276236
vt 0.499901 0.244451
vt 0.723619 0.344865
vt 0.681322 0.353590
vt 0.619665 0.353242
vt 0.540196 0.299402
vt 0.505347 0.267419
vt 0.708490 0.370389
vt 0.681833 0.378618
vt 0.621668 0.377688
vt 0.547117 0.331402
vt 0.510959 0.291089
vt 0.724564 0.392045
vt 0.682267 0.399853
vt 0.623589 0.401135
vt 0.552849 0.357902
vt 0.518711 0.323787
vt 0.709417 0.416668
vt 0.682761 0.423998
vt 0.625219 0.421027
vt 0.558346 0.383319
vt 0.525132 0.350865
vt 0.725513 0.439420
vt 0.683217 0.446308
vt 0.627072 0.443646
vt 0.563010 0.404883
vt 0.531289 0.376836
vt 0.710349 0.463156
vt 0.683692 0.469583
vt 0.628784 0.464546
vt 0.568313 0.429403
vt 0.536514 0.398870
vt 0.726410 0.484166
vt 0.684113 0.490185
vt 0.630571 0.486351
vt 0.573213 0.452059
vt 0.542454 0.423924
vt 0.711205 0.505907
vt 0.684549 0.511504
vt 0.632152 0.505650
vt 0.578326 0.475695
vt 0.547943 0.447074
vt 0.727288 0.528002
vt 0.684991 0.533171
vt 0.633788 0.525622
vt 0.582851 0.496616
vt 0.553669 0.471226
vt 0.712049 0.547987
vt 0.685392 0.552768
vt 0.635451 0.545919
vt 0.587533 0.518266
vt 0.558738 0.492603
vt 0.728133 0.570176
vt 0.685836 0.574525
vt 0.636955 0.564277
vt 0.592292 0.540268
vt 0.563983 0.514724
vt 0.712984 0.594697
vt 0.686328 0.598570
vt 0.653088 0.581555
vt 0.652953 0.580705
vt 0.649934 0.574778
vt 0.645230 0.570075
vt 0.639303 0.567055
vt 0.637155 0.566715
vt 0.596596 0.560169
vt 0.569313 0.537207
vt 0.723906 0.611833
vt 0.686671 0.615374
vt 0.640471 0.607185
vt 0.640448 0.606911
vt 0.645230 0.604474
vt 0.649934 0.599771
vt 0.652953 0.593844
vt 0.653994 0.587274
vt 0.632734 0.566014
vt 0.626164 0.567055
vt 0.620237 0.570075
vt 0.615534 0.574778
vt 0.612514 0.580705
vt 0.612157 0.582958
vt 0.601375 0.582264
vt 0.574135 0.557541
vt 0.713603 0.625581
vt 0.686947 0.628855
vt 0.641760 0.622927
vt 0.639926 0.607177
vt 0.611473 0.587274
vt 0.612514 0.593844
vt 0.615534 0.599771
vt 0.620237 0.604474
vt 0.625109 0.606957
vt 0.606656 0.606682
vt 0.579488 0.580118
vt 0.642795 0.635556
vt 0.626164 0.607494
vt 0.632734 0.608535
vt 0.639303 0.607494
vt 0.610347 0.623747
vt 0.585403 0.605068
vt 0.613308 0.637437
vt 0.589538 0.622505
vt 0.592854 0.636493
vt 0.141052 0.935062
vt 0.111012 0.935062
vt 0.111012 0.852162
vt 0.141052 0.839417
vt 0.101655 0.935062
vt 0.101655 0.852162
vt 0.074660 0.935062
vt 0.074660 0.839417
vt 0.041337 0.063651
vt 0.031979 0.063651
vt 0.031979 0.032082
vt 0.041337 0.032082
vt 0.041337 0.159297
vt 0.031979 0.159297
vt 0.001940 0.063651
vt 0.001940 0.032082
vt 0.031979 0.003761
vt 0.041337 0.003761
vt 0.068332 0.063651
vt 0.068332 0.032082
vt 0.031979 0.225689
vt 0.041337 0.225689
vt 0.001940 0.159297
vt 0.068332 0.159297
vt 0.001940 0.003761
vt 0.041337 0.001992
vt 0.031979 0.001992
vt 0.068332 0.003761
vt 0.001940 0.225689
vt 0.068332 0.225689
vt 0.041337 0.244529
vt 0.031979 0.244529
vt 0.002673 0.001992
vt 0.067599 0.001992
vt 0.041337 0.266334
vt 0.031979 0.266334
vt 0.041337 0.291883
vt 0.031979 0.291883
vt 0.041337 0.320865
vt 0.031979 0.320865
vt 0.041337 0.350562
vt 0.031979 0.350562
vt 0.041337 0.378714
vt 0.031979 0.378714
vt 0.041337 0.407230
vt 0.031979 0.407230
vt 0.041337 0.438343
vt 0.031979 0.438343
vt 0.041337 0.468147
vt 0.031979 0.468147
vt 0.041337 0.491115
vt 0.031979 0.491115
vt 0.041337 0.514786
vt 0.031979 0.514786
vt 0.041337 0.547483
vt 0.031979 0.547483
vt 0.041337 0.574562
vt 0.031979 0.574562
vt 0.041337 0.600532
vt 0.031979 0.600532
vt 0.041337 0.622567
vt 0.031979 0.622567
vt 0.041337 0.647621
vt 0.031979 0.647621
vt 0.041337 0.670771
vt 0.031979 0.670771
vt 0.041337 0.694922
vt 0.031979 0.694922
vt 0.041337 0.716299
vt 0.031979 0.716299
vt 0.041337 0.738421
vt 0.031979 0.738421
vt 0.041337 0.760903
vt 0.031979 0.760903
vt 0.041337 0.781238
vt 0.031979 0.781238
vt 0.041337 0.803815
vt 0.031979 0.803815
vt 0.041337 0.828765
vt 0.031979 0.828765
vt 0.041337 0.846201
vt 0.031979 0.846201
vt 0.041337 0.860190
vt 0.031979 0.860190
vt 0.103138 0.290745
vt 0.112496 0.290745
vt 0.112496 0.319228
vt 0.103138 0.319228
vt 0.103138 0.265635
vt 0.112496 0.265635
vt 0.112496 0.348415
vt 0.103138 0.348415
vt 0.103138 0.244205
vt 0.112496 0.244205
vt 0.112496 0.376082
vt 0.103138 0.376082
vt 0.103138 0.225689
vt 0.112496 0.225689
vt 0.112496 0.404108
vt 0.103138 0.404108
vt 0.103138 0.159297
vt 0.112496 0.159297
vt 0.112496 0.434686
vt 0.103138 0.434686
vt 0.076143 0.225689
vt 0.076143 0.159297
vt 0.103138 0.063651
vt 0.112496 0.063651
vt 0.142535 0.159297
vt 0.142535 0.225689
vt 0.112496 0.463978
vt 0.103138 0.463978
vt 0.076143 0.063651
vt 0.103138 0.032082
vt 0.112496 0.032082
vt 0.142535 0.063651
vt 0.112496 0.486551
vt 0.103138 0.486551
vt 0.076143 0.032082
vt 0.103138 0.003761
vt 0.112496 0.003761
vt 0.142535 0.032082
vt 0.112496 0.509814
vt 0.103138 0.509814
vt 0.076143 0.003761
vt 0.103138 0.001992
vt 0.112496 0.001992
vt 0.142535 0.003761
vt 0.112496 0.541949
vt 0.103138 0.541949
vt 0.076876 0.001992
vt 0.141802 0.001992
vt 0.112496 0.568562
vt 0.103138 0.568562
vt 0.112496 0.594086
vt 0.103138 0.594086
vt 0.112496 0.615741
vt 0.103138 0.615741
vt 0.112496 0.640365
vt 0.103138 0.640365
vt 0.112496 0.663116
vt 0.103138 0.663116
vt 0.112496 0.686853
vt 0.103138 0.686853
vt 0.112496 0.707862
vt 0.103138 0.707862
vt 0.112496 0.729603
vt 0.103138 0.729603
vt 0.112496 0.751699
vt 0.103138 0.751699
vt 0.112496 0.771684
vt 0.103138 0.771684
vt 0.112496 0.793872
vt 0.103138 0.793872
vt 0.112496 0.818394
vt 0.103138 0.818394
vt 0.112496 0.835530
vt 0.103138 0.835530
vt 0.068685 0.959722
vt 0.041690 0.959722
vt 0.041690 0.876822
vt 0.068685 0.864076
vt 0.032333 0.959722
vt 0.032333 0.876822
vt 0.002293 0.959722
vt 0.002293 0.864076
vt 0.043749 0.963608
vt 0.043749 0.969535
vt 0.034392 0.969535
vt 0.034392 0.963608
vt 0.043749 0.970385
vt 0.043749 0.976105
vt 0.034392 0.976105
vt 0.034392 0.970385
vt 0.043749 0.982675
vt 0.034392 0.982675
vt 0.043749 0.988601
vt 0.034392 0.988601
vt 0.051472 0.969535
vt 0.051472 0.963608
vt 0.060829 0.963608
vt 0.060829 0.969535
vt 0.051472 0.976105
vt 0.051472 0.971788
vt 0.060829 0.971788
vt 0.060829 0.976105
vt 0.051472 0.982675
vt 0.060829 0.982675
vt 0.051472 0.988601
vt 0.060829 0.988601
vn 0.000000 0.000000 1.000000
vn 0.000000 0.000000 1.000000
vn 0.000000 0.000000 1.000000
vn 0.000000 0.000000 1.000000
vn 0.000000 1.000000 0.000000
vn 0.000000 1.000000 0.000000
vn 0.000000 1.000000 -0.000000
vn 0.000000 1.000000 0.000000
vn 0.000000 1.000000 -0.000000
vn 0.000000 1.000000 -0.000000
vn 0.000000 1.000000 0.000000
vn 0.000000 1.000000 0.000000
vn -0.999989 0.000000 -0.004612
vn -0.866144 0.000000 0.499794
vn -0.866144 0.000000 0.499794
vn -0.999989 0.000000 -0.004612
vn 1.000000 0.000000 -0.000000
vn 1.000000 0.000000 -0.000000
vn 1.000000 0.000000 0.000000
vn 1.000000 0.000000 0.000000
vn 0.000000 0.000000 -1.000000
vn 0.000000 0.000000 -1.000000
vn 0.000000 0.000000 -1.000000
vn 0.000000 0.000000 -1.000000
vn 0.009865 -0.999951 -0.000303
vn 0.418161 -0.908282 -0.012859
vn 0.418161 -0.908282 -0.012859
vn 0.005441 -0.999985 -0.000167
vn 0.854532 -0.040885 0.517787
vn 0.955572 -0.098694 -0.277743
vn 0.995565 -0.031873 -0.088510
vn 0.997896 -0.030999 0.056936
vn 0.000000 -1.000000 0.000000
vn 0.000000 -1.000000 0.000000
vn 0.000000 -1.000000 0.000000
vn 0.000000 -1.000000 0.000000
vn 0.000000 -1.000000 0.000000
vn 0.000000 -1.000000 0.000000
vn 0.020032 0.000000 0.999799
vn 0.020032 0.000000 0.999799
vn 0.020032 0.000000 0.999799
vn 0.020032 0.000000 0.999799
vn 0.000000 0.000000 -1.000000
vn 0.024113 0.000000 -0.999709
vn 0.018696 0.000000 -0.999825
vn 0.683267 -0.124645 0.719451
vn 0.656495 -0.155304 0.738170
vn 0.660850 -0.148481 0.735684
vn 0.690751 -0.113177 0.714181
vn 0.875953 -0.001063 0.482395
vn 0.999016 -0.000125 0.044354
vn 0.000000 1.000000 -0.000000
vn 0.000000 1.000000 -0.000000
vn 0.000000 0.000000 -1.000000
vn 0.000000 0.000000 -1.000000
vn 0.382681 0.000000 -0.923881
vn 0.382680 0.000000 -0.923881
vn 0.024131 0.000000 -0.999709
vn 0.923880 0.000000 -0.382683
vn 0.997541 0.000000 -0.070083
vn 0.000000 -1.000000 -0.000000
vn 0.000000 -1.000000 0.000000
vn 0.875862 0.000979 0.482562
vn 0.999015 0.000115 0.044378
vn 0.997961 0.027865 0.057426
vn 0.851572 0.037022 0.522929
vn 0.689393 0.104262 0.716845
vn 0.662268 0.133700 0.737242
vn 1.000000 0.000000 -0.000000
vn 1.000000 0.000000 -0.000000
vn 1.000000 0.000000 -0.000000
vn 1.000000 0.000000 -0.000000
vn 0.682411 0.114217 0.721991
vn 0.658024 0.139891 0.739889
vn 0.020033 0.000000 0.999799
vn 0.020033 0.000000 0.999799
vn 0.000000 1.000000 0.000000
vn 0.000000 1.000000 0.000000
vn 0.418161 0.908282 -0.012859
vn 0.418161 0.908282 -0.012859
vn 0.009865 0.999951 -0.000303
vn 0.005441 0.999985 -0.000167
vn -0.866144 0.000000 0.499794
vn -0.866144 0.000000 0.499794
vn -0.866144 0.000000 0.499794
vn -0.866144 0.000000 0.499794
vn 0.995612 0.028667 -0.089077
vn 0.953813 0.090921 -0.286312
vn -0.904275 -0.426950 -0.000000
vn -0.904275 -0.426950 -0.000000
vn -0.904275 -0.426950 -0.000000
vn -0.904275 -0.426950 -0.000000
vn 0.382678 0.000000 -0.923882
vn 0.923880 0.000000 -0.382682
vn 0.997551 0.000000 -0.069946
vn 0.018720 0.000000 -0.999825
vn 0.000000 -1.000000 -0.000000
vn 0.000000 -1.000000 0.000000
vn 0.000000 1.000000 -0.000000
vn 0.000000 1.000000 -0.000000
vn 0.000000 1.000000 -0.000000
vn 0.000000 1.000000 -0.000000
vn 0.445939 0.105274 -0.888851
vn 0.453658 0.079528 -0.887621
vn 0.452473 0.083555 -0.887855
vn 0.445939 0.105274 -0.888851
vn 0.000000 -1.000000 0.000000
vn 0.000000 -1.000000 0.000000
vn 0.000000 -1.000000 0.000000
vn 0.000000 1.000000 -0.000000
vn 0.000000 1.000000 0.000000
vn 0.000000 -1.000000 -0.000000
vn 0.000000 -1.000000 -0.000000
vn 0.000000 -1.000000 0.000000
vn 0.000000 -1.000000 0.000000
vn 1.000000 0.000000 -0.000000
vn -1.000000 -0.000001 -0.000000
vn -1.000000 -0.000001 -0.000000
vn -1.000000 -0.000001 -0.000000
vn -1.000000 -0.000001 -0.000000
vn 0.000000 1.000000 0.000000
vn 0.000000 1.000000 0.000000
vn 0.020033 0.000000 0.999799
vn 0.020033 0.000000 0.999799
vn 0.382678 0.000000 -0.923882
vn 0.452345 -0.076487 -0.888557
vn 0.453354 -0.073334 -0.888309
vn 0.446415 -0.094707 -0.889800
vn 0.446415 -0.094707 -0.889800
vn 1.000000 0.000000 -0.000000
vn -0.866144 0.000000 0.499794
vn -0.866144 0.000000 0.499794
vn 0.057823 0.000000 0.998327
vn 0.053646 0.000000 0.998560
vn -0.920563 0.390594 -0.000000
vn -0.920563 0.390594 -0.000000
vn -0.920563 0.390594 -0.000000
vn -0.920563 0.390594 -0.000000
vn 0.904655 -0.426146 -0.000000
vn 0.904655 -0.426146 -0.000000
vn 0.904655 -0.426146 -0.000000
vn 0.904655 -0.426146 -0.000000
vn 0.000000 0.000000 1.000000
vn 0.000000 0.000000 1.000000
vn 0.000000 0.000000 1.000000
vn 1.000000 0.000002 0.000000
vn 1.000000 0.000002 0.000000
vn 1.000000 0.000002 0.000000
vn 1.000000 0.000002 0.000000
vn 0.000000 0.000000 1.000000
vn 0.000000 1.000000 -0.000000
vn 0.000000 1.000000 -0.000000
vn 0.000000 1.000000 0.000000
vn 0.000000 1.000000 0.000000
vn 0.920886 0.389832 0.000000
vn 0.920886 0.389832 0.000000
vn 0.920886 0.389832 0.000000
vn 0.920886 0.389832 0.000000
vn 0.661004 -0.148615 -0.735518
vn 0.656596 -0.155515 -0.738035
vn 0.683377 -0.124781 -0.719323
vn 0.690953 -0.113158 -0.713988
vn 0.000000 0.000000 1.000000
vn 0.000000 0.000000 1.000000
vn 0.000000 -1.000000 0.000000
vn 0.000000 -1.000000 0.000000
vn -0.904276 -0.426949 0.000000
vn -0.904276 -0.426949 0.000000
vn -0.904276 -0.426949 0.000000
vn -0.904276 -0.426949 0.000000
vn 0.007113 -0.999975 0.000332
vn 0.004167 -0.999991 0.000194
vn 0.417338 -0.908543 0.019477
vn 0.417338 -0.908543 0.019477
vn 0.834980 -0.019717 -0.549927
vn 0.992066 -0.027374 -0.122700
vn 0.980646 -0.030305 0.193430
vn 0.942109 -0.049313 0.331661
vn 0.875817 -0.001631 -0.482640
vn 0.000000 -1.000000 0.000000
vn 0.000000 -1.000000 0.000000
vn 0.000000 -1.000000 0.000000
vn 0.994238 -0.000541 -0.107195
vn -1.000000 -0.000001 0.000000
vn -1.000000 -0.000001 0.000000
vn -1.000000 -0.000001 0.000000
vn -1.000000 -0.000001 0.000000
vn 0.682411 0.114216 -0.721991
vn 0.658024 0.139890 -0.739889
vn 0.662268 0.133699 -0.737242
vn 0.689393 0.104262 -0.716845
vn 0.833949 0.017215 -0.551573
vn 0.875861 0.000978 -0.482563
vn 0.992144 0.024751 -0.122632
vn 0.994405 0.000273 -0.105633
vn 0.000000 0.000000 1.000000
vn 0.000000 0.000000 1.000000
vn -0.920563 0.390594 0.000000
vn -0.920563 0.390594 0.000000
vn -0.920563 0.390594 0.000000
vn -0.920563 0.390594 0.000000
vn 0.980982 0.026259 0.192315
vn 0.940239 0.044544 0.337590
vn 0.415955 0.909078 0.023630
vn 0.004127 0.999992 0.000234
vn 0.006873 0.999976 0.000390
vn 0.415955 0.909078 0.023630
vn 0.904655 -0.426145 0.000000
vn 0.904655 -0.426145 0.000000
vn 0.904655 -0.426145 0.000000
vn 0.904655 -0.426145 0.000000
vn 0.000000 0.000000 1.000000
vn 0.000000 1.000000 0.000000
vn 0.000000 1.000000 -0.000000
vn 1.000000 0.000000 0.000000
vn 1.000000 0.000000 0.000000
vn 1.000000 0.000000 0.000000
vn 1.000000 0.000000 0.000000
vn 0.000000 -1.000000 0.000000
vn 0.000000 0.000000 1.000000
vn 0.000000 1.000000 -0.000000
vn 0.000000 1.000000 -0.000000
vn 0.000000 1.000000 -0.000000
vn 0.920886 0.389832 0.000000
vn 0.920886 0.389832 0.000000
vn 0.920886 0.389832 0.000000
vn 0.920886 0.389832 0.000000
vn 0.000000 0.000000 1.000000
vn 0.000000 0.000000 1.000000
vn 0.000000 0.000000 1.000000
vn 0.018696 0.000000 0.999825
vn 0.024113 0.000000 0.999709
vn 0.000000 0.000000 1.000000
vn 0.000000 1.000000 0.000000
vn 0.986053 0.000000 0.166432
vn 0.382681 0.000000 0.923881
vn 0.382680 0.000000 0.923881
vn 0.923880 0.000000 0.382683
vn 0.024131 0.000000 0.999709
vn 0.986273 0.000000 0.165123
vn 0.382681 0.000000 0.923881
vn 0.923880 0.000000 0.382682
vn 0.018721 0.000000 0.999825
vn 0.382681 0.000000 0.923880
vn 0.000000 -1.000000 0.000000
vn 0.000000 -1.000000 -0.000000
vn 0.000000 -1.000000 -0.000000
vn 0.020033 0.000000 0.999799
vn 0.020033 0.000000 0.999799
vn 0.000000 -1.000000 0.000000
vn 0.000000 -1.000000 -0.000000
vn 0.000000 0.000000 -1.000000
vn 1.000000 0.000000 0.000000
vn 0.000000 1.000000 0.000000
vn 0.000000 1.000000 -0.000000
vn 0.000000 0.000000 1.000000
vn 0.000000 0.000000 1.000000
vn 0.000000 1.000000 -0.000000
vn 0.000000 -1.000000 -0.000000
vn 0.000000 -1.000000 -0.000000
vn 0.000000 1.000000 0.000000
vn 0.000000 1.000000 0.000000
vn 1.000000 0.000000 0.000000
vn -0.999989 0.000000 -0.004612
vn -0.999989 0.000000 -0.004612
vn 0.000000 0.000000 -1.000000
vn 0.000000 0.000000 -1.000000
vn 0.000000 1.000000 -0.000000
vn 0.020033 0.000000 0.999799
vn 0.020033 0.000000 0.999799
vn 0.000000 -1.000000 0.000000
vn 0.000000 -1.000000 0.000000
vn 0.000000 0.000000 1.000000
vn 0.000000 0.000000 1.000000
vn 0.000000 -1.000000 0.000000
vn 0.000000 0.000000 -1.000000
vn 0.000000 1.000000 0.000000
vn 0.000000 1.000000 0.000000
vn 0.000000 1.000000 0.000000
vn 0.020033 0.000000 0.999799
vn 0.020033 0.000000 0.999799
vn 0.000000 -1.000000 0.000000
vn 0.000000 -1.000000 0.000000
vn 0.000000 -1.000000 -0.000000
vn 0.000000 -1.000000 0.000000
vn 0.000000 -1.000000 0.000000
vn 0.000000 0.000000 -1.000000
vn 0.000000 1.000000 0.000000
vn 0.000000 1.000000 0.000000
vn 0.000000 1.000000 0.000000
vn 0.000000 1.000000 0.000000
vn 0.000000 -1.000000 -0.000000
vn 0.000000 -1.000000 -0.000000
vn 0.000000 -1.000000 -0.000000
vn -0.929828 0.000000 -0.367995
vn -0.929828 0.000000 -0.367995
vn 0.020033 0.000000 0.999799
vn 0.020033 0.000000 0.999799
vn 0.000000 -1.000000 -0.000000
vn 0.000000 1.000000 0.000000
vn 0.000000 1.000000 -0.000000
vn 0.000000 1.000000 0.000000
vn 0.000000 1.000000 0.000000
vn 0.000000 1.000000 -0.000000
vn 0.000000 0.000000 -1.000000
vn -0.014971 0.000000 -0.999888
vn 0.000000 -1.000000 0.000000
vn 0.000000 -1.000000 -0.000000
vn 0.000000 -1.000000 -0.000000
vn 0.020033 0.000000 0.999799
vn 0.020033 0.000000 0.999799
vn 0.000000 -1.000000 -0.000000
vn 0.000000 -1.000000 0.000000
vn -0.929828 0.000000 -0.367995
vn -0.929828 0.000000 -0.367995
vn 0.000000 1.000000 -0.000000
vn 0.000000 1.000000 0.000000
vn -0.016139 0.000000 -0.999870
vn -0.929828 0.000000 -0.367995
vn -0.929828 0.000000 -0.367995
vn 0.000000 1.000000 0.000000
vn 0.000000 1.000000 0.000000
vn 0.000000 -1.000000 0.000000
vn 0.000000 -1.000000 0.000000
vn 0.020033 0.000000 0.999799
vn 0.020033 0.000000 0.999799
vn 0.000000 -1.000000 -0.000000
vn 0.000000 -1.000000 -0.000000
vn 0.000000 1.000000 -0.000000
vn 0.000000 -1.000000 0.000000
vn 0.000000 0.000000 -1.000000
vn 0.000000 1.000000 -0.000000
vn 0.000000 -1.000000 0.000000
vn 0.000000 1.000000 0.000000
vn 0.000000 1.000000 0.000000
vn 0.000000 1.000000 -0.000000
vn 0.000000 1.000000 0.000000
vn 0.000000 -1.000000 0.000000
vn 0.020032 0.000000 0.999799
vn 0.020032 0.000000 0.999799
vn 0.000000 -1.000000 -0.000000
vn 0.000000 -1.000000 -0.000000
vn 0.000000 1.000000 0.000000
vn 0.000000 -1.000000 -0.000000
vn 0.000000 -1.000000 -0.000000
vn 0.000000 1.000000 0.000000
vn -0.929828 0.000000 -0.367995
vn -0.929828 0.000000 -0.367995
vn -0.230704 0.000000 -0.973024
vn -0.230704 0.000000 -0.973024
vn 0.000000 -1.000000 -0.000000
vn 0.000000 1.000000 -0.000000
vn 0.000000 -1.000000 0.000000
vn 0.000000 1.000000 -0.000000
vn 0.000000 1.000000 -0.000000
vn -0.230705 0.000000 -0.973024
vn -0.230705 0.000000 -0.973024
vn 0.000000 -1.000000 -0.000000
vn 0.000000 1.000000 0.000000
vn 0.000000 1.000000 0.000000
vn 0.000000 -1.000000 0.000000
vn 0.000000 -1.000000 0.000000
vn 0.020032 0.000000 0.999799
vn 0.020032 0.000000 0.999799
vn 0.000000 -1.000000 0.000000
vn 0.000000 -1.000000 -0.000000
vn -0.230705 0.000000 -0.973024
vn -0.230705 0.000000 -0.973024
vn 0.000000 1.000000 -0.000000
vn 0.000000 1.000000 0.000000
vn 0.000000 1.000000 -0.000000
vn 0.000000 1.000000 0.000000
vn 0.000000 1.000000 0.000000
vn 0.000000 -1.000000 0.000000
vn 0.000000 -1.000000 0.000000
vn 0.000000 -1.000000 -0.000000
vn 0.000000 -1.000000 0.000000
vn 0.020033 0.000000 0.999799
vn 0.020033 0.000000 0.999799
vn 0.000000 -1.000000 0.000000
vn -0.230705 0.000000 -0.973024
vn -0.230705 0.000000 -0.973024
vn 0.000000 1.000000 -0.000000
vn 0.000000 1.000000 0.000000
vn 0.000000 1.000000 0.000000
vn 0.000000 1.000000 0.000000
vn 0.000000 1.000000 0.000000
vn 0.000000 -1.000000 0.000000
vn 0.000000 -1.000000 -0.000000
vn 0.000000 -1.000000 0.000000
vn 0.020033 0.000000 0.999799
vn 0.020033 0.000000 0.999799
vn 0.000000 -1.000000 0.000000
vn 0.000000 -1.000000 -0.000000
vn -0.230705 0.000000 -0.973024
vn -0.230705 0.000000 -0.973024
vn 0.000000 1.000000 -0.000000
vn 0.000000 1.000000 0.000000
vn 0.000000 1.000000 0.000000
vn 0.000000 -1.000000 0.000000
vn 0.000000 1.000000 0.000000
vn 0.000000 1.000000 0.000000
vn 0.000000 -1.000000 0.000000
vn 0.000000 -1.000000 -0.000000
vn 0.020033 0.000000 0.999799
vn 0.020033 0.000000 0.999799
vn -0.230705 0.000000 -0.973024
vn -0.230705 0.000000 -0.973024
vn 0.000000 -1.000000 0.000000
vn 0.000000 -1.000000 -0.000000
vn 0.000000 1.000000 0.000000
vn 0.000000 1.000000 0.000000
vn 0.000000 1.000000 -0.000000
vn 0.000000 -1.000000 0.000000
vn 0.000000 -1.000000 0.000000
vn 0.000000 1.000000 -0.000000
vn 0.000000 1.000000 0.000000
vn -0.230705 0.000000 -0.973024
vn -0.230705 0.000000 -0.973024
vn 0.020033 0.000000 0.999799
vn 0.020033 0.000000 0.999799
vn 0.000000 -1.000000 0.000000
vn 0.000000 -1.000000 -0.000000
vn 0.000000 -1.000000 0.000000
vn 0.000000 1.000000 0.000000
vn 0.000000 1.000000 0.000000
vn 0.000000 1.000000 0.000000
vn 0.000000 1.000000 0.000000
vn 0.000000 1.000000 0.000000
vn 0.000000 -1.000000 -0.000000
vn 0.000000 -1.000000 -0.000000
vn 0.000000 -1.000000 0.000000
vn -0.230705 0.000000 -0.973024
vn -0.230705 0.000000 -0.973024
vn 0.020033 0.000000 0.999799
vn 0.020033 0.000000 0.999799
vn 0.000000 -1.000000 0.000000
vn 0.000000 -1.000000 0.000000
vn 0.000000 1.000000 -0.000000
vn 0.000000 1.000000 -0.000000
vn 0.000000 1.000000 -0.000000
vn 0.000000 1.000000 0.000000
vn 0.000000 1.000000 0.000000
vn 0.000000 -1.000000 0.000000
vn 0.000000 -1.000000 0.000000
vn 0.000000 -1.000000 0.000000
vn 0.000000 1.000000 0.000000
vn 0.000000 1.000000 -0.000000
vn 0.000000 1.000000 0.000000
vn 0.000000 -1.000000 0.000000
vn 0.000000 -1.000000 0.000000
vn 0.000000 -1.000000 0.000000
vn -0.230705 0.000000 -0.973024
vn -0.230705 0.000000 -0.973024
vn 0.020032 0.000000 0.999799
vn 0.020032 0.000000 0.999799
vn 0.000000 -1.000000 0.000000
vn 0.000000 -1.000000 -0.000000
vn 0.000000 1.000000 -0.000000
vn 0.000000 1.000000 0.000000
vn 0.000000 1.000000 0.000000
vn 0.000000 -1.000000 0.000000
vn 0.000000 1.000000 -0.000000
vn 0.000000 1.000000 0.000000
vn 0.000000 -1.000000 0.000000
vn 0.000000 -1.000000 0.000000
vn -0.230705 0.000000 -0.973024
vn -0.230705 0.000000 -0.973024
vn 0.020032 0.000000 0.999799
vn 0.020032 0.000000 0.999799
vn 0.000000 1.000000 0.000000
vn 0.000000 -1.000000 0.000000
vn 0.000000 -1.000000 -0.000000
vn 0.000000 1.000000 0.000000
vn 0.000000 1.000000 0.000000
vn 0.000000 -1.000000 0.000000
vn 0.000000 1.000000 0.000000
vn 0.000000 1.000000 0.000000
vn -0.230705 0.000000 -0.973024
vn -0.230705 0.000000 -0.973024
vn 0.000000 -1.000000 0.000000
vn 0.000000 -1.000000 0.000000
vn 0.020033 0.000000 0.999799
vn 0.020033 0.000000 0.999799
vn 0.000000 1.000000 0.000000
vn 0.000000 -1.000000 0.000000
vn 0.000000 -1.000000 0.000000
vn 0.000000 1.000000 -0.000000
vn 0.000000 1.000000 -0.000000
vn 0.000000 -1.000000 0.000000
vn 0.000000 1.000000 -0.000000
vn 0.000000 1.000000 -0.000000
vn -0.230705 0.000000 -0.973024
vn -0.230705 0.000000 -0.973024
vn 0.000000 -1.000000 -0.000000
vn 0.000000 -1.000000 0.000000
vn 0.020033 0.000000 0.999799
vn 0.020033 0.000000 0.999799
vn 0.000000 1.000000 0.000000
vn 0.000000 -1.000000 0.000000
vn 0.000000 -1.000000 0.000000
vn 0.000000 1.000000 0.000000
vn 0.000000 1.000000 -0.000000
vn 0.000000 -1.000000 0.000000
vn 0.000000 1.000000 -0.000000
vn 0.000000 1.000000 -0.000000
vn 0.000000 -1.000000 -0.000000
vn 0.000000 -1.000000 -0.000000
vn -0.230705 0.000000 -0.973024
vn -0.230705 0.000000 -0.973024
vn 0.020032 0.000000 0.999799
vn 0.020032 0.000000 0.999799
vn 0.000000 1.000000 0.000000
vn 0.000000 -1.000000 0.000000
vn 0.000000 -1.000000 -0.000000
vn 0.000000 1.000000 0.000000
vn 0.000000 1.000000 0.000000
vn 0.000000 -1.000000 0.000000
vn 0.000000 1.000000 -0.000000
vn 0.000000 1.000000 -0.000000
vn 0.000000 -1.000000 0.000000
vn 0.000000 -1.000000 0.000000
vn -0.230704 0.000000 -0.973024
vn -0.230704 0.000000 -0.973024
vn 0.020032 0.000000 0.999799
vn 0.020032 0.000000 0.999799
vn 0.000000 1.000000 0.000000
vn 0.000000 -1.000000 0.000000
vn 0.000000 -1.000000 -0.000000
vn 0.000000 1.000000 -0.000000
vn 0.000000 1.000000 0.000000
vn 0.000000 -1.000000 -0.000000
vn 0.000000 -1.000000 -0.000000
vn 0.000000 1.000000 -0.000000
vn 0.000000 1.000000 0.000000
vn -0.230704 0.000000 -0.973024
vn -0.230704 0.000000 -0.973024
vn 0.000000 -1.000000 0.000000
vn 0.000000 1.000000 0.000000
vn -0.100962 0.000000 0.994890
vn -0.100962 0.000000 0.994890
vn 0.000000 1.000000 -0.000000
vn 0.000000 -1.000000 0.000000
vn 0.000000 -1.000000 0.000000
vn 0.000000 1.000000 0.000000
vn 0.000000 -1.000000 -0.000000
vn 0.000000 -1.000000 -0.000000
vn -0.230705 0.000000 -0.973024
vn -0.230705 0.000000 -0.973024
vn 0.000000 -1.000000 0.000000
vn 0.000000 1.000000 0.000000
vn 0.000000 1.000000 -0.000000
vn 0.000000 1.000000 -0.000000
vn 0.000000 1.000000 -0.000000
vn 0.000000 1.000000 -0.000000
vn 0.000000 -1.000000 0.000000
vn 0.020033 0.000000 0.999799
vn 0.020033 0.000000 0.999799
vn 0.000000 -1.000000 0.000000
vn 0.000000 -1.000000 0.000000
vn 0.000000 -1.000000 0.000000
vn -0.230704 0.000000 -0.973024
vn -0.230704 0.000000 -0.973024
vn 0.000000 -1.000000 0.000000
vn 0.000000 1.000000 0.000000
vn 0.000000 1.000000 0.000000
vn 0.000000 1.000000 -0.000000
vn 0.000000 1.000000 -0.000000
vn -0.599692 0.000000 0.800231
vn -0.599692 0.000000 0.800231
vn 0.000000 -1.000000 -0.000000
vn 0.000000 -1.000000 0.000000
vn 0.000000 -1.000000 0.000000
vn 0.000000 -1.000000 0.000000
vn -0.230705 0.000000 -0.973024
vn -0.230705 0.000000 -0.973024
vn 0.000000 1.000000 -0.000000
vn 0.000000 1.000000 -0.000000
vn 0.000000 1.000000 0.000000
vn 0.000000 1.000000 0.000000
vn 0.000000 -1.000000 0.000000
vn 0.000000 -1.000000 -0.000000
vn 0.000000 -1.000000 0.000000
vn -0.809016 0.000000 -0.587787
vn -0.587785 0.000000 -0.809017
vn -0.587785 0.000000 -0.809017
vn -0.809016 0.000000 -0.587787
vn 0.000000 -1.000000 0.000000
vn -0.230705 0.000000 -0.973024
vn -0.230705 0.000000 -0.973024
vn -0.951056 0.000000 -0.309017
vn -0.951056 0.000000 -0.309017
vn -0.309017 0.000000 -0.951057
vn -0.309017 0.000000 -0.951057
vn -0.990224 0.000000 0.139487
vn -0.992543 0.000000 0.121892
vn -0.992543 0.000000 0.121892
vn -0.990224 0.000000 0.139487
vn 0.000000 1.000000 -0.000000
vn 0.000000 1.000000 0.000000
vn 0.000000 -1.000000 0.000000
vn -0.000000 0.000000 -1.000000
vn 0.309017 0.000000 -0.951057
vn 0.309017 0.000000 -0.951057
vn -0.000000 0.000000 -1.000000
vn -0.951056 0.000000 0.309017
vn -1.000000 0.000000 -0.000000
vn -1.000000 0.000000 -0.000000
vn -0.951056 0.000000 0.309017
vn 0.000000 -1.000000 0.000000
vn -0.230705 0.000000 -0.973024
vn -0.230705 0.000000 -0.973024
vn 0.000000 1.000000 -0.000000
vn 0.000000 1.000000 0.000000
vn 0.587785 0.000000 -0.809017
vn 0.587785 0.000000 -0.809017
vn -0.809018 0.000000 0.587783
vn -0.809018 0.000000 0.587783
vn 0.000000 -1.000000 0.000000
vn 0.000000 -1.000000 0.000000
vn 0.809016 0.000000 -0.587787
vn 0.809016 0.000000 -0.587787
vn -0.587785 0.000000 0.809017
vn -0.587785 0.000000 0.809017
vn 0.000000 1.000000 -0.000000
vn -0.230704 0.000000 -0.973024
vn -0.230704 0.000000 -0.973024
vn 0.000000 1.000000 0.000000
vn -0.309016 0.000000 0.951057
vn -0.309016 0.000000 0.951057
vn 0.000000 -1.000000 -0.000000
vn -0.993278 0.000000 0.115754
vn -0.993278 0.000000 0.115754
vn 0.000000 -1.000000 0.000000
vn 0.951056 0.000000 -0.309017
vn 1.000000 0.000000 0.000000
vn 1.000000 0.000000 0.000000
vn 0.951056 0.000000 -0.309017
vn -0.230704 0.000000 -0.973024
vn -0.230704 0.000000 -0.973024
vn 0.000000 1.000000 0.000000
vn 0.000000 1.000000 0.000000
vn 0.951056 0.000001 0.309017
vn 0.951056 0.000001 0.309017
vn 0.309018 0.000000 0.951056
vn -0.000000 0.000000 1.000000
vn -0.000000 0.000000 1.000000
vn 0.309018 0.000000 0.951056
vn 0.587786 0.000000 0.809017
vn 0.587786 0.000000 0.809017
vn 0.809016 0.000001 0.587787
vn 0.809016 0.000001 0.587787
vn 0.000000 -1.000000 0.000000
vn 0.000000 -1.000000 0.000000
vn -0.230704 0.000000 -0.973024
vn -0.230704 0.000000 -0.973024
vn 0.000000 1.000000 -0.000000
vn 0.000000 1.000000 -0.000000
vn 0.000000 1.000000 0.000000
vn 0.000000 1.000000 0.000000
vn 0.000000 -1.000000 0.000000
vn 0.000000 -1.000000 0.000000
vn 0.000000 -1.000000 -0.000000
vn 0.000000 -1.000000 -0.000000
vn -0.999824 0.000000 0.018769
vn -0.999824 0.000000 0.018769
vn -0.230704 0.000000 -0.973024
vn -0.230704 0.000000 -0.973024
vn 0.000000 1.000000 -0.000000
vn 0.000000 -1.000000 0.000000
vn 0.000000 1.000000 0.000000
vn -0.230704 0.000000 -0.973024
vn -0.230704 0.000000 -0.973024
vn 0.000000 -1.000000 0.000000
vn -0.998938 0.000000 -0.046075
vn -0.998938 0.000000 -0.046075
vn -0.230704 0.000000 -0.973024
vn -0.230704 0.000000 -0.973024
vn -0.156434 0.000000 -0.987688
vn -0.156434 0.000000 -0.987688
vn -0.987689 0.000000 -0.156433
vn -0.987689 0.000000 -0.156433
vn -0.156435 0.000000 0.987688
vn -0.156435 0.000000 0.987688
vn 0.891006 0.000001 0.453992
vn 0.891006 0.000001 0.453992
vn 0.891006 0.000000 -0.453993
vn 0.891006 0.000000 -0.453993
vn 0.891006 0.000000 -0.453993
vn 0.891006 0.000000 -0.453993
vn 0.000000 1.000000 0.000000
vn 0.000000 1.000000 0.000000
vn 0.000000 1.000000 0.000000
vn 0.000000 1.000000 0.000000
vn 0.000000 1.000000 0.000000
vn 0.000000 1.000000 0.000000
vn 0.000000 -1.000000 0.000000
vn 0.000000 -1.000000 0.000000
vn 0.000000 -1.000000 0.000000
vn 0.000000 -1.000000 0.000000
vn 0.000000 -1.000000 0.000000
vn 0.000000 -1.000000 0.000000
vn 0.000000 1.000000 -0.000000
vn 0.000000 1.000000 -0.000000
vn 0.000000 1.000000 -0.000000
vn 0.000000 1.000000 -0.000000
vn 0.000000 1.000000 -0.000000
vn 0.000000 1.000000 -0.000000
vn 0.000000 -1.000000 0.000000
vn 0.000000 -1.000000 0.000000
vn 0.000000 -1.000000 0.000000
vn 0.000000 -1.000000 0.000000
vn 0.000000 -1.000000 0.000000
vn 0.000000 -1.000000 0.000000
vn 0.000000 1.000000 0.000000
vn 0.000000 1.000000 0.000000
vn 0.000000 1.000000 0.000000
vn 0.000000 1.000000 0.000000
vn 0.000000 -1.000000 0.000000
vn 0.000000 -1.000000 0.000000
vn 0.000000 -1.000000 0.000000
vn 0.000000 -1.000000 0.000000
vn 0.000000 1.000000 0.000000
vn 0.000000 1.000000 0.000000
vn 0.000000 1.000000 0.000000
vn 0.000000 -1.000000 0.000000
vn 0.000000 -1.000000 0.000000
vn 0.000000 -1.000000 0.000000
vn 0.000000 1.000000 0.000000
vn 0.000000 1.000000 0.000000
vn 0.000000 1.000000 0.000000
vn 0.000000 1.000000 0.000000
vn 0.000000 1.000000 0.000000
vn 0.000000 -1.000000 0.000000
vn 0.000000 -1.000000 0.000000
vn 0.000000 -1.000000 0.000000
vn 0.000000 -1.000000 0.000000
vn 0.000000 -1.000000 0.000000
s 1
g pCube2
usemtl initialShadingGroup
f 1/521/1 2/522/2 3/523/3 4/524/4
s 2
f 5/145/5 1/146/6 4/147/7 6/148/8
s 3
f 7/173/9 8/174/10 9/175/11 10/176/12
s 4
f 11/1/13 12/2/14 13/3/15 14/4/16
s 5
f 15/11/17 16/12/18 2/13/19 1/14/20
s 6
f 17/529/21 18/530/22 19/531/23 20/532/24
s 7
f 22/333/25 23/334/26 21/335/27 25/336/28
s 8
f 21/23/29 23/24/30 24/25/31 30/26/32
s 9
f 26/361/33 27/362/34 28/363/35 29/364/36
s 7
f 31/337/37 32/338/38 22/333/25 25/336/28
s 10
f 28/605/39 7/606/40 10/607/41 33/608/42
s 6
f 32/540/43 20/532/24 34/538/44 22/548/45
s 8
f 35/40/46 31/41/47 25/35/48 36/34/49
f 36/34/49 25/35/48 21/23/29 37/30/50
f 37/30/50 21/23/29 30/26/32 40/29/51
s 3
f 38/177/52 39/178/53 8/174/10 7/173/9
s 6
f 18/530/22 6/535/54 41/536/55 19/531/23
f 23/554/56 22/548/45 34/538/44 42/546/57
f 20/532/24 19/531/23 43/537/58 34/538/44
s 8
f 24/25/31 23/24/30 42/27/59 44/28/60
s 9
f 45/365/61 46/366/62 27/362/34 26/361/33
s 8
f 49/36/63 47/33/64 48/39/65 50/43/66
f 51/42/67 49/36/63 50/43/66 56/47/68
s 5
f 52/19/69 53/22/70 54/20/71 55/17/72
s 8
f 57/46/73 51/42/67 56/47/68 60/51/74
f 40/29/51 30/26/32 24/25/31 44/28/60
s 10
f 27/609/75 38/610/76 7/606/40 28/605/39
s 3
f 58/183/77 59/184/78 39/178/53 38/177/52
s 2
f 50/163/79 62/164/80 61/158/81 56/157/82
s 14
f 63/75/83 64/76/84 65/77/85 66/78/86
s 8
f 67/38/87 62/37/88 50/43/66 48/39/65
s off
f 68/85/89 69/86/90 70/87/91 71/88/92
s 6
f 42/546/57 34/538/44 43/537/58 72/547/93
s 8
f 44/28/60 42/27/59 72/31/94 73/32/95
s 6
f 19/531/23 41/536/55 61/545/96 43/537/58
s 9
f 66/371/97 65/372/98 46/366/62 45/365/61
s 2
f 13/159/99 74/160/100 15/154/101 14/153/102
s 16
f 53/679/103 52/680/104 75/681/105 82/682/106
s 7
f 69/339/107 31/337/37 76/343/108 70/344/109
s 2
f 6/148/8 4/147/7 60/151/110 41/152/111
s 7
f 63/354/112 53/353/113 77/355/114 64/358/115
s 8
f 47/33/64 40/29/51 44/28/60 73/32/95
s 5
f 78/16/116 52/19/69 55/17/72 16/12/18
s off
f 3/91/117 68/85/118 71/88/119 79/92/120
s 8
f 37/30/50 40/29/51 47/33/64 49/36/63
f 36/34/49 37/30/50 49/36/63 51/42/67
s 3
f 80/191/121 12/192/122 59/184/78 58/183/77
s 10
f 46/613/123 58/614/124 38/610/76 27/609/75
s 8
f 57/46/73 35/40/46 36/34/49 51/42/67
s 6
f 72/547/93 43/537/58 61/545/96 62/553/125
s 8
f 73/32/95 72/31/94 62/37/88 67/38/87
s 16
f 81/684/126 78/683/127 74/685/128 87/686/129
s 8
f 48/39/65 47/33/64 73/32/95 67/38/87
s 5
f 74/15/130 78/16/116 16/12/18 15/11/17
s 2
f 41/152/111 60/151/110 56/157/82 61/158/81
s 4
f 12/2/14 80/5/131 83/6/132 13/3/15
s 10
f 65/617/133 80/618/134 58/614/124 46/613/123
s off
f 4/94/135 3/91/136 79/92/137 84/95/138
f 31/41/139 35/40/140 85/44/141 76/45/142
s 10
f 64/625/143 77/626/144 86/621/145 65/617/133
s off
f 35/40/146 57/46/147 88/48/148 85/44/149
s 10
f 65/617/133 86/621/145 89/622/150 80/618/134
s 2
f 60/151/110 4/147/7 84/155/151 90/156/152
f 83/165/153 91/166/154 74/160/100 13/159/99
s off
f 57/46/155 60/51/156 90/52/157 88/48/158
s 19
f 94/54/159 92/50/160 93/49/161 98/55/162
s 10
f 80/618/134 89/622/150 91/629/163 83/630/164
s 16
f 52/680/104 78/683/127 81/684/126 75/681/105
s 7
f 77/355/114 53/353/113 82/348/165 95/351/166
s off
f 82/89/167 75/90/168 71/88/169 70/87/170
s 7
f 97/357/171 94/356/172 96/359/173 99/360/174
s 19
f 96/58/175 100/62/176 101/66/177 99/67/178
f 96/58/175 94/54/159 98/55/162 102/59/179
s 7
f 92/347/180 82/348/165 70/344/181 76/343/182
s 19
f 100/62/176 96/58/175 102/59/179 103/63/183
s off
f 75/90/184 81/93/185 79/92/186 71/88/187
s 19
f 106/53/188 104/56/189 105/60/190 107/57/191
f 109/64/192 108/61/193 107/57/191 105/60/190
f 111/69/194 110/65/195 108/61/193 109/64/192
s 10
f 86/621/145 77/626/144 95/633/196 112/627/197
s off
f 81/93/198 87/96/199 84/95/200 79/92/201
s 19
f 113/72/202 111/69/194 109/64/192 115/73/203
s 2
f 109/171/204 105/170/205 114/169/206 115/172/207
s off
f 93/49/208 92/50/209 76/45/210 85/44/211
s 10
f 89/622/150 86/621/145 112/627/197 116/628/212
s 2
f 74/160/100 91/166/154 117/167/213 87/161/214
s off
f 106/53/215 93/49/216 85/44/217 88/48/218
s 7
f 95/351/166 82/348/165 92/347/180 118/352/219
s 10
f 91/629/163 89/622/150 116/628/212 117/636/220
s 2
f 87/161/214 104/162/221 90/156/222 84/155/223
s off
f 104/56/224 106/53/225 88/48/226 90/52/227
s 10
f 112/627/197 95/633/196 118/639/228 119/634/229
s 7
f 118/352/219 92/347/180 94/356/172 97/357/171
s 10
f 116/628/212 112/627/197 119/634/229 120/635/230
f 119/634/229 118/639/228 97/645/231 121/640/232
s 19
f 93/49/161 106/53/188 107/57/191 98/55/162
s 10
f 117/636/220 116/628/212 120/635/230 122/642/233
s 2
f 87/161/214 117/167/213 122/168/234 104/162/221
s 19
f 101/66/177 100/62/176 103/63/183 123/68/235
s 10
f 97/645/231 99/651/236 124/646/237 121/640/232
s 19
f 99/67/178 101/66/177 123/68/235 124/71/238
s 10
f 120/635/230 119/634/229 121/640/232 125/641/239
s 19
f 102/59/179 98/55/162 107/57/191 108/61/193
f 103/63/183 102/59/179 108/61/193 110/65/195
f 123/68/235 103/63/183 110/65/195 126/70/240
s 10
f 121/640/232 124/646/237 127/647/241 125/641/239
s 19
f 124/71/238 123/68/235 126/70/240 127/74/242
s 10
f 122/642/233 120/635/230 125/641/239 114/648/243
s 2
f 104/162/221 122/168/234 114/169/206 105/170/205
s 19
f 126/70/240 110/65/195 111/69/194 113/72/202
f 113/72/202 115/73/203 127/74/242 126/70/240
s 10
f 115/652/244 114/648/243 125/641/239 127/647/241
s 7
f 69/339/107 128/340/245 32/338/38 31/337/37
f 129/350/246 54/349/247 53/353/113 63/354/112
s 10
f 33/608/42 10/607/41 130/611/248 131/612/249
s 9
f 29/364/36 28/363/35 33/367/250 132/368/251
s 6
f 128/539/252 17/529/21 20/532/24 32/540/43
s 5
f 16/12/18 55/17/72 133/18/253 2/13/19
s 3
f 12/192/122 11/201/254 134/193/255 59/184/78
s 1
f 2/522/2 133/525/256 68/526/257 3/523/3
s 2
f 14/153/102 15/154/101 1/146/6 135/149/258
s 9
f 136/379/259 66/371/97 45/365/61 137/373/260
s 3
f 10/176/12 9/175/11 138/181/261 130/182/262
s 5
f 55/17/72 54/20/71 139/21/263 133/18/253
s 14
f 129/79/264 63/75/83 66/78/86 136/80/265
s 6
f 140/534/266 5/543/267 6/535/54 18/530/22
s 3
f 59/184/78 134/193/255 141/185/268 39/178/53
s 10
f 131/612/249 130/611/248 142/615/269 143/616/270
s 9
f 132/368/251 33/367/250 131/374/271 144/375/272
s 1
f 133/525/256 139/527/273 69/528/274 68/526/257
s 9
f 137/373/260 45/365/61 26/361/33 145/369/275
s 6
f 146/533/276 140/534/266 18/530/22 17/529/21
s 3
f 130/182/262 138/181/261 147/189/277 142/190/278
f 39/178/53 141/185/268 148/179/279 8/174/10
s 10
f 143/616/270 142/615/269 149/619/280 150/620/281
s 9
f 144/375/272 131/374/271 143/381/282 151/382/283
f 145/369/275 26/361/33 29/364/36 152/370/284
s 7
f 139/341/285 153/342/286 128/340/245 69/339/107
s 6
f 153/544/287 146/533/276 17/529/21 128/539/252
s 3
f 8/174/10 148/179/279 154/180/288 9/175/11
f 142/190/278 147/189/277 155/199/289 149/200/290
s 2
f 135/149/258 1/146/6 5/145/5 156/150/291
s 9
f 152/370/284 29/364/36 132/368/251 157/376/292
f 151/382/283 143/381/282 150/389/293 158/390/294
s 4
f 159/7/295 11/1/13 14/4/16 135/8/296
s 10
f 150/620/281 149/619/280 160/623/297 161/624/298
s 7
f 162/346/299 139/341/285 54/349/247 129/350/246
s 3
f 9/175/11 154/180/288 163/188/300 138/181/261
f 149/200/290 155/199/289 164/207/301 160/208/302
f 11/201/254 159/209/303 165/202/304 134/193/255
s 6
f 156/549/305 5/543/267 140/534/266 166/541/306
s 9
f 157/376/292 132/368/251 144/375/272 167/383/307
f 158/390/294 150/389/293 161/395/308 168/396/309
s 10
f 161/624/298 160/623/297 169/631/310 170/632/311
s 9
f 171/387/312 136/379/259 137/373/260 172/380/313
s 14
f 162/81/314 129/79/264 136/80/265 171/82/315
s 3
f 134/193/255 165/202/304 173/194/316 141/185/268
f 138/181/261 163/188/300 174/198/317 147/189/277
s 6
f 166/541/306 140/534/266 146/533/276 175/542/318
s 4
f 166/9/319 159/7/295 135/8/296 156/10/320
s 3
f 160/208/302 164/207/301 176/214/321 169/215/322
s 9
f 172/380/313 137/373/260 145/369/275 177/377/323
f 167/383/307 144/375/272 151/382/283 178/391/324
s 10
f 170/632/311 169/631/310 179/637/325 180/638/326
s 9
f 168/396/309 161/395/308 170/400/327 181/401/328
s 3
f 141/185/268 173/194/316 182/186/329 148/179/279
s 7
f 183/345/330 153/342/286 139/341/285 162/346/299
s 6
f 175/542/318 146/533/276 153/544/287 183/550/331
s 3
f 147/189/277 174/198/317 184/206/332 155/199/289
s 9
f 177/377/323 145/369/275 152/370/284 185/378/333
s 3
f 159/209/303 166/216/334 186/210/335 165/202/304
f 169/215/322 176/214/321 187/220/336 179/221/337
s 9
f 178/391/324 151/382/283 158/390/294 188/397/338
s 10
f 180/638/326 179/637/325 189/643/339 190/644/340
s 9
f 175/394/341 171/387/312 172/380/313 191/388/342
s 3
f 148/179/279 182/186/329 192/187/343 154/180/288
s 9
f 181/401/328 170/400/327 180/405/344 193/406/345
s 3
f 165/202/304 186/210/335 194/203/346 173/194/316
s 14
f 183/83/347 162/81/314 171/82/315 175/84/348
s 6
f 166/541/306 175/542/318 191/551/349 186/552/350
s 9
f 185/378/333 152/370/284 157/376/292 195/384/351
s 3
f 155/199/289 184/206/332 196/213/352 164/207/301
s 9
f 191/388/342 172/380/313 177/377/323 197/385/353
s 3
f 179/221/337 187/220/336 198/225/354 189/226/355
s 6
f 186/552/350 191/551/349 197/555/356 194/556/357
s 9
f 188/397/338 158/390/294 168/396/309 199/402/358
s 3
f 173/194/316 194/203/346 200/195/359 182/186/329
f 154/180/288 192/187/343 201/197/360 163/188/300
s 9
f 193/406/345 180/405/344 190/410/361 202/411/362
s 10
f 190/644/340 189/643/339 203/649/363 204/650/364
s 9
f 197/385/353 177/377/323 185/378/333 205/386/365
f 195/384/351 157/376/292 167/383/307 206/392/366
s 6
f 194/556/357 197/555/356 205/557/367 200/558/368
s 3
f 164/207/301 196/213/352 207/219/369 176/214/321
f 189/226/355 198/225/354 208/230/370 203/231/371
f 182/186/329 200/195/359 209/196/372 192/187/343
f 163/188/300 201/197/360 210/205/373 174/198/317
s 9
f 199/402/358 168/396/309 181/401/328 211/407/374
f 202/411/362 190/410/361 204/415/375 212/416/376
f 205/386/365 185/378/333 195/384/351 213/393/377
s 10
f 204/650/364 203/649/363 214/653/378 215/654/379
s 9
f 206/392/366 167/383/307 178/391/324 216/398/380
s 6
f 200/558/368 205/557/367 213/559/381 209/560/382
s 3
f 176/214/321 207/219/369 217/224/383 187/220/336
f 192/187/343 209/196/372 218/204/384 201/197/360
f 174/198/317 210/205/373 219/212/385 184/206/332
f 203/231/371 208/230/370 220/235/386 214/236/387
s 9
f 211/407/374 181/401/328 193/406/345 221/412/388
f 213/393/377 195/384/351 206/392/366 222/399/389
f 216/398/380 178/391/324 188/397/338 223/403/390
s 10
f 215/654/379 214/653/378 224/655/391 225/656/392
s 9
f 212/416/376 204/415/375 215/420/393 226/421/394
s 6
f 209/560/382 213/559/381 222/561/395 218/562/396
s 3
f 187/220/336 217/224/383 227/229/397 198/225/354
f 201/197/360 218/204/384 228/211/398 210/205/373
f 184/206/332 219/212/385 229/218/399 196/213/352
s 9
f 221/412/388 193/406/345 202/411/362 230/417/400
s 3
f 214/236/387 220/235/386 231/240/401 224/241/402
s 9
f 222/399/389 206/392/366 216/398/380 232/404/403
f 223/403/390 188/397/338 199/402/358 233/408/404
s 10
f 225/656/392 224/655/391 234/657/405 235/658/406
s 6
f 218/562/396 222/561/395 232/563/407 228/564/408
s 9
f 226/421/394 215/420/393 225/425/409 236/426/410
s 3
f 198/225/354 227/229/397 237/234/411 208/230/370
f 210/205/373 228/211/398 238/217/412 219/212/385
f 196/213/352 229/218/399 239/223/413 207/219/369
s 9
f 230/417/400 202/411/362 212/416/376 240/422/414
f 232/404/403 216/398/380 223/403/390 241/409/415
s 3
f 224/241/402 231/240/401 242/245/416 234/246/417
s 6
f 228/564/408 232/563/407 241/565/418 238/566/419
s 10
f 235/658/406 234/657/405 243/659/420 244/660/421
s 9
f 233/408/404 199/402/358 211/407/374 245/413/422
f 236/426/410 225/425/409 235/430/423 246/431/424
s 3
f 219/212/385 238/217/412 247/222/425 229/218/399
f 208/230/370 237/234/411 248/239/426 220/235/386
f 207/219/369 239/223/413 249/228/427 217/224/383
f 234/246/417 242/245/416 250/250/428 243/251/429
s 9
f 241/409/415 223/403/390 233/408/404 251/414/430
f 240/422/414 212/416/376 226/421/394 252/427/431
f 245/413/422 211/407/374 221/412/388 253/418/432
s 6
f 238/566/419 241/565/418 251/567/433 247/568/434
s 10
f 244/660/421 243/659/420 254/661/435 255/662/436
s 9
f 246/431/424 235/430/423 244/435/437 256/436/438
s 3
f 257/320/439 258/310/440 259/309/441
f 229/218/399 247/222/425 260/227/442 239/223/413
f 217/224/383 249/228/427 261/233/443 227/229/397
s 9
f 262/488/444 263/487/445 264/504/446
s 3
f 220/235/386 248/239/426 265/244/447 231/240/401
f 243/251/429 250/250/428 266/255/448 254/256/449
s 9
f 251/414/430 233/408/404 245/413/422 267/419/450
f 253/418/432 221/412/388 230/417/400 268/423/451
f 252/427/431 226/421/394 236/426/410 269/432/452
s 6
f 247/568/434 251/567/433 267/569/453 260/570/454
s 10
f 255/662/436 254/661/435 270/663/455 271/664/456
s 9
f 256/436/438 244/435/437 255/440/457 272/441/458
s 3
f 239/223/413 260/227/442 273/232/459 249/228/427
f 227/229/397 261/233/443 274/238/460 237/234/411
f 231/240/401 265/244/447 275/249/461 242/245/416
s 9
f 267/419/450 245/413/422 253/418/432 276/424/462
s 3
f 254/256/449 266/255/448 277/260/463 270/261/464
s 9
f 268/423/451 230/417/400 240/422/414 278/428/465
f 269/432/452 236/426/410 246/431/424 279/437/466
s 6
f 260/570/454 267/569/453 276/571/467 273/572/468
s 10
f 271/664/456 270/663/455 280/665/469 281/666/470
s 3
f 249/228/427 273/232/459 282/237/471 261/233/443
s 9
f 272/441/458 255/440/457 271/445/472 283/446/473
s 3
f 242/245/416 275/249/461 284/254/474 250/250/428
f 237/234/411 274/238/460 285/243/475 248/239/426
s 9
f 276/424/462 253/418/432 268/423/451 286/429/476
s 3
f 270/261/464 277/260/463 287/265/477 280/266/478
s 6
f 273/572/468 276/571/467 286/573/479 282/574/480
s 9
f 279/437/466 246/431/424 256/436/438 288/442/481
f 278/428/465 240/422/414 252/427/431 289/433/482
s 10
f 281/666/470 280/665/469 290/667/483 291/668/484
s 3
f 261/233/443 282/237/471 292/242/485 274/238/460
s 9
f 283/446/473 271/445/472 281/450/486 293/451/487
s 3
f 250/250/428 284/254/474 294/259/488 266/255/448
f 248/239/426 285/243/475 295/248/489 265/244/447
s 9
f 286/429/476 268/423/451 278/428/465 296/434/490
s 3
f 280/266/478 287/265/477 297/270/491 290/271/492
s 6
f 282/574/480 286/573/479 296/575/493 292/576/494
s 9
f 288/442/481 256/436/438 272/441/458 298/447/495
f 289/433/482 252/427/431 269/432/452 299/438/496
s 10
f 291/668/484 290/667/483 300/669/497 301/670/498
s 3
f 274/238/460 292/242/485 302/247/499 285/243/475
s 9
f 293/451/487 281/450/486 291/455/500 303/456/501
s 3
f 265/244/447 295/248/489 304/253/502 275/249/461
f 266/255/448 294/259/488 305/264/503 277/260/463
s 9
f 296/434/490 278/428/465 289/433/482 306/439/504
s 3
f 290/271/492 297/270/491 307/275/505 300/276/506
s 9
f 299/438/496 269/432/452 279/437/466 308/443/507
f 298/447/495 272/441/458 283/446/473 309/452/508
s 6
f 292/576/494 296/575/493 306/577/509 302/578/510
s 10
f 301/670/498 300/669/497 310/671/511 311/672/512
s 3
f 285/243/475 302/247/499 312/252/513 295/248/489
s 9
f 303/456/501 291/455/500 301/460/514 313/461/515
s 3
f 275/249/461 304/253/502 314/258/516 284/254/474
f 277/260/463 305/264/503 315/269/517 287/265/477
s 9
f 306/439/504 289/433/482 299/438/496 316/444/518
s 3
f 300/276/506 307/275/505 317/280/519 310/281/520
s 9
f 308/443/507 279/437/466 288/442/481 318/448/521
f 309/452/508 283/446/473 293/451/487 319/457/522
s 6
f 302/578/510 306/577/509 316/579/523 312/580/524
s 10
f 311/672/512 310/671/511 320/673/525 321/674/526
s 3
f 295/248/489 312/252/513 322/257/527 304/253/502
s 9
f 313/461/515 301/460/514 311/465/528 323/466/529
s 3
f 284/254/474 314/258/516 324/263/530 294/259/488
f 287/265/477 315/269/517 325/274/531 297/270/491
s 9
f 316/444/518 299/438/496 308/443/507 326/449/532
f 318/448/521 288/442/481 298/447/495 327/453/533
s 3
f 310/281/520 317/280/519 328/285/534 320/286/535
s 6
f 312/580/524 316/579/523 326/581/536 322/582/537
s 9
f 319/457/522 293/451/487 303/456/501 329/462/538
s 3
f 304/253/502 322/257/527 330/262/539 314/258/516
s 10
f 321/674/526 320/673/525 331/675/540 332/676/541
s 3
f 294/259/488 324/263/530 333/268/542 305/264/503
s 9
f 323/466/529 311/465/528 321/470/543 334/471/544
s 3
f 297/270/491 325/274/531 335/279/545 307/275/505
s 9
f 326/449/532 308/443/507 318/448/521 336/454/546
f 327/453/533 298/447/495 309/452/508 337/458/547
s 6
f 322/582/537 326/581/536 336/583/548 330/584/549
s 9
f 329/462/538 303/456/501 313/461/515 338/467/550
s 3
f 314/258/516 330/262/539 339/267/551 324/263/530
f 320/286/535 328/285/534 340/295/552 331/296/553
f 305/264/503 333/268/542 341/273/554 315/269/517
f 307/275/505 335/279/545 342/284/555 317/280/519
s 9
f 336/454/546 318/448/521 327/453/533 343/459/556
s 10
f 332/676/541 331/675/540 344/677/557 345/678/558
s 9
f 334/471/544 321/470/543 332/475/559 346/476/560
f 337/458/547 309/452/508 319/457/522 347/463/561
s 6
f 330/584/549 336/583/548 343/585/562 339/586/563
s 9
f 338/467/550 313/461/515 323/466/529 348/472/564
s 3
f 324/263/530 339/267/551 349/272/565 333/268/542
f 315/269/517 341/273/554 350/278/566 325/274/531
f 331/296/553 340/295/552 351/311/567 344/312/568
s 10
f 345/117/558 344/118/557 352/115/569 353/114/570
s 9
f 343/459/556 327/453/533 337/458/547 354/464/571
f 347/463/561 319/457/522 329/462/538 355/468/572
f 346/476/560 332/475/559 345/485/573 356/486/574
s 6
f 339/586/563 343/585/562 354/587/575 349/588/576
s 3
f 333/268/542 349/272/565 357/277/577 341/273/554
f 344/312/568 351/311/567 358/322/578 352/323/579
f 325/274/531 350/278/566 359/283/580 335/279/545
s 9
f 354/464/571 337/458/547 347/463/561 360/469/581
f 356/486/574 345/485/573 353/501/582 361/502/583
s 26
f 362/98/584 363/101/585 364/102/586 365/99/587
s 9
f 355/468/572 329/462/538 338/467/550 366/473/588
s 6
f 349/588/576 354/587/575 360/589/589 357/590/590
s 26
f 367/97/591 362/98/584 365/99/587 368/100/592
f 363/687/585 369/688/593 370/689/594 364/690/586
s 27
f 361/113/595 353/114/596 352/115/597 358/116/598
s 3
f 341/273/554 357/277/577 371/282/599 350/278/566
f 335/279/545 359/283/580 372/288/600 342/284/555
s 9
f 360/469/581 347/463/561 355/468/572 373/474/601
s 26
f 374/692/602 375/695/603 376/696/604 377/693/605
f 378/107/606 379/103/607 380/106/608 381/108/609
s 9
f 366/473/588 338/467/550 348/472/564 382/483/610
s 6
f 357/590/590 360/589/589 373/591/611 371/592/612
s 3
f 340/295/552 258/310/440 383/321/613 351/311/567
f 350/278/566 371/282/599 384/287/614 359/283/580
s 26
f 375/695/603 385/697/615 386/698/616 376/696/604
f 387/109/617 378/107/606 381/108/609 388/110/618
s 9
f 263/487/445 346/476/560 356/486/574 389/503/619
f 373/474/601 355/468/572 366/473/588 390/484/620
s 26
f 385/141/615 391/131/621 392/136/622 386/142/616
f 393/111/623 387/109/617 388/110/618 394/112/624
s 3
f 351/311/567 383/321/613 395/329/625 358/322/578
s 6
f 371/592/612 373/591/611 390/593/626 384/594/627
s 3
f 359/283/580 384/287/614 396/297/628 372/288/600
s 26
f 397/699/629 393/700/623 394/701/624 398/702/630
s 9
f 389/503/619 356/486/574 361/502/583 399/512/631
s 27
f 399/119/632 361/113/595 358/116/598 395/120/633
s 9
f 390/484/620 366/473/588 382/483/610 400/500/634
s 26
f 401/125/635 402/126/636 403/127/637 404/128/638
s 6
f 384/594/627 390/593/626 400/595/639 396/596/640
s 3
f 372/288/600 396/297/628 405/313/641 406/298/642
s 26
f 402/126/636 407/129/643 408/130/644 403/127/637
f 409/707/645 410/703/646 411/706/647 412/708/648
f 413/709/649 409/707/645 412/708/648 414/710/650
f 415/138/651 413/143/649 414/144/650 416/139/652
s 9
f 400/500/634 382/483/610 417/499/653 418/511/654
s 6
f 396/596/640 400/595/639 418/597/655 405/598/656
s 3
f 406/298/642 405/313/641 419/324/657 420/314/658
f 383/321/613 421/328/659 422/331/660 395/329/625
s 9
f 418/511/654 417/499/653 423/510/661 424/517/662
f 425/516/663 389/503/619 399/512/631 426/518/664
s 27
f 426/121/665 399/119/632 395/120/633 422/122/666
s 6
f 405/598/656 418/597/655 424/599/667 419/600/668
s 3
f 420/314/658 419/324/657 427/330/669 421/328/659
s 9
f 424/517/662 423/510/661 425/516/663 428/519/670
s 3
f 421/328/659 427/330/669 429/332/671 422/331/660
s 6
f 419/600/668 424/599/667 428/601/672 427/602/673
s 9
f 428/519/670 425/516/663 426/518/664 430/520/674
s 27
f 430/123/675 426/121/665 422/122/666 429/124/676
s 6
f 427/602/673 428/601/672 430/603/677 429/604/678
s 26
f 369/688/593 431/691/679 374/692/602 377/693/605 432/694/680 370/689/594
f 379/103/607 433/104/681 367/97/591 368/100/592 434/105/682 380/106/608
f 410/703/646 435/704/683 397/699/629 398/702/630 436/705/684 411/706/647
f 407/129/643 437/137/685 415/138/651 416/139/652 438/140/686 408/130/644
f 391/131/621 262/132/687 264/133/688 401/125/635 404/128/638 257/134/689 259/135/690 392/136/622
s 3
f 436/299/691 406/298/642 420/314/658 438/315/692 416/316/693 414/317/694 412/318/695 411/319/696
s 9
f 417/499/653 435/498/697 410/505/698 409/506/699 413/507/700 415/508/701 437/509/702 423/510/661
s 3
f 317/280/519 342/284/555 434/289/703 368/290/704 365/291/705 364/292/706 370/293/707 432/294/708 328/285/534
s 9
f 348/472/564 323/466/529 334/471/544 431/477/709 369/478/710 363/479/711 362/480/712 367/481/713 433/482/714
s 3
f 328/285/534 432/294/708 377/305/715 376/306/716 386/307/717 392/308/718 259/309/441 258/310/440 340/295/552
s 9
f 431/477/709 334/471/544 346/476/560 263/487/445 262/488/444 391/489/719 385/490/720 375/491/721 374/492/722
s 3
f 258/310/440 257/320/439 404/325/723 403/326/724 408/327/725 438/315/692 420/314/658 421/328/659 383/321/613
s 9
f 423/510/661 437/509/702 407/513/726 402/514/727 401/515/728 264/504/446 263/487/445 389/503/619 425/516/663
s 3
f 342/284/555 372/288/600 406/298/642 436/299/691 398/300/729 394/301/730 388/302/731 381/303/732 380/304/733 434/289/703
s 9
f 382/483/610 348/472/564 433/482/714 379/493/734 378/494/735 387/495/736 393/496/737 397/497/738 435/498/697 417/499/653
