# This file uses centimeters as units for non-parametric coordinates.

mtllib Matraque.mtl
g default
v 5.124519 0.752636 -0.193544
v 5.123436 0.663657 -0.368142
v 5.121746 0.525070 -0.506703
v 5.119616 0.350439 -0.595666
v 5.117254 0.156860 -0.626320
v 5.114892 -0.036719 -0.595666
v 5.112770 -0.211349 -0.506703
v 5.111071 -0.349936 -0.368141
v 5.109991 -0.438915 -0.193543
v 5.109613 -0.469575 -0.000000
v 5.109991 -0.438915 0.193543
v 5.111071 -0.349936 0.368141
v 5.112771 -0.211349 0.506703
v 5.114892 -0.036719 0.595665
v 5.117254 0.156860 0.626319
v 5.119617 0.350439 0.595665
v 5.121746 0.525069 0.506703
v 5.123436 0.663656 0.368141
v 5.124519 0.752636 0.193543
v 5.124894 0.783295 -0.000000
v -5.155895 0.154772 -0.000000
v -4.758811 0.734969 -0.188580
v -4.947475 0.702900 -0.178123
v -5.086435 0.619579 -0.151009
v -5.140631 0.506050 -0.114087
v -4.761858 0.648296 -0.358706
v -4.950570 0.620978 -0.338776
v -5.089314 0.549999 -0.287121
v -5.142915 0.453372 -0.216850
v -4.766618 0.513295 -0.493728
v -4.955406 0.493403 -0.466202
v -5.093813 0.441702 -0.394897
v -5.146484 0.371410 -0.298044
v -4.772600 0.343174 -0.580430
v -4.961477 0.332712 -0.547918
v -5.099457 0.305455 -0.463757
v -5.150956 0.268436 -0.349666
v -4.779235 0.154582 -0.610321
v -4.968204 0.154677 -0.575947
v -5.105700 0.154746 -0.487034
v -5.155895 0.154772 -0.366762
v -4.785878 -0.034023 -0.580469
v -4.974928 -0.023251 -0.547587
v -5.111930 0.004414 -0.462598
v -5.160812 0.041686 -0.347886
v -4.791875 -0.204177 -0.493792
v -4.980987 -0.183660 -0.465666
v -5.117531 -0.130846 -0.393019
v -5.165221 -0.059772 -0.295160
v -4.796639 -0.339219 -0.358769
v -4.985792 -0.310886 -0.338240
v -5.121965 -0.237919 -0.285241
v -5.168702 -0.139854 -0.213960
v -4.799701 -0.425925 -0.188619
v -4.988876 -0.392525 -0.177791
v -5.124804 -0.306506 -0.149845
v -5.170924 -0.191004 -0.112297
v -4.800756 -0.455802 -0.000000
v -4.989937 -0.420635 -0.000000
v -5.125778 -0.330061 -0.000000
v -5.171683 -0.208481 -0.000000
v -4.799701 -0.425925 0.188619
v -4.988874 -0.392486 0.177778
v -5.124797 -0.306359 0.149797
v -5.170911 -0.190710 0.112202
v -4.796639 -0.339219 0.358769
v -4.985790 -0.310822 0.338194
v -5.121955 -0.237682 0.285068
v -5.168682 -0.139381 0.213615
v -4.791875 -0.204177 0.493791
v -4.980985 -0.183597 0.465579
v -5.117521 -0.130610 0.392694
v -5.165200 -0.059299 0.294509
v -4.785879 -0.034023 0.580469
v -4.974927 -0.023212 0.547467
v -5.111923 0.004559 0.462151
v -5.160800 0.041976 0.346989
v -4.779235 0.154582 0.610321
v -4.968205 0.154677 0.575815
v -5.105700 0.154746 0.486541
v -5.155895 0.154772 0.365775
v -4.772597 0.343174 0.580430
v -4.961477 0.332674 0.547800
v -5.099461 0.305311 0.463314
v -5.150967 0.268147 0.348777
v -4.766618 0.513295 0.493728
v -4.955410 0.493341 0.466116
v -5.093823 0.441470 0.394577
v -5.146504 0.370944 0.297403
v -4.761858 0.648296 0.358706
v -4.950573 0.620916 0.338731
v -5.089324 0.549767 0.286953
v -5.142936 0.452907 0.216512
v -4.758810 0.734969 0.188580
v -4.947476 0.702862 0.178110
v -5.086440 0.619436 0.150962
v -5.140643 0.505764 0.113994
v -4.757744 0.764833 -0.000000
v -4.946397 0.731120 -0.000000
v -5.085435 0.643518 -0.000000
v -5.139842 0.524119 -0.000000
v 8.208066 0.731602 -0.193539
v 8.206983 0.642627 -0.368132
v 12.236768 0.122801 -0.000001
v 8.205293 0.504030 -0.506701
v 8.203162 0.329392 -0.595666
v 8.200801 0.135817 -0.626320
v 8.198440 -0.057735 -0.595675
v 8.196317 -0.232382 -0.506690
v 8.194617 -0.370984 -0.368135
v 8.193538 -0.459942 -0.193548
v 8.193161 -0.490613 -0.000000
v 8.193538 -0.459944 0.193547
v 8.194617 -0.370985 0.368132
v 8.196318 -0.232382 0.506688
v 8.198440 -0.057731 0.595675
v 8.200801 0.135817 0.626319
v 8.203163 0.329396 0.595662
v 8.205293 0.504031 0.506700
v 8.206983 0.642621 0.368133
v 8.208066 0.731601 0.193539
v 8.208441 0.762257 -0.000000
v 7.428768 0.647935 -0.368134
v 6.813534 0.502661 -0.522603
v 6.983782 0.351583 -0.568974
v 7.045502 0.145732 -0.568974
v 6.982155 -0.059735 -0.568975
v 6.810716 -0.209763 -0.522604
v 7.416402 -0.365672 -0.368137
v 7.415322 -0.454636 -0.193547
v 7.414946 -0.485304 -0.000000
v 7.415322 -0.454637 0.193546
v 7.416402 -0.365673 0.368134
v 7.418102 -0.227074 0.506692
v 7.420225 -0.052428 0.595673
v 7.422586 0.141127 0.626319
v 7.424948 0.334707 0.595663
v 7.427078 0.509340 0.506701
v 7.428768 0.647929 0.368135
v 7.429851 0.736910 0.193540
v 7.430226 0.767567 -0.000000
v 7.429851 0.736910 -0.193540
v 6.564061 0.653832 -0.368137
v 6.580153 0.573049 -0.513515
v 6.577427 -0.284254 -0.513516
v 6.551695 -0.359770 -0.368139
v 6.550616 -0.448739 -0.193545
v 6.550239 -0.479404 -0.000000
v 6.550616 -0.448740 0.193545
v 6.551695 -0.359770 0.368137
v 6.553396 -0.221176 0.506696
v 6.555518 -0.046536 0.595670
v 6.557879 0.147029 0.626319
v 6.560241 0.340608 0.595664
v 6.562371 0.515240 0.506702
v 6.564061 0.653829 0.368137
v 6.565144 0.742808 0.193541
v 6.565519 0.773466 -0.000000
v 6.565144 0.742809 -0.193542
v 5.761955 0.659302 -0.368140
v 6.346779 0.504095 -0.522603
v 6.175340 0.354067 -0.568975
v 6.111994 0.148600 -0.568976
v 6.173713 -0.057252 -0.568976
v 6.343962 -0.208329 -0.522604
v 5.749589 -0.354295 -0.368140
v 5.748509 -0.443269 -0.193544
v 5.748132 -0.473931 -0.000000
v 5.748509 -0.443269 0.193544
v 5.749589 -0.354295 0.368139
v 5.751290 -0.215704 0.506700
v 5.753411 -0.041070 0.595667
v 5.755773 0.152503 0.626319
v 5.758135 0.346082 0.595665
v 5.760264 0.520713 0.506702
v 5.761954 0.659301 0.368140
v 5.763038 0.748280 0.193542
v 5.763413 0.778939 -0.000000
v 5.763038 0.748280 -0.193543
v 6.580372 0.360028 -5.146181
v 6.579048 0.075697 -5.146180
v 6.589834 -0.208604 -5.146179
v 6.563821 0.477276 -5.068042
v 6.564703 0.457471 -5.123322
v 6.567300 0.410128 -5.146181
v 6.737017 0.374810 -5.146181
v 6.758410 0.417048 -5.123249
v 6.767470 0.434485 -5.067867
v 6.866352 0.259408 -5.146181
v 6.906001 0.285280 -5.123240
v 6.922565 0.295818 -5.067846
v 6.920667 0.094806 -5.146180
v 6.967937 0.097374 -5.123236
v 6.987543 0.098185 -5.067837
v 6.885416 -0.074906 -5.146179
v 6.927627 -0.096328 -5.123237
v 6.944999 -0.105460 -5.067842
v 6.770032 -0.204266 -5.146179
v 6.795868 -0.243926 -5.123245
v 6.806338 -0.260545 -5.067861
v 6.605427 -0.258786 -5.146179
v 6.607965 -0.306049 -5.123342
v 6.608715 -0.325872 -5.068091
v 6.402669 0.355793 -5.146181
v 6.376788 0.395440 -5.123271
v 6.366195 0.412044 -5.067921
v 6.227532 0.256959 -5.067941
v 6.245037 0.247829 -5.123280
v 6.287333 0.226393 -5.146181
v 6.184988 0.053314 -5.067947
v 6.204721 0.054127 -5.123281
v 6.252075 0.056697 -5.146181
v 6.249968 -0.144319 -5.067938
v 6.266664 -0.133778 -5.123278
v 6.306398 -0.107885 -5.146180
v 6.405064 -0.282985 -5.067916
v 6.414261 -0.265533 -5.123268
v 6.435734 -0.223242 -5.146179
v 12.241129 0.480454 -0.116151
v 12.189650 0.599644 -0.154829
v 12.046145 0.687296 -0.183162
v 11.849181 0.719854 -0.193536
v 11.848236 0.630883 -0.368123
v 12.045200 0.603106 -0.348399
v 12.188807 0.528509 -0.294527
v 12.240479 0.427131 -0.220977
v 11.846669 0.492275 -0.506699
v 12.043678 0.471930 -0.479566
v 12.187478 0.417631 -0.405451
v 12.239465 0.343952 -0.304249
v 11.844685 0.317631 -0.595665
v 12.041758 0.306639 -0.563788
v 12.185802 0.277885 -0.476706
v 12.238186 0.239081 -0.357774
v 11.842477 0.124058 -0.626320
v 12.039622 0.123421 -0.592822
v 12.183943 0.122952 -0.501304
v 12.236768 0.122778 -0.376289
v 11.840260 -0.069469 -0.595683
v 12.037483 -0.059759 -0.563842
v 12.182081 -0.031959 -0.476842
v 12.235349 0.006491 -0.357972
v 11.838262 -0.244132 -0.506678
v 12.035556 -0.225103 -0.479603
v 12.180406 -0.171832 -0.405622
v 12.234071 -0.098568 -0.304523
v 11.836652 -0.382746 -0.368129
v 12.034010 -0.356322 -0.348464
v 12.179065 -0.282839 -0.294723
v 12.233048 -0.181938 -0.221272
v 11.835623 -0.471687 -0.193551
v 12.033024 -0.440517 -0.183215
v 12.178212 -0.354063 -0.154968
v 12.232401 -0.235421 -0.116357
v 11.835244 -0.502368 -0.000000
v 12.032670 -0.469561 0.000000
v 12.177912 -0.378631 0.000001
v 12.232174 -0.253866 0.000002
v 11.835574 -0.471690 0.193551
v 12.033000 -0.440517 0.183214
v 12.178205 -0.354051 0.154964
v 12.232400 -0.235396 0.116348
v 11.836562 -0.382749 0.368124
v 12.033964 -0.356319 0.348453
v 12.179053 -0.282820 0.294700
v 12.233049 -0.181897 0.221231
v 11.838140 -0.244132 0.506674
v 12.035496 -0.225096 0.479591
v 12.180392 -0.171809 0.405587
v 12.234073 -0.098522 0.304456
v 11.840115 -0.069462 0.595685
v 12.037410 -0.059748 0.563832
v 12.182062 -0.031937 0.476800
v 12.235349 0.006527 0.357886
v 11.842322 0.124059 0.626319
v 12.039545 0.123420 0.592809
v 12.183921 0.122951 0.501255
v 12.236767 0.122775 0.376191
v 11.844540 0.317638 0.595660
v 12.041685 0.306642 0.563771
v 12.185783 0.277877 0.476657
v 12.238187 0.239057 0.357682
v 11.846545 0.492278 0.506697
v 12.043617 0.471927 0.479555
v 12.187462 0.417608 0.405418
v 12.239465 0.343904 0.304184
v 11.848145 0.630871 0.368125
v 12.045155 0.603088 0.348397
v 12.188795 0.528475 0.294513
v 12.240479 0.427074 0.220946
v 11.849180 0.719853 0.193535
v 12.046144 0.687295 0.183161
v 12.189649 0.599644 0.154826
v 12.241128 0.480455 0.116145
v 11.849556 0.750506 -0.000000
v 12.046496 0.716304 -0.000000
v 12.189948 0.624164 -0.000000
v 12.241354 0.498850 -0.000000
vt 0.882762 0.315383
vt 0.879680 0.321395
vt 0.862211 0.308709
vt 0.889403 0.317543
vt 0.885333 0.325506
vt 0.874885 0.326145
vt 0.883819 0.308709
vt 0.890804 0.308709
vt 0.894278 0.319129
vt 0.889485 0.328528
vt 0.878997 0.331811
vt 0.868861 0.329165
vt 0.882745 0.302040
vt 0.889395 0.299877
vt 0.895929 0.308709
vt 0.882022 0.335982
vt 0.871027 0.335839
vt 0.862211 0.330165
vt 0.879653 0.296043
vt 0.885319 0.291922
vt 0.894276 0.298289
vt 0.872621 0.340763
vt 0.862210 0.337201
vt 0.855596 0.329061
vt 0.874858 0.291310
vt 0.878984 0.285626
vt 0.889482 0.288893
vt 0.862206 0.342403
vt 0.853415 0.335772
vt 0.849660 0.325976
vt 0.868844 0.288305
vt 0.871018 0.281604
vt 0.882018 0.281440
vt 0.851797 0.340744
vt 0.845502 0.331701
vt 0.844975 0.321226
vt 0.862211 0.287311
vt 0.862210 0.280246
vt 0.872619 0.276662
vt 0.842413 0.335951
vt 0.839238 0.325396
vt 0.841983 0.315278
vt 0.855613 0.288410
vt 0.853424 0.281672
vt 0.862206 0.275023
vt 0.834970 0.328496
vt 0.835226 0.317475
vt 0.840961 0.308709
vt 0.849688 0.291480
vt 0.845516 0.285736
vt 0.851799 0.276681
vt 0.830194 0.319110
vt 0.833848 0.308709
vt 0.842000 0.302145
vt 0.845003 0.296212
vt 0.839252 0.292032
vt 0.842416 0.281472
vt 0.828549 0.308709
vt 0.835235 0.299946
vt 0.834974 0.288924
vt 0.830196 0.298309
vt 0.914223 0.268424
vt 0.902180 0.268424
vt 0.899399 0.005234
vt 0.910960 0.005233
vt 0.890160 0.268424
vt 0.887485 0.005233
vt 0.910344 0.001993
vt 0.899351 0.001993
vt 0.923061 0.271137
vt 0.919073 0.005232
vt 0.881383 0.271136
vt 0.878412 0.005232
vt 0.888019 0.001993
vt 0.918052 0.001992
vt 0.879385 0.001992
vt 0.850553 0.004705
vt 0.862573 0.004705
vt 0.856892 0.267901
vt 0.844978 0.267901
vt 0.871350 0.001992
vt 0.865965 0.267900
vt 0.856358 0.271138
vt 0.845026 0.271138
vt 0.838510 0.004705
vt 0.833416 0.267901
vt 0.864993 0.271138
vt 0.834033 0.271138
vt 0.829672 0.001992
vt 0.825304 0.267899
vt 0.826325 0.271138
vt 0.945637 0.337571
vt 0.943375 0.330598
vt 0.949507 0.327479
vt 0.953810 0.333410
vt 0.936580 0.339006
vt 0.936580 0.331675
vt 0.936580 0.309675
vt 0.954379 0.322613
vt 0.960299 0.326923
vt 0.947295 0.342699
vt 0.956962 0.337774
vt 0.936580 0.344396
vt 0.927522 0.337571
vt 0.929785 0.330598
vt 0.957510 0.316478
vt 0.964468 0.318748
vt 0.964635 0.330100
vt 0.925865 0.342699
vt 0.919350 0.333408
vt 0.923654 0.327476
vt 0.958593 0.309674
vt 0.965907 0.309684
vt 0.969562 0.320430
vt 0.916198 0.337773
vt 0.912862 0.326922
vt 0.918784 0.322610
vt 0.957521 0.302871
vt 0.964476 0.300621
vt 0.971261 0.309711
vt 0.908525 0.330099
vt 0.908695 0.318747
vt 0.915655 0.316476
vt 0.954395 0.296725
vt 0.960309 0.292439
vt 0.969565 0.298995
vt 0.903598 0.320430
vt 0.907255 0.309684
vt 0.914572 0.309674
vt 0.949524 0.291847
vt 0.953821 0.285945
vt 0.964637 0.289322
vt 0.901900 0.309711
vt 0.908686 0.300623
vt 0.915643 0.302873
vt 0.943387 0.288719
vt 0.945646 0.281778
vt 0.956965 0.281646
vt 0.903595 0.298996
vt 0.912852 0.292440
vt 0.918769 0.296727
vt 0.936580 0.287640
vt 0.936580 0.280341
vt 0.947298 0.276720
vt 0.908523 0.289323
vt 0.919339 0.285946
vt 0.923637 0.291850
vt 0.929773 0.288720
vt 0.927514 0.281779
vt 0.936580 0.275021
vt 0.916195 0.281646
vt 0.925861 0.276720
vt 0.430024 0.406938
vt 0.440239 0.407001
vt 0.439687 0.985305
vt 0.429734 0.985127
vt 0.430024 0.369584
vt 0.440239 0.369647
vt 0.448345 0.407100
vt 0.447586 0.985584
vt 0.429122 0.996164
vt 0.438521 0.996345
vt 0.418702 0.406916
vt 0.418702 0.985065
vt 0.418702 0.369562
vt 0.430024 0.322659
vt 0.440238 0.322723
vt 0.449275 0.335434
vt 0.445975 0.996628
vt 0.418702 0.996101
vt 0.407379 0.406938
vt 0.407670 0.985127
vt 0.407379 0.369584
vt 0.418702 0.322637
vt 0.430024 0.272073
vt 0.440238 0.272136
vt 0.448743 0.321781
vt 0.408282 0.996164
vt 0.397165 0.407001
vt 0.397717 0.985305
vt 0.397165 0.369647
vt 0.407379 0.322659
vt 0.418702 0.272051
vt 0.430024 0.226546
vt 0.440238 0.226609
vt 0.449275 0.308128
vt 0.715190 0.322737
vt 0.715183 0.334298
vt 0.398886 0.996345
vt 0.389059 0.407100
vt 0.389818 0.985584
vt 0.389059 0.369746
vt 0.397165 0.322723
vt 0.407379 0.272073
vt 0.418702 0.226524
vt 0.430024 0.013535
vt 0.440238 0.013591
vt 0.448345 0.226708
vt 0.715179 0.310823
vt 0.718424 0.322685
vt 0.718421 0.333678
vt 0.391433 0.996628
vt 0.389059 0.322821
vt 0.397166 0.272136
vt 0.407380 0.226546
vt 0.418702 0.013513
vt 0.429417 0.002013
vt 0.439084 0.002068
vt 0.448345 0.013682
vt 0.718419 0.311353
vt 0.389059 0.272235
vt 0.397166 0.226609
vt 0.407380 0.013535
vt 0.418702 0.001992
vt 0.446757 0.002157
vt 0.389059 0.226708
vt 0.397166 0.013596
vt 0.407987 0.002013
vt 0.389059 0.013689
vt 0.398320 0.002071
vt 0.390647 0.002160
vt 0.280125 0.407084
vt 0.290339 0.407148
vt 0.290627 0.986879
vt 0.280673 0.986700
vt 0.280125 0.369730
vt 0.290339 0.369793
vt 0.301662 0.407170
vt 0.301662 0.986941
vt 0.281874 0.997766
vt 0.291261 0.997946
vt 0.272019 0.406985
vt 0.272774 0.986421
vt 0.271088 0.334958
vt 0.280125 0.322806
vt 0.290339 0.322869
vt 0.301662 0.369815
vt 0.312984 0.407148
vt 0.312696 0.986879
vt 0.301662 0.998008
vt 0.274419 0.997484
vt 0.271620 0.321300
vt 0.280125 0.272219
vt 0.290339 0.272282
vt 0.301662 0.322891
vt 0.312984 0.369793
vt 0.323198 0.407084
vt 0.322650 0.986700
vt 0.312062 0.997946
vt 0.005181 0.331384
vt 0.005171 0.319470
vt 0.271089 0.307653
vt 0.280125 0.226692
vt 0.290339 0.226756
vt 0.301662 0.272304
vt 0.312984 0.322869
vt 0.323198 0.369730
vt 0.331304 0.406985
vt 0.330549 0.986421
vt 0.321446 0.997765
vt 0.001939 0.319514
vt 0.001943 0.330846
vt 0.005184 0.307909
vt 0.272020 0.226593
vt 0.280125 0.013628
vt 0.290339 0.013688
vt 0.301662 0.226778
vt 0.312984 0.272282
vt 0.323198 0.322806
vt 0.331304 0.369631
vt 0.328899 0.997484
vt 0.001944 0.308521
vt 0.272020 0.013534
vt 0.281276 0.002082
vt 0.290943 0.002140
vt 0.301662 0.013710
vt 0.312984 0.226756
vt 0.323198 0.272219
vt 0.331304 0.322706
vt 0.273604 0.001992
vt 0.301662 0.002161
vt 0.312985 0.013691
vt 0.323198 0.226692
vt 0.331304 0.272120
vt 0.312380 0.002141
vt 0.323197 0.013634
vt 0.331304 0.226593
vt 0.322047 0.002085
vt 0.331303 0.013541
vt 0.329718 0.001995
vt 0.724778 0.073658
vt 0.734994 0.073783
vt 0.735419 0.652492
vt 0.725467 0.652142
vt 0.726005 0.001992
vt 0.734782 0.012022
vt 0.746319 0.073921
vt 0.746452 0.652880
vt 0.726631 0.663186
vt 0.736031 0.663541
vt 0.746802 0.015727
vt 0.757643 0.074059
vt 0.757486 0.653269
vt 0.746447 0.663935
vt 0.758845 0.012117
vt 0.767860 0.074183
vt 0.767440 0.653619
vt 0.756856 0.664328
vt 0.767683 0.002157
vt 0.766240 0.664683
vt 0.339765 0.407457
vt 0.349982 0.407333
vt 0.350139 0.986542
vt 0.340185 0.986893
vt 0.339511 0.370102
vt 0.349727 0.369978
vt 0.361306 0.407194
vt 0.361173 0.986153
vt 0.341389 0.997956
vt 0.350772 0.997602
vt 0.339191 0.323178
vt 0.349407 0.323054
vt 0.361051 0.369840
vt 0.372631 0.407056
vt 0.372206 0.985765
vt 0.361178 0.997208
vt 0.338846 0.272591
vt 0.349063 0.272467
vt 0.360731 0.322916
vt 0.372376 0.369702
vt 0.382847 0.406932
vt 0.382158 0.985415
vt 0.371592 0.996815
vt 0.338535 0.227065
vt 0.348752 0.226940
vt 0.360386 0.272329
vt 0.372056 0.322778
vt 0.382592 0.369577
vt 0.380991 0.996460
vt 0.337848 0.014013
vt 0.348066 0.013897
vt 0.360075 0.226802
vt 0.371710 0.272191
vt 0.382272 0.322653
vt 0.338961 0.002467
vt 0.348634 0.002355
vt 0.359387 0.013768
vt 0.371400 0.226664
vt 0.381927 0.272066
vt 0.359350 0.002230
vt 0.370712 0.013638
vt 0.381616 0.226540
vt 0.370069 0.002105
vt 0.380929 0.013521
vt 0.379738 0.001992
vt 0.783011 0.298003
vt 0.774173 0.307963
vt 0.774093 0.226543
vt 0.784309 0.226668
vt 0.774780 0.013517
vt 0.784997 0.013634
vt 0.795054 0.294393
vt 0.795634 0.226806
vt 0.775971 0.001992
vt 0.785640 0.002105
vt 0.796322 0.013763
vt 0.807074 0.298099
vt 0.806957 0.226944
vt 0.796359 0.002229
vt 0.807643 0.013892
vt 0.815851 0.308128
vt 0.817174 0.227068
vt 0.807075 0.002355
vt 0.817861 0.014009
vt 0.816748 0.002467
vt 0.799141 0.314782
vt 0.798989 0.312013
vt 0.810321 0.314377
vt 0.809069 0.316848
vt 0.789509 0.317961
vt 0.787995 0.315642
vt 0.818955 0.322086
vt 0.816635 0.323600
vt 0.799905 0.317713
vt 0.782762 0.325531
vt 0.780288 0.324277
vt 0.822578 0.333079
vt 0.819813 0.333229
vt 0.799828 0.334347
vt 0.780699 0.335458
vt 0.777929 0.335609
vt 0.820220 0.344411
vt 0.817751 0.343158
vt 0.800459 0.350979
vt 0.783877 0.345087
vt 0.781553 0.346602
vt 0.812512 0.353045
vt 0.811001 0.350725
vt 0.801371 0.353915
vt 0.791444 0.351835
vt 0.790187 0.354309
vt 0.801519 0.356680
vn -0.001342 0.951160 -0.308696
vn -0.001325 0.808052 -0.589110
vn -0.004936 0.807863 -0.589349
vn -0.004963 0.950727 -0.309989
vn -0.001083 0.585338 -0.810789
vn -0.004897 0.585624 -0.810568
vn 0.000854 0.302086 -0.953280
vn -0.004850 0.306060 -0.952000
vn 0.002478 0.001112 -0.999996
vn -0.004801 -0.003243 -0.999983
vn 0.000637 -0.300171 -0.953885
vn -0.004755 -0.311928 -0.950094
vn -0.001576 -0.584010 -0.811745
vn -0.004717 -0.589875 -0.807481
vn -0.001808 -0.807289 -0.590154
vn -0.004688 -0.810110 -0.586260
vn -0.001712 -0.950934 -0.309389
vn -0.004672 -0.951350 -0.308077
vn -0.001722 -0.999999 -0.000000
vn -0.004667 -0.999989 0.000001
vn -0.001712 -0.950934 0.309390
vn -0.004675 -0.951349 0.308079
vn -0.001682 -0.808581 0.588383
vn -0.004695 -0.810108 0.586262
vn -0.001636 -0.586976 0.809603
vn -0.004726 -0.589873 0.807482
vn -0.001579 -0.307925 0.951409
vn -0.004766 -0.311927 0.950094
vn -0.001518 0.001180 0.999998
vn -0.004813 -0.003244 0.999983
vn -0.001459 0.310058 0.950717
vn -0.004861 0.306060 0.952000
vn -0.001407 0.588521 0.808481
vn -0.004906 0.585624 0.810568
vn -0.001367 0.809397 0.587261
vn -0.004943 0.807862 0.589351
vn -0.001341 0.951159 0.308697
vn -0.004966 0.950726 0.309992
vn -0.001333 0.999999 0.000000
vn -0.004973 0.999988 0.000001
vn -0.972671 0.224388 -0.059680
vn -0.973693 0.197326 -0.113954
vn -0.999057 0.043421 0.000000
vn -0.975306 0.154848 -0.157482
vn -0.977353 0.100837 -0.186045
vn -0.979647 0.040422 -0.196619
vn -0.981968 -0.020625 -0.187918
vn -0.984084 -0.076218 -0.160529
vn -0.985779 -0.120656 -0.116970
vn -0.986873 -0.149319 -0.061523
vn -0.987250 -0.159176 0.000192
vn -0.986871 -0.149193 0.061864
vn -0.985777 -0.120451 0.117199
vn -0.984085 -0.076009 0.160622
vn -0.981973 -0.020502 0.187904
vn -0.979657 0.040423 0.196568
vn -0.977367 0.100713 0.186041
vn -0.975323 0.154640 0.157582
vn -0.973706 0.197131 0.114171
vn -0.972678 0.224274 0.059996
vn -0.972316 0.233668 0.000179
vn -0.694181 0.686954 -0.214961
vn -0.693701 0.720263 0.000273
vn -0.330507 0.898654 -0.288421
vn -0.330334 0.943864 0.000126
vn -0.695910 0.589486 -0.410141
vn -0.331286 0.767043 -0.549449
vn -0.698775 0.436586 -0.566662
vn -0.332637 0.561325 -0.757804
vn -0.702476 0.242283 -0.669199
vn -0.334398 0.300922 -0.893098
vn -0.706691 0.024883 -0.707084
vn -0.336428 0.010759 -0.941648
vn -0.711022 -0.194639 -0.675695
vn -0.338533 -0.281006 -0.898015
vn -0.715033 -0.394453 -0.577179
vn -0.340503 -0.545584 -0.765765
vn -0.718321 -0.554155 -0.420626
vn -0.342143 -0.756463 -0.557406
vn -0.934812 -0.334061 -0.120542
vn -0.553910 -0.789733 -0.263639
vn -0.553919 -0.790303 -0.261906
vn -0.182443 -0.934874 -0.304508
vn -0.935541 -0.353217 0.000311
vn -0.554705 -0.832047 0.000238
vn -0.554705 -0.832047 0.000264
vn -0.182714 -0.983166 0.000054
vn -0.934965 -0.333475 0.120974
vn -0.554387 -0.789286 0.263972
vn -0.554393 -0.789843 0.262289
vn -0.182646 -0.934805 0.304597
vn -0.719079 -0.553227 0.420554
vn -0.342800 -0.756135 0.557448
vn -0.716075 -0.393520 0.576523
vn -0.341402 -0.545247 0.765605
vn -0.712244 -0.194045 0.674577
vn -0.339583 -0.280782 0.897689
vn -0.707973 0.024938 0.705799
vn -0.337523 0.010797 0.941255
vn -0.703688 0.241794 0.668101
vn -0.335428 0.300765 0.892764
vn -0.699807 0.435760 0.566025
vn -0.333510 0.561043 0.757629
vn -0.696658 0.588658 0.410061
vn -0.331917 0.766754 0.549472
vn -0.694572 0.686441 0.215333
vn -0.330836 0.898472 0.288609
vn 0.006488 0.951007 -0.309100
vn 0.003132 0.800097 -0.599863
vn -0.031486 0.738384 -0.673645
vn 0.007274 0.381434 -0.924367
vn 0.019292 0.275788 -0.961025
vn 0.040500 -0.000550 -0.999179
vn 0.014925 -0.277878 -0.960500
vn 0.001422 -0.383076 -0.923716
vn -0.044107 -0.740981 -0.670076
vn -0.008097 -0.800527 -0.599242
vn -0.006488 -0.951019 -0.309064
vn -0.006821 -0.999977 -0.000001
vn -0.006488 -0.951019 0.309063
vn -0.005518 -0.808948 0.587854
vn -0.004007 -0.587714 0.809059
vn -0.002107 -0.309007 0.951058
vn -0.000001 -0.000053 1.000000
vn 0.002108 0.308888 0.951096
vn 0.004010 0.587638 0.809114
vn 0.005520 0.808907 0.587910
vn 0.006488 0.951006 0.309104
vn 0.006822 0.999977 0.000001
vn 0.038661 0.743042 -0.668127
vn 0.007673 0.800101 -0.599817
vn 0.003387 0.805683 -0.592338
vn 0.002126 0.579968 -0.814637
vn -0.012681 0.277223 -0.960722
vn -0.000759 0.383365 -0.923597
vn -0.003726 0.288250 -0.957548
vn -0.035025 0.000523 -0.999386
vn -0.008779 -0.000519 -0.999961
vn -0.017196 -0.275105 -0.961260
vn -0.006153 -0.289036 -0.957299
vn -0.006856 -0.381661 -0.924277
vn -0.002767 -0.580198 -0.814471
vn -0.003436 -0.799248 -0.600991
vn 0.032159 -0.742521 -0.669050
vn -0.003084 -0.805884 -0.592065
vn -0.006487 -0.951013 -0.309082
vn -0.003671 -0.951097 -0.308870
vn -0.006821 -0.999977 -0.000003
vn -0.003860 -0.999993 -0.000006
vn -0.006488 -0.951014 0.309081
vn -0.003672 -0.951098 0.308867
vn -0.005518 -0.808911 0.587905
vn -0.003123 -0.809155 0.587587
vn -0.004007 -0.587650 0.809105
vn -0.002268 -0.588101 0.808785
vn -0.002107 -0.308948 0.951077
vn -0.001194 -0.309593 0.950868
vn 0.000000 0.000052 1.000000
vn -0.000002 -0.000600 1.000000
vn 0.002109 0.308970 0.951070
vn 0.001192 0.308375 0.951264
vn 0.004011 0.587697 0.809071
vn 0.002268 0.587274 0.809385
vn 0.005520 0.808936 0.587871
vn 0.003122 0.808720 0.588186
vn 0.006488 0.951014 0.309079
vn 0.003670 0.950967 0.309272
vn 0.006822 0.999977 0.000001
vn 0.003859 0.999993 0.000001
vn 0.006488 0.951018 -0.309068
vn 0.003670 0.950972 -0.309254
vn 0.006877 0.748639 -0.662942
vn 0.004392 0.840501 -0.541793
vn -0.007350 -0.841129 -0.540785
vn -0.000502 -0.750158 -0.661259
vn -0.006488 -0.951017 -0.309072
vn -0.006821 -0.999977 -0.000002
vn -0.006488 -0.951017 0.309071
vn -0.005518 -0.808931 0.587878
vn -0.004007 -0.587685 0.809080
vn -0.002107 -0.308980 0.951066
vn -0.000000 -0.000004 1.000000
vn 0.002109 0.308925 0.951084
vn 0.004011 0.587665 0.809094
vn 0.005520 0.808920 0.587892
vn 0.006488 0.951010 0.309093
vn 0.006822 0.999977 0.000001
vn 0.006488 0.951012 -0.309085
vn -0.011769 0.206938 -0.978283
vn -0.024442 0.434255 -0.900459
vn 0.196422 0.388776 -0.900151
vn 0.096908 0.192073 -0.976584
vn -0.053448 0.940252 -0.336257
vn -0.025321 0.999398 -0.023699
vn 0.464981 0.885031 -0.022659
vn 0.424515 0.841164 -0.335008
vn -0.509278 0.860262 -0.024189
vn -0.516943 0.787326 -0.335988
vn -0.841190 0.423767 -0.335888
vn -0.864541 0.501986 -0.024047
vn -0.238606 0.363820 -0.900390
vn -0.110934 0.168897 -0.979371
vn -0.069785 0.035132 -0.996943
vn -0.388436 0.195923 -0.900406
vn 0.000001 -0.000003 -1.000000
vn 0.064949 0.042601 -0.996979
vn 0.000001 -0.000004 -1.000000
vn 0.068849 0.003934 -0.997619
vn 0.000001 -0.000003 -1.000000
vn 0.068051 -0.034256 -0.997094
vn 0.011811 -0.206398 -0.978397
vn 0.110277 -0.167613 -0.979666
vn -0.070681 -0.004048 -0.997491
vn -0.066470 -0.043639 -0.996834
vn -0.097488 -0.193148 -0.976315
vn 0.250293 0.967981 -0.019156
vn 0.448596 0.893528 -0.019219
vn 0.663518 0.747941 -0.018120
vn 0.836796 0.547097 -0.021407
vn 0.953947 0.299546 -0.016075
vn 0.953947 0.299546 -0.016075
vn 0.999577 0.024219 -0.016092
vn 0.968070 -0.250564 -0.007636
vn 0.968070 -0.250564 -0.007636
vn 0.863023 -0.505136 -0.005366
vn 0.701678 -0.712481 0.004380
vn 0.499179 -0.866462 0.007991
vn 0.513965 -0.857802 0.004005
vn 0.308809 -0.951065 0.010570
vn 0.025611 -0.999649 0.006776
vn -0.699645 0.714198 -0.020477
vn -0.490441 0.871229 -0.020676
vn -0.296830 0.954725 -0.019806
vn -0.999649 -0.021907 -0.014921
vn -0.967926 0.250531 -0.018823
vn -0.999385 -0.029749 -0.018577
vn -0.954022 -0.299579 -0.009753
vn -0.834808 -0.550496 -0.006977
vn -0.458231 -0.888807 0.006920
vn -0.665322 -0.746549 0.003245
vn -0.469425 -0.882968 0.002983
vn -0.262462 -0.964894 0.009664
vn 0.364781 0.238931 -0.899915
vn 0.788172 0.516942 -0.334001
vn 0.435449 0.024560 -0.899878
vn 0.941098 0.053715 -0.333841
vn 0.389385 -0.196433 -0.899885
vn 0.841907 -0.423902 -0.333915
vn 0.239130 -0.364300 -0.900057
vn 0.517672 -0.787294 -0.334938
vn 0.024443 -0.434198 -0.900486
vn 0.053896 -0.940134 -0.336518
vn -0.940287 -0.053691 -0.336122
vn -0.434146 -0.024496 -0.900509
vn -0.787430 -0.516777 -0.336000
vn -0.363739 -0.238318 -0.900499
vn -0.424189 -0.840821 -0.336280
vn -0.196263 -0.388113 -0.900472
vn 0.011465 0.951037 -0.308864
vn 0.170926 0.936951 -0.304806
vn 0.170417 0.796762 -0.579766
vn 0.011006 0.809107 -0.587558
vn 0.540179 0.799719 -0.262025
vn 0.540179 0.799837 -0.261661
vn 0.539490 0.679265 -0.497543
vn 0.539487 0.678835 -0.498132
vn 0.924975 0.360362 -0.120664
vn 0.981802 0.179465 -0.062102
vn 0.981470 0.150884 -0.118114
vn 0.924401 0.304715 -0.229415
vn 0.999926 -0.012195 -0.000000
vn 0.980963 0.106331 -0.162497
vn 0.980320 0.050318 -0.190897
vn 0.979607 -0.011686 -0.200584
vn 0.978894 -0.073637 -0.190642
vn 0.978262 -0.129402 -0.162046
vn 0.977744 -0.173673 -0.117705
vn 0.977425 -0.202031 -0.061841
vn 0.977306 -0.211832 0.000026
vn 0.977419 -0.202044 0.061890
vn 0.977736 -0.173687 0.117752
vn 0.978252 -0.129409 0.162103
vn 0.978881 -0.073636 0.190710
vn 0.979592 -0.011689 0.200656
vn 0.980307 0.050311 0.190963
vn 0.980951 0.106351 0.162555
vn 0.981466 0.150869 0.118170
vn 0.981794 0.179487 0.062165
vn 0.981908 0.189357 0.000003
vn 0.010286 0.588075 -0.808741
vn 0.009378 0.309519 -0.950847
vn 0.008371 0.000674 -0.999965
vn 0.007366 -0.308424 -0.951221
vn 0.006460 -0.587246 -0.809383
vn 0.005737 -0.808703 -0.588190
vn 0.005275 -0.950966 -0.309249
vn 0.005116 -0.999987 -0.000017
vn 0.005276 -0.950973 0.309228
vn 0.005739 -0.808707 0.588184
vn 0.006463 -0.587256 0.809375
vn 0.007368 -0.308436 0.951217
vn 0.008374 0.000688 0.999965
vn 0.009381 0.309528 0.950844
vn 0.010288 0.588092 0.808729
vn 0.011007 0.809124 0.587535
vn 0.011468 0.951036 0.308866
vn 0.011628 0.999932 0.000001
vn 0.923489 0.218153 -0.315560
vn 0.169621 0.578486 -0.797861
vn 0.538395 0.491650 -0.684406
vn 0.538390 0.490831 -0.684997
vn 0.922345 0.109323 -0.370578
vn 0.168619 0.303577 -0.937768
vn 0.537026 0.255657 -0.803892
vn 0.537019 0.254526 -0.804256
vn 0.701356 -0.007759 -0.712769
vn 0.327058 -0.003454 -0.944998
vn 0.699708 -0.227827 -0.677129
vn 0.325760 -0.295344 -0.898139
vn 0.698249 -0.425788 -0.575460
vn 0.324600 -0.558153 -0.763610
vn 0.697038 -0.582731 -0.417806
vn 0.323657 -0.766616 -0.554569
vn 0.696301 -0.683365 -0.219494
vn 0.323069 -0.900388 -0.291423
vn 0.696031 -0.718012 0.000044
vn 0.322859 -0.946447 0.000026
vn 0.696297 -0.683341 0.219583
vn 0.323066 -0.900370 0.291482
vn 0.697031 -0.582687 0.417879
vn 0.323653 -0.766578 0.554623
vn 0.698243 -0.425743 0.575499
vn 0.324597 -0.558121 0.763635
vn 0.699696 -0.227801 0.677150
vn 0.325753 -0.295329 0.898146
vn 0.701343 -0.007744 0.712781
vn 0.327051 -0.003436 0.945000
vn 0.922343 0.109292 0.370592
vn 0.168619 0.303567 0.937771
vn 0.537025 0.255625 0.803903
vn 0.537019 0.254491 0.804267
vn 0.923489 0.218117 0.315584
vn 0.169622 0.578476 0.797868
vn 0.538397 0.491607 0.684435
vn 0.538392 0.490785 0.685028
vn 0.924398 0.304659 0.229501
vn 0.170416 0.796733 0.579805
vn 0.539482 0.679195 0.497648
vn 0.539479 0.678760 0.498244
vn 0.924980 0.360321 0.120749
vn 0.170928 0.936931 0.304868
vn 0.540186 0.799796 0.261774
vn 0.540185 0.799675 0.262145
vn 0.925183 0.379523 0.000003
vn 0.171103 0.985253 0.000001
vn 0.540430 0.841389 0.000002
vn 0.540430 0.841389 0.000002
s 1
g pCylinder1
usemtl initialShadingGroup
f 1/153/1 2/154/2 26/155/3 22/156/4
f 2/154/2 3/159/5 30/160/6 26/155/3
f 3/291/5 4/292/7 34/293/8 30/294/6
f 4/292/7 5/297/9 38/298/10 34/293/8
f 5/297/9 6/302/11 42/303/12 38/298/10
f 6/302/11 7/306/13 46/307/14 42/303/12
f 7/232/13 8/222/15 50/225/16 46/233/14
f 8/222/15 9/223/17 54/224/18 50/225/16
f 9/223/17 10/228/19 58/229/20 54/224/18
f 10/228/19 11/238/21 62/239/22 58/229/20
f 11/238/21 12/247/23 66/248/24 62/239/22
f 12/247/23 13/258/25 70/259/26 66/248/24
f 13/311/25 14/312/27 74/313/28 70/314/26
f 14/312/27 15/317/29 78/318/30 74/313/28
f 15/317/29 16/324/31 82/325/32 78/318/30
f 16/324/31 17/331/33 86/332/34 82/325/32
f 17/190/33 18/179/35 90/180/36 86/191/34
f 18/179/35 19/171/37 94/172/38 90/180/36
f 19/171/37 20/163/39 98/164/40 94/172/38
f 20/163/39 1/153/1 22/156/4 98/164/40
f 25/1/41 29/2/42 21/3/43
f 29/2/42 33/6/44 21/3/43
f 33/6/44 37/12/45 21/3/43
f 37/12/45 41/18/46 21/3/43
f 41/18/46 45/24/47 21/3/43
f 45/24/47 49/30/48 21/3/43
f 49/30/48 53/36/49 21/3/43
f 53/36/49 57/42/50 21/3/43
f 57/42/50 61/48/51 21/3/43
f 61/48/51 65/54/52 21/3/43
f 65/54/52 69/55/53 21/3/43
f 69/55/53 73/49/54 21/3/43
f 73/49/54 77/43/55 21/3/43
f 77/43/55 81/37/56 21/3/43
f 81/37/56 85/31/57 21/3/43
f 85/31/57 89/25/58 21/3/43
f 89/25/58 93/19/59 21/3/43
f 93/19/59 97/13/60 21/3/43
f 97/13/60 101/7/61 21/3/43
f 101/7/61 25/1/41 21/3/43
f 24/4/62 25/1/41 101/7/61 100/8/63
f 22/156/4 23/161/64 99/170/65 98/164/40
f 23/9/64 24/4/62 100/8/63 99/15/65
f 25/1/41 24/4/62 28/5/66 29/2/42
f 24/4/62 23/9/64 27/10/67 28/5/66
f 23/161/64 22/156/4 26/155/3 27/162/67
f 29/2/42 28/5/66 32/11/68 33/6/44
f 28/5/66 27/10/67 31/16/69 32/11/68
f 27/162/67 26/155/3 30/160/6 31/169/69
f 33/6/44 32/11/68 36/17/70 37/12/45
f 32/11/68 31/16/69 35/22/71 36/17/70
f 31/299/69 30/294/6 34/293/8 35/300/71
f 37/12/45 36/17/70 40/23/72 41/18/46
f 36/17/70 35/22/71 39/28/73 40/23/72
f 35/300/71 34/293/8 38/298/10 39/304/73
f 41/18/46 40/23/72 44/29/74 45/24/47
f 40/23/72 39/28/73 43/34/75 44/29/74
f 39/304/73 38/298/10 42/303/12 43/308/75
f 45/24/47 44/29/74 48/35/76 49/30/48
f 44/29/74 43/34/75 47/40/77 48/35/76
f 43/308/75 42/303/12 46/307/14 47/310/77
f 49/30/48 48/35/76 52/41/78 53/36/49
f 48/35/76 47/40/77 51/46/79 52/41/78
f 47/241/77 46/233/14 50/225/16 51/230/79
f 53/36/49 52/41/78 56/47/80 57/42/50
f 52/41/78 51/46/79 55/52/81 56/47/82
f 51/230/79 50/225/16 54/224/18 55/231/83
f 57/42/50 56/47/80 60/53/84 61/48/51
f 56/47/82 55/52/81 59/58/85 60/53/86
f 55/231/83 54/224/18 58/229/20 59/240/87
f 61/48/51 60/53/84 64/59/88 65/54/52
f 60/53/86 59/58/85 63/61/89 64/59/90
f 59/240/87 58/229/20 62/239/22 63/249/91
f 65/54/52 64/59/88 68/56/92 69/55/53
f 64/59/90 63/61/89 67/60/93 68/56/92
f 63/249/91 62/239/22 66/248/24 67/260/93
f 69/55/53 68/56/92 72/50/94 73/49/54
f 68/56/92 67/60/93 71/57/95 72/50/94
f 67/260/93 66/248/24 70/259/26 71/271/95
f 73/49/54 72/50/94 76/44/96 77/43/55
f 72/50/94 71/57/95 75/51/97 76/44/96
f 71/319/95 70/314/26 74/313/28 75/320/97
f 77/43/55 76/44/96 80/38/98 81/37/56
f 76/44/96 75/51/97 79/45/99 80/38/98
f 75/320/97 74/313/28 78/318/30 79/326/99
f 81/37/56 80/38/98 84/32/100 85/31/57
f 80/38/98 79/45/99 83/39/101 84/32/100
f 79/326/99 78/318/30 82/325/32 83/333/101
f 85/31/57 84/32/100 88/26/102 89/25/58
f 84/32/100 83/39/101 87/33/103 88/26/102
f 83/333/101 82/325/32 86/332/34 87/339/103
f 89/25/58 88/26/102 92/20/104 93/19/59
f 88/26/102 87/33/103 91/27/105 92/20/104
f 87/202/103 86/191/34 90/180/36 91/189/105
f 93/19/59 92/20/104 96/14/106 97/13/60
f 92/20/104 91/27/105 95/21/107 96/14/106
f 91/189/105 90/180/36 94/172/38 95/178/107
f 97/13/60 96/14/106 100/8/63 101/7/61
f 96/14/106 95/21/107 99/15/65 100/8/63
f 95/178/107 94/172/38 98/164/40 99/170/65
f 2/154/2 1/153/1 179/157/108 160/158/109
f 3/159/5 2/154/2 160/158/109 161/168/110
f 4/292/7 3/291/5 161/295/111 162/296/112
f 5/297/9 4/292/7 162/296/112 163/301/113
f 6/302/11 5/297/9 163/301/113 164/305/114
f 7/306/13 6/302/11 164/305/114 165/309/115
f 8/222/15 7/232/13 165/234/116 166/226/117
f 9/223/17 8/222/15 166/226/117 167/227/118
f 10/228/19 9/223/17 167/227/118 168/237/119
f 11/238/21 10/228/19 168/237/119 169/246/120
f 12/247/23 11/238/21 169/246/120 170/257/121
f 13/258/25 12/247/23 170/257/121 171/270/122
f 14/312/27 13/311/25 171/315/122 172/316/123
f 15/317/29 14/312/27 172/316/123 173/323/124
f 16/324/31 15/317/29 173/323/124 174/330/125
f 17/331/33 16/324/31 174/330/125 175/338/126
f 18/179/35 17/190/33 175/192/126 176/181/127
f 19/171/37 18/179/35 176/181/127 177/173/128
f 20/163/39 19/171/37 177/173/128 178/165/129
f 1/153/1 20/163/39 178/165/129 179/157/108
f 124/186/130 123/176/131 103/185/132 105/198/133
f 125/356/134 124/357/135 105/358/133 106/359/136
f 126/362/137 125/356/134 106/359/136 107/363/138
f 127/367/139 126/362/137 107/363/138 108/368/140
f 128/371/141 127/367/139 108/368/140 109/372/142
f 129/243/143 128/252/144 109/264/142 110/253/145
f 130/244/146 129/243/143 110/253/145 111/254/147
f 131/255/148 130/244/146 111/254/147 112/267/149
f 132/268/150 131/255/148 112/267/149 113/277/151
f 133/278/152 132/268/150 113/277/151 114/283/153
f 134/284/154 133/278/152 114/283/153 115/287/155
f 135/328/156 134/327/154 115/334/155 116/335/157
f 136/336/158 135/328/156 116/335/157 117/342/159
f 137/343/160 136/336/158 117/342/159 118/348/161
f 138/349/162 137/343/160 118/348/161 119/352/163
f 139/204/164 138/211/162 119/216/163 120/212/165
f 140/194/166 139/204/164 120/212/165 121/205/167
f 141/183/168 140/194/166 121/205/167 122/195/169
f 142/175/170 141/183/168 122/195/169 102/184/171
f 123/176/131 142/175/170 102/184/171 103/185/132
f 144/177/172 143/167/173 123/176/131 124/186/130
f 146/235/174 145/242/175 128/252/144 129/243/143
f 147/236/176 146/235/174 129/243/143 130/244/146
f 148/245/177 147/236/176 130/244/146 131/255/148
f 149/256/178 148/245/177 131/255/148 132/268/150
f 150/269/179 149/256/178 132/268/150 133/278/152
f 151/279/180 150/269/179 133/278/152 134/284/154
f 152/322/181 151/321/180 134/327/154 135/328/156
f 153/329/182 152/322/181 135/328/156 136/336/158
f 154/337/183 153/329/182 136/336/158 137/343/160
f 155/344/184 154/337/183 137/343/160 138/349/162
f 156/193/185 155/203/184 138/211/162 139/204/164
f 157/182/186 156/193/185 139/204/164 140/194/166
f 158/174/187 157/182/186 140/194/166 141/183/168
f 159/166/188 158/174/187 141/183/168 142/175/170
f 143/167/173 159/166/188 142/175/170 123/176/131
f 161/168/110 160/158/109 143/167/173 144/177/172
f 166/226/117 165/234/116 145/242/175 146/235/174
f 167/227/118 166/226/117 146/235/174 147/236/176
f 168/237/119 167/227/118 147/236/176 148/245/177
f 169/246/120 168/237/119 148/245/177 149/256/178
f 170/257/121 169/246/120 149/256/178 150/269/179
f 171/270/122 170/257/121 150/269/179 151/279/180
f 172/316/123 171/315/122 151/321/180 152/322/181
f 173/323/124 172/316/123 152/322/181 153/329/182
f 174/330/125 173/323/124 153/329/182 154/337/183
f 175/338/126 174/330/125 154/337/183 155/344/184
f 176/181/127 175/192/126 155/203/184 156/193/185
f 177/173/128 176/181/127 156/193/185 157/182/186
f 178/165/129 177/173/128 157/182/186 158/174/187
f 179/157/108 178/165/129 158/174/187 159/166/188
f 160/158/109 179/157/108 159/166/188 143/167/173
s 6
f 185/376/189 184/377/190 187/378/191 186/379/192
s 7
f 184/200/193 183/187/194 188/199/195 187/210/196
f 206/82/197 205/87/198 208/83/199 207/79/200
s 6
f 205/381/201 204/380/202 209/385/203 208/386/204
f 180/384/205 185/376/189 186/379/192 189/383/206
f 181/389/207 180/384/205 189/383/206 192/388/208
f 182/394/209 181/389/207 192/388/208 195/393/210
f 201/399/211 182/394/209 195/393/210 198/398/212
f 209/385/203 204/380/202 185/376/189 180/384/205
f 212/390/213 209/385/203 180/384/205 181/389/207
f 215/395/214 212/390/213 181/389/207 182/394/209
f 218/400/215 215/395/214 182/394/209 201/399/211
s 7
f 144/177/216 124/186/217 188/199/195 183/187/194
f 124/70/217 125/62/218 191/65/219 188/71/195
f 125/62/220 126/63/221 194/64/222 191/65/219
f 126/63/223 127/66/224 197/67/225 194/64/222
f 127/66/226 128/72/227 200/73/228 197/67/225
f 128/252/227 145/242/229 203/251/230 200/263/228
f 162/78/231 161/81/232 206/82/197 207/79/200
f 161/168/232 144/177/233 183/187/194 206/188/197
f 163/77/234 162/78/235 207/79/200 210/80/236
f 164/85/237 163/77/234 210/80/236 213/86/238
f 165/89/239 164/85/240 213/86/238 216/90/241
f 145/242/242 165/234/239 216/250/241 203/251/230
s 6
f 186/379/192 187/378/191 190/382/243 189/383/206
s 7
f 187/75/196 188/71/195 191/65/219 190/68/244
s 6
f 189/383/206 190/382/243 193/387/245 192/388/208
s 7
f 190/68/244 191/65/219 194/64/222 193/69/246
s 6
f 192/388/208 193/387/245 196/392/247 195/393/210
s 7
f 193/69/246 194/64/222 197/67/225 196/74/248
s 6
f 195/393/210 196/392/247 199/397/249 198/398/212
s 7
f 196/74/248 197/67/225 200/73/228 199/76/250
s 6
f 198/398/212 199/397/249 202/402/251 201/399/211
s 7
f 199/272/250 200/263/228 203/251/230 202/261/252
f 183/187/194 184/200/193 205/201/198 206/188/197
s 6
f 184/377/190 185/376/189 204/380/202 205/381/201
s 7
f 207/79/200 208/83/199 211/84/253 210/80/236
s 6
f 208/386/204 209/385/203 212/390/213 211/391/254
s 7
f 210/80/236 211/84/253 214/88/255 213/86/238
s 6
f 211/391/254 212/390/213 215/395/214 214/396/256
s 7
f 213/86/238 214/88/255 217/91/257 216/90/241
s 6
f 214/396/256 215/395/214 218/400/215 217/401/258
f 201/399/211 202/402/251 217/401/258 218/400/215
s 7
f 202/261/252 203/251/230 216/250/241 217/262/257
s 1
f 222/196/259 221/207/260 224/208/261 223/197/262
f 221/101/263 220/92/264 225/95/265 224/102/266
f 220/92/267 219/93/268 226/94/269 225/95/270
f 226/94/269 219/93/268 104/98/271
f 230/99/272 226/94/269 104/98/271
f 234/106/273 230/99/272 104/98/271
f 238/112/274 234/106/273 104/98/271
f 242/118/275 238/112/274 104/98/271
f 246/124/276 242/118/275 104/98/271
f 250/130/277 246/124/276 104/98/271
f 254/136/278 250/130/277 104/98/271
f 258/142/279 254/136/278 104/98/271
f 262/148/280 258/142/279 104/98/271
f 266/147/281 262/148/280 104/98/271
f 270/141/282 266/147/281 104/98/271
f 274/135/283 270/141/282 104/98/271
f 278/129/284 274/135/283 104/98/271
f 282/123/285 278/129/284 104/98/271
f 286/117/286 282/123/285 104/98/271
f 290/111/287 286/117/286 104/98/271
f 294/105/288 290/111/287 104/98/271
f 298/97/289 294/105/288 104/98/271
f 219/93/268 298/97/289 104/98/271
f 103/185/132 102/184/171 222/196/259 223/197/262
f 105/198/133 103/185/132 223/197/262 227/209/290
f 106/359/136 105/358/133 227/360/290 231/361/291
f 107/363/138 106/359/136 231/361/291 235/366/292
f 108/368/140 107/363/138 235/366/292 239/370/293
f 109/372/142 108/368/140 239/370/293 243/374/294
f 110/253/145 109/264/142 243/273/294 247/265/295
f 111/254/147 110/253/145 247/265/295 251/266/296
f 112/267/149 111/254/147 251/266/296 255/276/297
f 113/277/151 112/267/149 255/276/297 259/282/298
f 114/283/153 113/277/151 259/282/298 263/286/299
f 115/287/155 114/283/153 263/286/299 267/289/300
f 116/335/157 115/334/155 267/340/300 271/341/301
f 117/342/159 116/335/157 271/341/301 275/347/302
f 118/348/161 117/342/159 275/347/302 279/351/303
f 119/352/163 118/348/161 279/351/303 283/354/304
f 120/212/165 119/216/163 283/219/304 287/217/305
f 121/205/167 120/212/165 287/217/305 291/213/306
f 122/195/169 121/205/167 291/213/306 295/206/307
f 102/184/171 122/195/169 295/206/307 222/196/259
f 225/95/270 226/94/269 230/99/272 229/100/308
f 223/197/262 224/208/261 228/215/309 227/209/290
f 224/102/266 225/95/265 229/100/310 228/108/311
f 229/100/308 230/99/272 234/106/273 233/107/312
f 227/360/290 228/364/309 232/365/313 231/361/291
f 228/108/311 229/100/310 233/107/314 232/114/315
f 233/107/312 234/106/273 238/112/274 237/113/316
f 231/361/291 232/365/313 236/369/317 235/366/292
f 232/114/315 233/107/314 237/113/316 236/120/317
f 237/113/316 238/112/274 242/118/275 241/119/318
f 235/366/292 236/369/317 240/373/319 239/370/293
f 236/120/317 237/113/316 241/119/318 240/126/319
f 241/119/318 242/118/275 246/124/276 245/125/320
f 239/370/293 240/373/319 244/375/321 243/374/294
f 240/126/319 241/119/318 245/125/320 244/132/321
f 245/125/320 246/124/276 250/130/277 249/131/322
f 243/273/294 244/280/321 248/274/323 247/265/295
f 244/132/321 245/125/320 249/131/322 248/138/323
f 249/131/322 250/130/277 254/136/278 253/137/324
f 247/265/295 248/274/323 252/275/325 251/266/296
f 248/138/323 249/131/322 253/137/324 252/144/325
f 253/137/324 254/136/278 258/142/279 257/143/326
f 251/266/296 252/275/325 256/281/327 255/276/297
f 252/144/325 253/137/324 257/143/326 256/150/327
f 257/143/326 258/142/279 262/148/280 261/149/328
f 255/276/297 256/281/327 260/285/329 259/282/298
f 256/150/327 257/143/326 261/149/328 260/152/329
f 261/149/328 262/148/280 266/147/281 265/146/330
f 259/282/298 260/285/329 264/288/331 263/286/299
f 260/152/329 261/149/328 265/146/330 264/151/331
f 265/146/330 266/147/281 270/141/282 269/140/332
f 263/286/299 264/288/331 268/290/333 267/289/300
f 264/151/331 265/146/330 269/140/332 268/145/333
f 269/140/332 270/141/282 274/135/283 273/134/334
f 267/340/300 268/345/333 272/346/335 271/341/301
f 268/145/333 269/140/332 273/134/334 272/139/335
f 273/134/334 274/135/283 278/129/284 277/128/336
f 271/341/301 272/346/335 276/350/337 275/347/302
f 272/139/335 273/134/334 277/128/336 276/133/337
f 277/128/336 278/129/284 282/123/285 281/122/338
f 275/347/302 276/350/337 280/353/339 279/351/303
f 276/133/337 277/128/336 281/122/340 280/127/341
f 281/122/338 282/123/285 286/117/286 285/116/342
f 279/351/303 280/353/339 284/355/343 283/354/304
f 280/127/341 281/122/340 285/116/344 284/121/345
f 285/116/342 286/117/286 290/111/287 289/110/346
f 283/219/304 284/221/343 288/220/347 287/217/305
f 284/121/345 285/116/344 289/110/348 288/115/349
f 289/110/346 290/111/287 294/105/288 293/104/350
f 287/217/305 288/220/347 292/218/351 291/213/306
f 288/115/349 289/110/348 293/104/352 292/109/353
f 293/104/350 294/105/288 298/97/289 297/96/354
f 291/213/306 292/218/351 296/214/355 295/206/307
f 292/109/353 293/104/352 297/96/356 296/103/357
f 219/93/268 220/92/267 297/96/354 298/97/289
f 220/92/264 221/101/263 296/103/357 297/96/356
f 221/207/260 222/196/259 295/206/307 296/214/355
