# This file uses centimeters as units for non-parametric coordinates.

mtllib Cantine.mtl
g default
v -0.114762 4.613126 -4.629770
v 0.670990 2.792578 -4.607175
v 0.858361 2.878369 -4.607175
v 0.072609 4.698917 -4.629770
v 0.537393 -0.180653 4.755267
v 0.537393 -0.180653 -4.755267
v 0.697551 -0.180653 -4.755267
v 0.697551 -0.180653 4.755267
v -0.897551 0.180653 -4.955267
v -0.897551 0.180653 4.955267
v -0.897551 2.628794 4.955267
v -0.897551 2.628794 -4.955267
v 0.670990 2.792578 -1.648790
v 0.858361 2.878369 -1.648790
v 0.697551 0.180653 -4.755267
v 0.697551 0.180653 4.755267
v 0.897551 0.180653 -4.955267
v 0.897551 0.168163 4.955267
v 0.923096 2.643735 -4.955267
v 0.923096 2.716459 4.955267
v -0.114762 4.613126 -1.671385
v 0.072609 4.698917 -1.671385
v 0.735725 2.630668 4.955267
v 0.735725 2.630668 -4.955267
v -0.114762 4.613126 -1.440862
v 0.670990 2.792578 -1.418267
v 0.858361 2.878369 -1.418267
v 0.072609 4.698917 -1.440862
v 0.670990 2.792578 1.378262
v 0.858361 2.878369 1.378262
v -0.697551 -0.180653 4.755267
v 0.537393 0.180653 4.755267
v -0.697551 0.180653 4.755267
v 0.691473 0.168163 4.955267
v -0.114762 4.613126 1.355667
v 0.072609 4.698917 1.355667
v -0.243866 4.770150 4.955267
v -0.056494 4.855941 4.955267
v -0.056494 4.855941 -4.955267
v -0.243866 4.770150 -4.955267
v -0.114762 4.613126 1.596562
v 0.670990 2.792578 1.619157
v 0.858361 2.878369 1.619157
v 0.072609 4.698917 1.596562
v 0.670990 2.792578 4.633180
v 0.858361 2.878369 4.633180
v -0.114762 4.613126 4.610585
v 0.072609 4.698917 4.610585
v -0.697551 -0.180653 -4.755267
v -0.697551 0.180653 -4.755267
v 0.691473 0.180653 -4.955267
v 0.537393 0.180653 -4.755267
v 0.897551 0.180653 -7.895248
v 0.691473 0.180653 -7.895248
v 0.735725 2.630668 -7.895248
v 0.923096 2.643735 -7.895248
v -0.897551 0.180653 -7.895248
v -0.897551 2.628794 -7.895248
v 0.537393 -0.180653 -7.695248
v 0.537393 0.180653 -7.695248
v 0.697551 0.180653 -7.695248
v 0.697551 -0.180653 -7.695248
v -0.697551 0.180653 -7.695248
v -0.697551 -0.180653 -7.695248
v 0.919791 2.386688 4.955268
v 0.919791 2.388304 -4.955267
v 0.919791 2.388304 -7.895248
v 0.729998 2.313616 -7.895248
v -0.897551 2.311984 -7.895248
v -0.897551 2.311984 -4.955268
v -0.897551 2.311984 4.955267
v 0.729998 2.311999 4.955267
v 0.917945 2.202532 4.955268
v 0.917945 2.205051 -4.955267
v 0.917945 2.205051 -7.895248
v 0.726801 2.136563 -7.895248
v -0.897551 2.135066 -7.895248
v -0.897551 2.135066 -4.955268
v -0.897551 2.135066 4.955267
v 0.726801 2.134043 4.955267
v 2.192896 2.189720 4.955265
v 2.192896 2.192223 -4.955269
v 2.194742 2.375476 -4.955269
v 2.194742 2.373876 4.955265
v 2.194742 2.375461 -7.895248
v 2.192895 2.192208 -7.895248
v 0.735725 2.630668 1.634673
v -0.897551 2.628794 1.634673
v -0.897551 2.311984 1.634673
v -0.897551 2.135066 1.634673
v -0.897551 0.180653 1.634673
v -0.697551 0.180653 1.568696
v -0.697551 -0.180653 1.568696
v 0.537393 -0.180653 1.568696
v 0.697551 -0.180653 1.568696
v 0.697551 0.180653 1.568696
v 0.897551 0.172348 1.634673
v 0.917945 2.203376 1.634673
v 2.192896 2.190559 1.634671
v 2.194742 2.374412 1.634671
v 0.919791 2.387229 1.634673
v 0.923096 2.692092 1.634673
v 0.735725 2.630668 -1.484791
v -0.897551 2.628794 -1.484791
v -0.897551 2.311984 -1.484791
v -0.897551 2.135066 -1.484791
v -0.897551 0.180653 -1.484791
v -0.697551 0.180653 -1.424863
v -0.697551 -0.180653 -1.424863
v 0.537393 -0.180653 -1.424863
v 0.697551 -0.180653 -1.424863
v 0.697551 0.180653 -1.424863
v 0.897551 0.176279 -1.484791
v 0.917945 2.204169 -1.484791
v 2.192896 2.191347 -1.484793
v 2.194742 2.374916 -1.484793
v 0.919791 2.387738 -1.484791
v 0.923096 2.669201 -1.484791
v -0.697551 2.629024 4.755268
v 0.535725 2.630439 4.755268
v 0.535725 2.630439 1.834673
v -0.697551 2.629024 1.834673
v 0.535725 2.630439 1.434673
v -0.697551 2.629024 1.434673
v 0.535725 2.630439 -1.284791
v -0.697551 2.629024 -1.284791
v 0.535725 2.630439 -1.684791
v -0.697551 2.629024 -1.684791
v 0.535725 2.630439 -4.755268
v -0.697551 2.629024 -4.755268
v -0.696995 2.144365 4.755268
v 0.536281 2.145780 4.755268
v 0.536281 2.145780 1.834673
v -0.696995 2.144365 1.834673
v 0.536281 2.145780 1.434673
v -0.696995 2.144365 1.434673
v 0.536281 2.145780 -1.284791
v -0.696995 2.144365 -1.284791
v 0.536281 2.145780 -1.684791
v -0.696995 2.144365 -1.684791
v 0.536281 2.145780 -4.755268
v -0.696995 2.144365 -4.755268
vt 0.108598 0.168212
vt 0.108598 0.001992
vt 0.124457 0.001992
vt 0.124457 0.168212
vt 0.099742 0.168212
vt 0.099742 0.001992
vt 0.108598 0.324364
vt 0.124457 0.324364
vt 0.001910 0.168212
vt 0.001910 0.001992
vt 0.099742 0.324364
vt 0.108598 0.498087
vt 0.124457 0.498087
vt 0.001910 0.324364
vt 0.099742 0.498087
vt 0.124457 0.645254
vt 0.108598 0.645254
vt 0.001910 0.498087
vt 0.099742 0.645254
vt 0.001910 0.645254
vt 0.799941 0.625231
vt 0.799941 0.465720
vt 0.818027 0.465720
vt 0.818027 0.625231
vt 0.799941 0.315871
vt 0.818027 0.315871
vt 0.799941 0.149160
vt 0.818027 0.149160
vt 0.799941 0.001992
vt 0.818027 0.001992
vt 0.228184 0.645254
vt 0.228211 0.479034
vt 0.243471 0.479034
vt 0.244691 0.645254
vt 0.228236 0.322882
vt 0.242326 0.322882
vt 0.241051 0.149160
vt 0.252796 0.166584
vt 0.252796 0.314673
vt 0.252796 0.326212
vt 0.252796 0.466199
vt 0.252796 0.478258
vt 0.252796 0.629131
vt 0.228265 0.149160
vt 0.351788 0.149160
vt 0.343928 0.165453
vt 0.343928 0.313542
vt 0.343928 0.325081
vt 0.343928 0.465068
vt 0.343928 0.477126
vt 0.343928 0.628000
vt 0.351788 0.645254
vt 0.228265 0.001992
vt 0.241051 0.001992
vt 0.948944 0.519167
vt 0.857812 0.518036
vt 0.849707 0.501913
vt 0.956804 0.501913
vt 0.857812 0.668910
vt 0.857812 0.680969
vt 0.857812 0.820955
vt 0.857812 0.832495
vt 0.857812 0.980584
vt 0.849707 0.998008
vt 0.849707 0.824285
vt 0.849707 0.668133
vt 0.956804 0.998008
vt 0.948944 0.981715
vt 0.948944 0.833626
vt 0.948944 0.822086
vt 0.948944 0.682100
vt 0.948944 0.670041
vt 0.824231 0.161503
vt 0.824231 0.001992
vt 0.842317 0.001992
vt 0.842317 0.161503
vt 0.824231 0.311353
vt 0.842317 0.311353
vt 0.824231 0.478064
vt 0.842317 0.478064
vt 0.842317 0.625231
vt 0.824231 0.625231
vt 0.456139 0.645254
vt 0.456181 0.479034
vt 0.465384 0.479034
vt 0.465358 0.645254
vt 0.456221 0.322882
vt 0.465409 0.322882
vt 0.456264 0.149160
vt 0.465438 0.149160
vt 0.465437 0.001992
vt 0.456264 0.001992
vt 0.472956 0.645254
vt 0.473165 0.479034
vt 0.574833 0.479034
vt 0.574791 0.645254
vt 0.473362 0.322882
vt 0.574873 0.322882
vt 0.473581 0.149160
vt 0.574917 0.149160
vt 0.574917 0.001992
vt 0.473581 0.001992
vt 0.221694 0.649081
vt 0.221694 0.795278
vt 0.197433 0.795278
vt 0.197433 0.649081
vt 0.191551 0.649081
vt 0.191551 0.795278
vt 0.167291 0.795278
vt 0.167291 0.649081
vt 0.063270 0.649081
vt 0.063270 0.785210
vt 0.039009 0.785210
vt 0.039009 0.649081
vt 0.033127 0.649081
vt 0.033127 0.785210
vt 0.008866 0.785210
vt 0.008866 0.649081
vt 0.486358 0.649081
vt 0.486358 0.802781
vt 0.462097 0.802781
vt 0.462097 0.649081
vt 0.456215 0.649081
vt 0.456215 0.802781
vt 0.431955 0.802781
vt 0.431955 0.649081
vt 0.785151 0.625231
vt 0.785151 0.465720
vt 0.793168 0.465720
vt 0.793168 0.625231
vt 0.723333 0.465720
vt 0.723333 0.625231
vt 0.785151 0.315871
vt 0.793168 0.315871
vt 0.723333 0.315871
vt 0.785151 0.149160
vt 0.793168 0.149160
vt 0.723333 0.149160
vt 0.785151 0.001992
vt 0.793168 0.001992
vt 0.723333 0.001992
vt 0.386171 0.797170
vt 0.386171 0.649081
vt 0.395550 0.649081
vt 0.395550 0.797170
vt 0.210869 0.635243
vt 0.210869 0.475732
vt 0.220880 0.479034
vt 0.220880 0.645254
vt 0.210869 0.325882
vt 0.220880 0.322882
vt 0.210565 0.645254
vt 0.202852 0.635243
vt 0.210869 0.159171
vt 0.220880 0.149160
vt 0.141034 0.635243
vt 0.131022 0.645254
vt 0.202852 0.159171
vt 0.210565 0.149160
vt 0.141034 0.475732
vt 0.131022 0.479034
vt 0.141034 0.159171
vt 0.131022 0.149160
vt 0.210565 0.001992
vt 0.220880 0.001992
vt 0.141034 0.325882
vt 0.131022 0.322882
vt 0.131022 0.001992
vt 0.370909 0.797170
vt 0.370909 0.649081
vt 0.380289 0.649081
vt 0.380289 0.797170
vt 0.227576 0.649081
vt 0.289310 0.649081
vt 0.289310 0.795278
vt 0.227576 0.795278
vt 0.152029 0.789068
vt 0.152029 0.649081
vt 0.161409 0.649081
vt 0.161409 0.789068
vt 0.136768 0.789068
vt 0.136768 0.649081
vt 0.146147 0.649081
vt 0.146147 0.789068
vt 0.848522 0.001992
vt 0.857901 0.001992
vt 0.857901 0.498087
vt 0.848522 0.498087
vt 0.416693 0.799955
vt 0.416693 0.649081
vt 0.426073 0.649081
vt 0.426073 0.799955
vt 0.401432 0.799955
vt 0.401432 0.649081
vt 0.410811 0.649081
vt 0.410811 0.799955
vt 0.440735 0.498087
vt 0.450115 0.498087
vt 0.450115 0.645254
vt 0.440735 0.645254
vt 0.358978 0.498087
vt 0.358978 0.645254
vt 0.368989 0.488075
vt 0.430724 0.488075
vt 0.358978 0.324364
vt 0.368989 0.334375
vt 0.440735 0.324364
vt 0.430724 0.334375
vt 0.368989 0.314353
vt 0.430724 0.314353
vt 0.358978 0.168212
vt 0.368989 0.178224
vt 0.440735 0.168212
vt 0.430724 0.178224
vt 0.368989 0.158201
vt 0.430724 0.158201
vt 0.358978 0.001992
vt 0.368989 0.012003
vt 0.440735 0.001992
vt 0.430724 0.012003
vt 0.357010 0.649081
vt 0.365027 0.649081
vt 0.365027 0.796248
vt 0.357010 0.796248
vt 0.295192 0.649081
vt 0.295192 0.796248
vt 0.581328 0.645254
vt 0.581328 0.479034
vt 0.645149 0.479034
vt 0.645149 0.645254
vt 0.581328 0.322882
vt 0.645149 0.322882
vt 0.581328 0.149160
vt 0.645148 0.149160
vt 0.581328 0.001992
vt 0.645148 0.001992
vt 0.652330 0.168212
vt 0.652330 0.001992
vt 0.716151 0.001992
vt 0.716151 0.168212
vt 0.652330 0.324364
vt 0.716151 0.324364
vt 0.652330 0.498087
vt 0.716151 0.498087
vt 0.652330 0.645254
vt 0.716151 0.645254
vt 0.069152 0.649081
vt 0.130886 0.649081
vt 0.130886 0.785210
vt 0.069152 0.785210
vt 0.492240 0.649081
vt 0.553974 0.649081
vt 0.553974 0.802781
vt 0.492240 0.802781
vt 0.067494 0.880168
vt 0.106826 0.789037
vt 0.116206 0.793331
vt 0.076873 0.884463
vt 0.162881 0.894531
vt 0.123548 0.803399
vt 0.132928 0.799105
vt 0.172260 0.890236
vt 0.179603 0.890236
vt 0.218936 0.799105
vt 0.228315 0.803399
vt 0.188982 0.894531
vt 0.403822 0.873617
vt 0.403822 0.811799
vt 0.421908 0.811799
vt 0.421908 0.873617
vt 0.403822 0.803782
vt 0.421908 0.803782
vt 0.274990 0.894531
vt 0.235658 0.803399
vt 0.245037 0.799105
vt 0.284370 0.890236
vt 0.689034 0.756395
vt 0.770504 0.756396
vt 0.770791 0.772347
vt 0.689034 0.772254
vt 0.689034 0.747539
vt 0.770344 0.747488
vt 0.780005 0.760134
vt 0.780170 0.776642
vt 0.689034 0.649706
vt 0.768576 0.649081
vt 0.779912 0.750916
vt 0.731135 0.883739
vt 0.721755 0.879444
vt 0.778892 0.649081
vt 0.843733 0.750275
vt 0.843826 0.759493
vt 0.291712 0.891207
vt 0.331045 0.800075
vt 0.340424 0.804370
vt 0.301092 0.895501
vt 0.387100 0.899208
vt 0.347767 0.808076
vt 0.357146 0.803782
vt 0.396479 0.894913
vt 0.060325 0.899774
vt 0.050945 0.900428
vt 0.001910 0.793331
vt 0.011289 0.789037
vt 0.572643 0.712902
vt 0.576381 0.722402
vt 0.560511 0.722116
vt 0.559856 0.712736
vt 0.581816 0.712994
vt 0.585244 0.722562
vt 0.576463 0.803873
vt 0.560604 0.803873
vt 0.683152 0.714015
vt 0.683152 0.724331
vt 0.585319 0.803873
vt 0.573286 0.649081
vt 0.582459 0.649174
vt 0.683152 0.803873
vt 0.446198 0.814625
vt 0.428112 0.814625
vt 0.428112 0.806608
vt 0.446198 0.806608
vt 0.428112 0.876443
vt 0.446198 0.876443
vt 0.452473 0.868370
vt 0.452402 0.806635
vt 0.476663 0.806608
vt 0.476734 0.868342
vt 0.508498 0.806635
vt 0.508427 0.868370
vt 0.484166 0.868342
vt 0.484237 0.806607
vt 0.516002 0.868370
vt 0.515931 0.806635
vt 0.540192 0.806608
vt 0.540262 0.868342
vt 0.572027 0.807727
vt 0.571956 0.869462
vt 0.547695 0.869434
vt 0.547766 0.807700
vt 0.579530 0.869462
vt 0.579459 0.807728
vt 0.603720 0.807700
vt 0.603791 0.869434
vt 0.635555 0.807727
vt 0.635484 0.869462
vt 0.611224 0.869434
vt 0.611295 0.807700
vn -0.004745 0.010363 0.999935
vn -0.004745 0.010363 0.999935
vn -0.004745 0.010363 0.999935
vn -0.004745 0.010363 0.999935
vn 0.000000 -1.000000 0.000000
vn 0.000000 -1.000000 0.000000
vn 0.000000 -1.000000 0.000000
vn 0.000000 -1.000000 0.000000
vn -1.000000 0.000000 0.000000
vn -1.000000 0.000000 0.000000
vn -1.000000 0.000000 0.000000
vn -1.000000 0.000000 0.000000
vn -0.416302 0.909226 0.000000
vn -0.416302 0.909226 0.000000
vn -0.416302 0.909226 0.000000
vn -0.416302 0.909226 0.000000
vn 1.000000 0.000000 0.000000
vn 1.000000 0.000000 0.000000
vn 1.000000 0.000000 0.000000
vn 1.000000 0.000000 0.000000
vn -0.048756 -0.998803 -0.003932
vn -0.039878 -0.999204 -0.000643
vn -0.043893 -0.999036 -0.000643
vn -0.048755 -0.998803 -0.003932
vn 0.999946 -0.010417 0.000037
vn 0.999942 -0.010816 0.000039
vn 0.978386 0.206784 -0.000786
vn 0.983171 0.181514 0.020696
vn 0.416302 -0.909226 0.000000
vn 0.416302 -0.909226 0.000000
vn 0.416302 -0.909226 0.000000
vn 0.416302 -0.909226 0.000000
vn -0.001147 0.999999 0.000000
vn -0.001147 0.999999 0.000000
vn -0.001147 0.999999 0.000000
vn -0.001147 0.999999 0.000000
vn 0.004745 -0.010363 -0.999935
vn 0.004745 -0.010363 -0.999935
vn 0.004745 -0.010363 -0.999935
vn 0.004745 -0.010363 -0.999935
vn -0.004744 0.010363 0.999935
vn -0.004744 0.010363 0.999935
vn -0.004744 0.010363 0.999935
vn -0.004744 0.010363 0.999935
vn -0.416302 0.909226 0.000000
vn -0.416302 0.909226 0.000000
vn -0.416302 0.909226 0.000000
vn -0.416302 0.909226 0.000000
vn 0.000000 0.000000 1.000000
vn 0.000000 0.000000 1.000000
vn 0.000000 0.000000 1.000000
vn 0.000000 0.000000 1.000000
vn -0.001338 -0.999953 -0.009603
vn -0.004197 -0.999438 -0.033270
vn -0.003359 -0.999231 -0.039072
vn -0.001339 -0.999953 -0.009604
vn 0.000000 0.000000 1.000000
vn 0.000000 0.000000 1.000000
vn 0.416302 -0.909226 0.000000
vn 0.416302 -0.909226 0.000000
vn 0.416302 -0.909226 0.000000
vn 0.416302 -0.909226 0.000000
vn -0.416302 0.909226 0.000000
vn -0.416302 0.909226 0.000000
vn -0.416302 0.909226 0.000000
vn -0.416302 0.909226 0.000000
vn 0.004745 -0.010363 -0.999935
vn 0.004745 -0.010363 -0.999935
vn 0.004745 -0.010363 -0.999935
vn 0.004745 -0.010363 -0.999935
vn 0.000000 0.000000 1.000000
vn -0.000000 0.000000 1.000000
vn -0.000000 0.000000 1.000000
vn 0.000000 0.000000 1.000000
vn -0.004744 0.010363 0.999935
vn -0.004744 0.010363 0.999935
vn -0.004744 0.010363 0.999935
vn -0.004744 0.010363 0.999935
vn -0.416302 0.909226 0.000000
vn -0.416302 0.909226 0.000000
vn -0.416302 0.909226 0.000000
vn -0.416302 0.909226 0.000000
vn 0.000001 0.000000 1.000000
vn -0.000000 0.000000 1.000000
vn 0.416302 -0.909226 0.000000
vn 0.416302 -0.909226 0.000000
vn 0.416302 -0.909226 0.000000
vn 0.416302 -0.909226 0.000000
vn 0.004745 -0.010363 -0.999935
vn 0.004745 -0.010363 -0.999935
vn 0.004745 -0.010363 -0.999935
vn 0.004745 -0.010363 -0.999935
vn 0.000000 0.000000 1.000000
vn 0.000000 0.000000 1.000000
vn -0.809391 -0.586899 -0.020867
vn -0.924522 -0.380427 -0.023128
vn -0.920377 -0.388540 -0.044081
vn -0.838874 -0.542928 -0.038982
vn 0.977485 0.211005 -0.000802
vn 0.989969 0.139619 -0.021644
vn 0.942625 0.332208 -0.033113
vn 0.947606 0.319439 -0.001057
vn 0.947645 0.319323 -0.001059
vn 0.947485 0.319800 -0.001053
vn 0.947525 0.319679 -0.001054
vn 0.943011 0.332204 0.019278
vn -0.920080 -0.389017 0.046016
vn -0.924707 -0.380019 0.022414
vn -0.909849 -0.405088 0.089883
vn -0.909849 -0.405088 0.089883
vn 0.809391 0.586899 0.020867
vn 0.791501 0.611168 0.000000
vn 0.791260 0.611480 0.000000
vn 0.790778 0.612103 0.000000
vn 0.790545 0.612404 0.000000
vn 0.811849 0.582990 -0.032003
vn 0.838465 0.542094 -0.055779
vn 0.838874 0.542928 0.038982
vn 0.000000 -1.000000 0.000000
vn 0.000000 -1.000000 0.000000
vn 0.000002 0.000000 -1.000000
vn 0.000002 0.000000 -1.000000
vn 0.000002 0.000000 -1.000000
vn 0.000002 0.000000 -1.000000
vn 0.000000 -1.000000 0.000000
vn 0.000000 -1.000000 0.000000
vn -1.000000 0.000000 0.000000
vn -1.000000 0.000000 0.000000
vn -1.000000 0.000000 0.000000
vn -1.000000 0.000000 0.000000
vn 0.000000 0.000000 -1.000000
vn -0.000000 0.000001 -1.000000
vn -0.000000 0.000002 -1.000000
vn 0.000000 0.000002 -1.000000
vn -0.000000 0.000000 -1.000000
vn -0.000000 0.000002 -1.000000
vn -0.010772 -0.999942 -0.000610
vn 0.000000 -1.000000 -0.000000
vn 0.000000 -1.000000 0.000000
vn -0.004004 -0.999992 -0.000227
vn 0.000000 0.000000 -1.000000
vn 0.000000 0.000000 -1.000000
vn 0.000000 0.000000 -1.000000
vn 0.000000 0.000000 -1.000000
vn 0.000000 -1.000000 -0.000000
vn 0.000000 -1.000000 -0.000000
vn 0.000000 0.000000 -1.000000
vn 0.000000 0.000000 -1.000000
vn -0.918135 -0.396269 0.000000
vn -0.918135 -0.396269 0.000000
vn -0.927310 -0.374294 0.000000
vn -0.927326 -0.374255 0.000000
vn -0.791501 -0.611168 0.000000
vn -0.791260 -0.611480 0.000000
vn -0.927262 -0.374414 0.000000
vn -0.927278 -0.374374 0.000000
vn -0.772438 -0.635091 0.000000
vn -0.772438 -0.635091 0.000000
vn -0.772438 -0.635091 0.000000
vn -0.772438 -0.635091 0.000000
vn -0.928534 -0.371248 0.000000
vn -0.928534 -0.371248 0.000000
vn 0.000000 -1.000000 0.000000
vn 0.000000 -1.000000 0.000000
vn -0.007636 0.999971 0.000000
vn -0.069567 0.997577 0.000000
vn -0.069567 0.997577 0.000000
vn -0.008206 0.999966 0.000000
vn 0.999921 -0.012594 0.000024
vn 0.999916 -0.012941 0.000000
vn 0.999916 -0.012941 0.000000
vn 0.000000 -1.000000 0.000000
vn -1.000000 0.000000 0.000000
vn -1.000000 0.000000 0.000000
vn -1.000000 0.000000 0.000000
vn -1.000000 0.000000 0.000000
vn -0.001148 0.999999 0.000000
vn -0.001148 0.999999 0.000000
vn 0.000000 1.000000 0.000000
vn 0.000000 1.000000 0.000000
vn 0.000000 1.000000 0.000000
vn 0.000000 1.000000 0.000000
vn 1.000000 0.000000 0.000000
vn 1.000000 0.000000 0.000000
vn 1.000000 0.000000 0.000000
vn 1.000000 0.000000 0.000000
vn 0.000000 -1.000000 0.000000
vn 0.000000 -1.000000 0.000000
vn 0.000000 -1.000000 0.000000
vn 0.000000 -1.000000 0.000000
vn 0.000000 1.000000 0.000000
vn 0.000000 1.000000 0.000000
vn 0.000000 -1.000000 0.000000
vn 0.000000 -1.000000 0.000000
vn -1.000000 0.000000 0.000000
vn -1.000000 0.000000 0.000000
vn -1.000000 0.000000 0.000000
vn -1.000000 0.000000 0.000000
vn 0.999950 -0.010032 -0.000002
vn 0.999950 -0.010039 -0.000002
vn 0.999950 -0.010039 -0.000002
vn 0.999950 -0.010032 -0.000002
vn 0.999949 -0.010074 0.000000
vn 0.999949 -0.010068 -0.000001
vn 0.999949 -0.010068 -0.000001
vn 0.999949 -0.010074 0.000000
vn 0.000000 -0.000000 -1.000000
vn -0.000000 -0.000000 -1.000000
vn -0.000000 -0.000000 -1.000000
vn -1.000000 -0.000000 0.000000
vn -1.000000 0.000000 0.000000
vn -1.000000 0.000000 0.000000
vn -1.000000 0.000000 0.000000
vn 0.000000 0.000000 1.000000
vn -0.000000 -0.000000 1.000000
vn -0.000000 -0.000000 1.000000
vn 0.999950 -0.010032 -0.000008
vn 0.999950 -0.010040 -0.000008
vn 0.999950 -0.010040 -0.000008
vn 0.999950 -0.010032 -0.000008
vn 0.999949 -0.010073 0.000000
vn 0.999949 -0.010069 -0.000004
vn 0.999949 -0.010069 -0.000004
vn 0.999949 -0.010073 0.000000
vn 0.000000 -0.000000 -1.000000
vn -0.000000 -0.000000 -1.000000
vn -0.000000 -0.000000 -1.000000
vn -1.000000 -0.000000 0.000000
vn -1.000000 0.000000 0.000000
vn -1.000000 0.000000 0.000000
vn -1.000000 0.000000 0.000000
vn 0.000000 0.000000 1.000000
vn 0.000000 -0.000000 1.000000
vn -0.000002 -0.000000 1.000000
vn -0.010051 -0.999950 -0.000253
vn -0.010053 -0.999949 -0.000253
vn -0.010053 -0.999949 -0.000253
vn -0.010051 -0.999949 -0.000253
vn 0.010053 0.999950 0.000162
vn 0.010051 0.999950 0.000162
vn 0.010051 0.999950 0.000162
vn 0.010053 0.999950 0.000162
vn 0.000002 -0.000000 1.000000
vn 0.000002 -0.000000 1.000000
vn 0.010067 0.999949 -0.000003
vn 0.010063 0.999949 0.000087
vn 0.010063 0.999949 0.000087
vn 0.010067 0.999949 -0.000003
vn -0.010063 -0.999949 -0.000136
vn -0.010067 -0.999949 0.000003
vn -0.010067 -0.999949 0.000003
vn -0.010063 -0.999949 -0.000136
vn 0.000000 0.000000 -1.000000
vn 0.000000 0.000000 -1.000000
vn -0.001147 0.999999 0.000000
vn -0.001147 0.999999 0.000000
vn -0.001147 0.999999 0.000000
vn -0.001147 0.999999 0.000000
vn -1.000000 0.000000 0.000000
vn -1.000000 0.000000 0.000000
vn -1.000000 0.000000 0.000000
vn -1.000000 0.000000 0.000000
vn 0.000000 -1.000000 0.000000
vn 0.000000 -1.000000 0.000000
vn -1.000000 0.000000 0.000000
vn -1.000000 0.000000 0.000000
vn 0.000000 -1.000000 0.000000
vn 0.000000 -1.000000 0.000000
vn 0.000000 -1.000000 0.000000
vn 1.000000 0.000000 0.000000
vn 1.000000 0.000000 0.000000
vn -0.022870 -0.999738 -0.000643
vn -0.019115 -0.999817 -0.000643
vn 0.999950 -0.010057 -0.000008
vn 0.999950 -0.010057 -0.000008
vn -0.010057 -0.999949 -0.000253
vn -0.010057 -0.999949 -0.000253
vn 0.999949 -0.010055 -0.000002
vn 0.999949 -0.010055 -0.000002
vn 0.010057 0.999950 0.000162
vn 0.010057 0.999950 0.000162
vn 0.999930 -0.011799 0.000042
vn -0.001147 0.999999 0.000000
vn -0.001147 0.999999 0.000000
vn -0.001147 0.999999 0.000000
vn -0.001147 0.999999 0.000000
vn -0.001148 0.999999 -0.000000
vn -0.001148 0.999999 -0.000000
vn -0.001148 0.999999 -0.000000
vn -0.001148 0.999999 -0.000000
vn -0.001148 0.999999 0.000000
vn -0.001148 0.999999 0.000000
vn -0.001148 0.999999 0.000000
vn -0.001148 0.999999 0.000000
vn -0.001148 0.999999 -0.000000
vn -0.001148 0.999999 -0.000000
vn -0.001148 0.999999 0.000000
vn -0.001148 0.999999 0.000000
vn -0.001148 0.999999 0.000000
vn -0.001148 0.999999 0.000000
vn -0.001148 0.999999 -0.000000
vn -0.001148 0.999999 -0.000000
vn -0.001148 0.999999 0.000000
vn -0.001148 0.999999 0.000000
vn 0.000000 0.000000 -1.000000
vn 0.000000 0.000000 -1.000000
vn 0.000000 0.000000 -1.000000
vn 0.000000 0.000000 -1.000000
vn -0.999999 -0.001147 0.000000
vn -0.999999 -0.001147 0.000000
vn -0.999999 -0.001147 0.000000
vn -0.999999 -0.001147 0.000000
vn 0.000000 0.000000 1.000000
vn 0.000000 0.000000 1.000000
vn 0.000000 0.000000 1.000000
vn 0.000000 0.000000 1.000000
vn 0.999999 0.001147 0.000000
vn 0.999999 0.001147 0.000000
vn 0.999999 0.001147 0.000000
vn 0.999999 0.001147 0.000000
vn 0.000000 0.000000 -1.000000
vn 0.000000 0.000000 -1.000000
vn 0.000000 0.000000 -1.000000
vn 0.000000 0.000000 -1.000000
vn -0.999999 -0.001147 0.000000
vn -0.999999 -0.001147 0.000000
vn -0.999999 -0.001147 0.000000
vn -0.999999 -0.001147 0.000000
vn 0.000000 0.000000 1.000000
vn 0.000000 0.000000 1.000000
vn 0.000000 0.000000 1.000000
vn 0.000000 0.000000 1.000000
vn 0.999999 0.001147 0.000000
vn 0.999999 0.001147 0.000000
vn 0.999999 0.001147 0.000000
vn 0.999999 0.001147 0.000000
vn 0.000000 0.000000 -1.000000
vn 0.000000 0.000000 -1.000000
vn 0.000000 0.000000 -1.000000
vn 0.000000 0.000000 -1.000000
vn -0.999999 -0.001147 0.000000
vn -0.999999 -0.001147 0.000000
vn -0.999999 -0.001147 0.000000
vn -0.999999 -0.001147 0.000000
vn 0.000000 0.000000 1.000000
vn 0.000000 0.000000 1.000000
vn 0.000000 0.000000 1.000000
vn 0.000000 0.000000 1.000000
vn 0.999999 0.001147 -0.000000
vn 0.999999 0.001147 -0.000000
vn 0.999999 0.001147 -0.000000
vn 0.999999 0.001147 -0.000000
s off
g pCube5
usemtl initialShadingGroup
f 1/255/1 2/256/2 3/257/3 4/258/4
s 1
f 5/127/5 94/128/6 95/129/7 8/130/8
s 2
f 89/1/9 71/2/10 11/3/11 88/4/12
s off
f 2/142/13 13/143/14 14/144/15 3/145/16
s 3
f 8/21/17 95/22/18 96/23/19 16/24/20
s 4
f 16/146/21 96/147/22 97/148/23 18/149/24
s 5
f 65/31/25 101/32/26 102/33/27 20/34/28
s off
f 21/169/29 1/170/30 4/171/31 22/172/32
f 131/173/33 132/174/34 133/175/35 134/176/36
f 13/259/37 21/260/38 22/261/39 14/262/40
f 25/263/41 26/264/42 27/265/43 28/266/44
f 26/177/45 29/178/46 30/179/47 27/180/48
s 6
f 31/267/49 5/268/50 32/269/51 33/270/52
s 4
f 33/156/53 32/153/54 34/152/55 10/157/56
s 6
f 32/269/51 5/268/50 8/271/57 16/272/58
s off
f 35/181/59 25/182/60 28/183/61 36/184/62
s 4
f 34/152/55 32/153/54 16/146/21 18/149/24
s off
f 37/185/63 38/186/64 39/187/65 40/188/66
f 29/273/67 35/274/68 36/275/69 30/276/70
s 7
f 71/277/71 72/278/72 23/279/73 11/280/74
s off
f 41/293/75 42/294/76 43/295/77 44/296/78
f 42/189/79 45/190/80 46/191/81 43/192/82
s 7
f 23/279/73 72/278/72 65/283/83 20/284/84
s off
f 47/193/85 41/194/86 44/195/87 48/196/88
f 45/297/89 47/298/90 48/299/91 46/300/92
s 7
f 23/279/73 20/284/84 38/288/93 37/289/94
s 8
f 47/55/95 45/56/96 23/57/97 37/58/98
s 5
f 20/34/28 102/33/27 118/36/99 19/37/100 3/38/101 14/39/102 27/40/103 30/41/104 43/42/105 46/43/106
s 8
f 24/64/107 2/63/108 1/68/109 40/67/110
s 5
f 48/51/111 44/50/112 36/49/113 28/48/114 22/47/115 4/46/116 39/45/117 38/52/118
s 1
f 93/131/119 94/128/6 5/127/5 31/132/120
s off
f 19/301/121 24/302/122 40/303/123 39/304/124
s 4
f 92/160/125 33/156/53 10/157/56 91/161/126
s 9
f 93/73/127 31/74/128 33/75/129 92/76/130
s 10
f 67/305/131 68/306/132 55/307/133 56/308/134
f 68/306/132 69/311/135 58/312/136 55/307/133
s 4
f 15/154/137 52/158/138 51/159/139 17/155/140
s 12
f 59/319/141 60/320/142 61/321/143 62/322/144
s 4
f 52/158/138 50/162/145 9/163/146 51/159/139
s 12
f 63/323/147 60/320/142 59/319/141 64/324/148
s 5
f 36/49/113 44/50/112 43/42/105 30/41/104
f 22/47/115 28/48/114 27/40/103 14/39/102
f 39/45/117 4/46/116 3/38/101 19/37/100
s 8
f 25/70/149 21/69/150 13/62/151 26/61/152
f 41/72/153 35/71/154 29/60/155 42/59/156
f 40/67/157 1/68/158 21/69/159 25/70/160 35/71/154 41/72/153 47/55/95 37/58/98
f 23/57/97 45/56/96 42/59/156 29/60/155 26/61/152 13/62/151 2/63/108 24/64/107 103/65/161 87/66/162
s 5
f 20/34/28 46/43/106 48/51/111 38/52/118
s 4
f 17/155/140 51/159/139 54/164/163 53/165/164
s 13
f 24/197/165 19/198/166 56/199/167 55/200/168
s 5
f 19/37/100 66/44/169 67/53/170 56/54/171
s 4
f 51/159/139 9/163/146 57/168/172 54/164/163
s 2
f 70/12/173 12/13/174 58/16/175 69/17/176
s 13
f 12/201/177 24/197/165 55/200/168 58/202/178
s 15
f 52/221/179 15/222/180 61/223/181 60/224/182
s 3
f 15/28/183 7/27/184 62/29/185 61/30/186
s 1
f 7/137/187 6/136/188 59/139/189 62/140/190
s 15
f 50/225/191 52/221/179 60/224/182 63/226/192
s 1
f 6/136/188 49/138/193 64/141/194 59/139/189
s 9
f 49/79/195 50/80/196 63/81/197 64/82/198
s 19
f 81/83/199 99/84/200 100/85/201 84/86/202
f 85/91/203 83/90/204 82/89/205 86/92/206
s 10
f 75/309/207 76/310/208 68/306/132 67/305/131
f 76/310/208 77/315/209 69/311/135 68/306/132
s 2
f 78/15/210 70/12/173 69/17/176 77/19/211
f 90/5/212 79/6/213 71/2/10 89/1/9
s 7
f 79/281/214 80/282/215 72/278/72 71/277/71
f 65/283/83 72/278/72 80/282/215 73/287/216
s 21
f 18/93/217 97/94/218 98/95/219 73/96/220
f 75/101/221 74/100/222 17/99/223 53/102/224
s 10
f 53/313/225 54/314/226 76/310/208 75/309/207
f 54/314/226 57/318/227 77/315/209 76/310/208
s 2
f 9/18/228 78/15/210 77/19/211 57/20/229
f 91/9/230 10/10/231 79/6/213 90/5/212
s 7
f 10/285/232 34/286/233 80/282/215 79/281/214
f 73/287/216 80/282/215 34/286/233 18/290/234
s 23
f 73/227/235 98/228/236 99/229/237 81/230/238
s 24
f 101/237/239 65/238/240 84/239/241 100/240/242
s 7
f 65/283/83 73/287/216 81/291/243 84/292/244
s 24
f 67/245/245 66/243/246 83/244/247 85/246/248
s 23
f 74/233/249 75/235/250 86/236/251 82/234/252
s 10
f 75/309/207 67/305/131 85/316/253 86/317/254
s off
f 136/247/255 135/248/256 137/249/257 138/250/258
s 2
f 105/7/259 89/1/9 88/4/12 104/8/260
f 106/11/261 90/5/212 89/1/9 105/7/259
f 107/14/262 91/9/230 90/5/212 106/11/261
s 4
f 108/166/263 92/160/125 91/161/126 107/167/264
s 9
f 109/77/265 93/73/127 92/76/130 108/78/266
s 1
f 109/135/267 110/133/268 94/128/6 93/131/119
f 95/129/7 94/128/6 110/133/268 111/134/269
s 3
f 96/23/19 95/22/18 111/25/270 112/26/271
s 4
f 97/148/23 96/147/22 112/150/272 113/151/273
s 21
f 98/95/219 97/94/218 113/97/274 114/98/275
s 23
f 99/229/237 98/228/236 114/231/276 115/232/277
s 19
f 100/85/201 99/84/200 115/87/278 116/88/279
s 24
f 117/241/280 101/237/239 100/240/242 116/242/281
s 5
f 102/33/27 101/32/26 117/35/282 118/36/99
s off
f 140/251/283 139/252/284 141/253/285 142/254/286
s 2
f 70/12/173 105/7/259 104/8/260 12/13/174
f 78/15/210 106/11/261 105/7/259 70/12/173
f 9/18/228 107/14/262 106/11/261 78/15/210
s 4
f 50/162/145 108/166/263 107/167/264 9/163/146
s 9
f 49/79/195 109/77/265 108/78/266 50/80/196
s 1
f 49/138/193 6/136/188 110/133/268 109/135/267
f 111/134/269 110/133/268 6/136/188 7/137/187
s 3
f 112/26/271 111/25/270 7/27/184 15/28/183
s 4
f 113/151/273 112/150/272 15/154/137 17/155/140
s 21
f 114/98/275 113/97/274 17/99/223 74/100/222
s 23
f 115/232/277 114/231/276 74/233/249 82/234/252
s 19
f 116/88/279 115/87/278 82/89/205 83/90/204
s 24
f 66/243/246 117/241/280 116/242/281 83/244/247
s 5
f 118/36/99 117/35/282 66/44/169 19/37/100
s 13
f 11/217/287 23/219/288 120/220/289 119/218/290
f 23/219/288 87/213/291 121/216/292 120/220/289
f 87/213/291 88/211/293 122/215/294 121/216/292
f 88/211/293 11/217/287 119/218/290 122/215/294
f 88/211/293 87/213/291 123/214/295 124/212/296
f 87/213/291 103/207/297 125/210/298 123/214/295
f 103/207/297 104/205/299 126/209/300 125/210/298
f 104/205/299 88/211/293 124/212/296 126/209/300
f 104/205/299 103/207/297 127/208/301 128/206/302
f 103/207/297 24/197/165 129/204/303 127/208/301
f 24/197/165 12/201/177 130/203/304 129/204/303
f 12/201/177 104/205/299 128/206/302 130/203/304
s off
f 119/325/305 120/326/306 132/327/307 131/328/308
f 120/103/309 121/104/310 133/105/311 132/106/312
f 121/329/313 122/330/314 134/331/315 133/332/316
f 122/107/317 119/108/318 131/109/319 134/110/320
f 124/333/321 123/334/322 135/335/323 136/336/324
f 123/111/325 125/112/326 137/113/327 135/114/328
f 125/337/329 126/338/330 138/339/331 137/340/332
f 126/115/333 124/116/334 136/117/335 138/118/336
f 128/341/337 127/342/338 139/343/339 140/344/340
f 127/119/341 129/120/342 141/121/343 139/122/344
f 129/345/345 130/346/346 142/347/347 141/348/348
f 130/123/349 128/124/350 140/125/351 142/126/352
