# This file uses centimeters as units for non-parametric coordinates.

mtllib toilette.mtl
g default
v 0.500000 -0.500000 0.500000
v 0.500000 2.224004 0.500000
v -1.755040 -0.500000 -0.299920
v -0.955120 -0.500000 0.500000
v -1.261236 -0.500000 0.439110
v -1.520749 -0.500000 0.265709
v -1.694149 -0.500000 0.006196
v -1.755040 2.224004 -0.299920
v -1.694149 2.224004 0.006196
v -1.520749 2.224004 0.265709
v -1.261236 2.224004 0.439110
v -0.955120 2.224004 0.500000
v 0.500000 2.224004 -0.409727
v -1.755040 -0.500000 -0.409727
v 0.500000 -0.500000 -0.409727
v -1.755040 2.224004 -0.409727
v 0.500000 -0.500000 -1.319455
v 0.500000 2.224004 -1.319455
v -1.755040 -0.500000 -0.519535
v -0.955120 -0.500000 -1.319455
v -1.261236 -0.500000 -1.258565
v -1.520749 -0.500000 -1.085164
v -1.694149 -0.500000 -0.825651
v -1.755040 2.224004 -0.519535
v -1.694149 2.224004 -0.825651
v -1.520749 2.224004 -1.085164
v -1.261236 2.224004 -1.258565
v -0.955120 2.224004 -1.319455
v 0.118887 2.224004 0.032978
v 0.328806 2.224004 -0.426684
v -1.587069 2.224004 -0.393987
v -1.521745 2.224004 -0.152427
v -1.348758 2.224004 0.058026
v -1.088975 2.224004 0.211987
v -0.773727 2.224004 0.290887
v -0.441039 2.224004 0.285209
v -0.484536 2.224004 -1.111557
v 0.090496 2.224004 -0.878696
v -0.817224 2.224004 -1.105880
v -1.127225 2.224004 -1.016309
v -1.377149 2.224004 -0.853649
v -1.536851 2.224004 -0.637519
v 0.500000 -0.500000 0.052374
v 0.500000 2.224004 0.052374
v 0.278589 2.224004 -0.183152
v 0.263483 2.224004 -0.668244
v 0.500000 2.224004 -0.885855
v 0.500000 -0.500000 -0.885855
v -0.169288 2.224004 -1.032657
v -0.140009 2.224004 -1.319455
v -0.140009 -0.500000 -1.319455
v -0.153514 -0.500000 0.500000
v -0.153514 2.224004 0.500000
v -0.131037 2.224004 0.195638
v 0.118887 1.958829 0.032978
v 0.278589 1.958829 -0.183152
v 0.328806 1.958829 -0.426684
v -1.587069 1.958829 -0.393987
v -1.521745 1.958829 -0.152427
v -1.348758 1.958829 0.058026
v -1.088975 1.958829 0.211987
v -0.773727 1.958829 0.290887
v -0.441039 1.958829 0.285209
v -0.131037 1.958829 0.195638
v -0.169288 1.958829 -1.032657
v 0.090496 1.958829 -0.878696
v -0.484536 1.958829 -1.111557
v -0.817224 1.958829 -1.105880
v -1.127225 1.958829 -1.016309
v -1.377149 1.958829 -0.853649
v -1.536851 1.958829 -0.637519
v 0.263483 1.958829 -0.668244
v 0.188577 1.925330 0.106936
v 0.372086 1.925330 -0.141414
v 0.431554 1.925330 -0.429806
v -1.689816 1.925330 -0.390865
v -1.612660 1.925330 -0.105550
v -1.414855 1.925330 0.135096
v -1.127407 1.925330 0.305452
v -0.785210 1.925330 0.391097
v -0.426046 1.925330 0.384968
v -0.088971 1.925330 0.287574
v -0.130855 1.925330 -1.126123
v 0.156593 1.925330 -0.955767
v -0.473053 1.925330 -1.211768
v -0.832216 1.925330 -1.205638
v -1.169291 1.925330 -1.108245
v -1.446839 1.925330 -0.927606
v -1.630348 1.925330 -0.679256
v 0.354398 1.925330 -0.715120
v 0.188577 0.811734 0.106936
v 0.372086 0.811734 -0.141414
v 0.431554 0.811734 -0.429806
v -1.689816 0.811734 -0.390865
v -1.612660 0.811734 -0.105550
v -1.414855 0.811734 0.135096
v -1.127407 0.811734 0.305453
v -0.785210 0.811734 0.391097
v -0.426046 0.811734 0.384968
v -0.088971 0.811734 0.287575
v -0.130855 0.811734 -1.126123
v 0.156593 0.811734 -0.955767
v -0.473053 0.811734 -1.211768
v -0.832216 0.811734 -1.205639
v -1.169291 0.811734 -1.108245
v -1.446839 0.811734 -0.927606
v -1.630348 0.811734 -0.679257
v 0.354398 0.811734 -0.715120
v -0.629131 0.811734 -0.410335
v 0.636898 -0.500000 0.052374
v 0.636898 -0.500000 0.500000
v 0.636898 2.224004 0.052374
v 0.636898 2.224004 0.500000
v 0.636898 -0.500000 -1.319455
v 0.636898 2.224004 -1.319455
v 0.636898 2.224004 -0.885855
v 0.636898 -0.500000 -0.885855
v 0.636898 -0.500000 -0.409727
v 0.636898 2.224004 -0.409727
v 0.500000 4.774097 0.500000
v 0.500000 4.774097 0.052374
v 0.636898 4.774097 0.500000
v 0.636898 4.774097 0.052374
v 0.500000 4.774098 -1.319455
v 0.500000 4.774097 -0.885855
v 0.636898 4.774097 -0.885855
v 0.636898 4.774098 -1.319455
v 0.500000 4.774097 -0.409727
v 0.636898 4.774097 -0.409727
vt 0.216572 0.001942
vt 0.265496 0.001942
vt 0.265496 0.299665
vt 0.216572 0.299665
vt 0.316002 0.001942
vt 0.316002 0.299665
vt 0.265496 0.578381
vt 0.216572 0.578381
vt 0.368040 0.001942
vt 0.368040 0.299665
vt 0.316002 0.578381
vt 0.415431 0.001942
vt 0.415431 0.299665
vt 0.368040 0.578381
vt 0.415431 0.578381
vt 0.742322 0.001942
vt 0.775779 0.001942
vt 0.775779 0.299665
vt 0.742322 0.299665
vt 0.804143 0.001942
vt 0.804143 0.299665
vt 0.730320 0.299665
vt 0.730320 0.001942
vt 0.823095 0.001942
vt 0.823095 0.299665
vt 0.718319 0.299665
vt 0.718319 0.001942
vt 0.684861 0.299665
vt 0.684861 0.001942
vt 0.656497 0.299665
vt 0.656497 0.001942
vt 0.637545 0.299665
vt 0.637545 0.001942
vt 0.288431 0.859622
vt 0.288431 0.886239
vt 0.259449 0.886239
vt 0.259449 0.859622
vt 0.288431 0.912641
vt 0.259449 0.912641
vt 0.288431 0.836000
vt 0.259449 0.836000
vt 0.288431 0.935642
vt 0.259449 0.935642
vt 0.288431 0.818221
vt 0.259449 0.818221
vt 0.288431 0.952470
vt 0.259449 0.952470
vt 0.325461 0.886239
vt 0.325461 0.912641
vt 0.296479 0.912641
vt 0.296479 0.886239
vt 0.325461 0.935642
vt 0.296479 0.935642
vt 0.325461 0.859622
vt 0.296479 0.859622
vt 0.325461 0.952470
vt 0.296479 0.952470
vt 0.325461 0.836000
vt 0.296479 0.836000
vt 0.325461 0.818221
vt 0.296479 0.818221
vt 0.123704 0.865108
vt 0.123704 0.896629
vt 0.001992 0.896629
vt 0.001992 0.865108
vt 0.123704 0.927812
vt 0.001992 0.927812
vt 0.123704 0.837965
vt 0.001992 0.837965
vt 0.123704 0.954114
vt 0.001992 0.954114
vt 0.123704 0.818222
vt 0.001992 0.818222
vt 0.123704 0.972733
vt 0.001992 0.972733
vt 0.252530 0.896628
vt 0.252530 0.927812
vt 0.130818 0.927812
vt 0.130818 0.896628
vt 0.252530 0.954114
vt 0.130818 0.954114
vt 0.252530 0.865108
vt 0.130818 0.865108
vt 0.252530 0.972733
vt 0.130818 0.972733
vt 0.252530 0.837965
vt 0.130818 0.837965
vt 0.252530 0.818222
vt 0.130818 0.818222
vt 0.949084 0.303656
vt 0.998008 0.303656
vt 0.998008 0.582372
vt 0.949084 0.582372
vt 0.898578 0.303656
vt 0.898578 0.582372
vt 0.846539 0.303656
vt 0.846539 0.582372
vt 0.799148 0.303656
vt 0.799148 0.582372
vt 0.705585 0.843802
vt 0.693583 0.843802
vt 0.693583 0.597335
vt 0.744089 0.597335
vt 0.793013 0.597335
vt 0.793013 0.668761
vt 0.793013 0.756374
vt 0.786358 0.789831
vt 0.767406 0.818195
vt 0.739042 0.837147
vt 0.681582 0.843802
vt 0.648125 0.837147
vt 0.619761 0.818195
vt 0.600809 0.789831
vt 0.594154 0.756374
vt 0.594154 0.667285
vt 0.594154 0.597335
vt 0.641545 0.597335
vt 0.693583 0.582372
vt 0.744089 0.582372
vt 0.793013 0.582372
vt 0.594154 0.582372
vt 0.641545 0.582372
vt 0.389159 0.582372
vt 0.438082 0.582372
vt 0.463825 0.606572
vt 0.440202 0.624026
vt 0.488589 0.582372
vt 0.490442 0.601083
vt 0.422424 0.651342
vt 0.389159 0.653799
vt 0.540627 0.582372
vt 0.516843 0.608223
vt 0.389159 0.741411
vt 0.412635 0.685224
vt 0.588018 0.582372
vt 0.539845 0.627129
vt 0.395814 0.774869
vt 0.412014 0.721586
vt 0.588018 0.652323
vt 0.556672 0.655523
vt 0.414766 0.803232
vt 0.420637 0.756041
vt 0.588018 0.741411
vt 0.565296 0.689978
vt 0.443130 0.822185
vt 0.437465 0.784435
vt 0.581363 0.774869
vt 0.564675 0.726340
vt 0.476587 0.828840
vt 0.460466 0.803341
vt 0.562411 0.803232
vt 0.554886 0.760222
vt 0.488589 0.828840
vt 0.486868 0.810481
vt 0.534047 0.822185
vt 0.537107 0.787538
vt 0.500590 0.828840
vt 0.513485 0.804992
vt 0.343882 0.616545
vt 0.320260 0.599091
vt 0.324822 0.588872
vt 0.351966 0.608929
vt 0.293643 0.593602
vt 0.293302 0.582372
vt 0.361660 0.643861
vt 0.371709 0.639264
vt 0.267241 0.600742
vt 0.262118 0.590805
vt 0.371450 0.677743
vt 0.382353 0.676105
vt 0.244240 0.619648
vt 0.235816 0.612424
vt 0.372071 0.714105
vt 0.383023 0.715360
vt 0.227412 0.648042
vt 0.217197 0.643841
vt 0.363447 0.748560
vt 0.373663 0.752761
vt 0.218789 0.682497
vt 0.207836 0.681242
vt 0.346620 0.776954
vt 0.355043 0.784178
vt 0.219409 0.718859
vt 0.208506 0.720497
vt 0.323618 0.795860
vt 0.328742 0.805797
vt 0.229199 0.752741
vt 0.219151 0.757339
vt 0.297217 0.803000
vt 0.297558 0.814230
vt 0.246977 0.780057
vt 0.238894 0.787673
vt 0.270600 0.797511
vt 0.266038 0.807730
vt 0.057572 0.608929
vt 0.084715 0.588872
vt 0.114107 0.698301
vt 0.116235 0.582372
vt 0.037828 0.639264
vt 0.147419 0.590805
vt 0.027184 0.676105
vt 0.173721 0.612424
vt 0.026514 0.715360
vt 0.192340 0.643841
vt 0.035874 0.752761
vt 0.201701 0.681242
vt 0.054494 0.784178
vt 0.201031 0.720498
vt 0.080795 0.805797
vt 0.190386 0.757339
vt 0.111979 0.814230
vt 0.170643 0.787674
vt 0.143499 0.807730
vt 0.005416 0.631296
vt 0.005416 0.582372
vt 0.020378 0.582372
vt 0.020378 0.631296
vt 0.005416 0.681802
vt 0.020378 0.681802
vt 0.005416 0.733841
vt 0.020378 0.733841
vt 0.005416 0.781232
vt 0.020378 0.781232
vt 0.035449 0.299665
vt 0.035449 0.001942
vt 0.123062 0.001942
vt 0.123062 0.299665
vt 0.001992 0.001942
vt 0.001992 0.299665
vt 0.194489 0.001942
vt 0.194489 0.299665
vt 0.209451 0.001942
vt 0.209451 0.299665
vt 0.209451 0.578381
vt 0.194489 0.578381
vt 0.456618 0.280657
vt 0.545707 0.280657
vt 0.545707 0.578381
vt 0.456618 0.578381
vt 0.615657 0.280657
vt 0.615657 0.578381
vt 0.423161 0.578381
vt 0.423161 0.280657
vt 0.630620 0.280657
vt 0.630620 0.578381
vt 0.615657 0.001942
vt 0.630620 0.001942
vt 0.575179 0.952492
vt 0.575179 0.918037
vt 0.604162 0.918037
vt 0.604162 0.952492
vt 0.575179 0.881675
vt 0.604162 0.881675
vt 0.575179 0.847793
vt 0.604162 0.847793
vt 0.641192 0.847793
vt 0.641192 0.882249
vt 0.612209 0.882249
vt 0.612209 0.847793
vt 0.641192 0.918610
vt 0.612209 0.918610
vt 0.641192 0.952492
vt 0.612209 0.952492
vt 0.333509 0.832831
vt 0.370910 0.832831
vt 0.370910 0.954543
vt 0.333509 0.954543
vt 0.410165 0.832831
vt 0.410165 0.954543
vt 0.447006 0.832831
vt 0.447006 0.954543
vt 0.567841 0.954543
vt 0.530440 0.954543
vt 0.530440 0.832831
vt 0.567841 0.832831
vt 0.491185 0.954543
vt 0.491185 0.832831
vt 0.454344 0.954543
vt 0.454344 0.832831
vn -0.054886 0.000000 0.998493
vn -0.054886 0.000000 0.998493
vn 0.000000 0.000000 1.000000
vn 0.000000 0.000000 1.000000
vn 1.000000 0.000000 0.000000
vn 1.000000 0.000000 0.000000
vn 1.000000 0.000000 0.000000
vn 1.000000 0.000000 0.000000
vn -0.989453 -0.000000 0.144854
vn -0.923880 0.000000 0.382684
vn -0.923880 0.000000 0.382684
vn -0.989453 -0.000000 0.144854
vn -0.707107 0.000000 0.707107
vn -0.707107 0.000000 0.707107
vn -0.382683 0.000000 0.923880
vn -0.382683 0.000000 0.923880
vn 0.000000 -1.000000 -0.000000
vn 0.000000 -1.000000 -0.000000
vn 0.000000 -1.000000 -0.000000
vn 0.000000 -1.000000 -0.000000
vn 0.000000 -1.000000 -0.000000
vn 0.000000 -1.000000 -0.000000
vn 0.000000 -1.000000 -0.000000
vn 0.000000 -1.000000 -0.000000
vn 0.000000 -1.000000 -0.000000
vn 0.000000 -1.000000 -0.000000
vn -1.000000 -0.000000 0.000000
vn -1.000000 -0.000000 0.000000
vn -0.054227 0.000000 -0.998529
vn 0.000000 0.000000 -1.000000
vn 0.000000 0.000000 -1.000000
vn -0.054227 0.000000 -0.998529
vn 1.000000 0.000000 0.000000
vn 1.000000 0.000000 0.000000
vn 1.000000 0.000000 0.000000
vn 1.000000 0.000000 0.000000
vn -0.989453 -0.000000 -0.144854
vn -0.989453 -0.000000 -0.144854
vn -0.923880 0.000000 -0.382684
vn -0.923880 0.000000 -0.382684
vn -0.707107 0.000000 -0.707107
vn -0.707107 0.000000 -0.707107
vn -0.382683 0.000000 -0.923880
vn -0.382683 0.000000 -0.923880
vn 0.000000 -1.000000 -0.000000
vn 0.000000 -1.000000 -0.000000
vn 0.000000 -1.000000 -0.000000
vn 0.000000 -1.000000 -0.000000
vn 0.000000 -1.000000 -0.000000
vn 0.000000 -1.000000 -0.000000
vn 0.000000 -1.000000 -0.000000
vn 0.000000 -1.000000 -0.000000
vn 0.000000 1.000000 0.000000
vn 0.000000 1.000000 0.000000
vn 0.000000 1.000000 0.000000
vn 0.000000 1.000000 0.000000
vn 0.000000 1.000000 -0.000000
vn 0.000000 1.000000 -0.000001
vn 0.000000 1.000000 -0.000000
vn 0.000000 1.000000 -0.000000
vn 0.000000 1.000000 0.000000
vn 0.000000 1.000000 0.000001
vn 0.000000 1.000000 0.000000
vn 0.000000 1.000000 -0.000000
vn 0.000000 1.000000 -0.000001
vn 0.000000 1.000000 -0.000000
vn 0.000000 1.000000 0.000000
vn 0.000000 1.000000 0.000001
vn 0.000000 1.000000 0.000000
vn 0.000000 1.000000 0.000000
vn 0.000000 1.000000 0.000000
vn 0.000000 1.000000 0.000000
vn 0.000000 1.000000 0.000000
vn 0.000000 1.000000 0.000000
vn 0.000000 1.000000 0.000000
vn 0.000000 1.000000 0.000000
vn 0.000000 1.000000 0.000001
vn 0.000000 1.000000 0.000000
vn 0.000000 1.000000 0.000000
vn 0.000000 1.000000 0.000001
vn 0.000000 1.000000 0.000000
vn 0.000000 1.000000 0.000000
vn 0.000000 1.000000 0.000000
vn 0.000000 1.000000 0.000000
vn 0.000000 1.000000 0.000000
vn 0.000000 1.000000 0.000000
vn 1.000000 0.000000 0.000000
vn 1.000000 0.000000 0.000000
vn 0.000000 1.000000 -0.000000
vn 0.000000 1.000000 -0.000000
vn 0.000000 0.000000 -1.000000
vn 0.000000 0.000000 -1.000000
vn 0.000000 0.000000 1.000000
vn 0.000000 0.000000 1.000000
vn -0.678932 -0.000000 -0.734201
vn -0.909633 -0.000000 -0.415413
vn -0.909633 -0.000000 -0.415413
vn -0.678932 -0.000000 -0.734201
vn -0.999515 0.000000 0.031126
vn -0.999515 0.000000 0.031126
vn 0.999515 0.000000 -0.031126
vn 0.884588 -0.000000 -0.466373
vn 0.884588 -0.000000 -0.466373
vn 0.999515 0.000000 -0.031126
vn 0.644110 -0.000000 -0.764933
vn 0.644110 -0.000000 -0.764933
vn 0.375345 -0.000000 -0.926885
vn 0.375345 -0.000000 -0.926885
vn 0.112293 -0.000000 -0.993675
vn 0.112293 -0.000000 -0.993675
vn -0.146602 -0.000000 -0.989196
vn -0.146602 -0.000000 -0.989196
vn -0.410723 -0.000000 -0.911760
vn -0.410723 -0.000000 -0.911760
vn -0.644110 0.000000 0.764933
vn -0.375345 0.000000 0.926885
vn -0.375345 0.000000 0.926885
vn -0.644110 0.000000 0.764933
vn -0.112294 0.000000 0.993675
vn -0.112294 0.000000 0.993675
vn 0.146602 0.000000 0.989196
vn 0.146602 0.000000 0.989196
vn 0.410723 0.000000 0.911760
vn 0.410723 0.000000 0.911760
vn 0.678932 0.000000 0.734201
vn 0.678932 0.000000 0.734201
vn 0.909633 0.000000 0.415413
vn 0.909633 0.000000 0.415413
vn -0.884588 0.000000 0.466373
vn -0.884588 0.000000 0.466373
vn -0.212943 -0.949723 -0.229525
vn -0.283089 -0.950423 -0.128673
vn -0.283089 -0.950423 -0.128673
vn -0.212943 -0.949723 -0.229525
vn -0.309698 -0.950786 0.009592
vn -0.309698 -0.950786 0.009592
vn 0.309698 -0.950787 -0.009593
vn 0.275590 -0.950331 -0.144638
vn 0.275590 -0.950332 -0.144638
vn 0.309698 -0.950787 -0.009593
vn 0.202188 -0.949643 -0.239372
vn 0.202188 -0.949643 -0.239372
vn 0.118315 -0.949208 -0.291558
vn 0.118315 -0.949208 -0.291558
vn 0.035452 -0.949029 -0.313188
vn 0.035452 -0.949029 -0.313188
vn -0.046279 -0.949041 -0.311737
vn -0.046279 -0.949041 -0.311737
vn -0.129419 -0.949248 -0.286668
vn -0.129419 -0.949248 -0.286668
vn -0.202188 -0.949643 0.239372
vn -0.118315 -0.949208 0.291559
vn -0.118315 -0.949208 0.291559
vn -0.202187 -0.949643 0.239372
vn -0.035452 -0.949029 0.313188
vn -0.035452 -0.949029 0.313188
vn 0.046279 -0.949041 0.311737
vn 0.046279 -0.949041 0.311737
vn 0.129419 -0.949248 0.286668
vn 0.129419 -0.949248 0.286668
vn 0.212943 -0.949723 0.229525
vn 0.212943 -0.949723 0.229525
vn 0.283089 -0.950423 0.128672
vn 0.283089 -0.950423 0.128672
vn -0.275590 -0.950332 0.144638
vn -0.275590 -0.950332 0.144638
vn -0.681187 -0.000000 -0.732109
vn -0.911002 -0.000000 -0.412401
vn -0.911002 -0.000000 -0.412401
vn -0.681187 -0.000000 -0.732109
vn -0.999525 -0.000000 0.030817
vn -0.999525 -0.000000 0.030817
vn 0.999525 0.000000 -0.030817
vn 0.886207 -0.000000 -0.463290
vn 0.886207 -0.000000 -0.463290
vn 0.999525 0.000000 -0.030817
vn 0.646312 -0.000000 -0.763073
vn 0.646312 -0.000000 -0.763073
vn 0.376639 -0.000000 -0.926360
vn 0.376639 -0.000000 -0.926360
vn 0.112651 -0.000000 -0.993635
vn 0.112651 -0.000000 -0.993635
vn -0.147072 -0.000000 -0.989126
vn -0.147072 -0.000000 -0.989126
vn -0.412153 -0.000000 -0.911114
vn -0.412153 -0.000000 -0.911114
vn -0.646312 -0.000000 0.763073
vn -0.376639 -0.000000 0.926360
vn -0.376639 -0.000000 0.926360
vn -0.646312 -0.000000 0.763073
vn -0.112651 -0.000000 0.993635
vn -0.112651 -0.000000 0.993635
vn 0.147072 -0.000000 0.989126
vn 0.147072 -0.000000 0.989126
vn 0.412154 -0.000000 0.911114
vn 0.412154 -0.000000 0.911114
vn 0.681188 -0.000000 0.732109
vn 0.681188 -0.000000 0.732109
vn 0.911002 -0.000000 0.412401
vn 0.911002 -0.000000 0.412401
vn -0.886207 -0.000000 0.463290
vn -0.886207 -0.000000 0.463290
vn 0.000000 1.000000 0.000000
vn 0.000000 1.000000 0.000000
vn 0.000000 1.000000 -0.000000
vn 0.000000 1.000000 -0.000000
vn -0.000000 1.000000 0.000000
vn -0.000000 1.000000 0.000000
vn -0.000000 1.000000 0.000000
vn -0.000000 1.000000 0.000000
vn -0.000000 1.000000 0.000000
vn 0.000000 1.000000 0.000000
vn 0.000000 1.000000 0.000000
vn 0.000000 1.000000 -0.000000
vn 0.000000 1.000000 -0.000000
vn 0.000000 1.000000 -0.000000
vn -0.000000 1.000000 -0.000000
vn -0.000000 1.000000 -0.000000
vn -0.000000 1.000000 -0.000000
vn -0.000000 1.000000 0.000000
vn 0.000000 1.000000 -0.000000
vn 0.000000 -1.000000 0.000000
vn 0.000000 -1.000000 0.000000
vn 0.000000 1.000000 0.000000
vn 0.000000 1.000000 0.000000
vn 0.000000 1.000000 0.000000
vn 0.000000 1.000000 0.000000
vn 0.000000 0.000000 1.000000
vn 0.000000 0.000000 1.000000
vn 0.000000 0.000000 -1.000000
vn 0.000000 0.000000 -1.000000
vn 0.000000 1.000000 0.000001
vn 0.000000 1.000000 0.000000
vn 0.000000 1.000000 0.000000
vn 0.000000 1.000000 0.000001
vn 0.000000 -1.000000 0.000000
vn 0.000000 -1.000000 0.000000
vn 0.000000 -1.000000 0.000000
vn 0.000000 1.000000 0.000000
vn 0.000000 1.000000 0.000000
vn -1.000000 0.000000 0.000000
vn -1.000000 0.000000 0.000000
vn -1.000000 0.000000 0.000000
vn -1.000000 0.000000 0.000000
vn 0.000000 0.000000 1.000000
vn 0.000000 0.000000 1.000000
vn 1.000000 0.000000 0.000000
vn 1.000000 0.000000 0.000000
vn -1.000000 0.000000 0.000000
vn -1.000000 0.000000 0.000000
vn -1.000000 0.000000 0.000000
vn -1.000000 0.000000 0.000000
vn 1.000000 0.000000 0.000000
vn 1.000000 0.000000 0.000000
vn 0.000000 0.000000 -1.000000
vn 0.000000 0.000000 -1.000000
vn -1.000000 0.000000 0.000000
vn -1.000000 0.000000 0.000000
vn 1.000000 0.000000 0.000000
s 1
g pCube1
usemtl initialShadingGroup
f 12/224/1 4/225/2 52/226/3 53/227/4
s 2
f 111/1/5 110/2/6 112/3/7 113/4/8
s 1
f 3/16/9 7/17/10 9/18/11 8/19/12
f 7/17/10 6/20/13 10/21/14 9/18/11
f 6/20/13 5/24/15 11/25/16 10/21/14
f 5/228/15 4/225/2 12/224/1 11/229/16
s 4
f 3/100/17 14/101/18 15/102/19 43/103/20 1/104/21 52/105/22 4/106/23 5/107/24 6/108/25 7/109/26
s 1
f 16/22/27 14/23/28 3/16/9 8/19/12
f 28/236/29 50/237/30 51/238/31 20/239/32
s 2
f 114/12/33 115/13/34 116/10/35 117/9/36
s 1
f 19/27/37 24/26/38 25/28/39 23/29/40
f 23/29/40 25/28/39 26/30/41 22/31/42
f 22/31/42 26/30/41 27/32/43 21/33/44
f 21/242/44 27/243/43 28/236/29 20/239/32
s 4
f 19/110/45 23/111/46 22/112/47 21/113/48 20/114/49 51/115/50 17/116/51 48/117/52 15/102/19 14/101/18
s 1
f 16/22/27 24/26/38 19/27/37 14/23/28
s 7
f 2/123/53 44/124/54 45/125/55 29/126/56
f 16/153/57 8/149/58 32/150/59 31/154/60
f 8/149/58 9/145/61 33/146/62 32/150/59
f 9/145/61 10/141/63 34/142/64 33/146/62
f 10/141/63 11/137/65 35/138/66 34/142/64
f 11/137/65 12/133/67 36/134/68 35/138/66
f 12/133/67 53/130/69 54/129/70 36/134/68
f 50/139/71 28/143/72 37/144/73 49/140/74
f 28/143/72 27/147/75 39/148/76 37/144/73
f 27/147/75 26/151/77 40/152/78 39/148/76
f 26/151/77 25/155/79 41/156/80 40/152/78
f 25/155/79 24/157/81 42/158/82 41/156/80
f 24/157/81 16/153/57 31/154/60 42/158/82
f 47/131/83 18/135/84 38/136/85 46/132/86
s 2
f 110/2/6 118/5/87 119/6/88 112/3/7
s 7
f 45/125/55 44/124/54 13/127/89 30/128/90
f 13/127/89 47/131/83 46/132/86 30/128/90
s 2
f 117/9/36 116/10/35 119/6/88 118/5/87
s 7
f 18/135/84 50/139/71 49/140/74 38/136/85
s 1
f 51/238/31 50/237/30 18/240/91 17/241/92
f 53/227/4 52/226/3 1/230/93 2/231/94
s 7
f 54/129/70 53/130/69 2/123/53 29/126/56
s 10
f 29/40/95 45/34/96 56/37/97 55/41/98
f 45/34/96 30/35/99 57/36/100 56/37/97
f 31/48/101 32/49/102 59/50/103 58/51/104
f 32/49/102 33/52/105 60/53/106 59/50/103
f 33/52/105 34/56/107 61/57/108 60/53/106
f 34/248/107 35/249/109 62/250/110 61/251/108
f 35/249/109 36/252/111 63/253/112 62/250/110
f 36/252/111 54/254/113 64/255/114 63/253/112
f 54/44/113 29/40/95 55/41/98 64/45/114
f 38/42/115 49/46/116 65/47/117 66/43/118
f 49/256/116 37/257/119 67/258/120 65/259/117
f 37/257/119 39/260/121 68/261/122 67/258/120
f 39/260/121 40/262/123 69/263/124 68/261/122
f 40/60/123 41/58/125 70/59/126 69/61/124
f 41/58/125 42/54/127 71/55/128 70/59/126
f 42/54/127 31/48/101 58/51/104 71/55/128
f 30/35/99 46/38/129 72/39/130 57/36/100
f 46/38/129 38/42/115 66/43/118 72/39/130
s 13
f 55/159/131 56/160/132 74/161/133 73/162/134
f 56/160/132 57/163/135 75/164/136 74/161/133
f 58/189/137 59/185/138 77/186/139 76/190/140
f 59/185/138 60/181/141 78/182/142 77/186/139
f 60/181/141 61/177/143 79/178/144 78/182/142
f 61/177/143 62/173/145 80/174/146 79/178/144
f 62/173/145 63/169/147 81/170/148 80/174/146
f 63/169/147 64/165/149 82/166/150 81/170/148
f 64/165/149 55/159/131 73/162/134 82/166/150
f 66/171/151 65/175/152 83/176/153 84/172/154
f 65/175/152 67/179/155 85/180/156 83/176/153
f 67/179/155 68/183/157 86/184/158 85/180/156
f 68/183/157 69/187/159 87/188/160 86/184/158
f 69/187/159 70/191/161 88/192/162 87/188/160
f 70/191/161 71/193/163 89/194/164 88/192/162
f 71/193/163 58/189/137 76/190/140 89/194/164
f 57/163/135 72/167/165 90/168/166 75/164/136
f 72/167/165 66/171/151 84/172/154 90/168/166
s 16
f 73/68/167 74/62/168 92/65/169 91/69/170
f 74/62/168 75/63/171 93/64/172 92/65/169
f 76/76/173 77/77/174 95/78/175 94/79/176
f 77/77/174 78/80/177 96/81/178 95/78/175
f 78/80/177 79/84/179 97/85/180 96/81/178
f 79/264/179 80/265/181 98/266/182 97/267/180
f 80/265/181 81/268/183 99/269/184 98/266/182
f 81/268/183 82/270/185 100/271/186 99/269/184
f 82/72/185 73/68/167 91/69/170 100/73/186
f 84/70/187 83/74/188 101/75/189 102/71/190
f 83/272/188 85/273/191 103/274/192 101/275/189
f 85/273/191 86/276/193 104/277/194 103/274/192
f 86/276/193 87/278/195 105/279/196 104/277/194
f 87/88/195 88/86/197 106/87/198 105/89/196
f 88/86/197 89/82/199 107/83/200 106/87/198
f 89/82/199 76/76/173 94/79/176 107/83/200
f 75/63/171 90/66/201 108/67/202 93/64/172
f 90/66/201 84/70/187 102/71/190 108/67/202
s 19
f 91/195/203 92/196/204 109/197/205
f 92/196/204 93/198/206 109/197/205
f 94/211/207 95/209/208 109/197/205
f 95/209/208 96/207/209 109/197/205
f 96/207/209 97/205/210 109/197/205
f 97/205/210 98/203/211 109/197/205
f 98/203/211 99/201/212 109/197/205
f 99/201/212 100/199/213 109/197/205
f 100/199/213 91/195/203 109/197/205
f 102/202/214 101/204/215 109/197/205
f 101/204/215 103/206/216 109/197/205
f 103/206/216 104/208/217 109/197/205
f 104/208/217 105/210/218 109/197/205
f 105/210/218 106/212/219 109/197/205
f 106/212/219 107/213/220 109/197/205
f 107/213/220 94/211/207 109/197/205
f 93/198/206 108/200/221 109/197/205
f 108/200/221 102/202/214 109/197/205
s 4
f 1/104/21 43/103/20 110/119/222 111/120/223
s 22
f 121/214/224 120/215/225 122/216/226 123/217/227
s 1
f 2/231/94 1/230/93 111/232/228 113/233/229
f 17/241/92 18/240/91 115/244/230 114/245/231
s 22
f 124/222/232 125/220/233 126/221/234 127/223/235
s 4
f 48/117/52 17/116/51 114/121/236 117/122/237
f 43/103/20 15/102/19 118/118/238 110/119/222
s 22
f 128/218/239 121/214/224 123/217/227 129/219/240
f 125/220/233 128/218/239 129/219/240 126/221/234
s 4
f 15/102/19 48/117/52 117/122/237 118/118/238
s 24
f 44/90/241 2/91/242 120/92/243 121/93/244
s 1
f 2/231/94 113/233/229 122/234/245 120/235/246
s 2
f 113/4/8 112/3/7 123/7/247 122/8/248
s 24
f 18/98/249 47/96/250 125/97/251 124/99/252
s 2
f 116/10/35 115/13/34 127/15/253 126/14/254
s 1
f 115/244/230 18/240/91 124/246/255 127/247/256
s 24
f 13/94/257 44/90/241 121/93/244 128/95/258
s 2
f 112/3/7 119/6/88 129/11/259 123/7/247
s 24
f 47/96/250 13/94/257 128/95/258 125/97/251
s 2
f 119/6/88 116/10/35 126/14/254 129/11/259
