# This file uses centimeters as units for non-parametric coordinates.

mtllib Chaise.mtl
g default
v -2.086580 -4.072617 -0.305661
v -1.864626 -4.072617 -0.305661
v -1.864626 -10.627459 -0.105304
v -2.086580 -10.930648 -0.096037
v -2.086580 -4.060339 0.096037
v -1.864626 -4.060339 0.096037
v -2.086580 -10.918369 0.305661
v -1.864626 -10.615180 0.296394
v -2.086580 0.076942 0.131931
v -1.864626 0.076942 0.131931
v -1.864626 0.064664 -0.269767
v -2.086580 0.064664 -0.269767
v -2.086580 -3.761522 -0.302962
v -1.864626 -3.761522 -0.302962
v -1.864626 -3.749244 0.098736
v -2.086580 -3.749244 0.098736
v -2.086580 -4.045840 -3.392094
v -1.864625 -4.045840 -3.392094
v -2.086580 -3.734745 -3.389395
v -1.864625 -3.734745 -3.389395
v 0.000000 -10.615180 0.296394
v 0.000000 -10.627459 -0.105304
v 0.000000 -10.930648 -0.096037
v 0.000000 -10.918369 0.305661
v -1.864625 -3.736935 -3.136963
v -2.086580 -3.736935 -3.136963
v -2.086580 -4.048030 -3.139662
v -1.864625 -4.048030 -3.139662
v -1.864626 -0.154046 -3.105879
v -2.086580 -0.154046 -3.105879
v -1.864626 -0.151856 -3.358311
v -2.086580 -0.151856 -3.358311
v -0.217649 -10.615180 0.296394
v -0.217649 -10.627459 -0.105304
v -0.547519 -10.615180 0.296394
v -0.547519 -10.627459 -0.105304
v -0.910802 -10.615180 0.296394
v -0.910802 -10.627459 -0.105304
v 0.000000 -5.550622 0.141589
v 0.000000 -5.562900 -0.260109
v -0.217649 -5.562900 -0.260109
v -0.217649 -5.550622 0.141589
v -0.547519 -5.550621 0.141589
v -0.547519 -5.562899 -0.260109
v -0.910802 -5.562899 -0.260109
v -0.910802 -5.550621 0.141589
v -1.864626 -5.567965 0.142119
v -1.864626 -5.580244 -0.259578
v -1.864626 -5.169772 0.129948
v -1.864626 -5.182050 -0.271750
v 0.000000 -4.048030 -3.139662
v 0.000000 -3.736935 -3.136963
v 0.000000 -4.045840 -3.392095
v 0.000000 -3.734745 -3.389395
v 0.000000 -5.182050 -0.271750
v 0.000000 -5.580244 -0.259578
v 0.000000 -5.169772 0.129948
v 0.000000 -5.567965 0.142119
v 2.086580 -4.072617 -0.305661
v 1.864626 -4.072617 -0.305661
v 1.864626 -10.627459 -0.105304
v 2.086580 -10.930648 -0.096037
v 2.086580 -4.060339 0.096037
v 1.864626 -4.060339 0.096037
v 2.086580 -10.918369 0.305661
v 1.864626 -10.615180 0.296394
v 2.086580 0.076942 0.131931
v 1.864626 0.076942 0.131931
v 1.864626 0.064664 -0.269767
v 2.086580 0.064664 -0.269767
v 2.086580 -3.761522 -0.302962
v 1.864626 -3.761522 -0.302962
v 1.864626 -3.749244 0.098736
v 2.086580 -3.749244 0.098736
v 2.086580 -4.045840 -3.392094
v 1.864626 -4.045840 -3.392094
v 2.086580 -3.734745 -3.389395
v 1.864626 -3.734745 -3.389395
v 1.864626 -3.736935 -3.136963
v 2.086580 -3.736935 -3.136963
v 2.086580 -4.048030 -3.139662
v 1.864626 -4.048030 -3.139662
v 1.864626 -0.154046 -3.105879
v 2.086580 -0.154046 -3.105879
v 1.864626 -0.151856 -3.358311
v 2.086580 -0.151856 -3.358311
v 0.217649 -10.615180 0.296394
v 0.217649 -10.627459 -0.105304
v 0.547519 -10.615180 0.296394
v 0.547519 -10.627459 -0.105304
v 0.910802 -10.615180 0.296394
v 0.910802 -10.627459 -0.105304
v 0.217649 -5.562900 -0.260109
v 0.217649 -5.550622 0.141589
v 0.547519 -5.550621 0.141589
v 0.547519 -5.562899 -0.260109
v 0.910802 -5.562899 -0.260109
v 0.910802 -5.550621 0.141589
v 1.864626 -5.567965 0.142119
v 1.864626 -5.580244 -0.259578
v 1.864626 -5.169772 0.129948
v 1.864626 -5.182050 -0.271750
vt 0.788446 0.338437
vt 0.788446 0.392265
vt 0.768956 0.392265
vt 0.768956 0.338437
vt 0.787854 0.407341
vt 0.768364 0.407341
vt 0.925783 0.397656
vt 0.925191 0.412731
vt 0.780576 0.592759
vt 0.761086 0.592759
vt 0.243119 0.535229
vt 0.243119 0.202487
vt 0.262608 0.202487
vt 0.262608 0.535229
vt 0.242527 0.187411
vt 0.262017 0.187411
vt 0.235249 0.001992
vt 0.254739 0.001992
vt 0.399354 0.182020
vt 0.399945 0.197096
vt 0.411587 0.181540
vt 0.412178 0.196616
vt 0.392538 0.008392
vt 0.404771 0.007911
vt 0.265567 0.787518
vt 0.277800 0.787998
vt 0.270985 0.961626
vt 0.258751 0.961146
vt 0.555566 0.784656
vt 0.536076 0.784656
vt 0.536076 0.538931
vt 0.555566 0.538931
vt 0.510895 0.538931
vt 0.530384 0.538931
vt 0.530384 0.784657
vt 0.510895 0.784657
vt 0.479691 0.784656
vt 0.460202 0.784656
vt 0.460202 0.538931
vt 0.479691 0.538931
vt 0.310377 0.538931
vt 0.310377 0.783815
vt 0.290887 0.783815
vt 0.290887 0.538931
vt 0.618058 0.793254
vt 0.598568 0.793254
vt 0.598568 0.739426
vt 0.618058 0.739426
vt 0.597976 0.724350
vt 0.617466 0.724350
vt 0.590698 0.538931
vt 0.610188 0.538931
vt 0.754803 0.718959
vt 0.755395 0.734035
vt 0.427525 0.001992
vt 0.447015 0.001992
vt 0.447015 0.334734
vt 0.427525 0.334734
vt 0.446423 0.349810
vt 0.426933 0.349810
vt 0.584352 0.340125
vt 0.583760 0.355201
vt 0.439145 0.535229
vt 0.419655 0.535229
vt 0.596585 0.340605
vt 0.595993 0.355681
vt 0.589178 0.529309
vt 0.576945 0.528829
vt 0.290877 0.961626
vt 0.284062 0.787998
vt 0.296295 0.787518
vt 0.303111 0.961146
vt 0.454510 0.538931
vt 0.454510 0.784656
vt 0.435020 0.784656
vt 0.435020 0.538931
vt 0.392273 0.784656
vt 0.392273 0.538931
vt 0.411763 0.538931
vt 0.411763 0.784656
vt 0.361070 0.538931
vt 0.361070 0.784657
vt 0.341580 0.784657
vt 0.341580 0.538931
vt 0.285196 0.783815
vt 0.265706 0.783815
vt 0.265706 0.538931
vt 0.285196 0.538931
vt 0.604062 0.001992
vt 0.616172 0.001992
vt 0.616172 0.055820
vt 0.616172 0.075140
vt 0.616172 0.320024
vt 0.668212 0.320024
vt 0.688033 0.320024
vt 0.706030 0.320024
vt 0.717905 0.320024
vt 0.717905 0.334734
vt 0.604062 0.334734
vt 0.717905 0.055820
vt 0.717905 0.075140
vt 0.831749 0.001992
vt 0.831749 0.334734
vt 0.729780 0.320024
vt 0.747778 0.320024
vt 0.767599 0.320024
vt 0.819639 0.320024
vt 0.819639 0.075140
vt 0.819639 0.055820
vt 0.819639 0.001992
vt 0.001848 0.001992
vt 0.115691 0.001992
vt 0.115691 0.016702
vt 0.103816 0.016702
vt 0.085819 0.016702
vt 0.065998 0.016702
vt 0.013958 0.016702
vt 0.013958 0.261586
vt 0.013958 0.280906
vt 0.013958 0.334734
vt 0.001848 0.334734
vt 0.229535 0.001992
vt 0.229535 0.334734
vt 0.217425 0.334734
vt 0.217425 0.280906
vt 0.217425 0.261586
vt 0.217425 0.016702
vt 0.165385 0.016702
vt 0.145564 0.016702
vt 0.127566 0.016702
vt 0.115691 0.262428
vt 0.103816 0.262428
vt 0.085819 0.262428
vt 0.065998 0.262428
vt 0.013958 0.349810
vt 0.001848 0.349810
vt 0.229535 0.349810
vt 0.217425 0.349810
vt 0.115691 0.280906
vt 0.115691 0.261586
vt 0.013958 0.535229
vt 0.001848 0.535229
vt 0.229535 0.535229
vt 0.217425 0.535229
vt 0.234833 0.754508
vt 0.234833 0.766618
vt 0.219757 0.766618
vt 0.219757 0.754508
vt 0.046129 0.766618
vt 0.046129 0.754508
vt 0.219757 0.652775
vt 0.234833 0.652775
vt 0.234833 0.551041
vt 0.219757 0.551041
vt 0.219757 0.538931
vt 0.234833 0.538931
vt 0.046129 0.551041
vt 0.046129 0.538931
vt 0.234703 0.955740
vt 0.222593 0.955740
vt 0.222593 0.770321
vt 0.234703 0.770321
vt 0.309373 0.788359
vt 0.321483 0.788359
vt 0.321483 0.961988
vt 0.309373 0.961988
vt 0.172585 0.973788
vt 0.157509 0.973788
vt 0.157509 0.872055
vt 0.172585 0.872055
vt 0.172585 0.770321
vt 0.157509 0.770321
vt 0.573132 0.784656
vt 0.561257 0.784656
vt 0.561257 0.538931
vt 0.573132 0.538931
vt 0.585007 0.538931
vt 0.585007 0.784656
vt 0.505203 0.784657
vt 0.485383 0.784657
vt 0.485383 0.538931
vt 0.505203 0.538931
vt 0.401009 0.890093
vt 0.381689 0.890093
vt 0.381689 0.788359
vt 0.401009 0.788359
vt 0.240672 0.955740
vt 0.240672 0.770321
vt 0.252782 0.770321
vt 0.252782 0.955740
vt 0.339562 0.788359
vt 0.339562 0.961988
vt 0.327452 0.961988
vt 0.327452 0.788359
vt 0.429329 0.538931
vt 0.429329 0.784656
vt 0.417454 0.784656
vt 0.417454 0.538931
vt 0.366761 0.784657
vt 0.366761 0.538931
vt 0.386582 0.538931
vt 0.386582 0.784657
vt 0.335889 0.538931
vt 0.335889 0.784656
vt 0.316068 0.784656
vt 0.316068 0.538931
vt 0.533553 0.788359
vt 0.545663 0.788359
vt 0.545663 0.807849
vt 0.533553 0.807849
vt 0.407000 0.788359
vt 0.426490 0.788359
vt 0.426490 0.840400
vt 0.407000 0.840400
vt 0.240525 0.766618
vt 0.240525 0.652775
vt 0.260014 0.652775
vt 0.260014 0.766618
vt 0.240525 0.538931
vt 0.260014 0.538931
vt 0.151418 0.985898
vt 0.151418 0.998008
vt 0.014081 0.998008
vt 0.014081 0.985898
vt 0.001848 0.998008
vt 0.001848 0.985898
vt 0.001848 0.884164
vt 0.014081 0.884164
vt 0.014081 0.782431
vt 0.001848 0.782431
vt 0.001848 0.770321
vt 0.014081 0.770321
vt 0.151418 0.782431
vt 0.151418 0.770321
vt 0.345531 0.788359
vt 0.357641 0.788359
vt 0.357641 0.925696
vt 0.345531 0.925696
vt 0.620333 0.796956
vt 0.632443 0.796956
vt 0.632443 0.809189
vt 0.620333 0.809189
vt 0.191437 0.973788
vt 0.179204 0.973788
vt 0.179204 0.872055
vt 0.191437 0.872055
vt 0.191437 0.770321
vt 0.179204 0.770321
vt 0.457621 0.800234
vt 0.477111 0.800234
vt 0.477111 0.812109
vt 0.457621 0.812109
vt 0.457621 0.788359
vt 0.477111 0.788359
vt 0.569630 0.788359
vt 0.569630 0.807849
vt 0.551633 0.807849
vt 0.551633 0.788359
vt 0.482932 0.788359
vt 0.502422 0.788359
vt 0.502422 0.808180
vt 0.482932 0.808180
vt 0.216772 0.973788
vt 0.197283 0.973788
vt 0.197283 0.872055
vt 0.216772 0.872055
vt 0.216772 0.770321
vt 0.197283 0.770321
vt 0.589053 0.796956
vt 0.589053 0.816446
vt 0.576943 0.816446
vt 0.576943 0.796956
vt 0.432311 0.840400
vt 0.432311 0.788359
vt 0.451800 0.788359
vt 0.451800 0.840400
vt 0.375720 0.788359
vt 0.375720 0.925696
vt 0.363610 0.925696
vt 0.363610 0.788359
vt 0.650522 0.796956
vt 0.650522 0.809189
vt 0.638412 0.809189
vt 0.638412 0.796956
vt 0.595022 0.796956
vt 0.613020 0.796956
vt 0.613020 0.816446
vt 0.595022 0.816446
vt 0.508243 0.808180
vt 0.508243 0.788359
vt 0.527733 0.788359
vt 0.527733 0.808180
vn 0.000000 -0.030552 -0.999533
vn 0.000000 -0.030552 -0.999533
vn 0.000000 -0.030552 -0.999533
vn 0.000000 -0.030552 -0.999533
vn 0.000000 -0.030552 -0.999533
vn 0.000000 -0.030552 -0.999533
vn 0.000000 -0.030552 -0.999533
vn 0.000000 -0.030552 -0.999533
vn 0.000000 -0.030552 -0.999533
vn 0.000000 -0.030552 -0.999533
vn 0.000000 -0.030552 -0.999533
vn 0.000000 0.999533 -0.030552
vn 0.000000 0.999533 -0.030552
vn 0.000000 0.999533 -0.030552
vn 0.000000 0.999533 -0.030552
vn 0.000000 0.030552 0.999533
vn 0.000000 0.030552 0.999533
vn 0.000000 0.030552 0.999533
vn 0.000000 0.030552 0.999533
vn 0.000000 0.030552 0.999533
vn 0.000000 0.030552 0.999533
vn 0.000000 0.030552 0.999533
vn -0.000000 0.030552 0.999533
vn -0.000000 0.030552 0.999533
vn 0.000000 0.029297 0.999571
vn 0.000000 0.029297 0.999571
vn 1.000000 0.000000 0.000000
vn 1.000000 -0.000000 0.000000
vn 1.000000 0.000000 0.000000
vn 1.000000 0.000000 0.000000
vn -1.000000 0.000000 -0.000000
vn -1.000000 0.000000 -0.000000
vn -1.000000 0.000000 -0.000000
vn -1.000000 0.000000 -0.000000
vn 0.000000 0.999533 -0.030552
vn 0.000000 0.999533 -0.030552
vn 0.000000 0.999533 -0.030552
vn 0.000000 0.999533 -0.030552
vn 0.000000 -0.999533 0.030552
vn 0.000000 -0.999533 0.030552
vn 0.000000 -0.999533 0.030552
vn 0.000000 -0.999533 0.030552
vn 0.000000 -0.008675 0.999962
vn 0.000000 -0.008675 0.999962
vn 1.000000 -0.000000 0.000000
vn 1.000000 0.000000 0.000000
vn -0.000000 0.008676 -0.999962
vn 0.000000 0.008677 -0.999962
vn 0.000000 0.008675 -0.999962
vn -0.000000 0.008676 -0.999962
vn -1.000000 0.000000 -0.000000
vn -1.000000 0.000000 -0.000000
vn 0.000000 0.008675 -0.999962
vn 0.000000 0.008675 -0.999962
vn 0.000000 0.008675 -0.999962
vn 0.000000 0.008675 -0.999962
vn 1.000000 0.000000 0.000000
vn 1.000000 0.000000 0.000000
vn 0.000000 -0.008675 0.999962
vn 0.000000 -0.008675 0.999962
vn -1.000000 0.000000 -0.000000
vn -1.000000 0.000000 -0.000000
vn 0.000000 -0.999962 -0.008675
vn 0.000000 -0.999962 -0.008675
vn 0.000000 -0.999962 -0.008675
vn 0.000000 -0.999962 -0.008675
vn -1.000000 -0.000000 -0.000000
vn -1.000000 -0.000000 -0.000000
vn 0.000000 0.999962 0.008675
vn 0.000000 0.999962 0.008675
vn 0.000000 0.999962 0.008675
vn 0.000000 0.999962 0.008675
vn 1.000000 -0.000000 0.000000
vn 1.000000 -0.000000 0.000000
vn 0.000000 0.999962 0.008676
vn 0.000000 0.999962 0.008676
vn 0.000000 0.999962 0.008676
vn 0.000000 0.999962 0.008676
vn -1.000000 -0.000000 -0.000000
vn -1.000000 -0.000000 -0.000000
vn 0.000000 -0.999962 -0.008675
vn 0.000000 -0.999962 -0.008675
vn 0.000000 -0.008675 0.999962
vn 0.000000 -0.008675 0.999962
vn 0.000000 -0.008675 0.999962
vn 0.000000 -0.008675 0.999962
vn 1.000000 0.000000 -0.000000
vn 1.000000 0.000000 -0.000000
vn 1.000000 0.000000 -0.000000
vn 1.000000 0.000000 -0.000000
vn 0.000000 0.008675 -0.999962
vn 0.000000 0.008675 -0.999962
vn -1.000000 0.000000 -0.000000
vn -1.000000 0.000000 -0.000000
vn 0.000000 -0.008676 0.999962
vn 0.000000 -0.008676 0.999962
vn 0.000000 -0.008676 0.999962
vn 0.000000 -0.008676 0.999962
vn 0.000000 -0.999962 -0.008675
vn 0.000000 -0.999962 -0.008675
vn -0.000000 0.008676 -0.999962
vn -0.000000 0.008676 -0.999962
vn -0.000000 0.999962 0.008675
vn -0.000000 0.999962 0.008675
vn -0.000000 0.999962 0.008675
vn -0.000000 0.999962 0.008675
vn 0.000000 0.999533 -0.030552
vn 0.000000 0.999533 -0.030552
vn 0.000000 0.999533 -0.030552
vn 0.000000 0.999533 -0.030552
vn 0.000000 0.999533 -0.030552
vn 0.000000 0.999533 -0.030552
vn 0.000000 0.999533 -0.030552
vn 0.000000 0.999533 -0.030552
vn 0.000000 0.999533 -0.030552
vn 0.000000 0.999533 -0.030552
vn 0.000000 0.999533 -0.030552
vn 0.000000 0.999533 -0.030552
vn 0.000000 -0.030552 -0.999533
vn 0.000000 -0.030552 -0.999533
vn -1.000000 0.000000 -0.000000
vn -1.000000 0.000000 -0.000000
vn -1.000000 0.000000 -0.000000
vn -1.000000 0.000000 -0.000000
vn 0.000000 0.030552 0.999533
vn 0.000000 0.030552 0.999533
vn 1.000000 0.000000 0.000000
vn 1.000000 0.000000 0.000000
vn 1.000000 0.000000 0.000000
vn 1.000000 0.000000 0.000000
vn 0.000000 -0.030552 -0.999533
vn 0.000000 -0.030552 -0.999533
vn -1.000000 0.000000 -0.000000
vn -1.000000 0.000000 -0.000000
vn -1.000000 0.000000 -0.000000
vn -1.000000 0.000000 -0.000000
vn 0.000000 0.030552 0.999533
vn 0.000000 0.030552 0.999533
vn 1.000000 0.000000 0.000000
vn 1.000000 0.000000 0.000000
vn 1.000000 0.000000 0.000000
vn 1.000000 0.000000 0.000000
vn 0.000000 -0.030552 -0.999533
vn 0.000000 -0.030552 -0.999533
vn 0.000000 0.999533 -0.030552
vn 0.000000 0.999533 -0.030552
vn 0.000000 0.999533 -0.030552
vn 0.000000 0.999533 -0.030552
vn 0.000000 0.030552 0.999533
vn 0.000000 0.030552 0.999533
vn 0.000000 -0.030552 -0.999533
vn 0.000000 -0.030552 -0.999533
vn 0.000000 -0.030552 -0.999533
vn 0.000000 -0.030552 -0.999533
vn 0.000000 -0.030552 -0.999533
vn 0.000000 -0.030552 -0.999533
vn -0.000000 -0.030552 -0.999533
vn -0.000000 -0.030552 -0.999533
vn 0.000000 -0.030552 -0.999533
vn 0.000000 0.999533 -0.030552
vn 0.000000 0.999533 -0.030552
vn 0.000000 0.999533 -0.030552
vn 0.000000 0.999533 -0.030552
vn 0.000000 0.030552 0.999533
vn 0.000000 0.029297 0.999571
vn 0.000000 0.029297 0.999571
vn 0.000000 0.030552 0.999533
vn 0.000000 0.030552 0.999533
vn 0.000000 0.030552 0.999533
vn 0.000000 0.030552 0.999533
vn 0.000000 0.030552 0.999533
vn 0.000000 0.030552 0.999533
vn -1.000000 0.000000 -0.000000
vn -1.000000 0.000000 -0.000000
vn -1.000000 0.000000 -0.000000
vn -1.000000 0.000000 -0.000000
vn 1.000000 0.000000 0.000000
vn 1.000000 0.000000 0.000000
vn 1.000000 0.000000 0.000000
vn 1.000000 0.000000 0.000000
vn 0.000000 0.999533 -0.030552
vn 0.000000 0.999533 -0.030552
vn 0.000000 0.999533 -0.030552
vn 0.000000 0.999533 -0.030552
vn 0.000000 -0.999533 0.030552
vn 0.000000 -0.999533 0.030552
vn 0.000000 -0.008675 0.999962
vn 0.000000 -0.008675 0.999962
vn -1.000000 0.000000 -0.000000
vn -1.000000 0.000000 -0.000000
vn 0.000000 0.008677 -0.999962
vn 0.000000 0.008676 -0.999962
vn 0.000000 0.008675 -0.999962
vn 0.000000 0.008676 -0.999962
vn 1.000000 0.000000 0.000000
vn 1.000000 0.000000 0.000000
vn 0.000000 0.008675 -0.999962
vn 0.000000 0.008675 -0.999962
vn 0.000000 0.008675 -0.999962
vn 0.000000 0.008675 -0.999962
vn -1.000000 0.000000 -0.000000
vn -1.000000 0.000000 -0.000000
vn 0.000000 -0.008675 0.999962
vn 0.000000 -0.008675 0.999962
vn 1.000000 0.000000 0.000000
vn 1.000000 0.000000 0.000000
vn 0.000000 -0.999962 -0.008675
vn 0.000000 -0.999962 -0.008675
vn 0.000000 -0.999962 -0.008675
vn 0.000000 -0.999962 -0.008675
vn 1.000000 0.000000 0.000000
vn 1.000000 0.000000 0.000000
vn 0.000000 0.999962 0.008675
vn 0.000000 0.999962 0.008675
vn 0.000000 0.999962 0.008675
vn 0.000000 0.999962 0.008675
vn -1.000000 0.000000 -0.000000
vn -1.000000 0.000000 -0.000000
vn 0.000000 0.999962 0.008676
vn 0.000000 0.999962 0.008676
vn 0.000000 0.999962 0.008676
vn 0.000000 0.999962 0.008676
vn 1.000000 0.000000 0.000000
vn 1.000000 0.000000 0.000000
vn 0.000000 -0.999962 -0.008675
vn 0.000000 -0.999962 -0.008675
vn 0.000000 -0.008675 0.999962
vn 0.000000 -0.008675 0.999962
vn 0.000000 -0.008675 0.999962
vn 0.000000 -0.008675 0.999962
vn -1.000000 -0.000000 -0.000000
vn -1.000000 -0.000000 -0.000000
vn -1.000000 -0.000000 -0.000000
vn -1.000000 -0.000000 -0.000000
vn 0.000000 0.008675 -0.999962
vn 0.000000 0.008675 -0.999962
vn 1.000000 0.000000 0.000000
vn 1.000000 0.000000 0.000000
vn -0.000000 -0.008677 0.999962
vn -0.000000 -0.008677 0.999962
vn 0.000000 0.999962 0.008675
vn 0.000000 0.999962 0.008675
vn 0.000000 0.999533 -0.030552
vn 0.000000 0.999533 -0.030552
vn 0.000000 0.999533 -0.030552
vn 0.000000 0.999533 -0.030552
vn 0.000000 0.999533 -0.030552
vn 0.000000 0.999533 -0.030552
vn 0.000000 0.999533 -0.030552
vn 0.000000 0.999533 -0.030552
vn 0.000000 0.999533 -0.030552
vn 0.000000 0.999533 -0.030552
vn 0.000000 -0.030552 -0.999533
vn 1.000000 0.000000 0.000000
vn 1.000000 0.000000 0.000000
vn 1.000000 0.000000 0.000000
vn 1.000000 0.000000 0.000000
vn 0.000000 0.030552 0.999533
vn -1.000000 0.000000 -0.000000
vn -1.000000 0.000000 -0.000000
vn -1.000000 0.000000 -0.000000
vn -1.000000 0.000000 -0.000000
vn 0.000000 -0.030552 -0.999533
vn 0.000000 -0.030552 -0.999533
vn 1.000000 0.000000 0.000000
vn 1.000000 0.000000 0.000000
vn 1.000000 0.000000 0.000000
vn 1.000000 0.000000 0.000000
vn 0.000000 0.030552 0.999533
vn 0.000000 0.030552 0.999533
vn -1.000000 0.000000 -0.000000
vn -1.000000 0.000000 -0.000000
vn -1.000000 0.000000 -0.000000
vn -1.000000 0.000000 -0.000000
vn 0.000000 0.999533 -0.030552
vn 0.000000 0.999533 -0.030552
s 1
g pCube3
usemtl initialShadingGroup
f 1/89/1 2/90/2 50/91/3 48/92/4 3/93/5 38/94/6 36/95/7 34/96/8 22/97/9 23/98/10 4/99/11
s off
f 9/207/12 10/208/13 11/209/14 12/210/15
s 2
f 7/111/16 24/112/17 21/113/18 33/114/19 35/115/20 37/116/21 8/117/22 47/118/23 49/119/24 6/120/25 5/121/26
s 3
f 50/1/27 2/2/28 6/3/29 49/4/30
s 4
f 7/11/31 5/12/32 1/13/33 4/14/34
s off
f 37/211/35 38/212/36 3/213/37 8/214/38
s 5
f 4/215/39 23/216/40 24/217/41 7/218/42
s 2
f 5/121/26 6/120/25 15/135/43 16/136/44
s 3
f 6/3/29 2/2/28 14/5/45 15/6/46
s 6
f 18/145/47 17/146/48 19/147/49 20/148/50
s 4
f 1/13/33 5/12/32 16/15/51 13/16/52
s off
f 14/159/53 13/160/54 12/161/55 11/162/56
s 3
f 15/6/46 14/5/45 11/9/57 10/10/58
s 2
f 16/136/44 15/135/43 10/141/59 9/142/60
s 4
f 13/16/52 16/15/51 9/17/61 12/18/62
s 7
f 2/221/63 1/222/64 27/223/65 28/224/66
s 4
f 1/13/33 13/16/52 26/19/67 27/20/68
s off
f 13/235/69 14/236/70 25/237/71 26/238/72
s 3
f 14/5/45 2/2/28 28/7/73 25/8/74
s off
f 30/239/75 29/240/76 31/241/77 32/242/78
s 4
f 27/20/68 26/19/67 19/21/79 17/22/80
s 7
f 28/224/66 27/223/65 17/225/81 18/226/82
s off
f 26/163/83 25/164/84 29/165/85 30/166/86
f 25/25/87 20/26/88 31/27/89 29/28/90
s 6
f 20/148/50 19/147/49 32/149/91 31/150/92
s 4
f 19/21/79 26/19/67 30/23/93 32/24/94
s 8
f 25/167/95 28/168/96 51/169/97 52/170/98
s 7
f 28/224/66 18/226/82 53/227/99 51/228/100
s 6
f 18/145/47 20/148/50 54/151/101 53/152/102
s 9
f 20/243/103 25/244/104 52/245/105 54/246/106
s 10
f 39/249/107 40/250/108 41/251/109 42/252/110
s off
f 33/255/111 34/256/112 36/257/113 35/258/114
f 43/259/115 44/260/116 45/261/117 46/262/118
s 1
f 22/173/9 34/174/8 41/175/119 40/176/120
s off
f 34/29/121 33/30/122 42/31/123 41/32/124
s 2
f 33/114/19 21/113/18 39/131/125 42/132/126
s off
f 35/33/127 36/34/128 44/35/129 43/36/130
s 1
f 36/179/7 38/180/6 45/181/131 44/182/132
s off
f 38/37/133 37/38/134 46/39/135 45/40/136
s 2
f 37/116/21 35/115/20 43/133/137 46/134/138
s off
f 3/41/139 48/42/140 47/43/141 8/44/142
s 1
f 48/92/4 50/91/3 55/100/143 56/101/144
s 11
f 50/263/145 49/264/146 57/265/147 55/266/148
s 2
f 49/183/24 47/184/23 58/185/149 57/186/150
s 1
f 59/102/151 62/103/152 23/98/10 22/97/9 88/104/153 90/105/154 92/106/155 61/107/156 100/108/157 102/109/158 60/110/159
s off
f 67/269/160 70/270/161 69/271/162 68/272/163
s 2
f 65/122/164 63/123/165 64/124/166 101/125/167 99/126/168 66/127/169 91/128/170 89/129/171 87/130/172 21/113/18 24/112/17
s 12
f 102/45/173 101/46/174 64/47/175 60/48/176
s 13
f 65/55/177 62/56/178 59/57/179 63/58/180
s off
f 91/273/181 66/274/182 61/275/183 92/276/184
s 5
f 62/219/185 65/220/186 24/217/41 23/216/40
s 2
f 63/123/165 74/137/187 73/138/188 64/124/166
s 12
f 64/47/175 73/49/189 72/50/190 60/48/176
s 6
f 76/153/191 78/154/192 77/155/193 75/156/194
s 13
f 59/57/179 71/59/195 74/60/196 63/58/180
s off
f 72/187/197 69/188/198 70/189/199 71/190/200
s 12
f 73/49/189 68/51/201 69/52/202 72/50/190
s 2
f 74/137/187 67/143/203 68/144/204 73/138/188
s 13
f 71/59/195 70/63/205 67/64/206 74/60/196
s 7
f 60/233/207 82/229/208 81/232/209 59/234/210
s 13
f 59/57/179 81/61/211 80/62/212 71/59/195
s off
f 71/277/213 80/278/214 79/279/215 72/280/216
s 12
f 72/50/190 79/53/217 82/54/218 60/48/176
s off
f 84/281/219 86/282/220 85/283/221 83/284/222
s 13
f 81/61/211 75/65/223 77/66/224 80/62/212
s 7
f 82/229/208 76/230/225 75/231/226 81/232/209
s off
f 80/191/227 84/192/228 83/193/229 79/194/230
f 79/69/231 83/70/232 85/71/233 78/72/234
s 6
f 78/154/192 85/157/235 86/158/236 77/155/193
s 13
f 77/66/224 86/67/237 84/68/238 80/62/212
s 8
f 79/171/239 52/170/98 51/169/97 82/172/240
s 7
f 82/229/208 51/228/100 53/227/99 76/230/225
s 6
f 76/153/191 53/152/102 54/151/101 78/154/192
s 9
f 78/247/241 54/246/106 52/245/105 79/248/242
s 10
f 39/249/107 94/253/243 93/254/244 40/250/108
s off
f 87/285/245 89/286/246 90/287/247 88/288/248
f 95/289/249 98/290/250 97/291/251 96/292/252
s 1
f 22/173/9 40/176/120 93/177/253 88/178/153
s off
f 88/73/254 93/74/255 94/75/256 87/76/257
s 2
f 87/195/172 94/196/258 39/197/125 21/198/18
s off
f 89/77/259 95/78/260 96/79/261 90/80/262
s 1
f 90/199/154 96/200/263 97/201/264 92/202/155
s off
f 92/81/265 97/82/266 98/83/267 91/84/268
s 2
f 91/203/170 98/204/269 95/205/270 89/206/171
s off
f 61/85/271 66/86/272 99/87/273 100/88/274
s 1
f 100/108/157 56/101/144 55/100/143 102/109/158
s 11
f 102/267/275 55/266/148 57/265/147 101/268/276
s 2
f 101/125/167 57/139/150 58/140/149 99/126/168
g default
v -2.080006 -4.359546 -0.224581
v 2.080006 -4.359546 -0.224581
v -2.080006 -4.037172 -0.225466
v 2.080006 -4.037172 -0.225466
v -2.080006 -4.045883 -3.398297
v 2.080006 -4.045883 -3.398297
v -2.080006 -4.368257 -3.397412
v 2.080006 -4.368257 -3.397412
vt 0.759380 0.902801
vt 0.839927 0.902801
vt 0.839927 0.983348
vt 0.759380 0.983348
vt 0.841721 0.902801
vt 0.922268 0.902801
vt 0.922268 0.983348
vt 0.841721 0.983348
vt 0.841721 0.820401
vt 0.841721 0.739854
vt 0.922268 0.739854
vt 0.922268 0.820401
vt 0.827945 0.821327
vt 0.908492 0.821327
vt 0.908492 0.901875
vt 0.827945 0.901875
vt 0.759380 0.739854
vt 0.839927 0.739854
vt 0.839927 0.820401
vt 0.759380 0.820401
vt 0.909916 0.821328
vt 0.990463 0.821328
vt 0.990463 0.901875
vt 0.909916 0.901875
vn 0.000000 0.002746 0.999996
vn 0.000000 0.002746 0.999996
vn 0.000000 0.002746 0.999996
vn 0.000000 0.002746 0.999996
vn 0.000000 0.999996 -0.002746
vn 0.000000 0.999996 -0.002746
vn 0.000000 0.999996 -0.002746
vn 0.000000 0.999996 -0.002746
vn 0.000000 -0.002746 -0.999996
vn 0.000000 -0.002746 -0.999996
vn 0.000000 -0.002746 -0.999996
vn 0.000000 -0.002746 -0.999996
vn 0.000000 -0.999996 0.002746
vn 0.000000 -0.999996 0.002746
vn 0.000000 -0.999996 0.002746
vn 0.000000 -0.999996 0.002746
vn 1.000000 0.000000 0.000000
vn 1.000000 0.000000 0.000000
vn 1.000000 0.000000 0.000000
vn 1.000000 0.000000 0.000000
vn -1.000000 0.000000 0.000000
vn -1.000000 0.000000 0.000000
vn -1.000000 0.000000 0.000000
vn -1.000000 0.000000 0.000000
s off
g pCube4
usemtl initialShadingGroup
f 103/309/277 104/310/278 106/311/279 105/312/280
f 105/301/281 106/302/282 108/303/283 107/304/284
f 107/313/285 108/314/286 110/315/287 109/316/288
f 109/305/289 110/306/290 104/307/291 103/308/292
f 104/293/293 110/294/294 108/295/295 106/296/296
f 109/297/297 103/298/298 105/299/299 107/300/300
