# This file uses centimeters as units for non-parametric coordinates.

mtllib ValveGaz.mtl
g default
v 0.951057 -1.000000 -0.309017
v 0.809018 -1.000000 -0.587786
v 0.587786 -1.000000 -0.809017
v 0.309017 -1.000000 -0.951057
v 0.000000 -1.000000 -1.000000
v -0.309017 -1.000000 -0.951057
v -0.587785 -1.000000 -0.809017
v -0.809017 -1.000000 -0.587785
v -0.951057 -1.000000 -0.309017
v -1.000000 -1.000000 0.000000
v -0.951057 -1.000000 0.309017
v -0.809017 -1.000000 0.587785
v -0.587785 -1.000000 0.809017
v -0.309017 -1.000000 0.951057
v -0.000000 -1.000000 1.000000
v 0.309017 -1.000000 0.951057
v 0.587785 -1.000000 0.809017
v 0.809017 -1.000000 0.587785
v 0.951057 -1.000000 0.309017
v 1.000000 -1.000000 0.000000
v 0.951057 -0.222403 -0.309017
v 0.809018 -0.222403 -0.587786
v 0.587786 -0.222403 -0.809017
v 0.309017 -0.222403 -0.951057
v 0.000000 -0.222403 -1.000000
v -0.309017 -0.222403 -0.951057
v -0.587785 -0.222403 -0.809017
v -0.809017 -0.222403 -0.587785
v -0.951057 -0.222403 -0.309017
v -1.000000 -0.222403 0.000000
v -0.951057 -0.222403 0.309017
v -0.809017 -0.222403 0.587785
v -0.587785 -0.222403 0.809017
v -0.309017 -0.222403 0.951057
v -0.000000 -0.222403 1.000000
v 0.309017 -0.222403 0.951057
v 0.587785 -0.222403 0.809017
v 0.809017 -0.222403 0.587785
v 0.951057 -0.222403 0.309017
v 1.000000 -0.222403 0.000000
v 0.000000 -1.000000 0.000000
v 0.793277 1.032808 -0.257751
v 0.674802 1.032808 -0.490272
v 0.490272 1.032808 -0.674801
v 0.257751 1.032808 -0.793277
v 0.000000 1.032808 -0.834100
v -0.257751 1.032808 -0.793277
v -0.490272 1.032808 -0.674801
v -0.674801 1.032808 -0.490272
v -0.793276 1.032808 -0.257751
v -0.834100 1.032808 -0.000000
v -0.793276 1.032808 0.257751
v -0.674801 1.032808 0.490272
v -0.490272 1.032808 0.674801
v -0.257751 1.032808 0.793276
v -0.000000 1.032808 0.834100
v 0.257751 1.032808 0.793276
v 0.490272 1.032808 0.674801
v 0.674801 1.032808 0.490272
v 0.793276 1.032808 0.257751
v 0.834100 1.032808 -0.000000
v -0.000000 0.104820 -0.000000
v 0.703903 1.032808 -0.228712
v 0.619305 0.940142 -0.201225
v 0.598776 1.032808 -0.435036
v 0.526812 0.940142 -0.382752
v 0.435036 1.032808 -0.598776
v 0.382751 0.940142 -0.526812
v 0.228712 1.032808 -0.703903
v 0.201224 0.940142 -0.619305
v 0.000000 1.032808 -0.740128
v 0.000000 0.940142 -0.651176
v -0.228712 1.032808 -0.703903
v -0.201224 0.940142 -0.619305
v -0.435036 1.032808 -0.598776
v -0.382751 0.940142 -0.526812
v -0.598776 1.032808 -0.435036
v -0.526812 0.940142 -0.382751
v -0.703903 1.032808 -0.228712
v -0.619305 0.940142 -0.201224
v -0.740128 1.032808 -0.000000
v -0.651175 0.940142 -0.000000
v -0.703903 1.032808 0.228712
v -0.619305 0.940142 0.201224
v -0.598776 1.032808 0.435036
v -0.526812 0.940142 0.382751
v -0.435036 1.032808 0.598776
v -0.382751 0.940142 0.526812
v -0.228712 1.032808 0.703903
v -0.201224 0.940142 0.619304
v -0.000000 1.032808 0.740127
v -0.000000 0.940142 0.651175
v 0.228712 1.032808 0.703903
v 0.201224 0.940142 0.619304
v 0.435036 1.032808 0.598776
v 0.382751 0.940142 0.526812
v 0.598776 1.032808 0.435036
v 0.526812 0.940142 0.382751
v 0.703903 1.032808 0.228712
v 0.619304 0.940142 0.201224
v 0.740127 1.032808 -0.000000
v 0.651175 0.940142 -0.000000
v 0.331127 0.104820 -0.107591
v 0.644560 0.448140 -0.209431
v 0.281674 0.104820 -0.204648
v 0.548296 0.448140 -0.398360
v 0.204648 0.104820 -0.281674
v 0.398360 0.448140 -0.548296
v 0.107590 0.104820 -0.331128
v 0.209430 0.448140 -0.644560
v -0.000000 0.104820 -0.348168
v 0.000000 0.448140 -0.677731
v -0.107590 0.104820 -0.331128
v -0.209430 0.448140 -0.644560
v -0.204647 0.104820 -0.281674
v -0.398360 0.448140 -0.548296
v -0.281674 0.104820 -0.204648
v -0.548295 0.448140 -0.398360
v -0.331127 0.104820 -0.107590
v -0.644560 0.448140 -0.209430
v -0.348168 0.104820 0.000000
v -0.677731 0.448140 -0.000000
v -0.331127 0.104820 0.107590
v -0.644560 0.448140 0.209430
v -0.281674 0.104820 0.204648
v -0.548295 0.448140 0.398360
v -0.204648 0.104820 0.281674
v -0.398360 0.448140 0.548295
v -0.107590 0.104820 0.331127
v -0.209430 0.448140 0.644560
v -0.000000 0.104820 0.348168
v -0.000000 0.448140 0.677730
v 0.107590 0.104820 0.331127
v 0.209430 0.448140 0.644560
v 0.204648 0.104820 0.281674
v 0.398360 0.448140 0.548295
v 0.281673 0.104820 0.204648
v 0.548295 0.448140 0.398360
v 0.331127 0.104820 0.107590
v 0.644560 0.448140 0.209430
v 0.348168 0.104820 -0.000001
v 0.677730 0.448140 -0.000000
vt 0.209429 0.001957
vt 0.261151 0.001957
vt 0.261151 0.146230
vt 0.209429 0.146230
vt 0.302198 0.001957
vt 0.302198 0.146230
vt 0.243059 0.379119
vt 0.199918 0.379119
vt 0.152095 0.001957
vt 0.152095 0.146230
vt 0.277296 0.379119
vt 0.152095 0.379119
vt 0.094761 0.001957
vt 0.094761 0.146230
vt 0.104273 0.379119
vt 0.043039 0.001957
vt 0.043039 0.146230
vt 0.061131 0.379119
vt 0.001992 0.001957
vt 0.001992 0.146230
vt 0.026894 0.379119
vt 0.577247 0.001957
vt 0.628969 0.001957
vt 0.628969 0.146230
vt 0.577247 0.146230
vt 0.686303 0.001957
vt 0.686303 0.146230
vt 0.638480 0.379119
vt 0.595339 0.379119
vt 0.536200 0.001957
vt 0.536200 0.146230
vt 0.743637 0.001957
vt 0.743637 0.146230
vt 0.686303 0.379119
vt 0.561102 0.379119
vt 0.795359 0.001957
vt 0.795359 0.146230
vt 0.734125 0.379119
vt 0.836406 0.001957
vt 0.836406 0.146230
vt 0.777267 0.379119
vt 0.811504 0.379119
vt 0.311138 0.845045
vt 0.311138 0.878726
vt 0.219853 0.881622
vt 0.219853 0.846568
vt 0.328331 0.850146
vt 0.328331 0.888426
vt 0.311138 0.905454
vt 0.219853 0.909440
vt 0.156154 0.827673
vt 0.156154 0.845681
vt 0.311138 0.807711
vt 0.219853 0.807711
vt 0.328331 0.807711
vt 0.328331 0.918806
vt 0.156154 0.859972
vt 0.156154 0.807711
vt 0.311138 0.770376
vt 0.219853 0.768854
vt 0.328331 0.765276
vt 0.156154 0.787749
vt 0.311138 0.736696
vt 0.219853 0.733800
vt 0.328331 0.726995
vt 0.156154 0.769741
vt 0.311138 0.709968
vt 0.219853 0.705981
vt 0.328331 0.696616
vt 0.156154 0.755450
vt 0.490441 0.798257
vt 0.490441 0.831938
vt 0.399157 0.830415
vt 0.399157 0.795362
vt 0.507634 0.788557
vt 0.507634 0.826838
vt 0.490441 0.869272
vt 0.399157 0.869272
vt 0.335458 0.831302
vt 0.335458 0.849310
vt 0.490441 0.771529
vt 0.399157 0.767543
vt 0.507634 0.758177
vt 0.507634 0.869272
vt 0.490441 0.906607
vt 0.399157 0.908129
vt 0.335458 0.869272
vt 0.335458 0.817011
vt 0.507634 0.911707
vt 0.490441 0.940287
vt 0.399157 0.943183
vt 0.335458 0.889234
vt 0.507634 0.949988
vt 0.490441 0.967016
vt 0.399157 0.971002
vt 0.335458 0.907242
vt 0.507634 0.980368
vt 0.335458 0.921533
vt 0.738326 0.459592
vt 0.764680 0.511314
vt 0.588223 0.568648
vt 0.773760 0.568648
vt 0.697279 0.418545
vt 0.764679 0.625982
vt 0.645557 0.392191
vt 0.738326 0.677704
vt 0.588223 0.383110
vt 0.697279 0.718751
vt 0.530889 0.392191
vt 0.645557 0.745104
vt 0.479167 0.418545
vt 0.588223 0.754185
vt 0.438120 0.459592
vt 0.530889 0.745104
vt 0.411766 0.511314
vt 0.479167 0.718751
vt 0.402685 0.568648
vt 0.438120 0.677704
vt 0.411766 0.625982
vt 0.388976 0.585690
vt 0.366994 0.628831
vt 0.352889 0.618583
vt 0.372394 0.580302
vt 0.332757 0.663068
vt 0.322509 0.648963
vt 0.396550 0.537867
vt 0.379115 0.537867
vt 0.289616 0.685050
vt 0.284228 0.668468
vt 0.388976 0.490045
vt 0.372394 0.495433
vt 0.241793 0.692624
vt 0.241793 0.675189
vt 0.312808 0.635611
vt 0.279128 0.652771
vt 0.366994 0.446903
vt 0.352889 0.457152
vt 0.193971 0.685050
vt 0.199359 0.668468
vt 0.241793 0.658685
vt 0.332757 0.412666
vt 0.322509 0.426772
vt 0.150829 0.663068
vt 0.161078 0.648963
vt 0.204459 0.652771
vt 0.289616 0.390685
vt 0.284228 0.407267
vt 0.116592 0.628831
vt 0.130698 0.618583
vt 0.170779 0.635611
vt 0.279128 0.422963
vt 0.312808 0.440124
vt 0.241793 0.383110
vt 0.241793 0.400546
vt 0.094611 0.585690
vt 0.111193 0.580302
vt 0.241793 0.417050
vt 0.193971 0.390685
vt 0.199359 0.407267
vt 0.087036 0.537867
vt 0.104472 0.537867
vt 0.204459 0.422963
vt 0.150829 0.412666
vt 0.161078 0.426772
vt 0.094611 0.490045
vt 0.111193 0.495433
vt 0.170778 0.440124
vt 0.116592 0.446903
vt 0.130698 0.457152
vt 0.137339 0.842322
vt 0.128164 0.860330
vt 0.075903 0.822360
vt 0.113873 0.874621
vt 0.140501 0.822360
vt 0.095865 0.883796
vt 0.137339 0.802398
vt 0.149813 0.924089
vt 0.114760 0.941950
vt 0.075903 0.886958
vt 0.128164 0.784390
vt 0.075903 0.948104
vt 0.055941 0.883796
vt 0.113873 0.770099
vt 0.037046 0.941950
vt 0.037933 0.874621
vt 0.095865 0.760923
vt 0.001992 0.924089
vt 0.023642 0.860330
vt 0.114760 0.702770
vt 0.149813 0.720631
vt 0.075903 0.757762
vt 0.014466 0.842322
vt 0.075903 0.696616
vt 0.055941 0.760923
vt 0.011305 0.822360
vt 0.037046 0.702770
vt 0.037933 0.770099
vt 0.014466 0.802398
vt 0.001992 0.720631
vt 0.023642 0.784390
vt 0.528234 0.379119
vt 0.476512 0.379119
vt 0.476512 0.234846
vt 0.528234 0.234846
vt 0.419178 0.379119
vt 0.419178 0.234846
vt 0.467000 0.001957
vt 0.510141 0.001957
vt 0.361843 0.379119
vt 0.361843 0.234846
vt 0.419178 0.001957
vt 0.310121 0.379119
vt 0.310121 0.234846
vt 0.371355 0.001957
vt 0.328214 0.001957
vt 0.779896 0.383110
vt 0.831618 0.383110
vt 0.831618 0.527384
vt 0.779896 0.527384
vt 0.888952 0.383110
vt 0.888952 0.527384
vt 0.841129 0.760272
vt 0.797988 0.760272
vt 0.946286 0.383110
vt 0.946286 0.527384
vt 0.888952 0.760272
vt 0.998008 0.383110
vt 0.998008 0.527384
vt 0.936774 0.760272
vt 0.979916 0.760272
vt 0.606046 0.761073
vt 0.606046 0.794753
vt 0.514761 0.793230
vt 0.514761 0.758177
vt 0.606046 0.832087
vt 0.514761 0.832087
vt 0.606046 0.869422
vt 0.514761 0.870945
vt 0.606046 0.903102
vt 0.514761 0.905998
vt 0.612209 0.903102
vt 0.612209 0.869422
vt 0.703494 0.870945
vt 0.703494 0.905998
vt 0.612209 0.832087
vt 0.703494 0.832087
vt 0.612209 0.794753
vt 0.703494 0.793230
vt 0.612209 0.761073
vt 0.703494 0.758177
vn 0.951057 0.000000 -0.309016
vn 0.809017 0.000000 -0.587785
vn 0.806538 0.078223 -0.585984
vn 0.948143 0.078223 -0.308069
vn 0.587785 0.000000 -0.809017
vn 0.585984 0.078223 -0.806538
vn 0.309017 0.000000 -0.951057
vn 0.308070 0.078223 -0.948142
vn -0.000000 0.000000 -1.000000
vn -0.000000 0.078223 -0.996936
vn -0.309017 0.000000 -0.951057
vn -0.308070 0.078223 -0.948142
vn -0.587785 0.000000 -0.809017
vn -0.585984 0.078223 -0.806538
vn -0.809017 0.000000 -0.587785
vn -0.806538 0.078223 -0.585984
vn -0.951057 0.000000 -0.309017
vn -0.948142 0.078223 -0.308070
vn -1.000000 0.000000 0.000000
vn -0.996936 0.078223 0.000000
vn -0.951057 0.000000 0.309017
vn -0.948142 0.078223 0.308070
vn -0.809017 0.000000 0.587785
vn -0.806538 0.078223 0.585984
vn -0.587785 0.000000 0.809017
vn -0.585984 0.078223 0.806538
vn -0.309017 0.000000 0.951057
vn -0.308070 0.078223 0.948142
vn -0.000000 0.000000 1.000000
vn 0.000000 0.078223 0.996936
vn 0.309017 0.000000 0.951057
vn 0.308070 0.078223 0.948142
vn 0.587785 0.000000 0.809017
vn 0.585984 0.078223 0.806538
vn 0.809017 0.000000 0.587785
vn 0.806538 0.078223 0.585984
vn 0.951057 0.000000 0.309017
vn 0.948142 0.078223 0.308070
vn 1.000000 0.000000 0.000001
vn 0.996936 0.078223 0.000001
vn 0.000000 -1.000000 0.000000
vn 0.000000 -1.000000 0.000000
vn 0.000000 -1.000000 0.000000
vn 0.000000 -1.000000 0.000000
vn 0.000000 -1.000000 0.000000
vn 0.000000 -1.000000 0.000000
vn 0.000000 -1.000000 0.000000
vn 0.000000 -1.000000 0.000000
vn 0.000000 -1.000000 0.000000
vn 0.000000 -1.000000 0.000000
vn 0.000000 -1.000000 0.000000
vn 0.000000 -1.000000 0.000000
vn 0.000000 -1.000000 0.000000
vn 0.000000 -1.000000 0.000000
vn 0.000000 -1.000000 0.000000
vn 0.000000 -1.000000 0.000000
vn 0.000000 -1.000000 0.000000
vn 0.000000 -1.000000 0.000000
vn 0.000000 -1.000000 0.000000
vn 0.000000 -1.000000 0.000000
vn 0.000000 -1.000000 0.000000
vn 0.802042 0.131030 -0.582718
vn 0.942857 0.131030 -0.306352
vn 0.582717 0.131030 -0.802042
vn 0.306353 0.131030 -0.942857
vn -0.000000 0.131030 -0.991378
vn -0.306353 0.131030 -0.942857
vn -0.582718 0.131030 -0.802042
vn -0.802042 0.131030 -0.582717
vn -0.942857 0.131030 -0.306353
vn -0.991379 0.131030 0.000000
vn -0.942857 0.131030 0.306353
vn -0.802042 0.131030 0.582718
vn -0.582718 0.131030 0.802042
vn -0.306353 0.131030 0.942857
vn 0.000000 0.131030 0.991379
vn 0.306353 0.131030 0.942857
vn 0.582718 0.131030 0.802042
vn 0.802042 0.131030 0.582718
vn 0.942857 0.131030 0.306353
vn 0.991378 0.131030 0.000001
vn -0.686105 0.692505 0.222928
vn -0.686105 0.692505 0.222928
vn -0.721413 0.692505 -0.000001
vn -0.721413 0.692505 -0.000001
vn -0.583635 0.692505 0.424036
vn -0.583635 0.692505 0.424036
vn -0.424035 0.692505 0.583636
vn -0.424035 0.692505 0.583636
vn -0.222929 0.692505 0.686105
vn -0.222929 0.692505 0.686105
vn 0.000000 0.692505 0.721413
vn -0.000000 0.692505 0.721413
vn 0.222929 0.692505 0.686105
vn 0.222929 0.692505 0.686105
vn 0.424036 0.692505 0.583636
vn 0.424036 0.692505 0.583636
vn 0.583635 0.692505 0.424036
vn 0.583635 0.692505 0.424036
vn 0.686104 0.692505 0.222929
vn 0.686104 0.692505 0.222929
vn 0.721413 0.692505 -0.000000
vn 0.721413 0.692505 0.000000
vn 0.686104 0.692505 -0.222929
vn 0.686104 0.692505 -0.222929
vn 0.583635 0.692505 -0.424036
vn 0.583635 0.692505 -0.424036
vn 0.424036 0.692505 -0.583635
vn 0.424036 0.692505 -0.583635
vn 0.222929 0.692505 -0.686104
vn 0.222929 0.692505 -0.686104
vn 0.000000 0.692505 -0.721413
vn 0.000000 0.692505 -0.721413
vn -0.222929 0.692505 -0.686104
vn -0.222929 0.692505 -0.686104
vn -0.424036 0.692505 -0.583635
vn -0.424036 0.692505 -0.583635
vn -0.583635 0.692505 -0.424036
vn -0.583635 0.692505 -0.424036
vn -0.686104 0.692505 -0.222929
vn -0.686104 0.692505 -0.222929
vn 0.000000 1.000000 0.000000
vn 0.000000 1.000000 0.000000
vn 0.000000 1.000000 0.000000
vn 0.000000 1.000000 0.000000
vn 0.000000 1.000000 0.000000
vn 0.000000 1.000000 0.000000
vn 0.000000 1.000000 0.000001
vn 0.000000 1.000000 0.000001
vn 0.000000 1.000000 0.000001
vn 0.000000 1.000000 0.000001
vn -0.000000 1.000000 0.000000
vn -0.000000 1.000000 0.000000
vn -0.000000 1.000000 -0.000000
vn -0.000000 1.000000 -0.000000
vn 0.000000 1.000000 -0.000000
vn 0.000000 1.000000 -0.000000
vn 0.000000 1.000000 0.000000
vn 0.000000 1.000000 0.000000
vn 0.000000 1.000000 0.000000
vn 0.000000 1.000000 0.000000
vn 0.000000 1.000000 -0.000000
vn 0.000000 1.000000 -0.000000
vn 0.000000 1.000000 -0.000000
vn 0.000000 1.000000 -0.000000
vn 0.000000 1.000000 0.000000
vn 0.000000 1.000000 0.000000
vn 0.000000 1.000000 -0.000000
vn 0.000000 1.000000 -0.000000
vn 0.000000 1.000000 -0.000001
vn 0.000000 1.000000 -0.000001
vn 0.000000 1.000000 -0.000001
vn 0.000000 1.000000 -0.000001
vn 0.000000 1.000000 -0.000000
vn 0.000000 1.000000 -0.000000
vn 0.000000 1.000000 -0.000000
vn 0.000000 1.000000 -0.000000
vn 0.000000 1.000000 -0.000000
vn 0.000000 1.000000 -0.000000
vn 0.000000 1.000000 0.000000
vn 0.000000 1.000000 0.000000
vn -0.686105 0.692505 0.222928
vn -0.686105 0.692505 0.222928
vn -0.583635 0.692505 0.424036
vn -0.583635 0.692505 0.424036
vn -0.721413 0.692505 -0.000001
vn -0.721413 0.692505 -0.000001
vn -0.424035 0.692505 0.583636
vn -0.424035 0.692505 0.583636
vn -0.222929 0.692505 0.686105
vn -0.222929 0.692505 0.686105
vn -0.000000 0.692505 0.721413
vn -0.000000 0.692505 0.721413
vn 0.222928 0.692505 0.686105
vn 0.222928 0.692505 0.686105
vn 0.424036 0.692505 0.583635
vn 0.424036 0.692505 0.583635
vn 0.583635 0.692505 0.424036
vn 0.583635 0.692505 0.424036
vn 0.686105 0.692505 0.222929
vn 0.686105 0.692505 0.222929
vn 0.721413 0.692505 0.000000
vn 0.721413 0.692505 0.000000
vn 0.686104 0.692505 -0.222929
vn 0.686105 0.692505 -0.222929
vn 0.583635 0.692505 -0.424036
vn 0.583635 0.692505 -0.424036
vn 0.424036 0.692505 -0.583635
vn 0.424036 0.692505 -0.583635
vn 0.222929 0.692505 -0.686104
vn 0.222929 0.692505 -0.686104
vn -0.000000 0.692505 -0.721413
vn -0.000000 0.692505 -0.721413
vn -0.222929 0.692505 -0.686104
vn -0.222929 0.692505 -0.686104
vn -0.424036 0.692505 -0.583635
vn -0.424036 0.692505 -0.583635
vn -0.583635 0.692505 -0.424036
vn -0.583635 0.692505 -0.424036
vn -0.686104 0.692505 -0.222929
vn -0.686104 0.692505 -0.222929
vn 0.000000 1.000000 -0.000000
vn -0.000000 1.000000 -0.000000
vn -0.000000 1.000000 0.000000
vn 0.000000 1.000000 0.000000
vn 0.000000 1.000000 0.000000
vn -0.000000 1.000000 0.000000
vn -0.000000 1.000000 0.000000
vn -0.000000 1.000000 0.000000
vn -0.000000 1.000000 -0.000000
vn 0.000000 1.000000 -0.000000
vn 0.000000 1.000000 0.000000
vn 0.000000 1.000000 0.000000
vn 0.000000 1.000000 0.000000
vn -0.000000 1.000000 0.000000
vn -0.000000 1.000000 0.000000
vn 0.000000 1.000000 0.000000
vn -0.000000 1.000000 0.000000
vn -0.000000 1.000000 0.000000
vn 0.000000 1.000000 -0.000000
vn 0.000000 1.000000 -0.000000
vn 0.000000 1.000000 0.000000
vn -0.949675 -0.053895 0.308567
vn -0.807841 -0.053895 0.586931
vn -0.807841 -0.053895 0.586931
vn -0.949675 -0.053895 0.308567
vn -0.586930 -0.053895 0.807842
vn -0.586931 -0.053895 0.807842
vn -0.308568 -0.053895 0.949674
vn -0.308568 -0.053895 0.949674
vn -0.000000 -0.053895 0.998547
vn -0.000000 -0.053895 0.998547
vn 0.308568 -0.053895 0.949674
vn 0.308568 -0.053895 0.949674
vn 0.586931 -0.053895 0.807841
vn 0.586931 -0.053895 0.807841
vn 0.807841 -0.053895 0.586931
vn 0.807841 -0.053895 0.586931
vn 0.949674 -0.053895 0.308568
vn 0.949674 -0.053895 0.308568
vn 0.998547 -0.053895 -0.000000
vn 0.998547 -0.053895 -0.000000
vn 0.949674 -0.053895 -0.308568
vn 0.949674 -0.053895 -0.308568
vn 0.807841 -0.053895 -0.586931
vn 0.807841 -0.053895 -0.586931
vn 0.586931 -0.053895 -0.807841
vn 0.586931 -0.053895 -0.807841
vn 0.308568 -0.053895 -0.949674
vn 0.308568 -0.053895 -0.949674
vn -0.000000 -0.053895 -0.998547
vn -0.000000 -0.053895 -0.998547
vn -0.308568 -0.053895 -0.949674
vn -0.308568 -0.053895 -0.949674
vn -0.586931 -0.053895 -0.807841
vn -0.586931 -0.053895 -0.807841
vn -0.807841 -0.053895 -0.586931
vn -0.807841 -0.053895 -0.586931
vn -0.949674 -0.053895 -0.308568
vn -0.949674 -0.053895 -0.308568
vn -0.998547 -0.053895 -0.000001
vn -0.998547 -0.053895 -0.000001
s 1
g pCylinder1
usemtl initialShadingGroup
f 1/1/1 2/2/2 22/3/3 21/4/4
f 2/2/2 3/5/5 23/6/6 22/3/3
f 3/201/5 4/202/7 24/203/8 23/204/6
f 4/202/7 5/205/9 25/206/10 24/203/8
f 5/205/9 6/209/11 26/210/12 25/206/10
f 6/209/11 7/212/13 27/213/14 26/210/12
f 7/30/13 8/22/15 28/25/16 27/31/14
f 8/22/15 9/23/17 29/24/18 28/25/16
f 9/23/17 10/26/19 30/27/20 29/24/18
f 10/26/19 11/32/21 31/33/22 30/27/20
f 11/32/21 12/36/23 32/37/24 31/33/22
f 12/36/23 13/39/25 33/40/26 32/37/24
f 13/216/25 14/217/27 34/218/28 33/219/26
f 14/217/27 15/220/29 35/221/30 34/218/28
f 15/220/29 16/224/31 36/225/32 35/221/30
f 16/224/31 17/227/33 37/228/34 36/225/32
f 17/19/33 18/16/35 38/17/36 37/20/34
f 18/16/35 19/13/37 39/14/38 38/17/36
f 19/13/37 20/9/39 40/10/40 39/14/38
f 20/9/39 1/1/1 21/4/4 40/10/40
s 2
f 2/99/41 1/100/42 41/101/43
f 3/103/44 2/99/41 41/101/43
f 4/105/45 3/103/44 41/101/43
f 5/107/46 4/105/45 41/101/43
f 6/109/47 5/107/46 41/101/43
f 7/111/48 6/109/47 41/101/43
f 8/113/49 7/111/48 41/101/43
f 9/115/50 8/113/49 41/101/43
f 10/117/51 9/115/50 41/101/43
f 11/119/52 10/117/51 41/101/43
f 12/118/53 11/119/52 41/101/43
f 13/116/54 12/118/53 41/101/43
f 14/114/55 13/116/54 41/101/43
f 15/112/56 14/114/55 41/101/43
f 16/110/57 15/112/56 41/101/43
f 17/108/58 16/110/57 41/101/43
f 18/106/59 17/108/58 41/101/43
f 19/104/60 18/106/59 41/101/43
f 20/102/61 19/104/60 41/101/43
f 1/100/42 20/102/61 41/101/43
s 1
f 21/4/4 22/3/3 43/7/62 42/8/63
f 22/3/3 23/6/6 44/11/64 43/7/62
f 23/204/6 24/203/8 45/207/65 44/208/64
f 24/203/8 25/206/10 46/211/66 45/207/65
f 25/206/10 26/210/12 47/214/67 46/211/66
f 26/210/12 27/213/14 48/215/68 47/214/67
f 27/31/14 28/25/16 49/29/69 48/35/68
f 28/25/16 29/24/18 50/28/70 49/29/69
f 29/24/18 30/27/20 51/34/71 50/28/70
f 30/27/20 31/33/22 52/38/72 51/34/71
f 31/33/22 32/37/24 53/41/73 52/38/72
f 32/37/24 33/40/26 54/42/74 53/41/73
f 33/219/26 34/218/28 55/222/75 54/223/74
f 34/218/28 35/221/30 56/226/76 55/222/75
f 35/221/30 36/225/32 57/229/77 56/226/76
f 36/225/32 37/228/34 58/230/78 57/229/77
f 37/20/34 38/17/36 59/18/79 58/21/78
f 38/17/36 39/14/38 60/15/80 59/18/79
f 39/14/38 40/10/40 61/12/81 60/15/80
f 40/10/40 21/4/4 42/8/63 61/12/81
s 3
f 63/47/82 64/43/83 102/53/84 101/55/85
f 64/43/83 63/47/82 65/48/86 66/44/87
f 66/44/87 65/48/86 67/56/88 68/49/89
f 68/134/89 67/125/88 69/129/90 70/135/91
f 70/135/91 69/129/90 71/133/92 72/140/93
f 72/140/93 71/133/92 73/139/94 74/145/95
f 74/145/95 73/139/94 75/144/96 76/150/97
f 76/81/97 75/83/96 77/75/98 78/71/99
f 78/71/99 77/75/98 79/76/100 80/72/101
f 80/72/101 79/76/100 81/84/102 82/77/103
f 82/77/103 81/84/102 83/89/104 84/85/105
f 84/85/105 83/89/104 85/93/106 86/90/107
f 86/90/107 85/93/106 87/97/108 88/94/109
f 88/167/109 87/164/108 89/159/110 90/162/111
f 90/162/111 89/159/110 91/154/112 92/157/113
f 92/157/113 91/154/112 93/147/114 94/151/115
f 94/151/115 93/147/114 95/142/116 96/152/117
f 96/67/117 95/69/116 97/65/118 98/63/119
f 98/63/119 97/65/118 99/61/120 100/59/121
f 100/59/121 99/61/120 101/55/85 102/53/84
s 4
f 42/120/122 43/121/123 65/122/124 63/123/125
f 43/121/123 44/124/126 67/125/127 65/122/124
f 44/124/126 45/128/128 69/129/129 67/125/127
f 45/128/128 46/132/130 71/133/131 69/129/129
f 46/132/130 47/138/132 73/139/133 71/133/131
f 47/138/132 48/143/134 75/144/135 73/139/133
f 48/143/134 49/148/136 77/149/137 75/144/135
f 49/148/136 50/155/138 79/156/139 77/149/137
f 50/155/138 51/160/140 81/161/141 79/156/139
f 51/160/140 52/165/142 83/166/143 81/161/141
f 52/165/142 53/168/144 85/169/145 83/166/143
f 53/168/144 54/163/146 87/164/147 85/169/145
f 54/163/146 55/158/148 89/159/149 87/164/147
f 55/158/148 56/153/150 91/154/151 89/159/149
f 56/153/150 57/146/152 93/147/153 91/154/151
f 57/146/152 58/141/154 95/142/155 93/147/153
f 58/141/154 59/136/156 97/137/157 95/142/155
f 59/136/156 60/130/158 99/131/159 97/137/157
f 60/130/158 61/126/160 101/127/161 99/131/159
f 61/126/160 42/120/122 63/123/125 101/127/161
s 5
f 103/51/162 104/46/163 106/45/164 105/52/165
f 104/46/163 103/51/162 141/58/166 142/54/167
f 105/52/165 106/45/164 108/50/168 107/57/169
f 107/173/169 108/177/168 110/178/170 109/175/171
f 109/175/171 110/178/170 112/181/172 111/179/173
f 111/179/173 112/181/172 114/184/174 113/182/175
f 113/182/175 114/184/174 116/187/176 115/185/177
f 115/88/177 116/82/176 118/74/178 117/79/179
f 117/79/179 118/74/178 120/73/180 119/80/181
f 119/80/181 120/73/180 122/78/182 121/87/183
f 121/87/183 122/78/182 124/86/184 123/92/185
f 123/92/185 124/86/184 126/91/186 125/96/187
f 125/96/187 126/91/186 128/95/188 127/98/189
f 127/197/189 128/199/188 130/196/190 129/194/191
f 129/194/191 130/196/190 132/193/192 131/191/193
f 131/191/193 132/193/192 134/189/194 133/186/195
f 133/186/195 134/189/194 136/190/196 135/183/197
f 135/70/197 136/68/196 138/64/198 137/66/199
f 137/66/199 138/64/198 140/60/200 139/62/201
f 139/62/201 140/60/200 142/54/167 141/58/166
s 6
f 103/170/202 105/171/203 62/172/204
f 105/171/203 107/173/205 62/172/204
f 107/173/205 109/175/206 62/172/204
f 109/175/206 111/179/207 62/172/204
f 111/179/207 113/182/208 62/172/204
f 113/182/208 115/185/209 62/172/204
f 115/185/209 117/188/210 62/172/204
f 117/188/210 119/192/211 62/172/204
f 119/192/211 121/195/212 62/172/204
f 121/195/212 123/198/213 62/172/204
f 123/198/213 125/200/214 62/172/204
f 125/200/214 127/197/215 62/172/204
f 127/197/215 129/194/216 62/172/204
f 129/194/216 131/191/217 62/172/204
f 131/191/217 133/186/218 62/172/204
f 133/186/218 135/183/219 62/172/204
f 135/183/219 137/180/220 62/172/204
f 137/180/220 139/176/221 62/172/204
f 139/176/221 141/174/222 62/172/204
f 141/174/222 103/170/202 62/172/204
s 7
f 64/43/223 66/44/224 106/45/225 104/46/226
f 66/44/224 68/49/227 108/50/228 106/45/225
f 68/231/227 70/232/229 110/233/230 108/234/228
f 70/232/229 72/235/231 112/236/232 110/233/230
f 72/235/231 74/237/233 114/238/234 112/236/232
f 74/237/233 76/239/235 116/240/236 114/238/234
f 76/81/235 78/71/237 118/74/238 116/82/236
f 78/71/237 80/72/239 120/73/240 118/74/238
f 80/72/239 82/77/241 122/78/242 120/73/240
f 82/77/241 84/85/243 124/86/244 122/78/242
f 84/85/243 86/90/245 126/91/246 124/86/244
f 86/90/245 88/94/247 128/95/248 126/91/246
f 88/241/247 90/242/249 130/243/250 128/244/248
f 90/242/249 92/245/251 132/246/252 130/243/250
f 92/245/251 94/247/253 134/248/254 132/246/252
f 94/247/253 96/249/255 136/250/256 134/248/254
f 96/67/255 98/63/257 138/64/258 136/68/256
f 98/63/257 100/59/259 140/60/260 138/64/258
f 100/59/259 102/53/261 142/54/262 140/60/260
f 102/53/261 64/43/223 104/46/226 142/54/262
