# This file uses centimeters as units for non-parametric coordinates.

mtllib marteau.mtl
g default
v -0.500000 1.128414 0.924011
v 0.500000 1.128414 0.924011
v -0.500000 2.128414 0.924011
v 0.500000 2.128414 0.924011
v -0.500000 2.128414 -0.924011
v 0.500000 2.128414 -0.924011
v -0.500000 1.128414 -0.924011
v 0.500000 1.128414 -0.924011
v 0.500000 1.128414 -1.072436
v -0.500000 1.128414 -1.072436
v -0.423405 1.821823 -2.379661
v 0.423405 1.821823 -2.379661
v 0.423405 1.435005 -2.379661
v -0.423405 1.435005 -2.379661
v -0.494095 1.915986 -1.173213
v -0.500000 1.832080 -1.072436
v -0.500000 2.005668 -1.013072
v -0.498452 1.943235 -1.083291
v 0.494095 1.915986 -1.173213
v 0.498452 1.943235 -1.083291
v 0.500000 2.005668 -1.013072
v 0.500000 1.832080 -1.072436
v -0.400000 1.228414 0.996470
v 0.400000 1.228414 0.996470
v 0.400000 2.028414 0.996470
v -0.400000 2.028414 0.996470
v 0.394832 -6.571922 -0.171957
v 0.335864 -6.571922 -0.327080
v 0.244019 -6.571922 -0.450188
v 0.128289 -6.571922 -0.529228
v -0.000000 -6.571922 -0.556462
v -0.128289 -6.571922 -0.529228
v -0.244019 -6.571922 -0.450188
v -0.335864 -6.571922 -0.327080
v -0.394832 -6.571922 -0.171957
v -0.415151 -6.571922 -0.000000
v -0.394832 -6.571922 0.171956
v -0.335864 -6.571922 0.327080
v -0.244019 -6.571922 0.450188
v -0.128289 -6.571922 0.529228
v -0.000000 -6.571922 0.556462
v 0.128289 -6.571922 0.529227
v 0.244019 -6.571922 0.450188
v 0.335864 -6.571922 0.327080
v 0.394831 -6.571922 0.171956
v 0.415150 -6.571922 -0.000000
v 0.394832 2.166632 -0.171957
v 0.335864 2.166632 -0.327080
v 0.244019 2.166632 -0.450188
v 0.128289 2.166632 -0.529228
v -0.000000 2.166632 -0.556462
v -0.128289 2.166632 -0.529228
v -0.244019 2.166632 -0.450188
v -0.335864 2.166632 -0.327080
v -0.394832 2.166632 -0.171957
v -0.415151 2.166632 -0.000000
v -0.394832 2.166632 0.171956
v -0.335864 2.166632 0.327080
v -0.244019 2.166632 0.450188
v -0.128289 2.166632 0.529228
v -0.000000 2.166632 0.556462
v 0.128289 2.166632 0.529227
v 0.244019 2.166632 0.450188
v 0.335864 2.166632 0.327080
v 0.394831 2.166632 0.171956
v 0.415150 2.166632 -0.000000
v -0.000000 -6.571922 -0.000000
v -0.000000 2.166632 -0.000000
v -0.000000 0.220365 0.556462
v -0.128289 0.220365 0.529228
v -0.244019 0.220365 0.450188
v -0.335864 0.220365 0.327080
v -0.394832 0.220365 0.171956
v -0.415151 0.220365 -0.000000
v -0.394832 0.220365 -0.171957
v -0.335864 0.220365 -0.327080
v -0.244019 0.220365 -0.450188
v -0.128289 0.220365 -0.529228
v -0.000000 0.220365 -0.556462
v 0.128289 0.220365 -0.529228
v 0.244019 0.220365 -0.450188
v 0.335864 0.220365 -0.327080
v 0.394832 0.220365 -0.171957
v 0.415150 0.220365 -0.000000
v 0.394831 0.220365 0.171956
v 0.335864 0.220365 0.327080
v 0.244019 0.220365 0.450188
v 0.128289 0.220365 0.529227
v -0.000000 -0.419545 0.497310
v -0.114652 -0.419545 0.472970
v -0.218080 -0.419545 0.402332
v -0.300161 -0.419545 0.292311
v -0.352861 -0.419545 0.153677
v -0.371020 -0.419545 -0.000000
v -0.352861 -0.419545 -0.153678
v -0.300161 -0.419545 -0.292312
v -0.218080 -0.419545 -0.402333
v -0.114652 -0.419545 -0.472971
v -0.000000 -0.419545 -0.497310
v 0.114651 -0.419545 -0.472971
v 0.218080 -0.419545 -0.402333
v 0.300161 -0.419545 -0.292312
v 0.352861 -0.419545 -0.153678
v 0.371020 -0.419545 -0.000000
v 0.352861 -0.419545 0.153677
v 0.300161 -0.419545 0.292311
v 0.218080 -0.419545 0.402332
v 0.114651 -0.419545 0.472970
v 0.127760 -6.333677 0.527049
v -0.000000 -6.333677 0.554171
v -0.127761 -6.333677 0.527049
v -0.243015 -6.333677 0.448334
v -0.334481 -6.333677 0.325734
v -0.393206 -6.333677 0.171249
v -0.413442 -6.333677 -0.000000
v -0.393206 -6.333677 -0.171249
v -0.334481 -6.333677 -0.325734
v -0.243015 -6.333677 -0.448335
v -0.127761 -6.333677 -0.527049
v -0.000000 -6.333677 -0.554172
v 0.127760 -6.333677 -0.527049
v 0.243015 -6.333677 -0.448335
v 0.334481 -6.333677 -0.325734
v 0.393207 -6.333677 -0.171249
v 0.413441 -6.333677 -0.000000
v 0.393206 -6.333677 0.171249
v 0.334481 -6.333677 0.325734
v 0.243015 -6.333677 0.448334
v 0.116579 -6.093377 0.480921
v -0.000000 -6.093377 0.505670
v -0.116579 -6.093377 0.480921
v -0.221746 -6.093377 0.409096
v -0.305207 -6.093377 0.297225
v -0.358793 -6.093377 0.156261
v -0.377257 -6.093377 -0.000000
v -0.358793 -6.093377 -0.156261
v -0.305207 -6.093377 -0.297226
v -0.221746 -6.093377 -0.409096
v -0.116579 -6.093377 -0.480922
v -0.000000 -6.093377 -0.505670
v 0.116579 -6.093377 -0.480922
v 0.221746 -6.093377 -0.409096
v 0.305207 -6.093377 -0.297226
v 0.358793 -6.093377 -0.156261
v 0.377257 -6.093377 -0.000000
v 0.358793 -6.093377 0.156261
v 0.305207 -6.093377 0.297225
v 0.221746 -6.093377 0.409096
vt 0.571111 0.378543
vt 0.571111 0.167906
vt 0.685090 0.167906
vt 0.685090 0.378543
vt 0.571111 0.150989
vt 0.651314 0.150989
vt 0.671100 0.157755
vt 0.673692 0.386802
vt 0.582509 0.386802
vt 0.660878 0.139502
vt 0.606056 0.001992
vt 0.650145 0.001992
vt 0.663984 0.149752
vt 0.692263 0.220887
vt 0.692263 0.010251
vt 0.806243 0.010251
vt 0.806243 0.220887
vt 0.703661 0.001992
vt 0.794845 0.001992
vt 0.792252 0.231039
vt 0.772467 0.237805
vt 0.692263 0.237805
vt 0.785136 0.239042
vt 0.782030 0.249291
vt 0.771298 0.386802
vt 0.727208 0.386802
vt 0.081797 0.001992
vt 0.099478 0.001992
vt 0.099324 0.029147
vt 0.081716 0.029147
vt 0.113510 0.001992
vt 0.113298 0.029147
vt 0.096075 0.056536
vt 0.080008 0.056536
vt 0.062197 0.001992
vt 0.062197 0.029147
vt 0.122518 0.001992
vt 0.122270 0.029147
vt 0.108826 0.056536
vt 0.095515 0.703237
vt 0.079713 0.703237
vt 0.062197 0.056536
vt 0.042598 0.001992
vt 0.042678 0.029147
vt 0.117013 0.056536
vt 0.108055 0.703237
vt 0.099478 0.776173
vt 0.081797 0.776173
vt 0.062197 0.703237
vt 0.044387 0.056536
vt 0.024917 0.001992
vt 0.025070 0.029147
vt 0.116106 0.703237
vt 0.113510 0.776173
vt 0.099478 0.998008
vt 0.081797 0.998008
vt 0.062197 0.776173
vt 0.044681 0.703237
vt 0.028320 0.056536
vt 0.010885 0.001992
vt 0.011096 0.029147
vt 0.122518 0.776173
vt 0.113510 0.998008
vt 0.062197 0.998008
vt 0.042598 0.776173
vt 0.028880 0.703237
vt 0.015569 0.056536
vt 0.001876 0.001992
vt 0.002124 0.029147
vt 0.122518 0.998008
vt 0.042598 0.998008
vt 0.024917 0.776173
vt 0.016340 0.703237
vt 0.007382 0.056536
vt 0.024917 0.998008
vt 0.010885 0.776173
vt 0.008288 0.703237
vt 0.010885 0.998008
vt 0.001876 0.776173
vt 0.001876 0.998008
vt 0.188473 0.001992
vt 0.206154 0.001992
vt 0.206235 0.029147
vt 0.188627 0.029147
vt 0.225754 0.001992
vt 0.225754 0.029147
vt 0.207943 0.056536
vt 0.191876 0.056536
vt 0.174441 0.001992
vt 0.174653 0.029147
vt 0.245353 0.001992
vt 0.245272 0.029147
vt 0.225754 0.056536
vt 0.208237 0.703237
vt 0.192436 0.703237
vt 0.179125 0.056536
vt 0.165432 0.001992
vt 0.165681 0.029147
vt 0.263034 0.001992
vt 0.262880 0.029147
vt 0.243564 0.056536
vt 0.225754 0.703237
vt 0.206154 0.776173
vt 0.188473 0.776173
vt 0.179896 0.703237
vt 0.170938 0.056536
vt 0.277066 0.001992
vt 0.276854 0.029147
vt 0.259631 0.056536
vt 0.243270 0.703237
vt 0.225754 0.776173
vt 0.206154 0.998008
vt 0.188473 0.998008
vt 0.174441 0.776173
vt 0.171845 0.703237
vt 0.286075 0.001992
vt 0.285826 0.029147
vt 0.272382 0.056536
vt 0.259071 0.703237
vt 0.245353 0.776173
vt 0.225754 0.998008
vt 0.174441 0.998008
vt 0.165432 0.776173
vt 0.280569 0.056536
vt 0.271611 0.703237
vt 0.263034 0.776173
vt 0.245353 0.998008
vt 0.165432 0.998008
vt 0.279662 0.703237
vt 0.277066 0.776173
vt 0.263034 0.998008
vt 0.286075 0.776173
vt 0.277066 0.998008
vt 0.286075 0.998008
vt 0.328805 0.010251
vt 0.442785 0.010251
vt 0.442785 0.220887
vt 0.328805 0.220887
vt 0.340203 0.001992
vt 0.431387 0.001992
vt 0.442785 0.231039
vt 0.328805 0.231039
vt 0.328981 0.239042
vt 0.442608 0.239042
vt 0.329478 0.249291
vt 0.442112 0.249291
vt 0.434054 0.386802
vt 0.337535 0.386802
vt 0.449958 0.167906
vt 0.563937 0.167906
vt 0.563937 0.378543
vt 0.449958 0.378543
vt 0.449958 0.150989
vt 0.563937 0.150989
vt 0.552539 0.386802
vt 0.461356 0.386802
vt 0.458688 0.001992
vt 0.555207 0.001992
vt 0.899016 0.028137
vt 0.905737 0.045818
vt 0.860735 0.065417
vt 0.908053 0.065417
vt 0.888548 0.014105
vt 0.905737 0.085017
vt 0.875357 0.005096
vt 0.899016 0.102698
vt 0.860735 0.001992
vt 0.888548 0.116729
vt 0.846112 0.005096
vt 0.875357 0.125738
vt 0.832922 0.014105
vt 0.860735 0.128843
vt 0.822453 0.028137
vt 0.846112 0.125738
vt 0.815732 0.045818
vt 0.832922 0.116729
vt 0.813416 0.065417
vt 0.822453 0.102698
vt 0.815732 0.085017
vt 0.937672 0.215627
vt 0.930951 0.233308
vt 0.892669 0.196027
vt 0.920482 0.247339
vt 0.939988 0.196027
vt 0.907291 0.256348
vt 0.937672 0.176428
vt 0.892669 0.259453
vt 0.930951 0.158747
vt 0.878047 0.256348
vt 0.920482 0.144715
vt 0.864856 0.247339
vt 0.907291 0.135706
vt 0.854387 0.233308
vt 0.892669 0.132602
vt 0.847666 0.215627
vt 0.878047 0.135706
vt 0.845350 0.196027
vt 0.864856 0.144715
vt 0.847666 0.176428
vt 0.854387 0.158747
vt 0.698520 0.481745
vt 0.698520 0.390561
vt 0.789704 0.390561
vt 0.789704 0.481745
vt 0.795482 0.487080
vt 0.795482 0.390561
vt 0.839572 0.390561
vt 0.839572 0.487080
vt 0.157964 0.998008
vt 0.143342 0.998008
vt 0.143342 0.970853
vt 0.157904 0.970853
vt 0.128720 0.998008
vt 0.128780 0.970853
vt 0.143342 0.943464
vt 0.156629 0.943464
vt 0.130054 0.943464
vt 0.143342 0.296763
vt 0.156410 0.296763
vt 0.130274 0.296763
vt 0.143342 0.223827
vt 0.157964 0.223827
vt 0.128720 0.223827
vt 0.143342 0.001992
vt 0.157964 0.001992
vt 0.128720 0.001992
vt 0.292092 0.001992
vt 0.306714 0.001992
vt 0.306714 0.029147
vt 0.292152 0.029147
vt 0.321337 0.001992
vt 0.321276 0.029147
vt 0.306714 0.056536
vt 0.293427 0.056536
vt 0.320002 0.056536
vt 0.306714 0.703237
vt 0.293647 0.703237
vt 0.319782 0.703237
vt 0.306714 0.776173
vt 0.292092 0.776173
vt 0.321337 0.776173
vt 0.306714 0.998008
vt 0.292092 0.998008
vt 0.321337 0.998008
vn 0.000000 0.000000 1.000000
vn 0.000000 0.000000 1.000000
vn 0.000000 0.000000 1.000000
vn 0.000000 0.000000 1.000000
vn 0.000000 1.000000 0.000000
vn 0.000000 1.000000 0.000000
vn 0.000000 0.997998 -0.063239
vn 0.000000 0.997998 -0.063239
vn 0.000000 0.000000 -1.000000
vn 0.000000 0.000000 -1.000000
vn 0.000000 0.000000 -1.000000
vn 0.000000 0.000000 -1.000000
vn 0.000000 -1.000000 0.000000
vn 0.000000 -1.000000 0.000000
vn 0.000000 -1.000000 0.000000
vn 0.000000 -1.000000 0.000000
vn 1.000000 0.000000 0.000000
vn 1.000000 0.000000 0.000000
vn 1.000000 0.000000 0.000000
vn 1.000000 0.000000 0.000000
vn -1.000000 0.000000 0.000000
vn -1.000000 0.000000 0.000000
vn -1.000000 0.000000 0.000000
vn -1.000000 0.000000 0.000000
vn 0.000000 0.651631 -0.758536
vn 0.000000 0.651631 -0.758536
vn 0.998808 0.000000 -0.048808
vn 0.998832 0.000026 -0.048317
vn 1.000000 0.000063 -0.000185
vn 0.000000 -0.979046 -0.203639
vn 0.000000 -0.979046 -0.203639
vn -1.000000 0.000063 -0.000185
vn -0.998832 0.000026 -0.048317
vn -0.998808 0.000000 -0.048808
vn 0.000000 0.995432 -0.095468
vn 0.000000 0.995432 -0.095468
vn 0.000000 0.996968 -0.077813
vn 0.000000 0.996968 -0.077813
vn 0.000000 -0.973582 -0.228340
vn 0.000000 -0.973582 -0.228340
vn -0.998289 0.000025 -0.058473
vn -0.998288 0.000000 -0.058493
vn -0.998288 0.000000 -0.058493
vn 0.998289 0.000025 -0.058473
vn 0.998288 0.000000 -0.058493
vn 0.998288 0.000000 -0.058493
vn 0.000000 0.870002 -0.493048
vn 0.000000 0.870002 -0.493048
vn -0.999148 0.010002 -0.040042
vn 0.999148 0.010002 -0.040042
vn 0.000000 -0.586747 0.809771
vn 0.000000 -0.586747 0.809771
vn 0.000000 -0.586747 0.809771
vn 0.000000 -0.586747 0.809771
vn 0.586747 0.000000 0.809770
vn 0.586747 0.000000 0.809770
vn 0.586747 0.000000 0.809770
vn 0.586747 0.000000 0.809770
vn 0.000000 0.586747 0.809770
vn 0.000000 0.586747 0.809770
vn 0.000000 0.586747 0.809770
vn 0.000000 0.586747 0.809770
vn -0.586747 0.000000 0.809770
vn -0.586747 0.000000 0.809770
vn -0.586747 0.000000 0.809770
vn -0.586747 0.000000 0.809770
vn 0.971805 0.007330 -0.235673
vn 0.879037 0.007795 -0.476690
vn 0.875213 0.083392 -0.476495
vn 0.968629 0.078513 -0.235783
vn 0.697478 0.008514 -0.716556
vn 0.693095 0.090850 -0.715098
vn 0.399099 0.009268 -0.916861
vn 0.395647 0.098541 -0.913101
vn 0.000000 0.009614 -0.999954
vn -0.000000 0.102020 -0.994782
vn -0.399099 0.009268 -0.916861
vn -0.395647 0.098541 -0.913101
vn -0.697478 0.008514 -0.716555
vn -0.693096 0.090850 -0.715098
vn -0.879037 0.007795 -0.476689
vn -0.875214 0.083392 -0.476494
vn -0.971805 0.007330 -0.235674
vn -0.968629 0.078513 -0.235783
vn -0.999974 0.007173 0.000000
vn -0.997042 0.076859 0.000000
vn -0.971805 0.007330 0.235674
vn -0.968629 0.078513 0.235783
vn -0.879037 0.007795 0.476689
vn -0.875214 0.083392 0.476494
vn -0.697478 0.008514 0.716556
vn -0.693096 0.090850 0.715098
vn -0.399098 0.009268 0.916861
vn -0.395647 0.098542 0.913101
vn 0.000000 0.009614 0.999954
vn 0.000000 0.102020 0.994782
vn 0.399099 0.009268 0.916861
vn 0.395647 0.098541 0.913101
vn 0.697478 0.008514 0.716556
vn 0.693096 0.090850 0.715098
vn 0.879037 0.007795 0.476690
vn 0.875214 0.083392 0.476494
vn 0.971804 0.007330 0.235674
vn 0.968629 0.078513 0.235783
vn 0.999974 0.007173 0.000001
vn 0.997042 0.076858 0.000001
vn 0.000000 -1.000000 0.000001
vn 0.000000 -1.000000 -0.000001
vn 0.000000 -1.000000 0.000000
vn 0.000000 -1.000000 0.000003
vn 0.000000 -1.000000 0.000000
vn 0.000000 -1.000000 0.000000
vn 0.000000 -1.000000 0.000000
vn 0.000000 -1.000000 -0.000003
vn 0.000000 -1.000000 -0.000001
vn 0.000000 -1.000000 0.000001
vn 0.000000 -1.000000 -0.000000
vn 0.000000 -1.000000 -0.000001
vn 0.000000 -1.000000 0.000001
vn 0.000000 -1.000000 0.000002
vn 0.000000 -1.000000 -0.000000
vn 0.000000 -1.000000 -0.000000
vn 0.000000 -1.000000 -0.000002
vn 0.000000 -1.000000 -0.000002
vn 0.000000 -1.000000 0.000000
vn 0.000000 -1.000000 0.000000
vn 0.000000 -1.000000 0.000003
vn 0.000000 1.000000 0.000001
vn 0.000000 1.000000 0.000002
vn 0.000000 1.000000 0.000000
vn 0.000000 1.000000 0.000001
vn 0.000000 1.000000 0.000000
vn 0.000000 1.000000 0.000000
vn 0.000000 1.000000 0.000000
vn 0.000000 1.000000 0.000000
vn 0.000000 1.000000 0.000000
vn 0.000000 1.000000 0.000000
vn 0.000000 1.000000 0.000000
vn 0.000000 1.000000 0.000000
vn 0.000000 1.000000 0.000000
vn 0.000000 1.000000 0.000001
vn 0.000000 1.000000 0.000001
vn 0.000000 1.000000 -0.000000
vn 0.000000 1.000000 0.000000
vn 0.000000 1.000000 -0.000000
vn 0.000000 1.000000 -0.000001
vn 0.000000 1.000000 0.000000
vn 0.000000 1.000000 0.000000
vn -0.398803 -0.020975 0.916797
vn 0.000000 -0.021736 0.999764
vn 0.000000 0.000000 1.000000
vn -0.399292 0.000000 0.916824
vn -0.697149 -0.019306 0.716667
vn -0.697678 0.000000 0.716411
vn -0.878810 -0.017702 0.476843
vn -0.879155 -0.000000 0.476537
vn -0.971666 -0.016659 0.235770
vn -0.971854 -0.000000 0.235585
vn -0.999867 -0.016306 -0.000000
vn -1.000000 -0.000000 -0.000000
vn -0.971666 -0.016659 -0.235770
vn -0.971854 0.000000 -0.235585
vn -0.878810 -0.017702 -0.476843
vn -0.879155 0.000000 -0.476537
vn -0.697149 -0.019306 -0.716667
vn -0.697679 0.000000 -0.716411
vn -0.398803 -0.020975 -0.916797
vn -0.399292 0.000000 -0.916824
vn -0.000000 -0.021736 -0.999764
vn -0.000000 0.000000 -1.000000
vn 0.398803 -0.020975 -0.916797
vn 0.399292 0.000000 -0.916824
vn 0.697148 -0.019306 -0.716667
vn 0.697678 0.000000 -0.716411
vn 0.878810 -0.017702 -0.476844
vn 0.879154 0.000000 -0.476537
vn 0.971666 -0.016659 -0.235769
vn 0.971854 0.000000 -0.235584
vn 0.999867 -0.016306 0.000001
vn 1.000000 -0.000000 0.000001
vn 0.971666 -0.016659 0.235770
vn 0.971854 -0.000000 0.235585
vn 0.878810 -0.017702 0.476843
vn 0.879155 -0.000000 0.476537
vn 0.697149 -0.019306 0.716667
vn 0.697678 0.000000 0.716411
vn 0.398803 -0.020975 0.916797
vn 0.399292 0.000000 0.916824
vn -0.399481 -0.008262 0.916704
vn 0.000000 -0.008582 0.999963
vn -0.697860 -0.007571 0.716194
vn -0.879238 -0.006918 0.476333
vn -0.971860 -0.006498 0.235470
vn -0.999980 -0.006357 0.000000
vn -0.971860 -0.006498 -0.235470
vn -0.879238 -0.006918 -0.476333
vn -0.697860 -0.007571 -0.716194
vn -0.399481 -0.008262 -0.916704
vn -0.000000 -0.008582 -0.999963
vn 0.399481 -0.008262 -0.916704
vn 0.697860 -0.007571 -0.716194
vn 0.879238 -0.006918 -0.476333
vn 0.971860 -0.006498 -0.235469
vn 0.999980 -0.006357 0.000001
vn 0.971860 -0.006498 0.235470
vn 0.879238 -0.006918 0.476333
vn 0.697860 -0.007571 0.716194
vn 0.399481 -0.008262 0.916704
vn 0.399402 0.009882 0.916723
vn 0.000000 0.010272 0.999947
vn -0.399402 0.009882 0.916723
vn -0.697779 0.009040 0.716256
vn -0.879192 0.008248 0.476397
vn -0.971842 0.007741 0.235507
vn -0.999971 0.007571 0.000000
vn -0.971842 0.007741 -0.235507
vn -0.879192 0.008248 -0.476397
vn -0.697779 0.009040 -0.716256
vn -0.399402 0.009882 -0.916723
vn -0.000000 0.010272 -0.999947
vn 0.399402 0.009882 -0.916723
vn 0.697779 0.009040 -0.716256
vn 0.879191 0.008248 -0.476397
vn 0.971842 0.007741 -0.235506
vn 0.999971 0.007571 0.000001
vn 0.971842 0.007741 0.235507
vn 0.879192 0.008248 0.476397
vn 0.697779 0.009040 0.716256
s off
g pCube2
usemtl initialShadingGroup
f 23/201/1 24/202/2 25/203/3 26/204/4
s 1
f 3/135/5 4/136/6 6/137/7 5/138/8
s off
f 11/205/9 12/206/10 13/207/11 14/208/12
s 2
f 7/149/13 8/150/14 2/151/15 1/152/16
s 3
f 2/1/17 8/2/18 6/3/19 4/4/20
s 4
f 7/14/21 1/15/22 3/16/23 5/17/24
s 1
f 5/138/8 6/137/7 21/141/25 17/142/26
s 3
f 6/3/19 8/2/18 9/5/27 22/6/28 21/7/29
s 2
f 8/150/14 7/149/13 10/153/30 9/154/31
s 4
f 7/14/21 5/17/24 17/20/32 16/21/33 10/22/34
s 1
f 15/145/35 19/146/36 12/147/37 11/148/38
s 2
f 9/154/31 10/153/30 14/157/39 13/158/40
s 4
f 10/22/34 16/21/33 15/24/41 11/25/42 14/26/43
s 3
f 19/10/44 22/6/28 9/5/27 13/11/45 12/12/46
s 1
f 15/145/35 18/143/47 20/144/48 19/146/36
f 18/143/47 17/142/26 21/141/25 20/144/48
s 4
f 16/21/33 17/20/32 18/23/49
f 16/21/33 18/23/49 15/24/41
s 3
f 22/6/28 19/10/44 20/13/50
f 22/6/28 20/13/50 21/7/29
s off
f 1/152/51 2/151/52 24/155/53 23/156/54
f 2/1/55 4/4/56 25/8/57 24/9/58
f 4/136/59 3/135/60 26/139/61 25/140/62
f 3/16/63 1/15/64 23/18/65 26/19/66
s 6
f 27/27/67 28/28/68 123/29/69 124/30/70
f 28/28/68 29/31/71 122/32/72 123/29/69
f 29/31/71 30/37/73 121/38/74 122/32/72
f 30/209/73 31/210/75 120/211/76 121/212/74
f 31/210/75 32/213/77 119/214/78 120/211/76
f 32/97/77 33/89/79 118/90/80 119/98/78
f 33/89/79 34/81/81 117/84/82 118/90/80
f 34/81/81 35/82/83 116/83/84 117/84/82
f 35/82/83 36/85/85 115/86/86 116/83/84
f 36/85/85 37/91/87 114/92/88 115/86/86
f 37/91/87 38/99/89 113/100/90 114/92/88
f 38/99/89 39/107/91 112/108/92 113/100/90
f 39/107/91 40/116/93 111/117/94 112/108/92
f 40/227/93 41/228/95 110/229/96 111/230/94
f 41/228/95 42/231/97 109/232/98 110/229/96
f 42/68/97 43/60/99 128/61/100 109/69/98
f 43/60/99 44/51/101 127/52/102 128/61/100
f 44/51/101 45/43/103 126/44/104 127/52/102
f 45/43/103 46/35/105 125/36/106 126/44/104
f 46/35/105 27/27/67 124/30/70 125/36/106
s 7
f 28/159/107 27/160/108 67/161/109
f 29/163/110 28/159/107 67/161/109
f 30/165/111 29/163/110 67/161/109
f 31/167/112 30/165/111 67/161/109
f 32/169/113 31/167/112 67/161/109
f 33/171/114 32/169/113 67/161/109
f 34/173/115 33/171/114 67/161/109
f 35/175/116 34/173/115 67/161/109
f 36/177/117 35/175/116 67/161/109
f 37/179/118 36/177/117 67/161/109
f 38/178/119 37/179/118 67/161/109
f 39/176/120 38/178/119 67/161/109
f 40/174/121 39/176/120 67/161/109
f 41/172/122 40/174/121 67/161/109
f 42/170/123 41/172/122 67/161/109
f 43/168/124 42/170/123 67/161/109
f 44/166/125 43/168/124 67/161/109
f 45/164/126 44/166/125 67/161/109
f 46/162/127 45/164/126 67/161/109
f 27/160/108 46/162/127 67/161/109
s 8
f 47/180/128 48/181/129 68/182/130
f 48/181/129 49/183/131 68/182/130
f 49/183/131 50/185/132 68/182/130
f 50/185/132 51/187/133 68/182/130
f 51/187/133 52/189/134 68/182/130
f 52/189/134 53/191/135 68/182/130
f 53/191/135 54/193/136 68/182/130
f 54/193/136 55/195/137 68/182/130
f 55/195/137 56/197/138 68/182/130
f 56/197/138 57/199/139 68/182/130
f 57/199/139 58/200/140 68/182/130
f 58/200/140 59/198/141 68/182/130
f 59/198/141 60/196/142 68/182/130
f 60/196/142 61/194/143 68/182/130
f 61/194/143 62/192/144 68/182/130
f 62/192/144 63/190/145 68/182/130
f 63/190/145 64/188/146 68/182/130
f 64/188/146 65/186/147 68/182/130
f 65/186/147 66/184/148 68/182/130
f 66/184/148 47/180/128 68/182/130
s 6
f 70/240/149 69/239/150 61/242/151 60/243/152
f 71/130/153 70/132/149 60/134/152 59/133/154
f 72/126/155 71/130/153 59/133/154 58/131/156
f 73/120/157 72/126/155 58/131/156 57/127/158
f 74/111/159 73/120/157 57/127/158 56/121/160
f 75/103/161 74/111/159 56/121/160 55/112/162
f 76/104/163 75/103/161 55/112/162 54/113/164
f 77/114/165 76/104/163 54/113/164 53/122/166
f 78/123/167 77/114/165 53/122/166 52/128/168
f 79/221/169 78/223/167 52/226/168 51/224/170
f 80/222/171 79/221/169 51/224/170 50/225/172
f 81/54/173 80/62/171 50/70/172 49/63/174
f 82/47/175 81/54/173 49/63/174 48/55/176
f 83/48/177 82/47/175 48/55/176 47/56/178
f 84/57/179 83/48/177 47/56/178 66/64/180
f 85/65/181 84/57/179 66/64/180 65/71/182
f 86/72/183 85/65/181 65/71/182 64/75/184
f 87/76/185 86/72/183 64/75/184 63/78/186
f 88/79/187 87/76/185 63/78/186 62/80/188
f 69/239/150 88/241/187 62/244/188 61/242/151
f 90/237/189 89/236/190 69/239/150 70/240/149
f 91/125/191 90/129/189 70/132/149 71/130/153
f 92/119/192 91/125/191 71/130/153 72/126/155
f 93/110/193 92/119/192 72/126/155 73/120/157
f 94/102/194 93/110/193 73/120/157 74/111/159
f 95/94/195 94/102/194 74/111/159 75/103/161
f 96/95/196 95/94/195 75/103/161 76/104/163
f 97/105/197 96/95/196 76/104/163 77/114/165
f 98/115/198 97/105/197 77/114/165 78/123/167
f 99/218/199 98/220/198 78/223/167 79/221/169
f 100/219/200 99/218/199 79/221/169 80/222/171
f 101/46/201 100/53/200 80/62/171 81/54/173
f 102/40/202 101/46/201 81/54/173 82/47/175
f 103/41/203 102/40/202 82/47/175 83/48/177
f 104/49/204 103/41/203 83/48/177 84/57/179
f 105/58/205 104/49/204 84/57/179 85/65/181
f 106/66/206 105/58/205 85/65/181 86/72/183
f 107/73/207 106/66/206 86/72/183 87/76/185
f 108/77/208 107/73/207 87/76/185 88/79/187
f 89/236/190 108/238/208 88/241/187 69/239/150
f 110/229/96 109/232/98 129/235/209 130/233/210
f 111/230/94 110/229/96 130/233/210 131/234/211
f 112/108/92 111/117/94 131/124/211 132/118/212
f 113/100/90 112/108/92 132/118/212 133/109/213
f 114/92/88 113/100/90 133/109/213 134/101/214
f 115/86/86 114/92/88 134/101/214 135/93/215
f 116/83/84 115/86/86 135/93/215 136/87/216
f 117/84/82 116/83/84 136/87/216 137/88/217
f 118/90/80 117/84/82 137/88/217 138/96/218
f 119/98/78 118/90/80 138/96/218 139/106/219
f 120/211/76 119/214/78 139/217/219 140/215/220
f 121/212/74 120/211/76 140/215/220 141/216/221
f 122/32/72 121/38/74 141/45/221 142/39/222
f 123/29/69 122/32/72 142/39/222 143/33/223
f 124/30/70 123/29/69 143/33/223 144/34/224
f 125/36/106 124/30/70 144/34/224 145/42/225
f 126/44/104 125/36/106 145/42/225 146/50/226
f 127/52/102 126/44/104 146/50/226 147/59/227
f 128/61/100 127/52/102 147/59/227 148/67/228
f 109/69/98 128/61/100 148/67/228 129/74/209
f 130/233/210 129/235/209 108/238/208 89/236/190
f 131/234/211 130/233/210 89/236/190 90/237/189
f 132/118/212 131/124/211 90/129/189 91/125/191
f 133/109/213 132/118/212 91/125/191 92/119/192
f 134/101/214 133/109/213 92/119/192 93/110/193
f 135/93/215 134/101/214 93/110/193 94/102/194
f 136/87/216 135/93/215 94/102/194 95/94/195
f 137/88/217 136/87/216 95/94/195 96/95/196
f 138/96/218 137/88/217 96/95/196 97/105/197
f 139/106/219 138/96/218 97/105/197 98/115/198
f 140/215/220 139/217/219 98/220/198 99/218/199
f 141/216/221 140/215/220 99/218/199 100/219/200
f 142/39/222 141/45/221 100/53/200 101/46/201
f 143/33/223 142/39/222 101/46/201 102/40/202
f 144/34/224 143/33/223 102/40/202 103/41/203
f 145/42/225 144/34/224 103/41/203 104/49/204
f 146/50/226 145/42/225 104/49/204 105/58/205
f 147/59/227 146/50/226 105/58/205 106/66/206
f 148/67/228 147/59/227 106/66/206 107/73/207
f 129/74/209 148/67/228 107/73/207 108/77/208
