# This file uses centimeters as units for non-parametric coordinates.

mtllib table.mtl
g default
v 4.667286 -0.195021 2.803791
v 4.667286 0.195021 2.803791
v 4.667286 0.195021 -2.803791
v 4.667286 -0.195021 -2.803791
v 4.118299 -0.195021 2.803791
v 4.118299 0.195021 2.803791
v 4.118299 0.195021 -2.803791
v 4.118299 -0.195021 -2.803791
v 4.118299 0.195021 -2.339165
v 4.667286 0.195021 -2.339165
v 4.667287 -0.195021 -2.339165
v 4.118299 -0.195021 -2.339165
v 4.118299 0.195021 2.210593
v 4.667286 0.195021 2.210593
v 4.667287 -0.195021 2.210593
v 4.118299 -0.195021 2.210593
v 4.118299 -3.245454 -2.803791
v 4.118299 -3.245454 -2.339165
v 4.667286 -3.245454 -2.803791
v 4.667287 -3.245454 -2.339165
v 4.118299 -3.245454 2.210593
v 4.118299 -3.245454 2.803791
v 4.667287 -3.245454 2.210593
v 4.667286 -3.245454 2.803791
v 4.218299 -3.245454 -2.703791
v 4.218299 -3.245454 -2.439165
v 4.567286 -3.245454 -2.703791
v 4.567287 -3.245454 -2.439165
v 4.218299 -3.245454 2.310593
v 4.218299 -3.245454 2.703791
v 4.567287 -3.245454 2.310593
v 4.567286 -3.245454 2.703791
v 4.325508 -3.245455 -2.621661
v 4.341518 -3.245455 -2.500785
v 4.446384 -3.245455 -2.637671
v 4.462394 -3.245455 -2.516795
v 4.309808 -3.245455 2.410113
v 4.302443 -3.245455 2.585764
v 4.485459 -3.245455 2.417479
v 4.478094 -3.245455 2.593129
v 4.396266 -3.245454 2.310594
v 4.398257 -3.245454 2.210593
v 4.398257 -0.195021 2.210594
v 4.398257 -0.195021 -2.339164
v 4.398257 -3.245454 -2.339164
v 4.396266 -3.245454 -2.439164
v 4.405272 -3.245455 -2.483755
v 4.382630 -3.245455 -2.654700
v 4.396266 -3.245454 -2.703791
v 4.398257 -3.245454 -2.803791
v 4.398257 -0.195021 -2.803791
v 4.398257 0.195021 -2.803791
v 4.398257 0.195021 -2.339165
v 4.398257 0.195021 2.210593
v 4.398257 0.195021 2.803791
v 4.398257 -0.195021 2.803792
v 4.398257 -3.245454 2.803791
v 4.396266 -3.245454 2.703791
v 4.388743 -3.245455 2.625825
v 4.399159 -3.245455 2.377417
v 4.218299 -3.245454 2.490479
v 4.118299 -3.245454 2.481977
v 4.118299 -0.195021 2.481977
v 4.118299 0.195021 2.481977
v 4.398257 0.195021 2.481977
v 4.667286 0.195021 2.481977
v 4.667287 -0.195021 2.481978
v 4.667287 -3.245454 2.481978
v 4.567286 -3.245454 2.490479
v 4.518155 -3.245455 2.506830
v 4.269747 -3.245455 2.496413
v 4.218299 -3.245454 -2.564728
v 4.118299 -3.245454 -2.559626
v 4.118299 -0.195021 -2.559626
v 4.118299 0.195021 -2.559626
v 4.398257 0.195021 -2.559626
v 4.667286 0.195021 -2.559626
v 4.667287 -0.195021 -2.559626
v 4.667287 -3.245454 -2.559626
v 4.567286 -3.245454 -2.564728
v 4.479423 -3.245455 -2.580549
v 4.308479 -3.245455 -2.557907
v 4.382630 -3.369665 -2.654701
v 4.446384 -3.369665 -2.637671
v 4.479423 -3.369665 -2.580549
v 4.325508 -3.369665 -2.621661
v 4.308479 -3.369665 -2.557907
v 4.405272 -3.369665 -2.483755
v 4.462394 -3.369665 -2.516795
v 4.341518 -3.369665 -2.500785
v 4.399159 -3.369665 2.377417
v 4.485459 -3.369665 2.417478
v 4.518155 -3.369665 2.506829
v 4.309808 -3.369665 2.410113
v 4.269747 -3.369665 2.496413
v 4.388743 -3.369665 2.625825
v 4.478094 -3.369665 2.593129
v 4.302443 -3.369665 2.585764
v 4.354206 -3.487899 -2.869305
v 4.578033 -3.487899 -2.809518
v 4.694027 -3.487899 -2.608973
v 4.153660 -3.487899 -2.753310
v 4.093875 -3.487899 -2.529482
v 4.433696 -3.487899 -2.269151
v 4.634242 -3.487899 -2.385146
v 4.209869 -3.487899 -2.328938
v 4.408228 -3.487899 2.161129
v 4.644812 -3.487899 2.270952
v 4.734443 -3.487899 2.515899
v 4.163282 -3.487899 2.250762
v 4.053459 -3.487899 2.487343
v 4.379674 -3.487899 2.842113
v 4.624620 -3.487899 2.752481
v 4.143090 -3.487899 2.732291
v 4.394705 -3.616688 -2.568117
v 4.354206 -3.616688 -2.869305
v 4.578033 -3.616688 -2.809518
v 4.694027 -3.616688 -2.608973
v 4.153660 -3.616688 -2.753310
v 4.093875 -3.616688 -2.529482
v 4.433696 -3.616688 -2.269151
v 4.634242 -3.616688 -2.385146
v 4.209869 -3.616688 -2.328938
v 4.394682 -3.616688 2.497660
v 4.408228 -3.616689 2.161129
v 4.644812 -3.616689 2.270952
v 4.734443 -3.616689 2.515899
v 4.163282 -3.616688 2.250762
v 4.053459 -3.616688 2.487343
v 4.379674 -3.616689 2.842113
v 4.624620 -3.616689 2.752481
v 4.143090 -3.616688 2.732291
v 0.406642 -0.195021 2.803791
v 0.406642 0.195021 2.803791
v 0.406642 0.195021 -2.803791
v 0.406642 -0.195021 -2.803791
v 0.406642 0.195021 -2.339165
v 0.406642 -0.195021 -2.339165
v 0.406642 0.195021 2.210593
v 0.406642 -0.195021 2.210594
v 0.406642 -0.195021 2.481977
v 0.406642 0.195021 2.481977
v 0.406642 -0.195021 -2.559626
v 0.406642 0.195021 -2.559626
v -3.854003 -0.195021 2.803791
v -3.854003 0.195021 2.803791
v -3.854003 0.195021 -2.803791
v -3.854003 -0.195021 -2.803791
v -3.305015 -0.195021 2.803791
v -3.305015 0.195021 2.803791
v -3.305015 0.195021 -2.803791
v -3.305015 -0.195021 -2.803791
v -3.305015 0.195021 -2.339165
v -3.854003 0.195021 -2.339165
v -3.854003 -0.195021 -2.339165
v -3.305015 -0.195021 -2.339165
v -3.305015 0.195021 2.210593
v -3.854003 0.195021 2.210593
v -3.854003 -0.195021 2.210593
v -3.305015 -0.195021 2.210593
v -3.305015 -3.245454 -2.803791
v -3.305015 -3.245454 -2.339165
v -3.854003 -3.245454 -2.803791
v -3.854003 -3.245454 -2.339165
v -3.305015 -3.245454 2.210593
v -3.305015 -3.245454 2.803791
v -3.854003 -3.245454 2.210593
v -3.854003 -3.245454 2.803791
v -3.405015 -3.245454 -2.703791
v -3.405015 -3.245454 -2.439165
v -3.754003 -3.245454 -2.703791
v -3.754003 -3.245454 -2.439165
v -3.405015 -3.245454 2.310593
v -3.405015 -3.245454 2.703791
v -3.754003 -3.245454 2.310593
v -3.754003 -3.245454 2.703791
v -3.512224 -3.245455 -2.621661
v -3.528235 -3.245455 -2.500785
v -3.633100 -3.245455 -2.637671
v -3.649111 -3.245455 -2.516795
v -3.496525 -3.245455 2.410113
v -3.489159 -3.245455 2.585764
v -3.672176 -3.245455 2.417479
v -3.664810 -3.245455 2.593129
v -3.582983 -3.245454 2.310593
v -3.584974 -3.245454 2.210593
v -3.584974 -0.195021 2.210593
v -3.584974 -0.195021 -2.339165
v -3.584974 -3.245454 -2.339165
v -3.582983 -3.245454 -2.439165
v -3.591988 -3.245455 -2.483756
v -3.569346 -3.245455 -2.654700
v -3.582982 -3.245454 -2.703791
v -3.584974 -3.245454 -2.803791
v -3.584974 -0.195021 -2.803791
v -3.584974 0.195021 -2.803791
v -3.584974 0.195021 -2.339165
v -3.584974 0.195021 2.210593
v -3.584974 0.195021 2.803791
v -3.584974 -0.195021 2.803791
v -3.584974 -3.245454 2.803791
v -3.582982 -3.245454 2.703791
v -3.575459 -3.245455 2.625825
v -3.585875 -3.245455 2.377417
v -3.405015 -3.245454 2.490479
v -3.305015 -3.245454 2.481977
v -3.305015 -0.195021 2.481977
v -3.305015 0.195021 2.481977
v -3.584974 0.195021 2.481977
v -3.854003 0.195021 2.481977
v -3.854003 -0.195021 2.481977
v -3.854003 -3.245454 2.481977
v -3.754003 -3.245454 2.490479
v -3.704871 -3.245455 2.506830
v -3.456464 -3.245455 2.496413
v -3.405015 -3.245454 -2.564728
v -3.305015 -3.245454 -2.559626
v -3.305015 -0.195021 -2.559626
v -3.305015 0.195021 -2.559626
v -3.584974 0.195021 -2.559626
v -3.854003 0.195021 -2.559626
v -3.854003 -0.195021 -2.559626
v -3.854003 -3.245454 -2.559626
v -3.754003 -3.245454 -2.564728
v -3.666139 -3.245455 -2.580549
v -3.495195 -3.245455 -2.557907
v -3.569346 -3.369665 -2.654701
v -3.633100 -3.369665 -2.637671
v -3.666139 -3.369665 -2.580549
v -3.512224 -3.369665 -2.621661
v -3.495195 -3.369665 -2.557907
v -3.591988 -3.369665 -2.483755
v -3.649111 -3.369665 -2.516795
v -3.528235 -3.369665 -2.500785
v -3.585875 -3.369665 2.377417
v -3.672176 -3.369665 2.417478
v -3.704871 -3.369665 2.506829
v -3.496525 -3.369665 2.410113
v -3.456464 -3.369665 2.496413
v -3.575459 -3.369665 2.625825
v -3.664810 -3.369665 2.593129
v -3.489159 -3.369665 2.585764
v -3.540922 -3.487899 -2.869305
v -3.764750 -3.487899 -2.809518
v -3.880743 -3.487899 -2.608973
v -3.340376 -3.487899 -2.753310
v -3.280591 -3.487899 -2.529482
v -3.620413 -3.487899 -2.269151
v -3.820958 -3.487899 -2.385146
v -3.396586 -3.487899 -2.328938
v -3.594944 -3.487899 2.161129
v -3.831528 -3.487899 2.270952
v -3.921159 -3.487899 2.515899
v -3.349998 -3.487899 2.250762
v -3.240175 -3.487899 2.487343
v -3.566390 -3.487899 2.842113
v -3.811336 -3.487899 2.752481
v -3.329807 -3.487899 2.732291
v -3.581422 -3.616688 -2.568117
v -3.540922 -3.616688 -2.869305
v -3.764750 -3.616688 -2.809518
v -3.880743 -3.616688 -2.608973
v -3.340376 -3.616688 -2.753310
v -3.280591 -3.616688 -2.529482
v -3.620413 -3.616688 -2.269151
v -3.820958 -3.616688 -2.385146
v -3.396586 -3.616688 -2.328938
v -3.581398 -3.616688 2.497660
v -3.594944 -3.616689 2.161129
v -3.831528 -3.616689 2.270952
v -3.921159 -3.616689 2.515899
v -3.349998 -3.616688 2.250762
v -3.240175 -3.616688 2.487343
v -3.566390 -3.616689 2.842113
v -3.811336 -3.616689 2.752481
v -3.329807 -3.616688 2.732291
vt 0.573105 0.498537
vt 0.573105 0.484808
vt 0.595037 0.484808
vt 0.595037 0.498537
vt 0.401579 0.498537
vt 0.401579 0.484808
vt 0.573105 0.510934
vt 0.595037 0.510934
vt 0.401579 0.510934
vt 0.573105 0.766767
vt 0.595037 0.766767
vt 0.573105 0.782027
vt 0.595037 0.782027
vt 0.401579 0.782027
vt 0.401579 0.766767
vt 0.573105 0.800122
vt 0.595037 0.800122
vt 0.401579 0.800122
vt 0.184463 0.656334
vt 0.170733 0.656334
vt 0.170733 0.484808
vt 0.184463 0.484808
vt 0.196859 0.656334
vt 0.196859 0.484808
vt 0.110506 0.656334
vt 0.095246 0.656334
vt 0.095246 0.484808
vt 0.110506 0.484808
vt 0.128602 0.656334
vt 0.128602 0.484808
vt 0.878137 0.984376
vt 0.878137 0.987960
vt 0.871152 0.987960
vt 0.871152 0.984376
vt 0.878137 0.989818
vt 0.871152 0.989818
vt 0.878137 0.981164
vt 0.871152 0.981164
vt 0.890752 0.984376
vt 0.890752 0.987960
vt 0.883768 0.987960
vt 0.883768 0.984376
vt 0.890752 0.989818
vt 0.883768 0.989818
vt 0.890752 0.981163
vt 0.883768 0.981163
vt 0.849714 0.967623
vt 0.849714 0.972647
vt 0.842729 0.972647
vt 0.842729 0.967623
vt 0.849714 0.977500
vt 0.842729 0.977500
vt 0.864024 0.972648
vt 0.864024 0.977500
vt 0.857039 0.977500
vt 0.857039 0.972648
vt 0.864024 0.967623
vt 0.857039 0.967623
vt 0.621009 0.978900
vt 0.621009 0.991486
vt 0.613767 0.991486
vt 0.613767 0.978900
vt 0.621009 0.998008
vt 0.613767 0.998008
vt 0.621009 0.967623
vt 0.613767 0.967623
vt 0.606698 0.978900
vt 0.606698 0.991486
vt 0.599456 0.991486
vt 0.599456 0.978900
vt 0.606698 0.998008
vt 0.599456 0.998008
vt 0.606698 0.967623
vt 0.599456 0.967623
vt 0.678249 0.967623
vt 0.678249 0.981397
vt 0.671007 0.981397
vt 0.671007 0.967623
vt 0.678249 0.994700
vt 0.671007 0.994700
vt 0.692559 0.981397
vt 0.692559 0.994700
vt 0.685317 0.994700
vt 0.685317 0.981397
vt 0.692559 0.967623
vt 0.685317 0.967623
vt 0.374016 0.786393
vt 0.395948 0.786393
vt 0.395948 0.800122
vt 0.374016 0.800122
vt 0.374016 0.773996
vt 0.395948 0.773996
vt 0.202490 0.800122
vt 0.202490 0.786393
vt 0.374016 0.518163
vt 0.395948 0.518163
vt 0.202490 0.773996
vt 0.374016 0.502903
vt 0.395948 0.502903
vt 0.374016 0.484808
vt 0.395948 0.484808
vt 0.202490 0.518163
vt 0.202490 0.502903
vt 0.202490 0.484808
vt 0.039385 0.656334
vt 0.039385 0.484808
vt 0.053115 0.484808
vt 0.053115 0.656334
vt 0.026989 0.656334
vt 0.026989 0.484808
vt 0.057667 0.831523
vt 0.057667 0.659997
vt 0.072927 0.659997
vt 0.072927 0.831523
vt 0.039571 0.831523
vt 0.039571 0.659997
vt 0.852906 0.986606
vt 0.845922 0.986606
vt 0.845922 0.983021
vt 0.852906 0.983021
vt 0.852906 0.989818
vt 0.845922 0.989818
vt 0.845922 0.981164
vt 0.852906 0.981164
vt 0.865521 0.986606
vt 0.858537 0.986606
vt 0.858537 0.983021
vt 0.865521 0.983021
vt 0.865521 0.989818
vt 0.858537 0.989818
vt 0.858537 0.981164
vt 0.865521 0.981164
vt 0.906954 0.977500
vt 0.899970 0.977500
vt 0.899970 0.972476
vt 0.906954 0.972476
vt 0.899970 0.967623
vt 0.906954 0.967623
vt 0.915983 0.986016
vt 0.908999 0.986016
vt 0.908999 0.981164
vt 0.915983 0.981164
vt 0.915983 0.991040
vt 0.908999 0.991040
vt 0.649629 0.986731
vt 0.642387 0.986731
vt 0.642387 0.974146
vt 0.649629 0.974146
vt 0.649629 0.998008
vt 0.642387 0.998008
vt 0.642387 0.967623
vt 0.649629 0.967623
vt 0.635319 0.986731
vt 0.628077 0.986731
vt 0.628077 0.974146
vt 0.635319 0.974146
vt 0.635319 0.998008
vt 0.628077 0.998008
vt 0.628077 0.967623
vt 0.635319 0.967623
vt 0.735490 0.994700
vt 0.728248 0.994700
vt 0.728248 0.980926
vt 0.735490 0.980926
vt 0.728248 0.967623
vt 0.735490 0.967623
vt 0.749800 0.980926
vt 0.742558 0.980926
vt 0.742558 0.967623
vt 0.749800 0.967623
vt 0.749800 0.994700
vt 0.742558 0.994700
vt 0.517664 0.017120
vt 0.503934 0.017120
vt 0.503934 0.001992
vt 0.517664 0.001992
vt 0.517664 0.032862
vt 0.503934 0.032862
vt 0.491538 0.017120
vt 0.491538 0.001992
vt 0.517664 0.241568
vt 0.503934 0.241568
vt 0.491538 0.032862
vt 0.235705 0.017120
vt 0.235705 0.001992
vt 0.517664 0.450275
vt 0.503934 0.450275
vt 0.491538 0.241568
vt 0.235705 0.032862
vt 0.220445 0.017120
vt 0.220445 0.001992
vt 0.517664 0.466017
vt 0.503934 0.466017
vt 0.491538 0.450275
vt 0.235705 0.241568
vt 0.220445 0.032862
vt 0.202349 0.017120
vt 0.202349 0.001992
vt 0.517664 0.481144
vt 0.503934 0.481144
vt 0.491538 0.466017
vt 0.235705 0.450275
vt 0.220445 0.241568
vt 0.202349 0.032862
vt 0.491538 0.481144
vt 0.235705 0.466017
vt 0.220445 0.450275
vt 0.202349 0.241568
vt 0.235705 0.481144
vt 0.220445 0.466017
vt 0.202349 0.450275
vt 0.220445 0.481144
vt 0.202349 0.466017
vt 0.202349 0.481144
vt 0.312281 0.820721
vt 0.310004 0.803786
vt 0.322590 0.807147
vt 0.329112 0.818424
vt 0.295366 0.822894
vt 0.298727 0.810308
vt 0.314474 0.837532
vt 0.325750 0.831010
vt 0.301888 0.834170
vt 0.882627 0.499935
vt 0.626794 0.499935
vt 0.626794 0.484808
vt 0.882627 0.484808
vt 0.882627 0.515677
vt 0.626794 0.515677
vt 0.882627 0.724384
vt 0.626794 0.724384
vt 0.882627 0.933090
vt 0.626794 0.933090
vt 0.614398 0.724384
vt 0.614398 0.515677
vt 0.897887 0.724384
vt 0.897887 0.515677
vt 0.897887 0.933090
vt 0.882627 0.948832
vt 0.626794 0.948832
vt 0.614398 0.933090
vt 0.600668 0.724384
vt 0.600668 0.515677
vt 0.915983 0.724384
vt 0.915983 0.515677
vt 0.915983 0.933090
vt 0.882627 0.963960
vt 0.626794 0.963960
vt 0.600668 0.933090
vt 0.135675 0.678920
vt 0.136437 0.659997
vt 0.149740 0.666172
vt 0.154780 0.679946
vt 0.116488 0.678340
vt 0.122664 0.665037
vt 0.134832 0.698289
vt 0.148605 0.693249
vt 0.121528 0.692113
vt 0.548790 0.834655
vt 0.535061 0.834655
vt 0.540684 0.829032
vt 0.548503 0.829032
vt 0.535061 0.818913
vt 0.540684 0.819025
vt 0.548887 0.823961
vt 0.545302 0.823004
vt 0.561187 0.834655
vt 0.555564 0.829032
vt 0.535061 0.803786
vt 0.540684 0.809409
vt 0.543444 0.819792
vt 0.552099 0.822104
vt 0.555564 0.819025
vt 0.561187 0.818913
vt 0.548790 0.803786
vt 0.548503 0.809409
vt 0.544402 0.816207
vt 0.553056 0.818519
vt 0.561187 0.803786
vt 0.555564 0.809409
vt 0.547614 0.814349
vt 0.551199 0.815307
vt 0.459932 0.819045
vt 0.459932 0.803786
vt 0.465555 0.809409
vt 0.465555 0.819524
vt 0.475674 0.803786
vt 0.475562 0.809409
vt 0.468448 0.819857
vt 0.470701 0.815005
vt 0.459932 0.837141
vt 0.465555 0.831518
vt 0.490802 0.803786
vt 0.485179 0.809409
vt 0.475725 0.813166
vt 0.470287 0.824881
vt 0.475562 0.831518
vt 0.475674 0.837141
vt 0.490802 0.819045
vt 0.485179 0.819524
vt 0.480578 0.815419
vt 0.475139 0.827134
vt 0.490802 0.837141
vt 0.485179 0.831518
vt 0.482416 0.820443
vt 0.480164 0.825296
vt 0.352744 0.825465
vt 0.356329 0.824507
vt 0.363731 0.834170
vt 0.351146 0.837532
vt 0.358187 0.821295
vt 0.370254 0.822894
vt 0.349532 0.823607
vt 0.339869 0.831010
vt 0.357229 0.817711
vt 0.366892 0.810308
vt 0.348574 0.820022
vt 0.336507 0.818424
vt 0.354017 0.815853
vt 0.355615 0.803786
vt 0.350432 0.816810
vt 0.343030 0.807147
vt 0.180646 0.829915
vt 0.185499 0.827663
vt 0.194459 0.835902
vt 0.181156 0.842077
vt 0.187338 0.822639
vt 0.199499 0.822129
vt 0.175622 0.828077
vt 0.167383 0.837037
vt 0.185085 0.817786
vt 0.193324 0.808826
vt 0.173370 0.823224
vt 0.161208 0.823734
vt 0.180061 0.815947
vt 0.179551 0.803786
vt 0.175208 0.818200
vt 0.166248 0.809961
vt 0.394480 0.820721
vt 0.377649 0.818424
vt 0.384171 0.807147
vt 0.396757 0.803786
vt 0.392287 0.837532
vt 0.381011 0.831010
vt 0.411395 0.822894
vt 0.408034 0.810308
vt 0.404873 0.834170
vt 0.225032 0.822709
vt 0.205927 0.823734
vt 0.210967 0.809961
vt 0.224270 0.803786
vt 0.225876 0.842077
vt 0.212102 0.837037
vt 0.244219 0.822129
vt 0.238043 0.808826
vt 0.239179 0.835902
vt 0.580988 0.803786
vt 0.580701 0.809409
vt 0.572882 0.809409
vt 0.567259 0.803786
vt 0.593385 0.803786
vt 0.587762 0.809409
vt 0.581085 0.814479
vt 0.577500 0.815437
vt 0.572882 0.819416
vt 0.567259 0.819528
vt 0.587762 0.819416
vt 0.593385 0.819528
vt 0.584297 0.816337
vt 0.575642 0.818649
vt 0.572882 0.829032
vt 0.567259 0.834655
vt 0.585254 0.819922
vt 0.593385 0.834655
vt 0.587762 0.829032
vt 0.576600 0.822234
vt 0.580701 0.829032
vt 0.580988 0.834655
vt 0.583396 0.823134
vt 0.579812 0.824092
vt 0.528366 0.819045
vt 0.522743 0.819524
vt 0.522743 0.809409
vt 0.528366 0.803786
vt 0.528366 0.837141
vt 0.522743 0.831518
vt 0.519850 0.819857
vt 0.517598 0.815005
vt 0.512736 0.809409
vt 0.512624 0.803786
vt 0.512736 0.831518
vt 0.512624 0.837141
vt 0.518012 0.824881
vt 0.512573 0.813166
vt 0.503120 0.809409
vt 0.497497 0.803786
vt 0.513159 0.827134
vt 0.497497 0.837141
vt 0.503120 0.831518
vt 0.507721 0.815419
vt 0.503120 0.819524
vt 0.497497 0.819045
vt 0.508135 0.825296
vt 0.505882 0.820443
vt 0.436300 0.825465
vt 0.437899 0.837532
vt 0.425313 0.834170
vt 0.432716 0.824507
vt 0.439512 0.823607
vt 0.449175 0.831010
vt 0.418791 0.822894
vt 0.430858 0.821295
vt 0.440470 0.820022
vt 0.452537 0.818424
vt 0.422152 0.810308
vt 0.431815 0.817711
vt 0.438612 0.816810
vt 0.446015 0.807147
vt 0.433429 0.803786
vt 0.435027 0.815853
vt 0.269499 0.829915
vt 0.268989 0.842077
vt 0.255686 0.835902
vt 0.264647 0.827663
vt 0.274523 0.828077
vt 0.282763 0.837037
vt 0.250646 0.822129
vt 0.262808 0.822639
vt 0.276776 0.823224
vt 0.288938 0.823734
vt 0.256822 0.808826
vt 0.265061 0.817786
vt 0.274938 0.818200
vt 0.283898 0.809961
vt 0.270595 0.803786
vt 0.270085 0.815947
vt 0.173354 0.017120
vt 0.173354 0.001992
vt 0.195286 0.001992
vt 0.195286 0.017120
vt 0.001828 0.017120
vt 0.001828 0.001992
vt 0.173354 0.032862
vt 0.195286 0.032862
vt 0.001828 0.032862
vt 0.195286 0.241568
vt 0.173354 0.241568
vt 0.195286 0.450275
vt 0.173354 0.450275
vt 0.195286 0.466017
vt 0.173354 0.466017
vt 0.195286 0.481144
vt 0.173354 0.481144
vt 0.001828 0.466017
vt 0.001828 0.450275
vt 0.001828 0.481144
vt 0.546260 0.017120
vt 0.524328 0.017120
vt 0.524328 0.001992
vt 0.546260 0.001992
vt 0.546260 0.032862
vt 0.524328 0.032862
vt 0.717786 0.001992
vt 0.717786 0.017120
vt 0.546260 0.241568
vt 0.524328 0.241568
vt 0.717786 0.032862
vt 0.546260 0.450275
vt 0.524328 0.450275
vt 0.546260 0.466017
vt 0.524328 0.466017
vt 0.717786 0.450275
vt 0.717786 0.466017
vt 0.546260 0.481144
vt 0.524328 0.481144
vt 0.717786 0.481144
vt 0.165102 0.656334
vt 0.149975 0.656334
vt 0.149975 0.484808
vt 0.165102 0.484808
vt 0.134233 0.656334
vt 0.134233 0.484808
vt 0.074488 0.484808
vt 0.089615 0.484808
vt 0.089615 0.656334
vt 0.074488 0.656334
vt 0.058746 0.484808
vt 0.058746 0.656334
vt 0.836706 0.981164
vt 0.840291 0.981164
vt 0.840291 0.988148
vt 0.836706 0.988148
vt 0.831075 0.988148
vt 0.827490 0.988148
vt 0.827490 0.981164
vt 0.831075 0.981164
vt 0.828419 0.972476
vt 0.828419 0.967623
vt 0.835403 0.967623
vt 0.835403 0.972476
vt 0.828419 0.977500
vt 0.835403 0.977500
vt 0.878334 0.967623
vt 0.878334 0.972647
vt 0.871350 0.972647
vt 0.871350 0.967623
vt 0.878334 0.977500
vt 0.871350 0.977500
vt 0.771178 0.980209
vt 0.771178 0.967623
vt 0.778420 0.967623
vt 0.778420 0.980209
vt 0.792730 0.967623
vt 0.792730 0.980209
vt 0.785488 0.980209
vt 0.785488 0.967623
vt 0.656697 0.980926
vt 0.656697 0.967623
vt 0.663939 0.967623
vt 0.663939 0.980926
vt 0.656697 0.994700
vt 0.663939 0.994700
vt 0.706869 0.967623
vt 0.706869 0.981397
vt 0.699628 0.981397
vt 0.699628 0.967623
vt 0.706869 0.994700
vt 0.699628 0.994700
vt 0.001828 0.831523
vt 0.001828 0.659997
vt 0.016956 0.659997
vt 0.016956 0.831523
vt 0.032698 0.659997
vt 0.032698 0.831523
vt 0.094052 0.659997
vt 0.094052 0.831523
vt 0.078924 0.831523
vt 0.078924 0.659997
vt 0.109794 0.659997
vt 0.109794 0.831523
vt 0.821859 0.983873
vt 0.821859 0.990857
vt 0.818274 0.990857
vt 0.818274 0.983873
vt 0.809058 0.990857
vt 0.809058 0.983873
vt 0.812643 0.983873
vt 0.812643 0.990857
vt 0.885660 0.972647
vt 0.892644 0.972647
vt 0.892644 0.977500
vt 0.885660 0.977500
vt 0.885660 0.967623
vt 0.892644 0.967623
vt 0.903368 0.991040
vt 0.896383 0.991040
vt 0.896383 0.986016
vt 0.903368 0.986016
vt 0.896383 0.981164
vt 0.903368 0.981164
vt 0.799799 0.967623
vt 0.807041 0.967623
vt 0.807041 0.980209
vt 0.799799 0.980209
vt 0.821351 0.980209
vt 0.814109 0.980209
vt 0.814109 0.967623
vt 0.821351 0.967623
vt 0.713938 0.981397
vt 0.721180 0.981397
vt 0.721180 0.994700
vt 0.713938 0.994700
vt 0.713938 0.967623
vt 0.721180 0.967623
vt 0.764110 0.994700
vt 0.756868 0.994700
vt 0.756868 0.980926
vt 0.764110 0.980926
vt 0.756868 0.967623
vt 0.764110 0.967623
vn 1.000000 0.000000 -0.000001
vn 1.000000 0.000000 -0.000002
vn 1.000000 0.000001 -0.000001
vn 1.000000 0.000001 -0.000001
vn 0.000000 0.000000 1.000000
vn 0.000001 0.000000 1.000000
vn 0.000000 0.000001 1.000000
vn 0.000000 0.000001 1.000000
vn 0.000000 1.000000 0.000000
vn 0.000000 1.000000 0.000000
vn 0.000000 1.000000 0.000000
vn 0.000000 1.000000 0.000000
vn 0.000000 0.000000 -1.000000
vn 0.000000 0.000000 -1.000000
vn 0.000000 0.000000 -1.000000
vn 0.000000 0.000000 -1.000000
vn 0.000000 -1.000000 0.000000
vn 0.000000 -1.000000 0.000001
vn 0.000000 -1.000000 0.000002
vn 0.000000 -1.000000 0.000001
vn 0.000000 1.000000 0.000000
vn 0.000000 1.000000 0.000000
vn 0.000000 1.000000 0.000000
vn 0.000000 1.000000 0.000000
vn 1.000000 0.000001 -0.000000
vn 1.000000 0.000001 0.000000
vn 1.000000 0.000001 0.000000
vn 1.000000 0.000001 -0.000000
vn 0.000000 -1.000000 0.000000
vn 0.000000 -1.000000 0.000000
vn 0.000000 -1.000000 0.000000
vn 0.000000 -1.000000 0.000000
vn 0.000000 1.000000 0.000000
vn 0.000000 1.000000 0.000000
vn 1.000000 0.000000 0.000001
vn 1.000000 0.000002 0.000000
vn -0.000001 -1.000000 0.000000
vn -0.000001 -1.000000 0.000001
vn -0.000001 -1.000000 0.000000
vn -0.000001 -1.000000 0.000000
vn -1.000000 0.000000 0.000000
vn -1.000000 0.000000 0.000000
vn -1.000000 0.000000 0.000000
vn -1.000000 0.000000 0.000000
vn 0.000000 0.000000 -1.000000
vn 0.000000 0.000000 -1.000000
vn 1.000000 0.000000 -0.000001
vn 1.000000 0.000000 -0.000002
vn 0.000002 0.000000 1.000000
vn 0.000000 0.000000 1.000000
vn 0.000000 0.000000 1.000000
vn 0.000002 0.000000 1.000000
vn -1.000000 0.000000 0.000000
vn -1.000000 0.000000 0.000000
vn -1.000000 0.000000 0.000000
vn -1.000000 0.000000 0.000000
vn 0.000000 0.000000 -1.000000
vn -0.000001 0.000000 -1.000000
vn -0.000001 0.000000 -1.000000
vn 0.000000 0.000000 -1.000000
vn 1.000000 0.000000 0.000001
vn 1.000000 0.000000 0.000000
vn 0.000000 -0.000000 1.000000
vn 0.000001 -0.000000 1.000000
vn 0.000000 -1.000000 0.000000
vn 0.000000 -1.000000 -0.000001
vn 0.000000 -1.000000 -0.000001
vn 0.000000 -1.000000 0.000000
vn 0.000000 -1.000000 0.000001
vn 0.000000 -1.000000 0.000002
vn 0.000000 -1.000000 0.000002
vn 0.000000 -1.000000 0.000001
vn 0.000000 -1.000000 0.000000
vn 0.000000 -1.000000 0.000000
vn 0.000000 -1.000000 -0.000001
vn 0.000000 -1.000000 -0.000002
vn 0.000000 -1.000000 -0.000002
vn 0.000000 -1.000000 -0.000001
vn 0.000000 -1.000000 0.000000
vn 0.000000 -1.000000 0.000001
vn 0.000000 -1.000000 0.000001
vn 0.000000 -1.000000 0.000000
vn 0.000000 -1.000000 0.000002
vn 0.000000 -1.000000 0.000002
vn 0.000000 -1.000000 0.000002
vn 0.000000 -1.000000 0.000002
vn 0.000000 -1.000000 0.000000
vn 0.000000 -1.000000 0.000000
vn 0.000000 -1.000000 -0.000001
vn 0.000000 -1.000000 -0.000001
vn 0.000000 -1.000000 -0.000001
vn 0.000000 -1.000000 -0.000001
vn -0.000002 -1.000000 0.000000
vn -0.000002 -1.000000 0.000000
vn -0.000002 -1.000000 0.000000
vn -0.000001 -1.000000 0.000000
vn -0.000000 -1.000000 -0.000002
vn 0.000002 -1.000000 -0.000001
vn 0.000001 -1.000000 -0.000002
vn -0.000000 -1.000000 -0.000001
vn 0.000002 -1.000000 -0.000000
vn 0.000002 -1.000000 -0.000000
vn 0.000002 -1.000000 0.000001
vn 0.000000 -1.000000 0.000008
vn 0.000000 -1.000000 0.000007
vn 0.000002 -1.000000 0.000001
vn -0.000003 -1.000000 -0.000001
vn -0.000003 -1.000000 -0.000001
vn -0.000002 -1.000000 -0.000003
vn -0.000002 -1.000000 -0.000003
vn 0.000000 -1.000000 -0.000002
vn 0.000000 -1.000000 -0.000003
vn 0.000001 -1.000000 0.000000
vn 0.000002 -1.000000 0.000000
vn 0.000003 -1.000000 0.000000
vn 0.000003 -1.000000 0.000000
vn 0.000001 -1.000000 0.000003
vn -0.000000 -1.000000 0.000001
vn -0.000000 -1.000000 0.000001
vn 0.000002 -1.000000 0.000002
vn 0.000001 0.000000 -1.000000
vn 0.000001 0.000000 -1.000000
vn -0.000000 -1.000000 0.000000
vn -0.000000 -1.000000 0.000000
vn -0.000002 0.000000 1.000000
vn -0.000002 0.000000 1.000000
vn 0.000000 -1.000000 -0.000001
vn 0.000000 -1.000000 -0.000001
vn -0.000002 -1.000000 0.000002
vn -0.000001 -1.000000 0.000006
vn 0.000000 -1.000000 -0.000000
vn 0.000000 -1.000000 0.000000
vn -0.000000 0.000000 -1.000000
vn 0.000000 0.000000 -1.000000
vn -0.000000 0.000000 -1.000000
vn -0.000000 1.000000 0.000000
vn -0.000000 1.000000 0.000000
vn -0.000000 1.000000 0.000000
vn -0.000000 1.000000 0.000000
vn -0.000000 1.000000 0.000000
vn -0.000000 0.000000 1.000000
vn -0.000000 0.000000 1.000000
vn -0.000001 -0.000000 1.000000
vn 0.000000 -1.000000 0.000000
vn 0.000000 -1.000000 0.000000
vn -0.000001 -1.000000 -0.000001
vn -0.000002 -1.000000 -0.000001
vn -0.000000 -1.000000 -0.000000
vn -0.000000 -1.000000 0.000001
vn -1.000000 0.000000 0.000000
vn -1.000000 0.000000 0.000000
vn 0.000000 1.000000 0.000000
vn -0.000000 1.000000 0.000000
vn 0.000000 1.000000 0.000000
vn 1.000000 0.000000 0.000001
vn 1.000000 0.000002 0.000001
vn 1.000000 0.000000 0.000001
vn -0.000001 -1.000000 -0.000001
vn -0.000001 -1.000000 0.000000
vn -0.000000 -1.000000 -0.000001
vn -1.000000 0.000000 0.000000
vn -1.000000 0.000000 0.000000
vn 1.000000 0.000000 0.000000
vn 0.000000 -1.000000 -0.000000
vn 0.000000 -1.000000 0.000000
vn 0.000000 -1.000000 -0.000001
vn 0.258059 0.000001 -0.966129
vn 0.258059 0.000001 -0.966129
vn 0.258059 0.000001 -0.966129
vn 0.258059 0.000001 -0.966129
vn 0.865635 0.000000 -0.500676
vn 0.865635 0.000000 -0.500676
vn 0.865635 0.000000 -0.500676
vn 0.865635 0.000000 -0.500676
vn -0.966130 0.000000 -0.258057
vn -0.966130 0.000000 -0.258057
vn -0.966130 0.000000 -0.258057
vn -0.966130 0.000000 -0.258057
vn -0.500681 0.000001 -0.865632
vn -0.500681 0.000001 -0.865632
vn -0.500681 0.000001 -0.865632
vn -0.500681 0.000001 -0.865632
vn 0.966130 0.000004 0.258056
vn 0.966130 0.000004 0.258056
vn 0.966130 0.000004 0.258056
vn 0.966130 0.000004 0.258056
vn 0.500686 -0.000000 0.865629
vn 0.500686 -0.000000 0.865629
vn 0.500686 -0.000000 0.865629
vn 0.500686 -0.000000 0.865629
vn -0.865632 0.000000 0.500680
vn -0.865632 0.000000 0.500680
vn -0.865632 0.000000 0.500680
vn -0.865632 0.000000 0.500680
vn -0.258068 -0.000001 0.966127
vn -0.258068 -0.000001 0.966127
vn -0.258068 -0.000001 0.966127
vn -0.258068 -0.000001 0.966127
vn 0.421051 0.000003 -0.907037
vn 0.421051 0.000003 -0.907037
vn 0.421051 0.000003 -0.907037
vn 0.421051 0.000003 -0.907037
vn 0.939103 0.000001 -0.343636
vn 0.939103 0.000001 -0.343636
vn 0.939103 0.000001 -0.343636
vn 0.939103 0.000001 -0.343636
vn -0.907036 0.000000 -0.421053
vn -0.907036 0.000000 -0.421053
vn -0.907036 0.000000 -0.421053
vn -0.907036 0.000000 -0.421053
vn -0.343647 -0.000001 -0.939099
vn -0.343647 -0.000001 -0.939099
vn -0.343646 -0.000001 -0.939099
vn -0.343646 -0.000001 -0.939099
vn 0.907037 -0.000000 0.421052
vn 0.907037 -0.000000 0.421052
vn 0.907037 -0.000000 0.421052
vn 0.907037 -0.000000 0.421052
vn 0.343642 0.000000 0.939101
vn 0.343642 0.000000 0.939101
vn 0.343642 0.000000 0.939101
vn 0.343642 0.000000 0.939101
vn -0.939103 0.000002 0.343636
vn -0.939103 0.000002 0.343636
vn -0.939103 0.000002 0.343636
vn -0.939103 0.000002 0.343636
vn -0.421049 0.000001 0.907038
vn -0.421049 0.000001 0.907038
vn -0.421049 0.000001 0.907038
vn -0.421049 0.000001 0.907038
vn -0.062939 0.877632 -0.475185
vn 0.291502 0.877633 -0.380509
vn 0.291502 0.877633 -0.380509
vn -0.062938 0.877632 -0.475185
vn 0.475185 0.877632 -0.062939
vn 0.475185 0.877632 -0.062939
vn -0.475185 0.877632 0.062940
vn -0.380511 0.877632 -0.291501
vn -0.380511 0.877632 -0.291501
vn -0.475185 0.877632 0.062940
vn 0.380511 0.877632 0.291502
vn 0.380511 0.877632 0.291501
vn 0.062939 0.877632 0.475185
vn 0.062939 0.877632 0.475185
vn -0.291503 0.877632 0.380511
vn -0.291503 0.877632 0.380511
vn 0.020082 0.877631 -0.478916
vn 0.352844 0.877632 -0.324443
vn 0.352845 0.877632 -0.324443
vn 0.020082 0.877631 -0.478916
vn 0.478915 0.877631 0.020083
vn 0.478915 0.877631 0.020083
vn -0.478915 0.877631 -0.020083
vn -0.324444 0.877631 -0.352845
vn -0.324444 0.877631 -0.352845
vn -0.478915 0.877631 -0.020083
vn 0.324445 0.877631 0.352845
vn 0.324445 0.877631 0.352845
vn -0.020080 0.877632 0.478915
vn -0.020080 0.877631 0.478915
vn -0.352843 0.877632 0.324443
vn -0.352843 0.877632 0.324443
vn 0.258061 0.000000 -0.966129
vn 0.258061 0.000000 -0.966129
vn 0.258061 0.000000 -0.966129
vn 0.258061 0.000000 -0.966129
vn 0.865635 0.000000 -0.500676
vn 0.865635 0.000000 -0.500676
vn 0.865635 0.000000 -0.500676
vn 0.865635 0.000000 -0.500676
vn -0.966130 0.000000 -0.258055
vn -0.966130 0.000000 -0.258055
vn -0.966130 0.000000 -0.258055
vn -0.966130 0.000000 -0.258055
vn -0.500680 0.000000 -0.865633
vn -0.500680 0.000000 -0.865633
vn -0.500680 0.000000 -0.865633
vn -0.500680 0.000000 -0.865633
vn 0.966130 0.000000 0.258056
vn 0.966130 0.000000 0.258056
vn 0.966130 0.000000 0.258056
vn 0.966130 0.000000 0.258056
vn 0.500680 0.000000 0.865632
vn 0.500680 0.000000 0.865632
vn 0.500680 0.000000 0.865632
vn 0.500680 0.000000 0.865632
vn -0.865632 0.000000 0.500680
vn -0.865632 0.000000 0.500680
vn -0.865632 0.000000 0.500680
vn -0.865632 0.000000 0.500680
vn -0.258063 0.000000 0.966128
vn -0.258063 0.000000 0.966128
vn -0.258063 0.000000 0.966128
vn -0.258063 0.000000 0.966128
vn 0.421052 0.000000 -0.907037
vn 0.421051 0.000000 -0.907037
vn 0.421052 0.000000 -0.907037
vn 0.421051 0.000000 -0.907037
vn 0.939102 0.000000 -0.343638
vn 0.939102 0.000000 -0.343637
vn 0.939102 0.000000 -0.343638
vn 0.939102 0.000000 -0.343637
vn -0.907036 0.000000 -0.421052
vn -0.907036 0.000000 -0.421052
vn -0.907036 0.000000 -0.421052
vn -0.907036 0.000000 -0.421052
vn -0.343643 0.000000 -0.939100
vn -0.343643 0.000000 -0.939100
vn -0.343643 0.000000 -0.939100
vn -0.343643 0.000000 -0.939100
vn 0.907036 0.000000 0.421053
vn 0.907036 0.000000 0.421053
vn 0.907036 0.000000 0.421053
vn 0.907036 0.000000 0.421053
vn 0.343645 0.000000 0.939100
vn 0.343645 0.000000 0.939100
vn 0.343645 0.000000 0.939100
vn 0.343645 0.000000 0.939100
vn -0.939103 0.000000 0.343636
vn -0.939103 0.000000 0.343636
vn -0.939103 0.000000 0.343636
vn -0.939103 0.000000 0.343636
vn -0.421050 0.000000 0.907038
vn -0.421050 0.000000 0.907037
vn -0.421050 0.000000 0.907038
vn -0.421050 0.000000 0.907037
vn 0.000000 0.000000 1.000000
vn 0.000000 0.000000 1.000000
vn 0.000000 1.000000 0.000000
vn 0.000000 1.000000 0.000000
vn 0.000000 0.000000 -1.000000
vn 0.000000 0.000000 -1.000000
vn 0.000000 -1.000000 -0.000000
vn 0.000000 -1.000000 0.000000
vn -0.000000 -1.000000 0.000000
vn -0.000000 -1.000000 -0.000000
vn 0.000000 1.000000 0.000000
vn -0.000000 1.000000 0.000000
vn 0.000000 -1.000000 0.000000
vn 0.000000 -1.000000 0.000000
vn 0.000000 1.000000 0.000000
vn 0.000000 -1.000000 0.000000
vn -0.000000 -1.000000 0.000000
vn 0.000000 -1.000000 0.000000
vn -0.000000 -1.000000 0.000000
vn 0.000000 1.000000 0.000000
vn -1.000000 0.000000 -0.000001
vn -1.000000 0.000001 -0.000001
vn -1.000000 0.000001 -0.000001
vn -1.000000 0.000000 -0.000002
vn 0.000000 0.000000 1.000000
vn 0.000000 0.000000 1.000000
vn 0.000000 0.000000 1.000000
vn 0.000000 0.000000 1.000000
vn 0.000000 1.000000 0.000000
vn 0.000000 1.000000 0.000000
vn 0.000000 1.000000 0.000000
vn 0.000000 1.000000 0.000000
vn 0.000000 0.000000 -1.000000
vn 0.000000 0.000000 -1.000000
vn 0.000000 0.000000 -1.000000
vn 0.000000 0.000000 -1.000000
vn 0.000000 -1.000000 0.000000
vn 0.000000 -1.000000 0.000001
vn 0.000000 -1.000000 0.000001
vn 0.000000 -1.000000 0.000000
vn 0.000000 1.000000 0.000000
vn 0.000000 1.000000 0.000000
vn 0.000000 1.000000 0.000000
vn 0.000000 1.000000 0.000000
vn -1.000000 0.000001 -0.000000
vn -1.000000 0.000002 -0.000000
vn -1.000000 0.000002 0.000000
vn -1.000000 0.000002 0.000000
vn 0.000000 -1.000000 0.000000
vn 0.000000 -1.000000 0.000000
vn 0.000000 -1.000000 0.000000
vn 0.000000 -1.000000 0.000000
vn 0.000000 1.000000 0.000000
vn 0.000000 1.000000 0.000000
vn -1.000000 0.000000 0.000001
vn -1.000000 0.000001 0.000000
vn 0.000001 -1.000000 -0.000000
vn 0.000001 -1.000000 -0.000000
vn 0.000001 -1.000000 0.000000
vn 0.000001 -1.000000 0.000000
vn 1.000000 0.000000 0.000000
vn 1.000000 0.000000 0.000000
vn 1.000000 0.000000 0.000000
vn 1.000000 0.000000 0.000000
vn 0.000000 0.000000 -1.000000
vn 0.000000 0.000000 -1.000000
vn -1.000000 0.000000 -0.000002
vn -1.000000 0.000000 -0.000001
vn 0.000000 0.000000 1.000000
vn 0.000000 0.000000 1.000000
vn 0.000000 0.000000 1.000000
vn 0.000000 0.000000 1.000000
vn 1.000000 0.000000 0.000000
vn 1.000000 0.000000 0.000000
vn 1.000000 0.000000 0.000000
vn 1.000000 0.000000 0.000000
vn 0.000000 0.000000 -1.000000
vn 0.000000 0.000000 -1.000000
vn 0.000000 0.000000 -1.000000
vn 0.000000 0.000000 -1.000000
vn -1.000000 0.000000 0.000000
vn -1.000000 0.000000 0.000001
vn 0.000000 0.000000 1.000000
vn 0.000000 0.000000 1.000000
vn 0.000000 -1.000000 0.000000
vn 0.000000 -1.000000 0.000000
vn 0.000000 -1.000000 -0.000001
vn 0.000000 -1.000000 -0.000001
vn 0.000000 -1.000000 0.000000
vn 0.000000 -1.000000 -0.000000
vn 0.000000 -1.000000 0.000001
vn 0.000000 -1.000000 0.000001
vn 0.000000 -1.000000 -0.000000
vn 0.000000 -1.000000 -0.000000
vn 0.000000 -1.000000 -0.000002
vn 0.000000 -1.000000 -0.000002
vn 0.000000 -1.000000 -0.000002
vn 0.000000 -1.000000 -0.000002
vn 0.000000 -1.000000 0.000000
vn 0.000000 -1.000000 0.000000
vn 0.000000 -1.000000 0.000001
vn 0.000000 -1.000000 0.000001
vn 0.000000 -1.000000 0.000003
vn 0.000000 -1.000000 0.000003
vn 0.000000 -1.000000 0.000001
vn 0.000000 -1.000000 0.000001
vn 0.000000 -1.000000 0.000000
vn 0.000000 -1.000000 0.000000
vn 0.000000 -1.000000 -0.000001
vn 0.000000 -1.000000 -0.000001
vn 0.000000 -1.000000 0.000000
vn 0.000000 -1.000000 0.000000
vn 0.000002 -1.000000 0.000000
vn 0.000001 -1.000000 0.000000
vn 0.000002 -1.000000 0.000000
vn 0.000002 -1.000000 0.000000
vn 0.000000 -1.000000 -0.000004
vn 0.000000 -1.000000 -0.000003
vn -0.000001 -1.000000 -0.000004
vn -0.000002 -1.000000 -0.000002
vn -0.000002 -1.000000 0.000000
vn -0.000002 -1.000000 0.000000
vn -0.000002 -1.000000 0.000000
vn -0.000002 -1.000000 0.000000
vn -0.000000 -1.000000 0.000003
vn -0.000000 -1.000000 0.000004
vn 0.000003 -1.000000 -0.000001
vn 0.000002 -1.000000 -0.000003
vn 0.000002 -1.000000 -0.000003
vn 0.000003 -1.000000 -0.000001
vn -0.000000 -1.000000 -0.000003
vn -0.000002 -1.000000 -0.000001
vn -0.000001 -1.000000 -0.000001
vn -0.000000 -1.000000 -0.000004
vn -0.000003 -1.000000 0.000000
vn -0.000003 -1.000000 0.000000
vn -0.000001 -1.000000 0.000003
vn -0.000002 -1.000000 0.000002
vn 0.000000 -1.000000 0.000003
vn 0.000000 -1.000000 0.000003
vn 0.000000 0.000000 -1.000000
vn 0.000000 0.000000 -1.000000
vn -0.000000 -1.000000 0.000000
vn -0.000000 -1.000000 0.000000
vn 0.000000 0.000000 1.000000
vn 0.000000 0.000000 1.000000
vn 0.000000 -1.000000 -0.000001
vn 0.000000 -1.000000 -0.000001
vn 0.000001 -1.000000 0.000004
vn 0.000002 -1.000000 0.000002
vn 0.000000 -1.000000 -0.000001
vn 0.000000 -1.000000 -0.000001
vn 0.000000 0.000000 -1.000000
vn 0.000000 0.000000 -1.000000
vn 0.000000 0.000000 -1.000000
vn 0.000000 1.000000 0.000000
vn 0.000000 1.000000 0.000000
vn 0.000000 1.000000 0.000000
vn 0.000000 1.000000 0.000000
vn 0.000000 1.000000 0.000000
vn 0.000000 0.000000 1.000000
vn 0.000000 0.000000 1.000000
vn 0.000000 0.000000 1.000000
vn 0.000000 -1.000000 0.000001
vn 0.000000 -1.000000 0.000001
vn 0.000002 -1.000000 -0.000000
vn 0.000001 -1.000000 0.000000
vn 0.000000 -1.000000 -0.000000
vn 0.000000 -1.000000 0.000001
vn 1.000000 0.000000 0.000000
vn 1.000000 0.000000 0.000000
vn 0.000000 1.000000 0.000000
vn 0.000000 1.000000 0.000000
vn 0.000000 1.000000 0.000000
vn -1.000000 0.000000 0.000001
vn -1.000000 0.000001 0.000001
vn -1.000000 0.000000 0.000001
vn 0.000001 -1.000000 -0.000001
vn 0.000001 -1.000000 -0.000000
vn 0.000000 -1.000000 -0.000001
vn 1.000000 0.000000 0.000000
vn 1.000000 0.000000 0.000000
vn -1.000000 0.000000 0.000000
vn 0.000000 -1.000000 -0.000000
vn 0.000000 -1.000000 0.000000
vn 0.000000 -1.000000 -0.000000
vn -0.258059 0.000001 -0.966129
vn -0.258059 0.000001 -0.966129
vn -0.258059 0.000001 -0.966129
vn -0.258059 0.000001 -0.966129
vn -0.865635 -0.000002 -0.500676
vn -0.865635 -0.000002 -0.500676
vn -0.865635 -0.000002 -0.500676
vn -0.865635 -0.000002 -0.500676
vn 0.966130 0.000000 -0.258057
vn 0.966130 0.000000 -0.258057
vn 0.966130 0.000000 -0.258057
vn 0.966130 0.000000 -0.258057
vn 0.500681 0.000002 -0.865632
vn 0.500681 0.000002 -0.865632
vn 0.500681 0.000002 -0.865632
vn 0.500681 0.000002 -0.865632
vn -0.966130 0.000002 0.258056
vn -0.966130 0.000002 0.258056
vn -0.966130 0.000002 0.258056
vn -0.966130 0.000002 0.258056
vn -0.500681 0.000003 0.865632
vn -0.500681 0.000003 0.865632
vn -0.500681 0.000003 0.865632
vn -0.500681 0.000003 0.865632
vn 0.865632 0.000000 0.500680
vn 0.865632 0.000000 0.500680
vn 0.865632 0.000000 0.500680
vn 0.865632 0.000000 0.500680
vn 0.258061 0.000001 0.966129
vn 0.258061 0.000001 0.966129
vn 0.258061 0.000001 0.966129
vn 0.258061 0.000001 0.966129
vn -0.421051 0.000004 -0.907037
vn -0.421051 0.000004 -0.907037
vn -0.421051 0.000004 -0.907037
vn -0.421051 0.000004 -0.907037
vn -0.939103 0.000003 -0.343636
vn -0.939103 0.000003 -0.343636
vn -0.939103 0.000003 -0.343636
vn -0.939103 0.000003 -0.343636
vn 0.907037 0.000000 -0.421052
vn 0.907037 0.000000 -0.421052
vn 0.907037 0.000000 -0.421052
vn 0.907037 0.000000 -0.421052
vn 0.343644 0.000001 -0.939100
vn 0.343644 0.000001 -0.939100
vn 0.343644 0.000001 -0.939100
vn 0.343644 0.000001 -0.939100
vn -0.907037 -0.000003 0.421052
vn -0.907037 -0.000003 0.421052
vn -0.907037 -0.000003 0.421052
vn -0.907037 -0.000003 0.421052
vn -0.343644 0.000001 0.939100
vn -0.343644 0.000001 0.939100
vn -0.343644 0.000001 0.939100
vn -0.343644 0.000001 0.939100
vn 0.939103 0.000000 0.343636
vn 0.939103 0.000000 0.343636
vn 0.939103 0.000000 0.343636
vn 0.939103 0.000000 0.343636
vn 0.421051 0.000003 0.907037
vn 0.421051 0.000003 0.907037
vn 0.421051 0.000003 0.907037
vn 0.421051 0.000003 0.907037
vn 0.062939 0.877632 -0.475185
vn 0.062938 0.877632 -0.475185
vn -0.291503 0.877632 -0.380511
vn -0.291503 0.877632 -0.380511
vn -0.475185 0.877632 -0.062939
vn -0.475185 0.877632 -0.062939
vn 0.475185 0.877632 0.062940
vn 0.475185 0.877632 0.062940
vn 0.380511 0.877632 -0.291501
vn 0.380511 0.877632 -0.291501
vn -0.380511 0.877632 0.291501
vn -0.380511 0.877632 0.291501
vn -0.062938 0.877632 0.475185
vn -0.062939 0.877632 0.475185
vn 0.291503 0.877632 0.380511
vn 0.291503 0.877632 0.380511
vn -0.020082 0.877631 -0.478916
vn -0.020082 0.877631 -0.478916
vn -0.352844 0.877632 -0.324444
vn -0.352844 0.877632 -0.324444
vn -0.478915 0.877631 0.020082
vn -0.478915 0.877632 0.020082
vn 0.478915 0.877632 -0.020082
vn 0.478915 0.877632 -0.020082
vn 0.324444 0.877632 -0.352844
vn 0.324444 0.877632 -0.352844
vn -0.324445 0.877631 0.352844
vn -0.324445 0.877631 0.352844
vn 0.020080 0.877631 0.478916
vn 0.020080 0.877631 0.478916
vn 0.352843 0.877632 0.324444
vn 0.352843 0.877632 0.324444
vn -0.258061 0.000000 -0.966129
vn -0.258061 0.000000 -0.966129
vn -0.258061 0.000000 -0.966129
vn -0.258061 0.000000 -0.966129
vn -0.865635 0.000000 -0.500676
vn -0.865635 0.000000 -0.500676
vn -0.865635 0.000000 -0.500676
vn -0.865635 0.000000 -0.500676
vn 0.966130 0.000000 -0.258055
vn 0.966130 0.000000 -0.258055
vn 0.966130 0.000000 -0.258055
vn 0.966130 0.000000 -0.258055
vn 0.500680 0.000000 -0.865633
vn 0.500680 0.000000 -0.865633
vn 0.500680 0.000000 -0.865633
vn 0.500680 0.000000 -0.865633
vn -0.966130 0.000000 0.258056
vn -0.966130 0.000000 0.258056
vn -0.966130 0.000000 0.258056
vn -0.966130 0.000000 0.258056
vn -0.500680 0.000000 0.865632
vn -0.500680 0.000000 0.865632
vn -0.500680 0.000000 0.865632
vn -0.500680 0.000000 0.865632
vn 0.865632 0.000000 0.500680
vn 0.865632 0.000000 0.500680
vn 0.865632 0.000000 0.500680
vn 0.865632 0.000000 0.500680
vn 0.258063 0.000000 0.966128
vn 0.258063 0.000000 0.966128
vn 0.258063 0.000000 0.966128
vn 0.258063 0.000000 0.966128
vn -0.421051 0.000000 -0.907037
vn -0.421051 0.000000 -0.907037
vn -0.421051 0.000000 -0.907037
vn -0.421051 0.000000 -0.907037
vn -0.939102 0.000000 -0.343638
vn -0.939102 0.000000 -0.343638
vn -0.939102 0.000000 -0.343638
vn -0.939102 0.000000 -0.343638
vn 0.907036 0.000000 -0.421052
vn 0.907036 0.000000 -0.421052
vn 0.907036 0.000000 -0.421052
vn 0.907036 0.000000 -0.421052
vn 0.343643 0.000000 -0.939100
vn 0.343643 0.000000 -0.939100
vn 0.343643 0.000000 -0.939100
vn 0.343643 0.000000 -0.939100
vn -0.907036 0.000000 0.421053
vn -0.907036 0.000000 0.421053
vn -0.907036 0.000000 0.421053
vn -0.907036 0.000000 0.421053
vn -0.343644 0.000000 0.939100
vn -0.343644 0.000000 0.939100
vn -0.343644 0.000000 0.939100
vn -0.343644 0.000000 0.939100
vn 0.939103 0.000000 0.343636
vn 0.939103 0.000000 0.343636
vn 0.939103 0.000000 0.343636
vn 0.939103 0.000000 0.343636
vn 0.421050 0.000000 0.907037
vn 0.421050 0.000000 0.907037
vn 0.421050 0.000000 0.907037
vn 0.421050 0.000000 0.907037
vn 0.000000 -1.000000 -0.000000
vn 0.000000 -1.000000 0.000000
vn 0.000000 -1.000000 0.000000
vn 0.000000 -1.000000 0.000000
s 1
g pCube1
usemtl initialShadingGroup
f 78/1/1 4/2/2 3/3/3 77/4/4
s 2
f 56/437/5 1/438/6 2/439/7 55/440/8
s 3
f 52/173/9 76/174/10 77/175/11 3/176/12
s 4
f 51/457/13 52/458/14 3/459/15 4/460/16
s 5
f 115/215/17 116/216/18 117/217/19 118/218/20
s 3
f 10/180/21 53/179/22 54/184/23 14/185/24
s 1
f 15/10/25 11/7/26 10/8/27 14/11/28
s 6
f 43/224/29 44/225/30 11/226/31 15/227/32
s 3
f 14/185/24 54/184/23 65/190/33 66/191/34
s 1
f 67/12/35 15/10/25 14/11/28 66/13/36
s 7
f 124/250/37 125/251/38 126/252/39 127/253/40
s 8
f 74/19/41 8/20/42 17/21/43 73/22/44
s 4
f 51/457/13 4/460/16 19/463/45 50/464/46
s 1
f 4/2/2 78/1/1 79/5/47 19/6/48
s 9
f 11/477/49 44/478/50 45/479/51 20/480/52
s 10
f 63/25/53 16/26/54 21/27/55 62/28/56
s 11
f 43/483/57 15/484/58 23/485/59 42/486/60
s 1
f 15/10/25 67/12/35 68/14/61 23/15/62
s 2
f 1/438/6 56/437/5 57/441/63 24/442/64
s 12
f 73/259/65 17/260/66 25/261/67 72/262/68
f 50/263/69 19/269/70 27/270/71 49/264/72
f 19/269/70 79/275/73 80/276/74 27/270/71
f 20/279/75 45/274/76 46/273/77 28/280/78
s 15
f 62/283/79 21/284/80 29/285/81 61/286/82
f 42/287/83 23/293/84 31/294/85 41/288/86
f 23/293/84 68/299/87 69/300/88 31/294/85
f 24/303/89 57/298/90 58/297/91 32/304/92
s 18
f 82/265/93 72/262/94 25/261/95 33/266/96
f 49/264/97 27/270/98 35/277/99 48/271/100
f 27/270/98 80/276/101 81/281/102 35/277/99
f 28/280/103 46/273/104 47/278/105 36/282/106
s 21
f 71/289/107 61/286/108 29/285/109 37/290/110
f 60/295/111 41/288/112 31/294/113 39/301/114
f 31/294/113 69/300/115 70/305/116 39/301/114
f 32/304/117 58/297/118 59/302/119 40/306/120
s 15
f 21/284/80 42/287/83 41/288/86 29/285/81
s 11
f 16/487/121 43/483/57 42/486/60 21/488/122
s 6
f 16/228/123 12/229/124 44/225/30 43/224/29
s 9
f 45/479/51 44/478/50 12/481/125 18/482/126
s 12
f 46/273/77 45/274/76 18/267/127 26/268/128
s 18
f 47/278/105 46/273/104 26/268/129 34/272/130
s 5
f 120/219/131 119/220/132 116/216/18 115/215/17
s 18
f 25/261/95 49/264/97 48/271/100 33/266/96
s 12
f 17/260/66 50/263/69 49/264/72 25/261/67
s 4
f 8/461/133 51/457/13 50/464/46 17/467/134
f 8/461/133 7/462/135 52/458/14 51/457/13
s 3
f 7/177/136 75/178/137 76/174/10 52/173/9
f 54/184/23 53/179/22 9/183/138 13/189/139
f 65/190/33 54/184/23 13/189/139 64/196/140
s 2
f 5/443/141 56/437/5 55/440/8 6/444/142
f 57/441/63 56/437/5 5/443/141 22/445/143
s 15
f 58/297/91 57/298/90 22/291/144 30/292/145
s 21
f 59/302/119 58/297/118 30/292/146 38/296/147
s 7
f 129/254/148 128/255/149 125/251/38 124/250/37
s 21
f 29/285/109 41/288/112 60/295/111 37/290/110
s 15
f 22/291/144 62/283/79 61/286/82 30/292/145
s 10
f 5/29/150 63/25/53 62/28/56 22/30/151
s 3
f 55/197/152 65/190/33 64/196/140 6/204/153
f 66/191/34 65/190/33 55/197/152 2/198/154
s 1
f 1/16/155 67/12/35 66/13/36 2/17/156
f 68/14/61 67/12/35 1/16/155 24/18/157
s 15
f 69/300/88 68/299/87 24/303/89 32/304/92
s 21
f 70/305/116 69/300/115 32/304/117 40/306/120
s 7
f 130/256/158 124/250/37 127/253/40 131/257/159
f 132/258/160 129/254/148 124/250/37 130/256/158
s 21
f 30/292/146 61/286/108 71/289/107 38/296/147
s 12
f 18/267/127 73/259/65 72/262/68 26/268/128
s 8
f 12/23/161 74/19/41 73/22/44 18/24/162
s 3
f 76/174/10 75/178/137 9/183/138 53/179/22
f 77/175/11 76/174/10 53/179/22 10/180/21
s 1
f 11/7/26 78/1/1 77/4/4 10/8/27
f 79/5/47 78/1/1 11/7/26 20/9/163
s 12
f 80/276/74 79/275/73 20/279/75 28/280/78
s 18
f 81/281/102 80/276/101 28/280/103 36/282/106
s 5
f 121/221/164 115/215/17 118/218/20 122/222/165
f 123/223/166 120/219/131 115/215/17 121/221/164
s 18
f 26/268/129 72/262/94 82/265/93 34/272/130
s off
f 48/489/167 35/490/168 84/491/169 83/492/170
f 35/45/171 81/39/172 85/42/173 84/46/174
f 82/31/175 33/32/176 86/33/177 87/34/178
f 33/32/179 48/35/180 83/36/181 86/33/182
f 81/39/183 36/40/184 89/41/185 85/42/186
f 36/40/187 47/43/188 88/44/189 89/41/190
f 34/37/191 82/31/192 87/34/193 90/38/194
f 47/493/195 34/494/196 90/495/197 88/496/198
f 60/497/199 39/498/200 92/499/201 91/500/202
f 39/47/203 70/48/204 93/49/205 92/50/206
f 71/53/207 37/54/208 94/55/209 95/56/210
f 37/501/211 60/497/212 91/500/213 94/502/214
f 70/48/215 40/51/216 97/52/217 93/49/218
f 40/503/219 59/504/220 96/505/221 97/506/222
f 38/57/223 71/53/224 95/56/225 98/58/226
f 59/504/227 38/507/228 98/508/229 96/505/230
s 23
f 83/307/231 84/308/232 100/309/233 99/310/234
f 84/308/232 85/311/235 101/312/236 100/309/233
f 87/317/237 86/313/238 102/314/239 103/318/240
f 86/313/238 83/307/231 99/310/234 102/314/239
f 85/311/235 89/315/241 105/316/242 101/312/236
f 89/315/241 88/319/243 104/320/244 105/316/242
f 90/321/245 87/317/237 103/318/240 106/322/246
f 88/319/243 90/321/245 106/322/246 104/320/244
s 24
f 91/323/247 92/324/248 108/325/249 107/326/250
f 92/324/248 93/327/251 109/328/252 108/325/249
f 95/333/253 94/329/254 110/330/255 111/334/256
f 94/329/254 91/323/247 107/326/250 110/330/255
f 93/327/251 97/331/257 113/332/258 109/328/252
f 97/331/257 96/335/259 112/336/260 113/332/258
f 98/337/261 95/333/253 111/334/256 114/338/262
f 96/335/259 98/337/261 114/338/262 112/336/260
s off
f 99/509/263 100/510/264 117/511/265 116/512/266
f 100/73/267 101/67/268 118/70/269 117/74/270
f 103/59/271 102/60/272 119/61/273 120/62/274
f 102/60/275 99/63/276 116/64/277 119/61/278
f 101/67/279 105/68/280 122/69/281 118/70/282
f 105/68/283 104/71/284 121/72/285 122/69/286
f 106/65/287 103/59/288 120/62/289 123/66/290
f 104/513/291 106/514/292 123/515/293 121/516/294
f 107/517/295 108/518/296 126/519/297 125/520/298
f 108/75/299 109/76/300 127/77/301 126/78/302
f 111/81/303 110/82/304 128/83/305 129/84/306
f 110/521/307 107/517/308 125/520/309 128/522/310
f 109/76/311 113/79/312 131/80/313 127/77/314
f 113/523/315 112/524/316 130/525/317 131/526/318
f 114/85/319 111/81/320 129/84/321 132/86/322
f 112/524/323 114/527/324 132/528/325 130/525/326
s 2
f 134/446/327 133/447/328 5/443/141 6/444/142
s 3
f 135/181/329 144/182/330 75/178/137 7/177/136
s 4
f 136/465/331 135/466/332 7/462/135 8/461/133
s 6
f 143/234/333 136/242/334 8/243/335 74/235/336
s 3
f 137/188/337 139/195/338 13/189/139 9/183/138
s 6
f 140/230/339 138/231/340 12/229/124 16/228/123
s 3
f 139/195/338 142/203/341 64/196/140 13/189/139
s 6
f 141/236/342 140/230/339 16/228/123 63/237/343
f 133/244/344 141/236/342 63/237/343 5/245/345
s 3
f 142/203/341 134/208/346 6/204/153 64/196/140
s 6
f 138/231/340 143/234/333 74/235/336 12/229/124
s 3
f 144/182/330 137/188/337 9/183/138 75/178/137
s 26
f 222/87/347 221/88/348 147/89/349 148/90/350
s 2
f 200/451/351 199/450/352 146/452/353 145/453/354
s 3
f 196/192/355 147/199/356 221/200/357 220/193/358
s 4
f 195/470/359 148/474/360 147/475/361 196/471/362
s 30
f 259/339/363 262/340/364 261/341/365 260/342/366
s 3
f 154/205/367 158/209/368 198/206/369 197/201/370
s 26
f 159/95/371 158/96/372 154/92/373 155/91/374
s 6
f 187/239/375 159/247/376 155/248/377 188/240/378
s 3
f 158/209/368 210/212/379 209/210/380 198/206/369
s 26
f 211/98/381 210/99/382 158/96/372 159/95/371
s 34
f 268/348/383 271/349/384 270/350/385 269/351/386
s 35
f 218/105/387 217/106/388 161/107/389 152/108/390
s 4
f 195/470/359 194/473/391 163/476/392 148/474/360
s 26
f 148/90/350 163/93/393 223/94/394 222/87/347
s 36
f 155/529/395 164/530/396 189/531/397 188/532/398
s 37
f 207/111/399 206/112/400 165/113/401 160/114/402
s 38
f 187/535/403 186/536/404 167/537/405 159/538/406
s 26
f 159/95/371 167/102/407 212/103/408 211/98/381
s 2
f 145/453/354 168/456/409 201/454/410 200/451/351
s 39
f 217/357/411 216/358/412 169/359/413 161/360/414
f 194/366/415 193/365/416 171/371/417 163/372/418
f 163/372/418 171/371/417 224/377/419 223/378/420
f 164/374/421 172/375/422 190/367/423 189/368/424
s 40
f 206/381/425 205/382/426 173/383/427 165/384/428
f 186/390/429 185/389/430 175/395/431 167/396/432
f 167/396/432 175/395/431 213/401/433 212/402/434
f 168/398/435 176/399/436 202/391/437 201/392/438
s 41
f 226/363/439 177/364/440 169/359/441 216/358/442
f 193/365/443 192/370/444 179/376/445 171/371/446
f 171/371/446 179/376/445 225/380/447 224/377/448
f 172/375/449 180/379/450 191/373/451 190/367/452
s 42
f 215/387/453 181/388/454 173/383/455 205/382/456
f 204/394/457 183/400/458 175/395/459 185/389/460
f 175/395/459 183/400/458 214/404/461 213/401/462
f 176/399/463 184/403/464 203/397/465 202/391/466
s 40
f 165/384/428 173/383/427 185/389/430 186/390/429
s 38
f 160/539/467 165/540/468 186/536/404 187/535/403
s 6
f 160/232/469 187/239/375 188/240/378 156/233/470
s 36
f 189/531/397 162/533/471 156/534/472 188/532/398
s 39
f 190/367/423 170/362/473 162/361/474 189/368/424
s 41
f 191/373/451 178/369/475 170/362/476 190/367/452
s 30
f 264/345/477 259/339/363 260/342/366 263/346/478
s 41
f 169/359/441 177/364/440 192/370/444 193/365/443
s 39
f 161/360/414 169/359/413 193/365/416 194/366/415
s 4
f 152/468/479 161/472/480 194/473/391 195/470/359
f 152/468/479 195/470/359 196/471/362 151/469/481
s 3
f 151/186/482 196/192/355 220/193/358 219/187/483
f 198/206/369 157/202/484 153/194/485 197/201/370
f 209/210/380 208/207/486 157/202/484 198/206/369
s 2
f 149/449/487 150/448/488 199/450/352 200/451/351
f 201/454/410 166/455/489 149/449/487 200/451/351
s 40
f 202/391/437 174/386/490 166/385/491 201/392/438
s 42
f 203/397/465 182/393/492 174/386/493 202/391/466
s 34
f 273/354/494 268/348/383 269/351/386 272/355/495
s 42
f 173/383/455 181/388/454 204/394/457 185/389/460
s 40
f 166/385/491 174/386/490 205/382/426 206/381/425
s 37
f 149/115/496 166/116/497 206/112/400 207/111/399
s 3
f 199/213/498 150/211/499 208/207/486 209/210/380
f 210/212/379 146/214/500 199/213/498 209/210/380
s 26
f 145/100/501 146/101/502 210/99/382 211/98/381
f 212/103/408 168/104/503 145/100/501 211/98/381
s 40
f 213/401/433 176/399/436 168/398/435 212/402/434
s 42
f 214/404/461 184/403/464 176/399/463 213/401/462
s 34
f 274/352/504 275/353/505 271/349/384 268/348/383
f 276/356/506 274/352/504 268/348/383 273/354/494
s 42
f 174/386/493 182/393/492 215/387/453 205/382/456
s 39
f 162/361/474 170/362/473 216/358/412 217/357/411
s 35
f 156/109/507 162/110/508 217/106/388 218/105/387
s 3
f 220/193/358 197/201/370 153/194/485 219/187/483
f 221/200/357 154/205/367 197/201/370 220/193/358
s 26
f 155/91/374 154/92/373 221/88/348 222/87/347
f 223/94/394 164/97/509 155/91/374 222/87/347
s 39
f 224/377/419 172/375/422 164/374/421 223/378/420
s 41
f 225/380/447 180/379/450 172/375/449 224/377/448
s 30
f 265/343/510 266/344/511 262/340/364 259/339/363
f 267/347/512 265/343/510 259/339/363 264/345/477
s 41
f 170/362/476 178/369/475 226/363/439 216/358/442
s off
f 192/541/513 227/542/514 228/543/515 179/544/516
f 179/129/517 228/130/518 229/126/519 225/125/520
f 226/117/521 231/118/522 230/119/523 177/120/524
f 177/120/525 230/119/526 227/123/527 192/124/528
f 225/125/529 229/126/530 233/127/531 180/128/532
f 180/128/533 233/127/534 232/131/535 191/132/536
f 178/121/537 234/122/538 231/118/539 226/117/540
f 191/545/541 232/546/542 234/547/543 178/548/544
f 204/549/545 235/550/546 236/551/547 183/552/548
f 183/133/549 236/134/550 237/135/551 214/136/552
f 215/139/553 239/140/554 238/141/555 181/142/556
f 181/553/557 238/554/558 235/550/559 204/549/560
f 214/136/561 237/135/562 241/137/563 184/138/564
f 184/555/565 241/556/566 240/557/567 203/558/568
f 182/143/569 242/144/570 239/140/571 215/139/572
f 203/558/573 240/557/574 242/559/575 182/560/576
s 44
f 227/405/577 243/406/578 244/407/579 228/408/580
f 228/408/580 244/407/579 245/411/581 229/412/582
f 231/413/583 247/414/584 246/410/585 230/409/586
f 230/409/586 246/410/585 243/406/578 227/405/577
f 229/412/582 245/411/581 249/415/587 233/416/588
f 233/416/588 249/415/587 248/419/589 232/420/590
f 234/417/591 250/418/592 247/414/584 231/413/583
f 232/420/590 248/419/589 250/418/592 234/417/591
s 46
f 235/421/593 251/422/594 252/423/595 236/424/596
f 236/424/596 252/423/595 253/427/597 237/428/598
f 239/429/599 255/430/600 254/426/601 238/425/602
f 238/425/602 254/426/601 251/422/594 235/421/593
f 237/428/598 253/427/597 257/431/603 241/432/604
f 241/432/604 257/431/603 256/435/605 240/436/606
f 242/433/607 258/434/608 255/430/600 239/429/599
f 240/436/606 256/435/605 258/434/608 242/433/607
s off
f 243/561/609 260/562/610 261/563/611 244/564/612
f 244/157/613 261/158/614 262/154/615 245/153/616
f 247/145/617 264/146/618 263/147/619 246/148/620
f 246/148/621 263/147/622 260/151/623 243/152/624
f 245/153/625 262/154/626 266/155/627 249/156/628
f 249/156/629 266/155/630 265/159/631 248/160/632
f 250/149/633 267/150/634 264/146/635 247/145/636
f 248/565/637 265/566/638 267/567/639 250/568/640
f 251/569/641 269/570/642 270/571/643 252/572/644
f 252/161/645 270/162/646 271/163/647 253/164/648
f 255/167/649 273/168/650 272/169/651 254/170/652
f 254/573/653 272/574/654 269/570/655 251/569/656
f 253/164/657 271/163/658 275/165/659 257/166/660
f 257/575/661 275/576/662 274/577/663 256/578/664
f 258/171/665 276/172/666 273/168/667 255/167/668
f 256/578/669 274/577/670 276/579/671 258/580/672
s 2
f 134/446/327 150/448/488 149/449/487 133/447/328
s 3
f 135/181/329 151/186/482 219/187/483 144/182/330
s 4
f 136/465/331 152/468/479 151/469/481 135/466/332
s 6
f 143/234/333 218/241/673 152/249/674 136/242/334
s 3
f 137/188/337 153/194/485 157/202/484 139/195/338
s 6
f 140/230/339 160/232/469 156/233/470 138/231/340
s 3
f 139/195/338 157/202/484 208/207/486 142/203/341
s 6
f 141/236/342 207/238/675 160/232/469 140/230/339
f 133/244/344 149/246/676 207/238/675 141/236/342
s 3
f 142/203/341 208/207/486 150/211/499 134/208/346
s 6
f 138/231/340 156/233/470 218/241/673 143/234/333
s 3
f 144/182/330 219/187/483 153/194/485 137/188/337
