# This file uses centimeters as units for non-parametric coordinates.

mtllib LampeTorche.mtl
g default
v 0.951057 0.227031 -0.309017
v 0.809018 0.227031 -0.587786
v 0.587786 0.227031 -0.809017
v 0.309017 0.227031 -0.951057
v 0.000000 0.227031 -1.000000
v -0.309017 0.227031 -0.951057
v -0.587785 0.227031 -0.809017
v -0.809017 0.227031 -0.587785
v -0.951057 0.227031 -0.309017
v -1.000000 0.227031 0.000000
v -0.951057 0.227031 0.309017
v -0.809017 0.227031 0.587785
v -0.587785 0.227031 0.809017
v -0.309017 0.227031 0.951057
v -0.000000 0.227031 1.000000
v 0.309017 0.227031 0.951057
v 0.587785 0.227031 0.809017
v 0.809017 0.227031 0.587785
v 0.951057 0.227031 0.309017
v 1.000000 0.227031 0.000000
v 0.951057 2.227031 -0.309017
v 0.809018 2.227031 -0.587786
v 0.587786 2.227031 -0.809017
v 0.309017 2.227031 -0.951057
v 0.000000 2.227031 -1.000000
v -0.309017 2.227031 -0.951057
v -0.587785 2.227031 -0.809017
v -0.809017 2.227031 -0.587785
v -0.951057 2.227031 -0.309017
v -1.000000 2.227031 0.000000
v -0.951057 2.227031 0.309017
v -0.809017 2.227031 0.587785
v -0.587785 2.227031 0.809017
v -0.309017 2.227031 0.951057
v -0.000000 2.227031 1.000000
v 0.309017 2.227031 0.951057
v 0.587785 2.227031 0.809017
v 0.809017 2.227031 0.587785
v 0.951057 2.227031 0.309017
v 1.000000 2.227031 0.000000
v 0.951057 6.969048 -0.309017
v 0.809018 6.969048 -0.587786
v 0.587786 6.969048 -0.809017
v 0.309017 6.969048 -0.951057
v 0.000000 6.969049 -1.000000
v -0.309017 6.969048 -0.951057
v -0.587785 6.969048 -0.809017
v -0.809017 6.969048 -0.587785
v -0.951057 6.969048 -0.309017
v -1.000000 6.969048 0.000000
v -0.951057 6.969048 0.309017
v -0.809017 6.969048 0.587785
v -0.587785 6.969048 0.809017
v -0.309017 6.969048 0.951057
v -0.000000 6.969048 1.000000
v 0.309017 6.969048 0.951057
v 0.587785 6.969048 0.809017
v 0.809017 6.969048 0.587785
v 0.951057 6.969048 0.309017
v 0.951057 7.426813 -0.309015
v 0.809018 7.426813 -0.587783
v 0.587786 7.426813 -0.809017
v 0.309018 7.426813 -0.951057
v 0.000000 7.426814 -1.000000
v -0.309018 7.426813 -0.951057
v -0.587785 7.426813 -0.809017
v -0.809017 7.426813 -0.587785
v -0.951057 7.426813 -0.309017
v -1.000000 7.426813 -0.000000
v -0.951057 7.426813 0.309017
v -0.809017 7.426813 0.587785
v -0.587785 7.426813 0.809017
v -0.309017 7.426813 0.951057
v -0.000000 7.426813 1.000000
v 0.309017 7.426813 0.951057
v 0.587785 7.426813 0.809017
v 0.809017 7.426813 0.587785
v 0.951057 7.426813 0.309017
v 1.000000 7.426813 -0.000000
v 1.143640 8.687624 -0.371589
v 0.972838 8.687624 -0.706805
v 0.706809 8.687624 -0.972837
v 0.371593 8.687624 -1.143639
v -0.000000 8.687624 -1.202493
v -0.371593 8.687624 -1.143640
v -0.706808 8.687624 -0.972838
v -0.972838 8.687624 -0.706808
v -1.143639 8.687624 -0.371591
v -1.202493 8.687624 -0.000000
v -1.143639 8.687624 0.371591
v -0.972837 8.687624 0.706808
v -0.706808 8.687624 0.972837
v -0.371591 8.687624 1.143639
v -0.000000 8.687624 1.202493
v 0.371591 8.687624 1.143639
v 0.706808 8.687624 0.972837
v 0.972837 8.687624 0.706808
v 1.143639 8.687624 0.371591
v 1.202493 8.687624 0.000000
v 1.047348 10.594355 -0.340302
v 0.890928 10.594356 -0.647295
v 0.647297 10.594357 -0.890927
v 0.340306 10.594355 -1.047348
v -0.000000 10.594355 -1.101247
v -0.340306 10.594355 -1.047349
v -0.647297 10.594355 -0.890926
v -0.890928 10.594356 -0.647298
v -1.047348 10.594357 -0.340308
v -1.101247 10.594357 -0.000000
v -1.047348 10.594355 0.340308
v -0.890928 10.594356 0.647300
v -0.647297 10.594357 0.890927
v -0.340304 10.594357 1.047349
v -0.000000 10.594357 1.101248
v 0.340304 10.594356 1.047349
v 0.647296 10.594357 0.890928
v 0.890927 10.594357 0.647296
v 1.047348 10.594357 0.340308
v 1.101246 10.594355 0.000004
v -0.000000 9.960630 0.000001
v 1.233677 10.545114 -0.400844
v 1.200428 10.616760 -0.390040
v 1.124393 10.626270 -0.365335
v 1.049428 10.545115 -0.762451
v 1.021145 10.616761 -0.741902
v 0.956466 10.626271 -0.694910
v 0.762455 10.545115 -1.049428
v 0.741906 10.616762 -1.021144
v 0.694914 10.626272 -0.956465
v 0.400848 10.545114 -1.233677
v 0.390045 10.616760 -1.200427
v 0.365339 10.626270 -1.124393
v 0.000000 10.545114 -1.297165
v 0.000000 10.616760 -1.262204
v -0.000000 10.626270 -1.182257
v -0.400848 10.545114 -1.233678
v -0.390044 10.616760 -1.200428
v -0.365339 10.626270 -1.124394
v -0.762454 10.545114 -1.049427
v -0.741905 10.616760 -1.021143
v -0.694913 10.626270 -0.956464
v -1.049428 10.545115 -0.762456
v -1.021145 10.616761 -0.741906
v -0.956466 10.626271 -0.694914
v -1.233676 10.545115 -0.400850
v -1.200427 10.616762 -0.390046
v -1.124393 10.626272 -0.365341
v -1.297164 10.545115 -0.000000
v -1.262204 10.616762 -0.000000
v -1.182256 10.626272 -0.000000
v -1.233676 10.545114 0.400850
v -1.200427 10.616760 0.390046
v -1.124393 10.626270 0.365341
v -1.049428 10.545115 0.762458
v -1.021144 10.616761 0.741909
v -0.956465 10.626271 0.694917
v -0.762454 10.545115 1.049428
v -0.741905 10.616762 1.021144
v -0.694913 10.626272 0.956465
v -0.400846 10.545115 1.233677
v -0.390042 10.616762 1.200428
v -0.365337 10.626272 1.124394
v -0.000000 10.545115 1.297165
v -0.000000 10.616762 1.262204
v -0.000000 10.626272 1.182257
v 0.400846 10.545115 1.233677
v 0.390042 10.616761 1.200428
v 0.365337 10.626271 1.124393
v 0.762454 10.545115 1.049429
v 0.741905 10.616762 1.021145
v 0.694913 10.626272 0.956466
v 1.049428 10.545115 0.762454
v 1.021144 10.616762 0.741905
v 0.956465 10.626272 0.694913
v 1.233676 10.545115 0.400850
v 1.200427 10.616762 0.390046
v 1.124392 10.626272 0.365341
v 1.297164 10.545114 0.000004
v 1.262203 10.616760 0.000004
v 1.182256 10.626270 0.000004
v 1.000000 6.563088 0.000000
v 0.951057 6.563088 0.309017
v 0.809017 6.563088 0.587785
v 0.587785 6.563088 0.809017
v 0.309017 6.563088 0.951057
v -0.000000 6.563088 1.000000
v -0.309017 6.563088 0.951057
v -0.587785 6.563088 0.809017
v -0.809017 6.563088 0.587785
v -0.951057 6.563088 0.309017
v -1.000000 6.563088 0.000000
v -0.951057 6.563088 -0.309017
v -0.809017 6.563088 -0.587785
v -0.587785 6.563088 -0.809017
v -0.309017 6.563088 -0.951057
v 0.000000 6.563089 -1.000000
v 0.309017 6.563088 -0.951057
v 0.587786 6.563088 -0.809017
v 0.809018 6.563088 -0.587786
v 0.951057 6.563088 -0.309017
v 1.000000 7.327808 -0.000000
v 0.951056 7.327808 0.309017
v 0.809017 7.327808 0.587785
v 0.587785 7.327808 0.809017
v 0.309017 7.327808 0.951057
v -0.000000 7.327808 1.000000
v -0.309017 7.327808 0.951057
v -0.587785 7.327808 0.809017
v -0.809017 7.327808 0.587785
v -0.951057 7.327808 0.309017
v -1.000000 7.327808 -0.000000
v -0.951057 7.327808 -0.309017
v -0.809017 7.327808 -0.587785
v -0.587785 7.327808 -0.809017
v -0.309018 7.327808 -0.951057
v 0.000000 7.327808 -1.000000
v 0.309018 7.327808 -0.951057
v 0.587786 7.327808 -0.809017
v 0.809018 7.327808 -0.587784
v 0.951057 7.327808 -0.309015
v 0.984093 6.968714 0.192134
v 0.984094 6.954041 -0.192134
v 0.984093 7.153511 -0.007337
v 0.984093 6.769244 0.007337
v 0.984094 7.092049 -0.141047
v 0.984093 6.830707 0.141047
v 0.984094 6.825050 -0.130671
v 0.984093 7.102425 0.130671
v 1.093516 6.961378 0.000000
v 1.049752 6.769244 0.007337
v 1.093516 6.816580 0.005529
v 1.093516 6.855081 -0.098478
v 1.049752 6.825050 -0.130671
v 1.049751 6.830707 0.141047
v 1.093516 6.862900 0.106297
v 1.049751 7.102425 0.130671
v 1.093516 7.067675 0.098478
v 1.093516 6.966907 0.144798
v 1.049751 6.968714 0.192134
v 1.093516 6.955849 -0.144797
v 1.049752 6.954761 -0.192134
v 1.093516 7.059855 -0.106297
v 1.049752 7.092769 -0.141047
v 1.093516 7.106175 -0.005529
v 1.049752 7.153511 -0.007337
v 0.662184 -0.045850 -0.215157
v 0.563287 -0.045850 -0.409252
v 0.000000 -0.045850 0.000000
v 0.409252 -0.045850 -0.563287
v 0.215157 -0.045850 -0.662184
v 0.000000 -0.045850 -0.696261
v -0.215156 -0.045850 -0.662184
v -0.409252 -0.045850 -0.563287
v -0.563287 -0.045850 -0.409252
v -0.662183 -0.045850 -0.215156
v -0.696261 -0.045850 0.000000
v -0.662183 -0.045850 0.215156
v -0.563287 -0.045850 0.409252
v -0.409252 -0.045850 0.563287
v -0.215156 -0.045850 0.662183
v -0.000000 -0.045850 0.696261
v 0.215156 -0.045850 0.662183
v 0.409252 -0.045850 0.563287
v 0.563287 -0.045850 0.409252
v 0.662183 -0.045850 0.215156
v 0.696261 -0.045850 -0.000000
v 1.047348 10.404192 -0.340303
v 0.620235 9.960629 -0.201528
v 0.527602 9.960629 -0.383328
v 0.890927 10.404193 -0.647296
v 0.383328 9.960630 -0.527604
v 0.647298 10.404194 -0.890927
v 0.201530 9.960629 -0.620235
v 0.340307 10.404192 -1.047348
v -0.000002 9.960629 -0.652154
v -0.000000 10.404192 -1.101247
v -0.201526 9.960629 -0.620237
v -0.340306 10.404192 -1.047349
v -0.383327 9.960629 -0.527602
v -0.647297 10.404192 -0.890926
v -0.527607 9.960629 -0.383324
v -0.890928 10.404193 -0.647297
v -0.620236 9.960630 -0.201529
v -1.047348 10.404194 -0.340308
v -0.652155 9.960630 -0.000004
v -1.101247 10.404194 -0.000001
v -0.620236 9.960629 0.201529
v -1.047348 10.404192 0.340307
v -0.527603 9.960629 0.383331
v -0.890927 10.404193 0.647301
v -0.383328 9.960630 0.527603
v -0.647297 10.404194 0.890927
v -0.201526 9.960630 0.620237
v -0.340304 10.404194 1.047349
v -0.000001 9.960630 0.652156
v -0.000001 10.404194 1.101248
v 0.201526 9.960629 0.620237
v 0.340304 10.404193 1.047349
v 0.383327 9.960630 0.527604
v 0.647297 10.404194 0.890928
v 0.527606 9.960630 0.383325
v 0.890928 10.404194 0.647296
v 0.620235 9.960630 0.201532
v 1.047348 10.404194 0.340309
v 0.652154 9.960629 0.000007
v 1.101246 10.404192 0.000005
vt 0.123413 0.020959
vt 0.149519 0.020959
vt 0.149519 0.183412
vt 0.123413 0.183412
vt 0.112017 0.010334
vt 0.127842 0.010334
vt 0.163823 0.020959
vt 0.163823 0.183412
vt 0.149519 0.535648
vt 0.123413 0.535648
vt 0.094176 0.020959
vt 0.094176 0.183412
vt 0.094475 0.010334
vt 0.163823 0.535648
vt 0.149519 0.568629
vt 0.123413 0.568629
vt 0.094176 0.535648
vt 0.065537 0.020959
vt 0.065537 0.183412
vt 0.076933 0.010334
vt 0.163823 0.568629
vt 0.149519 0.597776
vt 0.123413 0.597776
vt 0.107635 0.557140
vt 0.107635 0.557283
vt 0.094176 0.557140
vt 0.065537 0.535648
vt 0.039431 0.020959
vt 0.039431 0.183412
vt 0.061108 0.010334
vt 0.163823 0.597776
vt 0.149519 0.605819
vt 0.123413 0.605819
vt 0.107635 0.583458
vt 0.081316 0.557140
vt 0.039431 0.535648
vt 0.018714 0.020959
vt 0.018714 0.183412
vt 0.163823 0.605819
vt 0.149519 0.707704
vt 0.123413 0.707704
vt 0.094774 0.597776
vt 0.094774 0.605819
vt 0.094774 0.583458
vt 0.081316 0.570911
vt 0.065537 0.582257
vt 0.039431 0.582257
vt 0.018714 0.535648
vt 0.163823 0.707704
vt 0.149519 0.858358
vt 0.123413 0.858358
vt 0.094774 0.707704
vt 0.065537 0.597776
vt 0.065537 0.605819
vt 0.081316 0.583458
vt 0.039431 0.597776
vt 0.018714 0.582257
vt 0.163823 0.858358
vt 0.123413 0.864260
vt 0.149519 0.864260
vt 0.094774 0.858358
vt 0.065537 0.707704
vt 0.039431 0.605819
vt 0.018714 0.597776
vt 0.163823 0.864260
vt 0.094774 0.864260
vt 0.065537 0.858358
vt 0.039431 0.707704
vt 0.018714 0.605819
vt 0.065537 0.864260
vt 0.039431 0.858358
vt 0.018714 0.707704
vt 0.039431 0.864260
vt 0.018714 0.858358
vt 0.018714 0.864260
vt 0.276323 0.020959
vt 0.301950 0.020959
vt 0.301950 0.183412
vt 0.276323 0.183412
vt 0.292742 0.008772
vt 0.308517 0.008772
vt 0.330358 0.020959
vt 0.330358 0.183412
vt 0.301950 0.535648
vt 0.276323 0.535648
vt 0.261337 0.020959
vt 0.261337 0.183412
vt 0.326004 0.008772
vt 0.358974 0.020959
vt 0.358974 0.183412
vt 0.330358 0.535648
vt 0.301950 0.568629
vt 0.276323 0.568629
vt 0.261337 0.535648
vt 0.343491 0.008772
vt 0.384997 0.020959
vt 0.384997 0.183412
vt 0.358974 0.535648
vt 0.330358 0.568629
vt 0.301950 0.597776
vt 0.276323 0.597776
vt 0.261337 0.568629
vt 0.359266 0.008772
vt 0.399395 0.020959
vt 0.399395 0.183412
vt 0.384997 0.535648
vt 0.358974 0.568629
vt 0.330358 0.597776
vt 0.301950 0.605819
vt 0.276323 0.605819
vt 0.261337 0.597776
vt 0.399395 0.535648
vt 0.384997 0.568629
vt 0.358974 0.597776
vt 0.330358 0.605819
vt 0.301950 0.707704
vt 0.276323 0.707704
vt 0.261337 0.605819
vt 0.399395 0.568629
vt 0.384997 0.597776
vt 0.358974 0.605819
vt 0.330358 0.707704
vt 0.301950 0.858358
vt 0.276323 0.858358
vt 0.261337 0.707704
vt 0.399395 0.597776
vt 0.384997 0.605819
vt 0.358974 0.707704
vt 0.330358 0.858358
vt 0.276323 0.864260
vt 0.301950 0.864260
vt 0.261337 0.858358
vt 0.399395 0.605819
vt 0.384997 0.707704
vt 0.358974 0.858358
vt 0.330358 0.864260
vt 0.261337 0.864260
vt 0.399395 0.707704
vt 0.384997 0.858358
vt 0.358974 0.864260
vt 0.399395 0.858358
vt 0.384997 0.864260
vt 0.399395 0.864260
vt 0.236512 0.894328
vt 0.265464 0.905045
vt 0.238051 0.934635
vt 0.208461 0.907222
vt 0.236009 0.881151
vt 0.274426 0.895372
vt 0.278358 0.933097
vt 0.267641 0.962048
vt 0.210638 0.964225
vt 0.197744 0.936174
vt 0.198788 0.898261
vt 0.291535 0.932593
vt 0.277314 0.971010
vt 0.239590 0.974942
vt 0.201676 0.973898
vt 0.184567 0.936677
vt 0.240093 0.988119
vt 0.956609 0.885586
vt 0.956609 0.938966
vt 0.923544 0.938966
vt 0.923543 0.885586
vt 0.956610 0.981329
vt 0.923544 0.981329
vt 0.846416 0.861456
vt 0.846416 0.893067
vt 0.956609 0.826412
vt 0.923543 0.826412
vt 0.846416 0.918154
vt 0.846416 0.826412
vt 0.956610 0.767240
vt 0.923544 0.767240
vt 0.846416 0.791371
vt 0.956610 0.713860
vt 0.923544 0.713860
vt 0.846416 0.759760
vt 0.956610 0.671497
vt 0.923544 0.671497
vt 0.846416 0.734673
vt 0.834468 0.713860
vt 0.834468 0.767240
vt 0.801402 0.767240
vt 0.801402 0.713860
vt 0.834468 0.826413
vt 0.801402 0.826413
vt 0.724275 0.759760
vt 0.724275 0.791371
vt 0.834468 0.671497
vt 0.801402 0.671497
vt 0.834468 0.885586
vt 0.801402 0.885586
vt 0.724275 0.826412
vt 0.834468 0.938967
vt 0.801402 0.938967
vt 0.724275 0.861455
vt 0.834468 0.981329
vt 0.801402 0.981329
vt 0.724275 0.893067
vt 0.683564 0.804821
vt 0.694955 0.827178
vt 0.618680 0.851962
vt 0.698881 0.851962
vt 0.665821 0.787078
vt 0.694955 0.876745
vt 0.686386 0.758773
vt 0.711869 0.784256
vt 0.643463 0.775687
vt 0.683564 0.899103
vt 0.654275 0.742412
vt 0.618680 0.771761
vt 0.665821 0.916846
vt 0.618680 0.736774
vt 0.593897 0.775687
vt 0.711869 0.919667
vt 0.686386 0.945151
vt 0.643463 0.928237
vt 0.583085 0.742412
vt 0.571539 0.787078
vt 0.654275 0.961512
vt 0.618680 0.932162
vt 0.550974 0.758773
vt 0.589962 0.812985
vt 0.618680 0.967149
vt 0.593897 0.928237
vt 0.525491 0.784256
vt 0.589962 0.835342
vt 0.583085 0.961512
vt 0.571539 0.916846
vt 0.589962 0.860125
vt 0.550974 0.945151
vt 0.589962 0.909844
vt 0.589962 0.884909
vt 0.525491 0.919667
vt 0.716156 0.481884
vt 0.716156 0.508301
vt 0.709874 0.504188
vt 0.709874 0.481884
vt 0.721967 0.481884
vt 0.721967 0.512106
vt 0.685949 0.537824
vt 0.681885 0.531541
vt 0.716156 0.452726
vt 0.709874 0.452726
vt 0.721967 0.452726
vt 0.689708 0.543635
vt 0.659414 0.537824
vt 0.659414 0.531541
vt 0.716156 0.423526
vt 0.709874 0.423526
vt 0.721967 0.423526
vt 0.659414 0.543635
vt 0.630214 0.537824
vt 0.630214 0.531541
vt 0.716156 0.396992
vt 0.709874 0.401054
vt 0.721967 0.393233
vt 0.630214 0.543635
vt 0.601056 0.537824
vt 0.601056 0.531541
vt 0.686662 0.375970
vt 0.682483 0.381532
vt 0.690405 0.360960
vt 0.601056 0.543635
vt 0.574638 0.537824
vt 0.578752 0.531541
vt 0.660217 0.366773
vt 0.660217 0.373080
vt 0.660217 0.360960
vt 0.570834 0.543635
vt 0.545116 0.507617
vt 0.551399 0.503553
vt 0.631058 0.366773
vt 0.631058 0.373080
vt 0.631058 0.360960
vt 0.539305 0.511375
vt 0.545116 0.481082
vt 0.551399 0.481082
vt 0.601859 0.366773
vt 0.601859 0.373080
vt 0.601859 0.360960
vt 0.539305 0.481082
vt 0.545116 0.451882
vt 0.551399 0.451882
vt 0.575323 0.366773
vt 0.579387 0.373080
vt 0.571565 0.360960
vt 0.539305 0.451882
vt 0.545116 0.422723
vt 0.551399 0.422723
vt 0.545116 0.396306
vt 0.551399 0.400420
vt 0.539305 0.392501
vt 0.539305 0.422723
vt 0.966926 0.458675
vt 0.966926 0.518046
vt 0.875563 0.458675
vt 0.934935 0.550038
vt 0.966926 0.458675
vt 0.875563 0.550038
vt 0.966926 0.458675
vt 0.975819 0.612953
vt 0.875563 0.612953
vt 0.875563 0.550038
vt 0.966926 0.399304
vt 0.875563 0.612953
vt 0.875563 0.550038
vt 0.934935 0.367312
vt 0.875563 0.612953
vt 0.816192 0.550038
vt 0.875563 0.367312
vt 0.775307 0.612953
vt 0.784201 0.518046
vt 0.875563 0.304397
vt 0.975819 0.304397
vt 0.875563 0.367312
vt 0.737573 0.558931
vt 0.784201 0.458675
vt 0.875563 0.304397
vt 0.875563 0.367312
vt 0.784201 0.458675
vt 0.875563 0.304397
vt 0.816192 0.367312
vt 0.784201 0.458675
vt 0.775307 0.304397
vt 0.784201 0.399303
vt 0.737573 0.358419
vt 0.184050 0.020959
vt 0.184050 0.183412
vt 0.212525 0.020959
vt 0.212525 0.183412
vt 0.184050 0.535648
vt 0.241325 0.020959
vt 0.241325 0.183412
vt 0.212525 0.535648
vt 0.184050 0.568629
vt 0.241325 0.535648
vt 0.212525 0.568629
vt 0.184050 0.597776
vt 0.241325 0.568629
vt 0.212525 0.597776
vt 0.184050 0.605819
vt 0.241325 0.597776
vt 0.212525 0.605819
vt 0.184050 0.707704
vt 0.241325 0.605819
vt 0.212525 0.707704
vt 0.184050 0.858358
vt 0.241325 0.707704
vt 0.212525 0.858358
vt 0.184050 0.864260
vt 0.241325 0.858358
vt 0.212525 0.864260
vt 0.241325 0.864260
vt 0.419585 0.020959
vt 0.419585 0.183412
vt 0.447881 0.020959
vt 0.447881 0.183412
vt 0.419585 0.535648
vt 0.476266 0.020959
vt 0.476266 0.183412
vt 0.447881 0.535648
vt 0.419585 0.568629
vt 0.502187 0.020959
vt 0.502187 0.183412
vt 0.476266 0.535648
vt 0.447881 0.568629
vt 0.419585 0.597776
vt 0.502187 0.535648
vt 0.476266 0.568629
vt 0.447881 0.597776
vt 0.419585 0.605819
vt 0.502187 0.568629
vt 0.476266 0.597776
vt 0.447881 0.605819
vt 0.419585 0.707704
vt 0.502187 0.597776
vt 0.476266 0.605819
vt 0.447881 0.707704
vt 0.419585 0.858358
vt 0.502187 0.605819
vt 0.476266 0.707704
vt 0.447881 0.858358
vt 0.419585 0.864260
vt 0.502187 0.707704
vt 0.476266 0.858358
vt 0.447881 0.864260
vt 0.502187 0.858358
vt 0.476266 0.864260
vt 0.502187 0.864260
vt 0.314092 0.898500
vt 0.359858 0.898557
vt 0.359823 0.926906
vt 0.314057 0.926849
vt 0.410591 0.898620
vt 0.410556 0.926969
vt 0.461323 0.898682
vt 0.461288 0.927032
vt 0.507089 0.898739
vt 0.507054 0.927088
vt 0.507006 0.965681
vt 0.461240 0.965625
vt 0.461275 0.937275
vt 0.507041 0.937332
vt 0.410508 0.965562
vt 0.410543 0.937213
vt 0.359776 0.965499
vt 0.359811 0.937150
vt 0.314010 0.965443
vt 0.314045 0.937093
vt 0.019966 0.920671
vt 0.019966 0.872653
vt 0.042811 0.884000
vt 0.042811 0.932018
vt 0.019966 0.967194
vt 0.042811 0.978541
vt 0.043569 0.967194
vt 0.043569 0.920671
vt 0.066414 0.932018
vt 0.066414 0.978541
vt 0.043569 0.872653
vt 0.066414 0.884000
vt 0.067151 0.967194
vt 0.067151 0.920671
vt 0.089996 0.932018
vt 0.089996 0.978540
vt 0.067151 0.872653
vt 0.089996 0.884000
vt 0.090733 0.977149
vt 0.090733 0.920922
vt 0.113578 0.932018
vt 0.113578 0.977149
vt 0.090733 0.872904
vt 0.113578 0.884000
vt 0.686606 0.366773
vt 0.682557 0.373080
vt 0.690473 0.370787
vn 0.951057 0.000000 -0.309016
vn 0.809017 0.000000 -0.587785
vn 0.809017 0.000000 -0.587785
vn 0.951057 0.000000 -0.309016
vn 0.587785 0.000000 -0.809017
vn 0.587785 0.000000 -0.809017
vn 0.309017 0.000000 -0.951057
vn 0.309017 0.000000 -0.951057
vn -0.000000 0.000000 -1.000000
vn -0.000000 0.000000 -1.000000
vn -0.309017 0.000000 -0.951056
vn -0.309017 0.000000 -0.951057
vn -0.587785 0.000000 -0.809017
vn -0.587785 0.000000 -0.809017
vn -0.809017 0.000000 -0.587785
vn -0.809017 0.000000 -0.587785
vn -0.951057 0.000000 -0.309017
vn -0.951057 0.000000 -0.309017
vn -1.000000 0.000000 0.000000
vn -1.000000 0.000000 0.000000
vn -0.951057 0.000000 0.309017
vn -0.951057 0.000000 0.309017
vn -0.809017 0.000000 0.587785
vn -0.809017 0.000000 0.587785
vn -0.587785 0.000000 0.809017
vn -0.587785 0.000000 0.809017
vn -0.309017 0.000000 0.951057
vn -0.309017 0.000000 0.951057
vn 0.000000 0.000000 1.000000
vn 0.000000 0.000000 1.000000
vn 0.309017 0.000000 0.951057
vn 0.309017 0.000000 0.951057
vn 0.587785 0.000000 0.809017
vn 0.587785 0.000000 0.809017
vn 0.809017 0.000000 0.587785
vn 0.809017 0.000000 0.587785
vn 0.951057 0.000000 0.309017
vn 0.951057 0.000000 0.309017
vn 1.000000 0.000000 0.000001
vn 1.000000 0.000000 0.000001
vn -0.000000 -1.000000 -0.000000
vn -0.000000 -1.000000 0.000000
vn -0.000000 -1.000000 0.000000
vn -0.000000 -1.000000 -0.000000
vn 0.000000 -1.000000 0.000000
vn 0.000000 -1.000000 0.000000
vn -0.000000 -1.000000 0.000000
vn 0.000000 -1.000000 0.000000
vn -0.000000 -1.000000 0.000000
vn -0.000000 -1.000000 0.000000
vn -0.000000 -1.000000 -0.000000
vn -0.000000 -1.000000 -0.000000
vn -0.000000 -1.000000 -0.000000
vn 0.000000 -1.000000 -0.000000
vn 0.000000 -1.000000 0.000000
vn -0.000000 -1.000000 0.000000
vn -0.000000 -1.000000 0.000000
vn 0.000000 -1.000000 -0.000000
vn 0.000000 -1.000000 -0.000000
vn 0.000000 -1.000000 0.000000
vn 0.000000 -1.000000 0.000000
vn 0.809017 0.000000 -0.587785
vn 0.949858 -0.000060 -0.312682
vn 0.587785 0.000000 -0.809017
vn 0.309017 0.000000 -0.951057
vn -0.000000 0.000000 -1.000000
vn -0.309017 0.000000 -0.951057
vn -0.587785 0.000000 -0.809017
vn -0.809017 0.000000 -0.587785
vn -0.951057 0.000000 -0.309017
vn -1.000000 0.000000 0.000000
vn -0.951057 0.000000 0.309017
vn -0.809017 0.000000 0.587785
vn -0.587785 0.000000 0.809017
vn -0.309017 0.000000 0.951057
vn 0.000000 0.000000 1.000000
vn 0.309017 0.000000 0.951057
vn 0.587785 0.000000 0.809017
vn 0.809017 0.000000 0.587785
vn 0.949848 -0.000092 0.312711
vn 1.000000 0.000154 -0.000062
vn 0.919904 -0.000080 -0.392142
vn 0.809017 0.000001 -0.587785
vn 0.809018 0.000002 -0.587784
vn 0.935671 0.001369 -0.352870
vn 0.587786 0.000000 -0.809017
vn 0.587787 0.000001 -0.809016
vn 0.309017 -0.000000 -0.951057
vn 0.309017 -0.000000 -0.951056
vn -0.000000 -0.000000 -1.000000
vn -0.000000 -0.000000 -1.000000
vn -0.309017 -0.000000 -0.951057
vn -0.309017 -0.000000 -0.951056
vn -0.587786 -0.000000 -0.809017
vn -0.587786 -0.000000 -0.809017
vn -0.809017 -0.000000 -0.587785
vn -0.809017 0.000000 -0.587785
vn -0.951057 -0.000000 -0.309017
vn -0.951056 -0.000000 -0.309017
vn -1.000000 -0.000000 -0.000000
vn -1.000000 0.000000 -0.000000
vn -0.951056 -0.000000 0.309017
vn -0.951056 0.000000 0.309017
vn -0.809017 -0.000000 0.587785
vn -0.809017 0.000000 0.587785
vn -0.587785 0.000000 0.809017
vn -0.587785 0.000000 0.809017
vn -0.309017 -0.000000 0.951056
vn -0.309017 -0.000000 0.951057
vn 0.000000 -0.000000 1.000000
vn -0.000000 -0.000000 1.000000
vn 0.309017 -0.000000 0.951056
vn 0.309017 -0.000000 0.951056
vn 0.587785 -0.000000 0.809017
vn 0.587785 -0.000000 0.809017
vn 0.809017 0.000000 0.587785
vn 0.809017 0.000000 0.587785
vn 0.919990 0.000544 0.391942
vn 0.935595 0.001086 0.353074
vn 0.940525 -0.148409 -0.305595
vn 0.800059 -0.148409 -0.581275
vn 0.805655 -0.091082 -0.585340
vn 0.947104 -0.091082 -0.307732
vn 0.581279 -0.148409 -0.800056
vn 0.585346 -0.091082 -0.805652
vn 0.305595 -0.148409 -0.940525
vn 0.307733 -0.091082 -0.947103
vn 0.000000 -0.148409 -0.988926
vn 0.000001 -0.091082 -0.995843
vn -0.305595 -0.148410 -0.940525
vn -0.307733 -0.091082 -0.947103
vn -0.581278 -0.148410 -0.800057
vn -0.585344 -0.091082 -0.805653
vn -0.800058 -0.148409 -0.581276
vn -0.805654 -0.091082 -0.585342
vn -0.940525 -0.148409 -0.305595
vn -0.947104 -0.091082 -0.307732
vn -0.988926 -0.148409 -0.000000
vn -0.995843 -0.091082 -0.000000
vn -0.940525 -0.148409 0.305595
vn -0.947104 -0.091082 0.307732
vn -0.800058 -0.148409 0.581276
vn -0.805654 -0.091082 0.585343
vn -0.581276 -0.148409 0.800058
vn -0.585341 -0.091082 0.805655
vn -0.305595 -0.148409 0.940524
vn -0.307733 -0.091082 0.947103
vn -0.000000 -0.148409 0.988926
vn -0.000000 -0.091082 0.995843
vn 0.305595 -0.148409 0.940524
vn 0.307733 -0.091082 0.947103
vn 0.581276 -0.148409 0.800058
vn 0.585343 -0.091082 0.805654
vn 0.800058 -0.148409 0.581276
vn 0.805654 -0.091082 0.585343
vn 0.940525 -0.148409 0.305595
vn 0.947103 -0.091082 0.307733
vn 0.988926 -0.148409 0.000001
vn 0.995843 -0.091082 0.000001
vn 0.808623 -0.031243 -0.587497
vn 0.950593 -0.031243 -0.308865
vn 0.587502 -0.031243 -0.808619
vn 0.308867 -0.031243 -0.950592
vn 0.000001 -0.031243 -0.999512
vn -0.308867 -0.031243 -0.950592
vn -0.587500 -0.031243 -0.808621
vn -0.808621 -0.031243 -0.587499
vn -0.950592 -0.031243 -0.308866
vn -0.999512 -0.031243 -0.000000
vn -0.950593 -0.031243 0.308865
vn -0.808621 -0.031244 0.587500
vn -0.587497 -0.031243 0.808623
vn -0.308867 -0.031243 0.950592
vn -0.000000 -0.031243 0.999512
vn 0.308866 -0.031243 0.950592
vn 0.587499 -0.031243 0.808622
vn 0.808622 -0.031243 0.587499
vn 0.950592 -0.031243 0.308867
vn 0.999512 -0.031243 0.000001
vn -0.100225 0.994432 0.032566
vn -0.085256 0.994432 0.061945
vn -0.296546 0.930397 0.215457
vn -0.348612 0.930397 0.113274
vn -0.061945 0.994432 0.085256
vn -0.215457 0.930398 0.296544
vn -0.032568 0.994432 0.100224
vn -0.113273 0.930399 0.348608
vn -0.000000 0.994432 0.105381
vn -0.000001 0.930397 0.366552
vn 0.032565 0.994432 0.100223
vn 0.113272 0.930399 0.348609
vn 0.061945 0.994432 0.085257
vn 0.215455 0.930398 0.296544
vn 0.085258 0.994432 0.061941
vn 0.296547 0.930397 0.215455
vn 0.100226 0.994432 0.032565
vn 0.348613 0.930397 0.113269
vn 0.105384 0.994432 0.000002
vn 0.366553 0.930397 0.000004
vn 0.100226 0.994432 -0.032564
vn 0.348612 0.930398 -0.113269
vn 0.085255 0.994432 -0.061948
vn 0.296545 0.930396 -0.215461
vn 0.061942 0.994431 -0.085260
vn 0.215453 0.930396 -0.296551
vn 0.032566 0.994432 -0.100224
vn 0.113272 0.930397 -0.348613
vn 0.000001 0.994432 -0.105381
vn 0.000001 0.930395 -0.366558
vn -0.032565 0.994432 -0.100223
vn -0.113271 0.930396 -0.348616
vn -0.061944 0.994431 -0.085258
vn -0.215456 0.930397 -0.296548
vn -0.085258 0.994431 -0.061946
vn -0.296547 0.930397 -0.215456
vn -0.100225 0.994432 -0.032569
vn -0.348612 0.930397 -0.113274
vn -0.105384 0.994432 -0.000003
vn -0.366553 0.930397 -0.000003
vn 0.854730 0.438534 -0.277712
vn 0.898715 0.438534 0.000000
vn 0.112340 0.992999 -0.036502
vn 0.118121 0.992999 -0.000003
vn 0.095564 0.992999 -0.069428
vn 0.727076 0.438533 -0.528251
vn 0.069429 0.992999 -0.095561
vn 0.528251 0.438532 -0.727077
vn 0.036499 0.992999 -0.112340
vn 0.277716 0.438531 -0.854730
vn 0.000000 0.992999 -0.118126
vn 0.000002 0.438533 -0.898715
vn -0.036502 0.992999 -0.112340
vn -0.277720 0.438534 -0.854728
vn -0.069429 0.992999 -0.095562
vn -0.528253 0.438535 -0.727073
vn -0.095560 0.992999 -0.069435
vn -0.727074 0.438534 -0.528253
vn -0.112339 0.992999 -0.036501
vn -0.854728 0.438532 -0.277723
vn -0.118121 0.992999 0.000001
vn -0.898715 0.438533 0.000001
vn -0.112340 0.992999 0.036502
vn -0.854730 0.438534 0.277712
vn -0.095563 0.992999 0.069427
vn -0.727075 0.438533 0.528253
vn -0.069430 0.992999 0.095562
vn -0.528247 0.438531 0.727080
vn -0.036501 0.992999 0.112344
vn -0.277719 0.438534 0.854728
vn 0.000001 0.992998 0.118130
vn 0.000001 0.438531 0.898716
vn 0.036501 0.992998 0.112348
vn 0.277715 0.438529 0.854732
vn 0.069429 0.992999 0.095561
vn 0.528250 0.438533 0.727078
vn 0.095562 0.992999 0.069427
vn 0.727074 0.438533 0.528253
vn 0.112340 0.992999 0.036497
vn 0.854729 0.438533 0.277718
vn 0.999996 -0.002776 0.000670
vn 0.994126 0.006475 -0.108034
vn 0.999984 0.003812 0.004102
vn 0.977896 0.021391 -0.207997
vn 0.979070 -0.003910 -0.203487
vn 0.994124 -0.007558 0.107981
vn 0.999971 -0.004376 -0.006259
vn 0.977838 -0.019576 0.208446
vn 0.978888 0.002433 0.204381
vn 0.993966 -0.001443 -0.109681
vn 0.979455 0.024974 0.200111
vn 0.993963 0.001258 0.109709
vn 0.979527 -0.022979 -0.199998
vn 0.707105 -0.642482 0.295330
vn 0.707105 -0.642482 0.295330
vn 0.707105 -0.642482 0.295330
vn 0.707105 -0.642482 0.295330
vn 0.688602 -0.675655 -0.263284
vn 0.688602 -0.675655 -0.263284
vn 0.688602 -0.675655 -0.263284
vn 0.688602 -0.675655 -0.263284
vn 0.697606 -0.303512 -0.649019
vn 0.697606 -0.303512 -0.649019
vn 0.697606 -0.303512 -0.649019
vn 0.697606 -0.303512 -0.649019
vn 0.707105 -0.245475 0.663132
vn 0.707105 -0.245475 0.663132
vn 0.707105 -0.245475 0.663132
vn 0.707105 -0.245475 0.663132
vn 0.707106 0.663132 0.245473
vn 0.707106 0.663132 0.245473
vn 0.707106 0.663132 0.245473
vn 0.707106 0.663132 0.245473
vn 0.707106 0.295330 0.642480
vn 0.707107 0.295330 0.642480
vn 0.707107 0.295330 0.642480
vn 0.707107 0.295330 0.642480
vn 0.709116 0.244773 -0.661242
vn 0.709116 0.244773 -0.661242
vn 0.709116 0.244773 -0.661242
vn 0.709116 0.244773 -0.661242
vn 0.709736 0.640828 -0.292599
vn 0.709736 0.640828 -0.292599
vn 0.709736 0.640828 -0.292599
vn 0.709736 0.640828 -0.292599
vn 1.000000 -0.000001 0.000001
vn 1.000000 -0.000000 0.000001
vn 1.000000 0.000000 0.000001
vn 1.000000 -0.000001 0.000001
vn 1.000000 0.000000 0.000001
vn 1.000000 -0.000000 0.000002
vn 1.000000 0.000001 0.000000
vn 1.000000 0.000001 0.000001
vn 1.000000 0.000001 0.000001
vn 0.000000 -0.927073 -0.374881
vn 0.000000 -0.927073 -0.374881
vn 0.000000 -0.927073 -0.374881
vn 0.000000 -0.927073 -0.374881
vn -0.000000 -0.908605 0.417657
vn -0.000000 -0.908605 0.417657
vn -0.000000 -0.908605 0.417657
vn -0.000000 -0.908605 0.417657
vn -0.000001 0.417657 0.908605
vn -0.000001 0.417657 0.908605
vn -0.000001 0.417657 0.908605
vn -0.000001 0.417657 0.908605
vn -0.000001 -0.347152 0.937809
vn -0.000001 -0.347152 0.937809
vn -0.000001 -0.347152 0.937809
vn -0.000001 -0.347152 0.937809
vn 0.002353 -0.429175 -0.903218
vn 0.002353 -0.429175 -0.903218
vn 0.002353 -0.429175 -0.903218
vn 0.002353 -0.429175 -0.903218
vn -0.003804 0.347150 -0.937802
vn -0.003804 0.347150 -0.937802
vn -0.003804 0.347150 -0.937802
vn -0.003804 0.347150 -0.937802
vn -0.004983 0.909521 -0.415628
vn -0.004983 0.909521 -0.415628
vn -0.004983 0.909521 -0.415628
vn -0.004983 0.909521 -0.415628
vn -0.000000 0.937810 0.347150
vn -0.000000 0.937810 0.347150
vn -0.000000 0.937810 0.347150
vn -0.000000 0.937810 0.347150
vn 0.540674 -0.743884 -0.392822
vn 0.635600 -0.743884 -0.206518
vn 0.635600 -0.743884 -0.206518
vn 0.540674 -0.743884 -0.392822
vn 0.392822 -0.743884 -0.540674
vn 0.392822 -0.743884 -0.540674
vn 0.206519 -0.743884 -0.635600
vn 0.206519 -0.743884 -0.635600
vn 0.000000 -0.743884 -0.668309
vn 0.000000 -0.743884 -0.668309
vn -0.206519 -0.743884 -0.635600
vn -0.206519 -0.743884 -0.635600
vn -0.392823 -0.743884 -0.540673
vn -0.392823 -0.743884 -0.540673
vn -0.540674 -0.743884 -0.392822
vn -0.540674 -0.743884 -0.392822
vn -0.635600 -0.743884 -0.206519
vn -0.635600 -0.743884 -0.206519
vn -0.668309 -0.743884 0.000000
vn -0.668309 -0.743884 0.000000
vn -0.635600 -0.743884 0.206519
vn -0.635600 -0.743884 0.206519
vn -0.540673 -0.743884 0.392822
vn -0.540673 -0.743884 0.392822
vn -0.392822 -0.743884 0.540674
vn -0.392822 -0.743884 0.540674
vn -0.206519 -0.743884 0.635600
vn -0.206519 -0.743884 0.635600
vn 0.000000 -0.743884 0.668309
vn 0.000000 -0.743884 0.668309
vn 0.206519 -0.743884 0.635600
vn 0.206519 -0.743884 0.635600
vn 0.392822 -0.743884 0.540674
vn 0.392822 -0.743884 0.540674
vn 0.540674 -0.743884 0.392822
vn 0.540674 -0.743884 0.392822
vn 0.635600 -0.743884 0.206519
vn 0.635600 -0.743884 0.206519
vn 0.668309 -0.743884 0.000001
vn 0.668309 -0.743884 0.000001
vn -0.668320 0.711474 0.217149
vn -0.668320 0.711474 0.217149
vn -0.702713 0.711474 -0.000001
vn -0.702713 0.711474 -0.000001
vn -0.568507 0.711473 0.413044
vn -0.568507 0.711473 0.413044
vn -0.413047 0.711473 0.568506
vn -0.413047 0.711473 0.568506
vn -0.217151 0.711474 0.668319
vn -0.217151 0.711474 0.668319
vn -0.000003 0.711474 0.702712
vn -0.000003 0.711474 0.702712
vn 0.217153 0.711475 0.668317
vn 0.217153 0.711475 0.668317
vn 0.413047 0.711474 0.568505
vn 0.413047 0.711474 0.568505
vn 0.568506 0.711474 0.413044
vn 0.568506 0.711474 0.413044
vn 0.668321 0.711473 0.217148
vn 0.668321 0.711473 0.217147
vn 0.702714 0.711473 0.000000
vn 0.702714 0.711473 0.000000
vn 0.668321 0.711474 -0.217147
vn 0.668321 0.711474 -0.217147
vn 0.568505 0.711474 -0.413046
vn 0.568505 0.711474 -0.413046
vn 0.413041 0.711472 -0.568510
vn 0.413042 0.711472 -0.568510
vn 0.217152 0.711473 -0.668320
vn 0.217152 0.711473 -0.668320
vn 0.000001 0.711473 -0.702714
vn 0.000001 0.711473 -0.702714
vn -0.217151 0.711473 -0.668320
vn -0.217151 0.711473 -0.668320
vn -0.413046 0.711473 -0.568506
vn -0.413046 0.711473 -0.568506
vn -0.568506 0.711472 -0.413047
vn -0.568506 0.711472 -0.413047
vn -0.668319 0.711473 -0.217153
vn -0.668319 0.711473 -0.217153
vn 0.000001 1.000000 -0.000004
vn 0.000003 1.000000 0.000000
vn -0.000000 1.000000 -0.000001
vn -0.000000 1.000000 -0.000002
vn -0.000002 1.000000 -0.000002
vn 0.000000 1.000000 -0.000002
vn -0.000000 1.000000 -0.000002
vn -0.000001 1.000000 -0.000002
vn 0.000000 1.000000 -0.000005
vn 0.000001 1.000000 -0.000000
vn -0.000000 1.000000 0.000004
vn -0.000001 1.000000 -0.000004
vn -0.000003 1.000000 0.000000
vn -0.000002 1.000000 0.000002
vn 0.000000 1.000000 -0.000002
vn 0.000002 1.000000 -0.000001
vn 0.000000 1.000000 0.000001
vn -0.000002 1.000000 -0.000002
vn 0.000000 1.000000 -0.000004
vn 0.000001 1.000000 0.000004
vn 0.000001 1.000000 0.000000
vn -0.951058 0.000001 0.309014
vn -0.809018 -0.000001 0.587783
vn -0.809018 -0.000001 0.587784
vn -0.951057 0.000001 0.309014
vn -0.587788 -0.000001 0.809015
vn -0.587788 -0.000001 0.809015
vn -0.309017 0.000001 0.951057
vn -0.309017 0.000001 0.951057
vn -0.000002 0.000001 1.000000
vn -0.000002 0.000001 1.000000
vn 0.309020 0.000001 0.951056
vn 0.309020 0.000001 0.951056
vn 0.587787 0.000002 0.809016
vn 0.587787 0.000002 0.809016
vn 0.809014 0.000001 0.587789
vn 0.809015 0.000001 0.587789
vn 0.951057 -0.000000 0.309017
vn 0.951057 -0.000000 0.309017
vn 1.000000 -0.000000 -0.000000
vn 1.000000 -0.000000 0.000000
vn 0.951057 0.000001 -0.309015
vn 0.951057 0.000001 -0.309014
vn 0.809016 0.000001 -0.587786
vn 0.809016 0.000001 -0.587786
vn 0.587783 0.000000 -0.809019
vn 0.587783 0.000000 -0.809019
vn 0.309019 -0.000000 -0.951056
vn 0.309019 -0.000000 -0.951056
vn -0.000000 -0.000000 -1.000000
vn -0.000000 -0.000000 -1.000000
vn -0.309017 0.000000 -0.951056
vn -0.309017 0.000000 -0.951056
vn -0.587787 0.000000 -0.809016
vn -0.587787 0.000000 -0.809016
vn -0.809015 -0.000001 -0.587788
vn -0.809015 -0.000001 -0.587788
vn -0.951056 -0.000001 -0.309018
vn -0.951056 -0.000001 -0.309019
vn -1.000000 0.000001 -0.000000
vn -1.000000 0.000001 -0.000001
s 1
g pCylinder2
usemtl initialShadingGroup
f 1/1/1 2/2/2 22/3/3 21/4/4
f 2/2/2 3/7/5 23/8/6 22/3/3
f 3/7/5 4/329/7 24/330/8 23/8/6
f 4/329/7 5/331/9 25/332/10 24/330/8
f 5/331/9 6/334/11 26/335/12 25/332/10
f 6/334/11 7/86/13 27/87/14 26/335/12
f 7/86/13 8/76/15 28/79/16 27/87/14
f 8/76/15 9/77/17 29/78/18 28/79/16
f 9/77/17 10/82/19 30/83/20 29/78/18
f 10/82/19 11/89/21 31/90/22 30/83/20
f 11/89/21 12/96/23 32/97/24 31/90/22
f 12/96/23 13/104/25 33/105/26 32/97/24
f 13/104/25 14/356/27 34/357/28 33/105/26
f 14/356/27 15/358/29 35/359/30 34/357/28
f 15/358/29 16/361/31 36/362/32 35/359/30
f 16/361/31 17/365/33 37/366/34 36/362/32
f 17/37/33 18/28/35 38/29/36 37/38/34
f 18/28/35 19/18/37 39/19/38 38/29/36
f 19/18/37 20/11/39 40/12/40 39/19/38
f 20/11/39 1/1/1 21/4/4 40/12/40
s 2
f 247/201/41 246/202/42 248/203/43
f 249/205/44 247/201/41 248/203/43
f 250/209/45 249/205/44 248/203/43
f 251/212/46 250/209/45 248/203/43
f 252/215/47 251/212/46 248/203/43
f 253/220/48 252/215/47 248/203/43
f 254/224/49 253/220/48 248/203/43
f 255/228/50 254/224/49 248/203/43
f 256/231/51 255/228/50 248/203/43
f 257/234/52 256/231/51 248/203/43
f 258/233/53 257/234/52 248/203/43
f 259/230/54 258/233/53 248/203/43
f 260/226/55 259/230/54 248/203/43
f 261/222/56 260/226/55 248/203/43
f 262/218/57 261/222/56 248/203/43
f 263/213/58 262/218/57 248/203/43
f 264/210/59 263/213/58 248/203/43
f 265/206/60 264/210/59 248/203/43
f 266/204/61 265/206/60 248/203/43
f 246/202/42 266/204/61 248/203/43
s 1
f 21/4/4 22/3/3 199/9/62 200/10/63
f 22/3/3 23/8/6 198/14/64 199/9/62
f 23/8/6 24/330/8 197/333/65 198/14/64
f 24/330/8 25/332/10 196/336/66 197/333/65
f 25/332/10 26/335/12 195/338/67 196/336/66
f 26/335/12 27/87/14 194/94/68 195/338/67
f 27/87/14 28/79/16 193/85/69 194/94/68
f 28/79/16 29/78/18 192/84/70 193/85/69
f 29/78/18 30/83/20 191/91/71 192/84/70
f 30/83/20 31/90/22 190/98/72 191/91/71
f 31/90/22 32/97/24 189/106/73 190/98/72
f 32/97/24 33/105/26 188/112/74 189/106/73
f 33/105/26 34/357/28 187/360/75 188/112/74
f 34/357/28 35/359/30 186/363/76 187/360/75
f 35/359/30 36/362/32 185/367/77 186/363/76
f 36/362/32 37/366/34 184/370/78 185/367/77
f 37/38/34 38/29/36 183/36/79 184/48/78
f 38/29/36 39/19/38 182/27/80 183/36/79
f 39/19/38 40/12/40 181/17/81 182/27/80
f 40/12/40 21/4/4 200/10/63 181/17/81
f 41/16/82 42/15/83 219/22/84 220/23/85
f 42/15/83 43/21/86 218/31/87 219/22/84
f 43/21/86 44/337/88 217/340/89 218/31/87
f 44/337/88 45/339/90 216/342/91 217/340/89
f 45/339/90 46/341/92 215/344/93 216/342/91
f 46/341/92 47/102/94 214/111/95 215/344/93
f 47/102/94 48/93/96 213/101/97 214/111/95
f 48/93/96 49/92/98 212/100/99 213/101/97
f 49/92/98 50/99/100 211/108/101 212/100/99
f 50/99/100 51/107/102 210/114/103 211/108/101
f 51/107/102 52/113/104 209/120/105 210/114/103
f 52/113/104 53/119/106 208/126/107 209/120/105
f 53/119/106 54/364/108 207/369/109 208/126/107
f 54/364/108 55/368/110 206/372/111 207/369/109
f 55/368/110 56/371/112 205/375/113 206/372/111
f 56/371/112 57/374/114 204/378/115 205/375/113
f 57/57/114 58/47/116 203/56/117 204/64/115
f 58/47/116 59/46/118 202/53/119 203/56/117
f 60/33/120 61/32/121 81/40/122 80/41/123
f 61/32/121 62/39/124 82/49/125 81/40/122
f 62/39/124 63/343/126 83/346/127 82/49/125
f 63/343/126 64/345/128 84/348/129 83/346/127
f 64/345/128 65/347/130 85/350/131 84/348/129
f 65/347/130 66/118/132 86/125/133 85/350/131
f 66/118/132 67/110/134 87/117/135 86/125/133
f 67/110/134 68/109/136 88/116/137 87/117/135
f 68/109/136 69/115/138 89/122/139 88/116/137
f 69/115/138 70/121/140 90/128/141 89/122/139
f 70/121/140 71/127/142 91/134/143 90/128/141
f 71/127/142 72/133/144 92/138/145 91/134/143
f 72/133/144 73/373/146 93/377/147 92/138/145
f 73/373/146 74/376/148 94/380/149 93/377/147
f 74/376/148 75/379/150 95/383/151 94/380/149
f 75/379/150 76/382/152 96/386/153 95/383/151
f 76/69/152 77/63/154 97/68/155 96/72/153
f 77/63/154 78/54/156 98/62/157 97/68/155
f 78/54/156 79/43/158 99/52/159 98/62/157
f 79/43/158 60/33/120 80/41/123 99/52/159
f 80/41/123 81/40/122 124/50/160 121/51/161
f 81/40/122 82/49/125 127/58/162 124/50/160
f 82/49/125 83/346/127 130/349/163 127/58/162
f 83/346/127 84/348/129 133/351/164 130/349/163
f 84/348/129 85/350/131 136/353/165 133/351/164
f 85/350/131 86/125/133 139/132/166 136/353/165
f 86/125/133 87/117/135 142/124/167 139/132/166
f 87/117/135 88/116/137 145/123/168 142/124/167
f 88/116/137 89/122/139 148/129/169 145/123/168
f 89/122/139 90/128/141 151/135/170 148/129/169
f 90/128/141 91/134/143 154/139/171 151/135/170
f 91/134/143 92/138/145 157/141/172 154/139/171
f 92/138/145 93/377/147 160/381/173 157/141/172
f 93/377/147 94/380/149 163/384/174 160/381/173
f 94/380/149 95/383/151 166/387/175 163/384/174
f 95/383/151 96/386/153 169/389/176 166/387/175
f 96/72/153 97/68/155 172/71/177 169/74/176
f 97/68/155 98/62/157 175/67/178 172/71/177
f 98/62/157 99/52/159 178/61/179 175/67/178
f 99/52/159 80/41/123 121/51/161 178/61/179
s 3
f 123/236/180 126/237/181 101/238/182 100/239/183
f 126/237/181 129/242/184 102/243/185 101/238/182
f 129/242/184 132/248/186 103/249/187 102/243/185
f 132/248/186 135/254/188 104/255/189 103/249/187
f 135/254/188 138/260/190 105/261/191 104/255/189
f 138/260/190 141/266/192 106/267/193 105/261/191
f 141/266/192 144/272/194 107/273/195 106/267/193
f 144/272/194 147/278/196 108/279/197 107/273/195
f 147/278/196 150/284/198 109/285/199 108/279/197
f 150/284/198 153/290/200 110/291/201 109/285/199
f 153/290/200 156/292/202 111/293/203 110/291/201
f 156/292/202 159/286/204 112/287/205 111/293/203
f 159/286/204 162/280/206 113/281/207 112/287/205
f 162/280/206 165/274/208 114/275/209 113/281/207
f 165/274/208 168/268/210 115/269/211 114/275/209
f 168/268/210 171/436/212 116/437/213 115/269/211
f 171/262/212 174/256/214 117/257/215 116/263/213
f 174/256/214 177/250/216 118/251/217 117/257/215
f 177/250/216 180/244/218 119/245/219 118/251/217
f 180/244/218 123/236/180 100/239/183 119/245/219
s 1
f 121/51/161 122/59/220 179/66/221 178/61/179
s 3
f 122/240/222 123/236/180 180/244/218 179/246/223
f 123/236/180 122/240/222 125/241/224 126/237/181
s 1
f 122/59/220 121/51/161 124/50/160 125/60/225
s 3
f 126/237/181 125/241/224 128/247/226 129/242/184
s 1
f 125/60/225 124/50/160 127/58/162 128/65/227
s 3
f 129/242/184 128/247/226 131/253/228 132/248/186
s 1
f 128/65/227 127/58/162 130/349/163 131/352/229
s 3
f 132/248/186 131/253/228 134/259/230 135/254/188
s 1
f 131/352/229 130/349/163 133/351/164 134/354/231
s 3
f 135/254/188 134/259/230 137/265/232 138/260/190
s 1
f 134/354/231 133/351/164 136/353/165 137/355/233
s 3
f 138/260/190 137/265/232 140/271/234 141/266/192
s 1
f 137/355/233 136/353/165 139/132/166 140/137/235
s 3
f 141/266/192 140/271/234 143/277/236 144/272/194
s 1
f 140/137/235 139/132/166 142/124/167 143/130/237
s 3
f 144/272/194 143/277/236 146/283/238 147/278/196
s 1
f 143/130/237 142/124/167 145/123/168 146/131/239
s 3
f 147/278/196 146/283/238 149/289/240 150/284/198
s 1
f 146/131/239 145/123/168 148/129/169 149/136/241
s 3
f 150/284/198 149/289/240 152/295/242 153/290/200
s 1
f 149/136/241 148/129/169 151/135/170 152/140/243
s 3
f 153/290/200 152/295/242 155/294/244 156/292/202
s 1
f 152/140/243 151/135/170 154/139/171 155/142/245
s 3
f 156/292/202 155/294/244 158/288/246 159/286/204
s 1
f 155/142/245 154/139/171 157/141/172 158/143/247
s 3
f 159/286/204 158/288/246 161/282/248 162/280/206
s 1
f 158/143/247 157/141/172 160/381/173 161/385/249
s 3
f 162/280/206 161/282/248 164/276/250 165/274/208
s 1
f 161/385/249 160/381/173 163/384/174 164/388/251
s 3
f 165/274/208 164/276/250 167/270/252 168/268/210
s 1
f 164/388/251 163/384/174 166/387/175 167/390/253
s 3
f 168/268/210 167/270/252 170/264/254 171/436/212
s 1
f 167/390/253 166/387/175 169/389/176 170/391/255
s 3
f 171/262/212 170/438/254 173/258/256 174/256/214
s 1
f 170/75/255 169/74/176 172/71/177 173/73/257
s 3
f 174/256/214 173/258/256 176/252/258 177/250/216
s 1
f 173/73/257 172/71/177 175/67/178 176/70/259
s 3
f 177/250/216 176/252/258 179/246/223 180/244/218
s 1
f 176/70/259 175/67/178 178/61/179 179/66/221
f 183/36/79 182/27/80 59/46/118 58/47/116
f 184/48/78 183/36/79 58/47/116 57/57/114
f 185/367/77 184/370/78 57/374/114 56/371/112
f 186/363/76 185/367/77 56/371/112 55/368/110
f 187/360/75 186/363/76 55/368/110 54/364/108
f 188/112/74 187/360/75 54/364/108 53/119/106
f 189/106/73 188/112/74 53/119/106 52/113/104
f 190/98/72 189/106/73 52/113/104 51/107/102
f 191/91/71 190/98/72 51/107/102 50/99/100
f 192/84/70 191/91/71 50/99/100 49/92/98
f 193/85/69 192/84/70 49/92/98 48/93/96
f 194/94/68 193/85/69 48/93/96 47/102/94
f 195/338/67 194/94/68 47/102/94 46/341/92
f 196/336/66 195/338/67 46/341/92 45/339/90
f 197/333/65 196/336/66 45/339/90 44/337/88
f 198/14/64 197/333/65 44/337/88 43/21/86
f 199/9/62 198/14/64 43/21/86 42/15/83
f 200/10/63 199/9/62 42/15/83 41/16/82
f 202/53/119 201/42/260 79/43/158 78/54/156
f 203/56/117 202/53/119 78/54/156 77/63/154
f 204/64/115 203/56/117 77/63/154 76/69/152
f 205/375/113 204/378/115 76/382/152 75/379/150
f 206/372/111 205/375/113 75/379/150 74/376/148
f 207/369/109 206/372/111 74/376/148 73/373/146
f 208/126/107 207/369/109 73/373/146 72/133/144
f 209/120/105 208/126/107 72/133/144 71/127/142
f 210/114/103 209/120/105 71/127/142 70/121/140
f 211/108/101 210/114/103 70/121/140 69/115/138
f 212/100/99 211/108/101 69/115/138 68/109/136
f 213/101/97 212/100/99 68/109/136 67/110/134
f 214/111/95 213/101/97 67/110/134 66/118/132
f 215/344/93 214/111/95 66/118/132 65/347/130
f 216/342/91 215/344/93 65/347/130 64/345/128
f 217/340/89 216/342/91 64/345/128 63/343/126
f 218/31/87 217/340/89 63/343/126 62/39/124
f 219/22/84 218/31/87 62/39/124 61/32/121
f 220/23/85 219/22/84 61/32/121 60/33/120
f 201/42/260 220/23/85 60/33/120 79/43/158
f 181/17/81 200/10/63 227/24/261 224/26/262
f 220/23/85 225/34/263 222/25/264 41/16/82
f 202/53/119 228/55/265 223/44/266 201/42/260
f 182/27/80 226/35/267 221/45/268 59/46/118
f 223/44/266 225/34/269 220/23/85 201/42/260
f 59/46/118 221/45/268 228/55/270 202/53/119
f 182/27/80 181/17/81 224/26/262 226/35/271
f 227/24/272 200/10/63 41/16/82 222/25/264
s off
f 230/148/273 231/144/274 235/147/275 234/154/276
f 231/144/277 230/148/278 233/149/279 232/145/280
f 232/145/281 233/149/282 241/155/283 240/150/284
f 234/154/285 235/147/286 238/153/287 239/159/288
f 236/158/289 237/152/290 244/157/291 245/160/292
f 237/152/293 236/158/294 239/159/295 238/153/296
f 240/150/297 241/155/298 243/156/299 242/151/300
f 242/151/301 243/156/302 245/160/303 244/157/304
s 4
f 231/144/305 232/145/306 229/146/307 235/147/308
f 235/147/308 229/146/307 237/152/309 238/153/310
f 229/146/307 232/145/306 240/150/311 242/151/312
f 237/152/309 229/146/307 242/151/312 244/157/313
s off
f 224/412/314 227/413/315 233/414/316 230/415/317
f 226/416/318 224/412/319 230/415/320 234/417/321
f 228/424/322 221/425/323 239/426/324 236/427/325
f 221/425/326 226/428/327 234/429/328 239/426/329
f 227/430/330 222/431/331 241/432/332 233/433/333
f 222/431/334 225/434/335 243/435/336 241/432/337
f 225/418/338 223/419/339 245/420/340 243/421/341
f 223/419/342 228/422/343 236/423/344 245/420/345
s 5
f 2/2/346 1/1/347 246/5/348 247/6/349
f 3/207/350 2/208/346 247/201/349 249/205/351
f 4/211/352 3/207/350 249/205/351 250/209/353
f 5/214/354 4/211/352 250/209/353 251/212/355
f 6/219/356 5/214/354 251/212/355 252/215/357
f 7/223/358 6/219/356 252/215/357 253/220/359
f 8/227/360 7/223/358 253/220/359 254/224/361
f 9/77/362 8/76/360 254/80/361 255/81/363
f 10/82/364 9/77/362 255/81/363 256/88/365
f 11/89/366 10/82/364 256/88/365 257/95/367
f 12/96/368 11/89/366 257/95/367 258/103/369
f 13/232/370 12/235/368 258/233/369 259/230/371
f 14/229/372 13/232/370 259/230/371 260/226/373
f 15/225/374 14/229/372 260/226/373 261/222/375
f 16/221/376 15/225/374 261/222/375 262/218/377
f 17/217/378 16/221/376 262/218/377 263/213/379
f 18/216/380 17/217/378 263/213/379 264/210/381
f 19/18/382 18/28/380 264/30/381 265/20/383
f 20/11/384 19/18/382 265/20/383 266/13/385
f 1/1/347 20/11/384 266/13/385 246/5/348
s 6
f 267/164/386 268/167/387 305/172/388 306/170/389
f 268/167/387 267/164/386 270/163/390 269/168/391
f 269/168/391 270/163/390 272/166/392 271/171/393
f 271/299/393 272/303/392 274/304/394 273/301/395
f 273/301/395 274/304/394 276/307/396 275/305/397
f 275/305/397 276/307/396 278/310/398 277/308/399
f 277/308/399 278/310/398 280/313/400 279/311/401
f 279/311/401 280/313/400 282/318/402 281/314/403
f 281/188/403 282/185/402 284/184/404 283/189/405
f 283/189/405 284/184/404 286/187/406 285/194/407
f 285/194/407 286/187/406 288/193/408 287/197/409
f 287/197/409 288/193/408 290/196/410 289/200/411
f 289/327/411 290/328/410 292/326/412 291/324/413
f 291/324/413 292/326/412 294/323/414 293/321/415
f 293/321/415 294/323/414 296/320/416 295/317/417
f 295/317/417 296/320/416 298/315/418 297/312/419
f 297/312/419 298/315/418 300/316/420 299/309/421
f 299/181/421 300/180/420 302/177/422 301/178/423
f 301/178/423 302/177/422 304/174/424 303/175/425
f 303/175/425 304/174/424 306/170/389 305/172/388
s 7
f 268/296/426 269/297/427 120/298/428
f 269/297/427 271/299/429 120/298/428
f 271/299/429 273/301/430 120/298/428
f 273/301/430 275/305/431 120/298/428
f 275/305/431 277/308/432 120/298/428
f 277/308/432 279/311/433 120/298/428
f 279/311/433 281/314/434 120/298/428
f 281/314/434 283/319/435 120/298/428
f 283/319/435 285/322/436 120/298/428
f 285/322/436 287/325/437 120/298/428
f 287/325/437 289/327/438 120/298/428
f 289/327/438 291/324/439 120/298/428
f 291/324/439 293/321/440 120/298/428
f 293/321/440 295/317/441 120/298/428
f 295/317/441 297/312/442 120/298/428
f 297/312/442 299/309/443 120/298/428
f 299/309/443 301/306/444 120/298/428
f 301/306/444 303/302/445 120/298/428
f 303/302/445 305/300/446 120/298/428
f 305/300/446 268/296/426 120/298/428
s 8
f 100/161/447 101/162/448 270/163/449 267/164/450
f 101/162/448 102/165/451 272/166/452 270/163/449
f 102/392/451 103/393/453 274/394/454 272/395/452
f 103/393/453 104/396/455 276/397/456 274/394/454
f 104/396/455 105/398/457 278/399/458 276/397/456
f 105/398/457 106/400/459 280/401/460 278/399/458
f 106/190/459 107/182/461 282/185/462 280/191/460
f 107/182/461 108/183/463 284/184/464 282/185/462
f 108/183/463 109/186/465 286/187/466 284/184/464
f 109/186/465 110/192/467 288/193/468 286/187/466
f 110/192/467 111/195/469 290/196/470 288/193/468
f 111/195/469 112/198/471 292/199/472 290/196/470
f 112/402/471 113/403/473 294/404/474 292/405/472
f 113/403/473 114/406/475 296/407/476 294/404/474
f 114/406/475 115/408/477 298/409/478 296/407/476
f 115/408/477 116/410/479 300/411/480 298/409/478
f 116/179/479 117/176/481 302/177/482 300/180/480
f 117/176/481 118/173/483 304/174/484 302/177/482
f 118/173/483 119/169/485 306/170/486 304/174/484
f 119/169/485 100/161/447 267/164/450 306/170/486
