# This file uses centimeters as units for non-parametric coordinates.

mtllib PiegeALoup.mtl
g default
v 1.546237 -0.131353 -0.000000
v 1.512448 -0.131353 -0.321481
v 1.412558 -0.131353 -0.628911
v 1.250932 -0.131353 -0.908856
v 1.034635 -0.131353 -1.149078
v 0.773119 -0.131353 -1.339081
v 0.477814 -0.131353 -1.470559
v 0.161626 -0.131353 -1.537767
v -0.161626 -0.131353 -1.537767
v -0.477814 -0.131353 -1.470559
v -0.773119 -0.131353 -1.339081
v -1.034635 -0.131353 -1.149078
v -1.250933 -0.131353 -0.908856
v -1.412559 -0.131353 -0.628911
v -1.512449 -0.131353 -0.321481
v -1.546238 -0.131353 0.000000
v -1.512449 -0.131353 0.321481
v -1.412559 -0.131353 0.628912
v -1.250933 -0.131353 0.908856
v -1.034635 -0.131353 1.149079
v -0.773119 -0.131353 1.339082
v -0.477813 -0.131353 1.470560
v -0.161626 -0.131353 1.537768
v 0.161626 -0.131353 1.537768
v 0.477814 -0.131353 1.470560
v 0.773119 -0.131353 1.339081
v 1.034636 -0.131353 1.149078
v 1.250933 -0.131353 0.908856
v 1.412559 -0.131353 0.628911
v 1.512449 -0.131353 0.321480
v 1.512448 0.131353 -0.321481
v 1.250932 0.131353 -0.908856
v 0.773119 0.131353 -1.339081
v 0.161626 0.131353 -1.537767
v -0.477814 0.131353 -1.470559
v -1.034635 0.131353 -1.149078
v -1.412559 0.131353 -0.628911
v -1.546238 0.131353 0.000000
v -1.412559 0.131353 0.628912
v -1.034635 0.131353 1.149079
v -0.477813 0.131353 1.470560
v 0.161626 0.131353 1.537768
v 0.773119 0.131353 1.339081
v 1.250933 0.131353 0.908856
v 1.512449 0.131353 0.321480
v 2.026379 0.131353 -0.430720
v 1.676000 0.131353 -1.217685
v 1.035825 0.131353 -1.794101
v 0.216546 0.131353 -2.060301
v -0.640175 0.131353 -1.970256
v -1.386204 0.131353 -1.539536
v -1.892547 0.131353 -0.842616
v -2.071650 0.131353 0.000000
v -1.892547 0.131353 0.842616
v -1.386204 0.131353 1.539536
v -0.640175 0.131353 1.970257
v 0.216547 0.131353 2.060302
v 1.035826 0.131353 1.794102
v 1.676001 0.131353 1.217685
v 2.026380 0.131353 0.430720
v 2.071650 -0.131353 -0.000000
v 2.026379 -0.131353 -0.430720
v 1.892546 -0.131353 -0.842616
v 1.676000 -0.131353 -1.217685
v 1.386204 -0.131353 -1.539536
v 1.035825 -0.131353 -1.794101
v 0.640175 -0.131353 -1.970256
v 0.216546 -0.131353 -2.060301
v -0.216546 -0.131353 -2.060301
v -0.640175 -0.131353 -1.970256
v -1.035825 -0.131353 -1.794101
v -1.386204 -0.131353 -1.539536
v -1.676000 -0.131353 -1.217685
v -1.892547 -0.131353 -0.842616
v -2.026380 -0.131353 -0.430720
v -2.071650 -0.131353 0.000000
v -2.026380 -0.131353 0.430721
v -1.892547 -0.131353 0.842616
v -1.676000 -0.131353 1.217686
v -1.386204 -0.131353 1.539536
v -1.035825 -0.131353 1.794102
v -0.640175 -0.131353 1.970257
v -0.216546 -0.131353 2.060302
v 0.216547 -0.131353 2.060302
v 0.640176 -0.131353 1.970257
v 1.035826 -0.131353 1.794102
v 1.386205 -0.131353 1.539536
v 1.676001 -0.131353 1.217685
v 1.892547 -0.131353 0.842616
v 2.026380 -0.131353 0.430720
v 1.544345 0.368356 -0.000000
v 1.542859 0.357313 -0.032145
v 1.546237 0.350272 0.000000
v 1.542859 0.357313 0.032145
v 2.071650 0.350272 0.000000
v 2.068271 0.363680 -0.032145
v 2.069834 0.372345 -0.000000
v 2.068271 0.363680 0.032145
v 1.410830 0.368356 -0.628142
v 1.396397 0.357313 -0.656903
v 1.412558 0.350272 -0.628911
v 1.422546 0.357313 -0.598171
v 1.892546 0.350272 -0.842616
v 1.876385 0.363680 -0.870607
v 1.890887 0.372345 -0.841877
v 1.902534 0.363680 -0.811876
v 1.033369 0.368356 -1.147672
v 1.008486 0.357313 -1.168077
v 1.034635 0.350272 -1.149078
v 1.056262 0.357313 -1.125059
v 1.386204 0.350272 -1.539536
v 1.360055 0.363680 -1.558534
v 1.384989 0.372345 -1.538186
v 1.407832 0.363680 -1.515516
v 0.477229 0.368356 -1.468760
v 0.446198 0.357313 -1.477279
v 0.477814 0.350272 -1.470559
v 0.507341 0.357313 -1.457413
v 0.640175 0.350272 -1.970256
v 0.608559 0.363680 -1.976976
v 0.639614 0.372345 -1.968529
v 0.669702 0.363680 -1.957109
v -0.161428 0.368356 -1.535885
v -0.193241 0.357313 -1.531047
v -0.161626 0.350272 -1.537767
v -0.129304 0.357313 -1.537767
v -0.216546 0.350272 -2.060301
v -0.248162 0.363680 -2.053581
v -0.216357 0.372345 -2.058495
v -0.184225 0.363680 -2.060301
v -0.772173 0.368356 -1.337442
v -0.799268 0.357313 -1.320083
v -0.773119 0.350272 -1.339081
v -0.743591 0.357313 -1.352228
v -1.035825 0.350272 -1.794101
v -1.061974 0.363680 -1.775103
v -1.034917 0.372345 -1.792529
v -1.006297 0.363680 -1.807248
v -1.249402 0.368356 -0.907743
v -1.267094 0.357313 -0.880864
v -1.250933 0.350272 -0.908856
v -1.229305 0.357313 -0.932875
v -1.676000 0.350272 -1.217685
v -1.692161 0.363680 -1.189694
v -1.674531 0.372345 -1.216618
v -1.654373 0.363680 -1.241705
v -1.510598 0.368356 -0.321087
v -1.515827 0.357313 -0.289336
v -1.512449 0.350272 -0.321481
v -1.502461 0.357313 -0.352221
v -2.026380 0.350272 -0.430720
v -2.029758 0.363680 -0.398575
v -2.024603 0.372345 -0.430342
v -2.016392 0.363680 -0.461460
v -1.510598 0.368356 0.321088
v -1.502461 0.357313 0.352221
v -1.512449 0.350272 0.321481
v -1.515827 0.357313 0.289336
v -2.026380 0.350272 0.430721
v -2.016392 0.363680 0.461460
v -2.024603 0.372345 0.430343
v -2.029758 0.363680 0.398576
v -1.249402 0.368356 0.907744
v -1.229305 0.357313 0.932876
v -1.250933 0.350272 0.908856
v -1.267094 0.357313 0.880865
v -1.676000 0.350272 1.217686
v -1.654373 0.363680 1.241706
v -1.674531 0.372345 1.216618
v -1.692161 0.363680 1.189694
v -0.772172 0.368356 1.337443
v -0.743591 0.357313 1.352228
v -0.773119 0.350272 1.339082
v -0.799268 0.357313 1.320083
v -1.035825 0.350272 1.794102
v -1.006297 0.363680 1.807249
v -1.034917 0.372345 1.792529
v -1.061974 0.363680 1.775104
v -0.161428 0.368356 1.535886
v -0.129304 0.357313 1.537768
v -0.161626 0.350272 1.537768
v -0.193241 0.357313 1.531048
v -0.216546 0.350272 2.060302
v -0.184224 0.363680 2.060302
v -0.216356 0.372345 2.058496
v -0.248162 0.363680 2.053582
v 0.477229 0.368356 1.468760
v 0.507342 0.357313 1.457413
v 0.477814 0.350272 1.470560
v 0.446199 0.357313 1.477280
v 0.640176 0.350272 1.970257
v 0.669703 0.363680 1.957110
v 0.639614 0.372345 1.968529
v 0.608560 0.363680 1.976977
v 1.033369 0.368356 1.147672
v 1.056263 0.357313 1.125059
v 1.034636 0.350272 1.149078
v 1.008487 0.357313 1.168077
v 1.386205 0.350272 1.539536
v 1.407833 0.363680 1.515516
v 1.384990 0.372345 1.538187
v 1.360056 0.363680 1.558535
v 1.410830 0.368356 0.628142
v 1.422547 0.357313 0.598171
v 1.412559 0.350272 0.628911
v 1.396398 0.357313 0.656903
v 1.892547 0.350272 0.842616
v 1.902535 0.363680 0.811876
v 1.890888 0.372345 0.841877
v 1.876386 0.363680 0.870607
vt 0.252621 0.700877
vt 0.252621 0.662374
vt 0.310304 0.662374
vt 0.311147 0.666224
vt 0.284085 0.700877
vt 0.252621 0.623871
vt 0.284085 0.623871
vt 0.311147 0.658524
vt 0.312470 0.662374
vt 0.252621 0.737696
vt 0.311147 0.734015
vt 0.310304 0.737696
vt 0.252621 0.587051
vt 0.310304 0.587051
vt 0.311147 0.590733
vt 0.312470 0.737604
vt 0.252621 0.771224
vt 0.311147 0.741049
vt 0.284085 0.771224
vt 0.252621 0.553523
vt 0.284085 0.553523
vt 0.311147 0.583699
vt 0.312470 0.587144
vt 0.252621 0.799995
vt 0.311147 0.797118
vt 0.310304 0.799995
vt 0.252621 0.524753
vt 0.310304 0.524753
vt 0.311147 0.527629
vt 0.312470 0.799827
vt 0.252621 0.822751
vt 0.311147 0.802271
vt 0.284085 0.822751
vt 0.252621 0.501997
vt 0.284085 0.501997
vt 0.311147 0.522477
vt 0.312470 0.524921
vt 0.186969 0.623871
vt 0.186969 0.587051
vt 0.218433 0.587051
vt 0.245495 0.620190
vt 0.244652 0.623871
vt 0.186969 0.553523
vt 0.244652 0.553523
vt 0.245495 0.556876
vt 0.246818 0.623918
vt 0.186969 0.662374
vt 0.245495 0.627721
vt 0.218433 0.662374
vt 0.186969 0.524753
vt 0.218433 0.524753
vt 0.245495 0.550647
vt 0.246818 0.553656
vt 0.186969 0.700877
vt 0.245495 0.697027
vt 0.244652 0.700877
vt 0.186969 0.501997
vt 0.244652 0.501997
vt 0.245495 0.504272
vt 0.246818 0.700829
vt 0.186969 0.737697
vt 0.245495 0.704558
vt 0.218433 0.737697
vt 0.246818 0.502193
vt 0.186969 0.771224
vt 0.245495 0.767872
vt 0.244652 0.771224
vt 0.246818 0.771091
vt 0.186969 0.799995
vt 0.245495 0.774101
vt 0.218433 0.799995
vt 0.186969 0.822751
vt 0.245495 0.820476
vt 0.244652 0.822751
vt 0.246818 0.822555
vt 0.415867 0.665284
vt 0.443692 0.713020
vt 0.442086 0.716870
vt 0.384403 0.716870
vt 0.384403 0.665284
vt 0.444730 0.716870
vt 0.443692 0.720720
vt 0.415867 0.768456
vt 0.384403 0.768456
vt 0.442086 0.615953
vt 0.443692 0.619635
vt 0.384403 0.615953
vt 0.443692 0.814106
vt 0.442086 0.817787
vt 0.384403 0.817787
vt 0.444730 0.616041
vt 0.415867 0.571032
vt 0.443692 0.612600
vt 0.384403 0.571032
vt 0.444730 0.817699
vt 0.443692 0.821140
vt 0.415867 0.862708
vt 0.384403 0.862708
vt 0.442086 0.532485
vt 0.443692 0.535362
vt 0.384403 0.532485
vt 0.443692 0.898378
vt 0.442086 0.901255
vt 0.384403 0.901255
vt 0.444730 0.532647
vt 0.415867 0.501997
vt 0.443692 0.530210
vt 0.384403 0.501997
vt 0.444730 0.901094
vt 0.443692 0.903531
vt 0.415867 0.931744
vt 0.384403 0.931744
vt 0.349737 0.716870
vt 0.377562 0.764606
vt 0.375956 0.768456
vt 0.318273 0.768456
vt 0.318273 0.716870
vt 0.378600 0.768411
vt 0.377562 0.772138
vt 0.349737 0.817788
vt 0.318273 0.817788
vt 0.375956 0.665284
vt 0.377562 0.669134
vt 0.318273 0.665284
vt 0.377562 0.859356
vt 0.375956 0.862708
vt 0.318273 0.862708
vt 0.378600 0.665329
vt 0.349737 0.615953
vt 0.377562 0.661603
vt 0.318273 0.615953
vt 0.378600 0.862580
vt 0.377562 0.865585
vt 0.349737 0.901255
vt 0.318273 0.901255
vt 0.375956 0.571032
vt 0.377562 0.574385
vt 0.318273 0.571032
vt 0.377562 0.929468
vt 0.375956 0.931744
vt 0.318273 0.931744
vt 0.378600 0.571160
vt 0.349737 0.532485
vt 0.377562 0.568155
vt 0.318273 0.532485
vt 0.378600 0.931555
vt 0.375956 0.501997
vt 0.377562 0.504272
vt 0.318273 0.501997
vt 0.378600 0.502185
vt 0.806139 0.600074
vt 0.775964 0.582652
vt 0.801558 0.525165
vt 0.843127 0.549165
vt 0.772519 0.580923
vt 0.798117 0.523428
vt 0.878797 0.581282
vt 0.832033 0.623389
vt 0.768929 0.579520
vt 0.794524 0.522034
vt 0.834741 0.626131
vt 0.881512 0.584018
vt 0.735791 0.568753
vt 0.748874 0.507201
vt 0.837185 0.629111
vt 0.883949 0.587004
vt 0.701138 0.565111
vt 0.701138 0.502184
vt 0.857666 0.657300
vt 0.912162 0.625836
vt 0.697289 0.564933
vt 0.697289 0.501997
vt 0.931685 0.669686
vt 0.871838 0.689131
vt 0.693439 0.565111
vt 0.693439 0.502184
vt 0.873197 0.692738
vt 0.933053 0.673289
vt 0.658786 0.568753
vt 0.645703 0.507201
vt 0.874217 0.696454
vt 0.934064 0.677009
vt 0.625648 0.579520
vt 0.600053 0.522033
vt 0.881462 0.730536
vt 0.944044 0.723959
vt 0.622058 0.580923
vt 0.596460 0.523428
vt 0.944044 0.771958
vt 0.881462 0.765380
vt 0.618614 0.582652
vt 0.593019 0.525165
vt 0.881236 0.769227
vt 0.943828 0.775806
vt 0.588438 0.600074
vt 0.551450 0.549165
vt 0.880657 0.773037
vt 0.943239 0.779615
vt 0.562544 0.623389
vt 0.515780 0.581282
vt 0.873412 0.807120
vt 0.933259 0.826565
vt 0.559836 0.626131
vt 0.513065 0.584018
vt 0.913737 0.870414
vt 0.859240 0.838951
vt 0.557392 0.629111
vt 0.510628 0.587004
vt 0.857469 0.842374
vt 0.911974 0.873842
vt 0.536911 0.657300
vt 0.482415 0.625836
vt 0.855390 0.845619
vt 0.909887 0.877083
vt 0.522739 0.689131
vt 0.462892 0.669686
vt 0.834910 0.873808
vt 0.881674 0.915915
vt 0.521380 0.692738
vt 0.461524 0.673289
vt 0.846003 0.948032
vt 0.809016 0.897123
vt 0.520360 0.696454
vt 0.460513 0.677008
vt 0.806006 0.899530
vt 0.842999 0.950447
vt 0.513115 0.730536
vt 0.450533 0.723959
vt 0.802787 0.901649
vt 0.839774 0.952558
vt 0.513115 0.765380
vt 0.450533 0.771958
vt 0.772611 0.919071
vt 0.798206 0.976558
vt 0.513341 0.769227
vt 0.450749 0.775806
vt 0.752556 0.991390
vt 0.739473 0.929838
vt 0.513920 0.773037
vt 0.451338 0.779615
vt 0.735744 0.930813
vt 0.748829 0.992374
vt 0.521165 0.807120
vt 0.461318 0.826565
vt 0.731941 0.931439
vt 0.745025 0.992991
vt 0.535337 0.838951
vt 0.480840 0.870414
vt 0.697289 0.935081
vt 0.697289 0.998008
vt 0.537107 0.842374
vt 0.482603 0.873842
vt 0.649552 0.992991
vt 0.662636 0.931439
vt 0.539187 0.845619
vt 0.484690 0.877083
vt 0.658833 0.930813
vt 0.645748 0.992374
vt 0.559667 0.873808
vt 0.512903 0.915915
vt 0.655104 0.929838
vt 0.642021 0.991390
vt 0.585561 0.897123
vt 0.548574 0.948032
vt 0.621966 0.919071
vt 0.596371 0.976558
vt 0.588571 0.899530
vt 0.551578 0.950447
vt 0.554803 0.952558
vt 0.591790 0.901649
vt 0.197054 0.007414
vt 0.248640 0.001992
vt 0.248640 0.064919
vt 0.210137 0.068966
vt 0.300225 0.007414
vt 0.287142 0.068966
vt 0.147722 0.023443
vt 0.173317 0.080929
vt 0.349557 0.023443
vt 0.323962 0.080929
vt 0.102802 0.049378
vt 0.139789 0.100287
vt 0.394478 0.049378
vt 0.357490 0.100286
vt 0.064255 0.084086
vt 0.111018 0.126192
vt 0.433025 0.084085
vt 0.386261 0.126192
vt 0.033766 0.126049
vt 0.088262 0.157513
vt 0.463513 0.126049
vt 0.409017 0.157513
vt 0.012669 0.173435
vt 0.072516 0.192880
vt 0.484611 0.173435
vt 0.424764 0.192880
vt 0.001884 0.224172
vt 0.064466 0.230749
vt 0.495395 0.224171
vt 0.432813 0.230749
vt 0.001884 0.276042
vt 0.064466 0.269464
vt 0.495395 0.276041
vt 0.432813 0.269464
vt 0.012669 0.326778
vt 0.072516 0.307333
vt 0.484611 0.326778
vt 0.424764 0.307333
vt 0.033766 0.374164
vt 0.088262 0.342700
vt 0.463513 0.374164
vt 0.409017 0.342700
vt 0.064255 0.416128
vt 0.111018 0.374021
vt 0.433025 0.416128
vt 0.386261 0.374021
vt 0.102802 0.450835
vt 0.139789 0.399926
vt 0.394478 0.450835
vt 0.357490 0.399926
vt 0.147722 0.476770
vt 0.173317 0.419284
vt 0.349557 0.476770
vt 0.323962 0.419284
vt 0.197054 0.492799
vt 0.210137 0.431247
vt 0.300226 0.492799
vt 0.287142 0.431247
vt 0.248640 0.498221
vt 0.248640 0.435294
vt 0.001884 0.789255
vt 0.001884 0.753887
vt 0.033348 0.753887
vt 0.060410 0.785718
vt 0.059567 0.789255
vt 0.061733 0.789325
vt 0.001884 0.827123
vt 0.060410 0.793041
vt 0.033348 0.827123
vt 0.001884 0.865838
vt 0.060410 0.861967
vt 0.059567 0.865838
vt 0.061733 0.865814
vt 0.001884 0.903707
vt 0.060410 0.869625
vt 0.033348 0.903707
vt 0.001884 0.939075
vt 0.060410 0.935538
vt 0.059567 0.939075
vt 0.061733 0.938961
vt 0.128286 0.903707
vt 0.128286 0.939075
vt 0.070603 0.939075
vt 0.069760 0.935538
vt 0.096822 0.903707
vt 0.068437 0.938961
vt 0.128286 0.865838
vt 0.069760 0.869625
vt 0.070603 0.865838
vt 0.068437 0.865814
vt 0.128286 0.827123
vt 0.069760 0.861967
vt 0.096822 0.827123
vt 0.128286 0.789255
vt 0.069760 0.793041
vt 0.070603 0.789255
vt 0.068437 0.789325
vt 0.128286 0.753887
vt 0.069760 0.785718
vt 0.096822 0.753887
vt 0.149702 0.600119
vt 0.121877 0.553169
vt 0.123483 0.549382
vt 0.181166 0.549382
vt 0.181166 0.600119
vt 0.120839 0.549449
vt 0.121877 0.545846
vt 0.149702 0.501997
vt 0.181166 0.501997
vt 0.123483 0.651989
vt 0.121877 0.648118
vt 0.181166 0.651989
vt 0.120839 0.651966
vt 0.149702 0.702726
vt 0.121877 0.655775
vt 0.181166 0.702726
vt 0.123483 0.750111
vt 0.121877 0.746575
vt 0.181166 0.750111
vt 0.120839 0.750002
vt 0.086173 0.702726
vt 0.113998 0.746575
vt 0.112392 0.750111
vt 0.054710 0.750111
vt 0.054710 0.702726
vt 0.115036 0.750003
vt 0.112392 0.651989
vt 0.113998 0.655776
vt 0.054710 0.651989
vt 0.115036 0.651966
vt 0.086173 0.600119
vt 0.113998 0.648118
vt 0.054710 0.600119
vt 0.112392 0.549382
vt 0.113998 0.553169
vt 0.054710 0.549382
vt 0.115036 0.549450
vt 0.086173 0.501997
vt 0.113998 0.545846
vt 0.054710 0.501997
vn -0.978148 0.000000 0.207911
vn -1.000000 -0.000000 0.000001
vn -1.000000 -0.000184 0.000001
vn -0.994523 -0.000059 0.104515
vn -0.978148 0.000000 0.207911
vn -0.913546 0.000000 0.406736
vn -0.951053 -0.000059 0.309029
vn -0.913546 -0.000184 0.406736
vn -0.809017 -0.000000 0.587785
vn -0.866032 -0.000059 0.499989
vn -0.809017 -0.000000 0.587785
vn -0.669131 0.000000 0.743145
vn -0.743136 -0.000059 0.669140
vn -0.669131 -0.000184 0.743145
vn -0.500000 0.000000 0.866025
vn -0.587796 -0.000059 0.809009
vn -0.500000 0.000000 0.866025
vn -0.309017 -0.000000 0.951057
vn -0.406725 -0.000059 0.913551
vn -0.309017 -0.000184 0.951056
vn -0.104529 -0.000000 0.994522
vn -0.207924 -0.000059 0.978145
vn -0.104529 -0.000000 0.994522
vn 0.104528 0.000000 0.994522
vn 0.000013 -0.000059 1.000000
vn 0.104528 -0.000184 0.994522
vn 0.309017 0.000000 0.951056
vn 0.207899 -0.000059 0.978150
vn 0.309017 0.000000 0.951056
vn 0.500000 -0.000000 0.866026
vn 0.406749 -0.000059 0.913540
vn 0.500000 -0.000184 0.866025
vn 0.669130 0.000000 0.743145
vn 0.587774 -0.000059 0.809025
vn 0.669130 0.000000 0.743145
vn 0.809017 0.000000 0.587785
vn 0.743153 -0.000059 0.669121
vn 0.809017 -0.000184 0.587785
vn 0.913545 -0.000000 0.406737
vn 0.866019 -0.000059 0.500011
vn 0.913546 -0.000000 0.406737
vn 0.978148 -0.000000 0.207912
vn 0.951061 -0.000059 0.309005
vn 0.978148 -0.000184 0.207912
vn 1.000000 -0.000000 0.000000
vn 0.994521 -0.000059 0.104541
vn 1.000000 -0.000000 0.000000
vn 0.978148 0.000000 -0.207912
vn 0.994521 -0.000059 -0.104541
vn 0.978148 -0.000184 -0.207912
vn 0.913545 0.000000 -0.406737
vn 0.951060 -0.000059 -0.309005
vn 0.913545 0.000000 -0.406737
vn 0.809017 0.000000 -0.587785
vn 0.866019 -0.000059 -0.500012
vn 0.809017 -0.000184 -0.587785
vn 0.669131 -0.000000 -0.743145
vn 0.743153 -0.000059 -0.669121
vn 0.669131 -0.000000 -0.743145
vn 0.500000 -0.000000 -0.866025
vn 0.587775 -0.000059 -0.809025
vn 0.500000 -0.000184 -0.866025
vn 0.309017 0.000000 -0.951057
vn 0.406749 -0.000059 -0.913540
vn 0.309017 0.000000 -0.951057
vn 0.104528 0.000000 -0.994522
vn 0.207899 -0.000059 -0.978150
vn 0.104528 -0.000184 -0.994522
vn -0.104529 -0.000000 -0.994522
vn 0.000013 -0.000059 -1.000000
vn -0.104529 -0.000000 -0.994522
vn -0.309017 -0.000000 -0.951057
vn -0.207924 -0.000059 -0.978145
vn -0.309017 -0.000184 -0.951056
vn -0.500000 -0.000000 -0.866025
vn -0.406725 -0.000059 -0.913551
vn -0.500000 -0.000000 -0.866026
vn -0.669131 -0.000000 -0.743145
vn -0.587796 -0.000059 -0.809010
vn -0.669131 -0.000184 -0.743145
vn -0.809017 -0.000000 -0.587785
vn -0.743136 -0.000059 -0.669140
vn -0.809017 -0.000000 -0.587785
vn -0.913546 -0.000000 -0.406737
vn -0.866032 -0.000059 -0.499989
vn -0.913546 -0.000184 -0.406737
vn -0.978148 -0.000000 -0.207910
vn -0.951053 -0.000059 -0.309029
vn -0.978148 -0.000000 -0.207910
vn -0.994524 -0.000059 -0.104513
vn 0.061692 0.998009 -0.013113
vn -0.059233 0.844423 -0.532392
vn -0.058580 0.846365 -0.529372
vn 0.061692 0.998009 -0.013113
vn 0.161799 0.846365 0.507432
vn 0.162431 0.844423 0.510457
vn 0.051025 0.998009 -0.037072
vn -0.270656 0.844423 -0.462272
vn -0.268831 0.846365 -0.459778
vn 0.051025 0.998009 -0.037072
vn 0.354202 0.846365 0.397752
vn 0.356010 0.844423 0.400259
vn 0.031535 0.998009 -0.054621
vn -0.435279 0.844423 -0.312221
vn -0.432598 0.846365 -0.310685
vn 0.031535 0.998009 -0.054621
vn 0.485360 0.846365 0.219298
vn 0.488031 0.844423 0.220852
vn 0.006593 0.998009 -0.062725
vn -0.524639 0.844423 -0.108184
vn -0.521565 0.846365 -0.107871
vn 0.006593 0.998009 -0.062725
vn 0.532595 0.846365 0.002925
vn 0.535667 0.844423 0.003259
vn -0.019490 0.998009 -0.059984
vn -0.523284 0.844423 0.114559
vn -0.520348 0.846365 0.113594
vn -0.019490 0.998009 -0.059984
vn 0.487739 0.846365 -0.213954
vn 0.490682 0.844423 -0.214899
vn -0.042203 0.998009 -0.046871
vn -0.431448 0.844423 0.317494
vn -0.429159 0.846365 0.315418
vn -0.042202 0.998009 -0.046871
vn 0.358549 0.846365 -0.393838
vn 0.360853 0.844423 -0.395898
vn -0.057618 0.998009 -0.025653
vn -0.265011 0.844423 0.465531
vn -0.263764 0.846365 0.462703
vn -0.057618 0.998009 -0.025653
vn 0.167363 0.846365 -0.505624
vn 0.168629 0.844423 -0.508443
vn -0.063071 0.998009 0.000000
vn -0.052752 0.844423 0.533073
vn -0.052762 0.846365 0.529983
vn -0.063071 0.998009 0.000000
vn -0.052762 0.846365 -0.529983
vn -0.052752 0.844423 -0.533073
vn -0.057618 0.998009 0.025653
vn 0.168629 0.844423 0.508443
vn 0.167363 0.846365 0.505624
vn -0.057618 0.998009 0.025653
vn -0.263764 0.846365 -0.462703
vn -0.265011 0.844423 -0.465531
vn -0.042203 0.998009 0.046871
vn 0.360853 0.844423 0.395898
vn 0.358549 0.846365 0.393838
vn -0.042203 0.998009 0.046871
vn -0.429159 0.846365 -0.315418
vn -0.431448 0.844423 -0.317494
vn -0.019490 0.998009 0.059984
vn 0.490682 0.844423 0.214899
vn 0.487739 0.846365 0.213954
vn -0.019490 0.998009 0.059984
vn -0.520348 0.846365 -0.113594
vn -0.523284 0.844423 -0.114559
vn 0.006592 0.998009 0.062725
vn 0.535667 0.844423 -0.003259
vn 0.532595 0.846365 -0.002925
vn 0.006593 0.998009 0.062725
vn -0.521565 0.846365 0.107871
vn -0.524639 0.844423 0.108184
vn 0.031535 0.998009 0.054621
vn 0.488031 0.844423 -0.220852
vn 0.485360 0.846365 -0.219298
vn 0.031535 0.998009 0.054621
vn -0.432597 0.846365 0.310685
vn -0.435279 0.844423 0.312221
vn 0.051025 0.998009 0.037072
vn 0.356010 0.844423 -0.400259
vn 0.354202 0.846365 -0.397752
vn 0.051025 0.998009 0.037072
vn -0.268831 0.846366 0.459778
vn -0.270656 0.844423 0.462272
vn 0.061692 0.998009 0.013114
vn 0.162431 0.844423 -0.510457
vn 0.161799 0.846365 -0.507432
vn 0.061693 0.998009 0.013113
vn -0.058581 0.846365 0.529372
vn -0.059233 0.844423 0.532393
vn 0.978148 0.000000 -0.207912
vn 0.994524 0.000052 -0.104507
vn 1.000000 0.000105 -0.000001
vn 1.000000 0.000001 -0.000001
vn 0.978148 0.000000 -0.207912
vn 0.809017 0.000000 -0.587785
vn 0.866036 0.000052 -0.499982
vn 0.913545 0.000104 -0.406737
vn 0.913545 0.000000 -0.406737
vn 0.809017 0.000000 -0.587785
vn 0.500000 0.000000 -0.866025
vn 0.587803 0.000052 -0.809004
vn 0.669131 0.000104 -0.743145
vn 0.669131 0.000000 -0.743145
vn 0.500000 0.000000 -0.866025
vn 0.104528 0.000000 -0.994522
vn 0.207933 0.000052 -0.978143
vn 0.309017 0.000104 -0.951056
vn 0.309017 0.000000 -0.951056
vn 0.104528 0.000000 -0.994522
vn -0.309017 0.000000 -0.951057
vn -0.207890 0.000052 -0.978152
vn -0.104528 0.000104 -0.994522
vn -0.104528 -0.000000 -0.994522
vn -0.309017 0.000000 -0.951057
vn -0.669131 0.000000 -0.743145
vn -0.587768 0.000052 -0.809030
vn -0.500000 0.000104 -0.866025
vn -0.500000 0.000000 -0.866026
vn -0.669131 0.000000 -0.743145
vn -0.913545 0.000000 -0.406737
vn -0.866015 0.000051 -0.500019
vn -0.809017 0.000104 -0.587785
vn -0.809017 -0.000000 -0.587785
vn -0.913545 0.000000 -0.406737
vn -1.000000 0.000000 0.000000
vn -0.994520 0.000052 -0.104550
vn -0.978148 0.000104 -0.207912
vn -0.978148 0.000000 -0.207912
vn -1.000000 0.000000 0.000000
vn -0.913545 0.000000 0.406737
vn -0.951063 0.000052 0.308997
vn -0.978148 0.000104 0.207912
vn -0.978148 0.000000 0.207912
vn -0.913545 0.000000 0.406737
vn -0.669131 0.000000 0.743145
vn -0.743159 0.000052 0.669114
vn -0.809017 0.000104 0.587785
vn -0.809017 0.000000 0.587785
vn -0.669131 0.000000 0.743145
vn -0.309017 -0.000000 0.951057
vn -0.406756 0.000052 0.913537
vn -0.500000 0.000104 0.866025
vn -0.500000 0.000000 0.866025
vn -0.309017 -0.000000 0.951057
vn 0.104529 0.000000 0.994522
vn -0.000022 0.000052 1.000000
vn -0.104528 0.000104 0.994522
vn -0.104528 -0.000000 0.994522
vn 0.104529 0.000000 0.994522
vn 0.500000 0.000000 0.866025
vn 0.406717 0.000052 0.913554
vn 0.309017 0.000104 0.951056
vn 0.309017 0.000000 0.951057
vn 0.500000 0.000000 0.866025
vn 0.809017 0.000000 0.587785
vn 0.743131 0.000052 0.669146
vn 0.669131 0.000104 0.743145
vn 0.669131 0.000000 0.743145
vn 0.809017 0.000000 0.587785
vn 0.978148 0.000000 0.207910
vn 0.951050 0.000052 0.309037
vn 0.913545 0.000104 0.406737
vn 0.913546 0.000000 0.406737
vn 0.978148 0.000000 0.207910
vn 0.000000 -1.000000 0.000000
vn -0.000000 -1.000000 0.000000
vn -0.000000 -1.000000 0.000000
vn 0.000000 -1.000000 0.000000
vn 0.000000 -1.000000 0.000000
vn 0.000000 -1.000000 0.000000
vn 0.000000 -1.000000 0.000000
vn 0.000000 -1.000000 0.000000
vn 0.000000 -1.000000 0.000000
vn 0.000000 -1.000000 0.000000
vn 0.000000 -1.000000 0.000000
vn 0.000000 -1.000000 0.000000
vn 0.000000 -1.000000 0.000000
vn 0.000000 -1.000000 0.000000
vn 0.000000 -1.000000 0.000000
vn 0.000000 -1.000000 0.000000
vn 0.000000 -1.000000 0.000000
vn 0.000000 -1.000000 0.000000
vn 0.000000 -1.000000 0.000000
vn 0.000000 -1.000000 0.000000
vn 0.000000 -1.000000 0.000000
vn 0.000000 -1.000000 0.000000
vn 0.000000 -1.000000 -0.000000
vn 0.000000 -1.000000 -0.000000
vn 0.000000 -1.000000 -0.000000
vn 0.000000 -1.000000 -0.000000
vn 0.000000 -1.000000 0.000000
vn 0.000000 -1.000000 0.000000
vn 0.000000 -1.000000 0.000000
vn 0.000000 -1.000000 0.000000
vn 0.000000 -1.000000 0.000000
vn 0.000000 -1.000000 0.000000
vn 0.000000 -1.000000 0.000000
vn 0.000000 -1.000000 0.000000
vn 0.000000 -1.000000 0.000000
vn 0.000000 -1.000000 0.000000
vn 0.000000 -1.000000 0.000000
vn 0.000000 -1.000000 0.000000
vn 0.000000 -1.000000 0.000000
vn 0.000000 -1.000000 0.000000
vn 0.000000 -1.000000 -0.000000
vn 0.000000 -1.000000 -0.000000
vn 0.000000 -1.000000 -0.000000
vn 0.000000 -1.000000 -0.000000
vn 0.000000 -1.000000 -0.000000
vn 0.000000 -1.000000 -0.000000
vn -0.000000 -1.000000 -0.000000
vn -0.000000 -1.000000 -0.000000
vn -0.000000 -1.000000 -0.000000
vn -0.000000 -1.000000 -0.000000
vn -0.000000 -1.000000 -0.000000
vn -0.000000 -1.000000 -0.000000
vn -0.000000 -1.000000 -0.000000
vn -0.000000 -1.000000 -0.000000
vn -0.000000 -1.000000 0.000000
vn -0.000000 -1.000000 0.000000
vn -0.000000 -1.000000 0.000000
vn -0.000000 -1.000000 -0.000000
vn -0.000000 -1.000000 -0.000000
vn -0.000000 -1.000000 0.000000
vn 0.994524 0.000052 0.104504
vn 0.951050 0.000052 -0.309037
vn 0.743131 0.000052 -0.669146
vn 0.406718 0.000052 -0.913554
vn -0.000022 0.000052 -1.000000
vn -0.406756 0.000052 -0.913537
vn -0.743159 0.000052 -0.669115
vn -0.951063 0.000052 -0.308997
vn -0.994520 0.000052 0.104550
vn -0.866015 0.000052 0.500019
vn -0.587768 0.000052 0.809030
vn -0.207890 0.000052 0.978152
vn 0.207933 0.000052 0.978143
vn 0.587803 0.000052 0.809004
vn 0.866036 0.000052 0.499982
vn -0.009422 0.956163 -0.292682
vn -0.009422 0.956163 -0.292682
vn -0.009422 0.956163 0.292683
vn -0.009422 0.956163 0.292683
vn -0.127652 0.956164 -0.263545
vn -0.127652 0.956164 -0.263545
vn 0.110437 0.956164 0.271210
vn 0.110437 0.956164 0.271210
vn -0.223809 0.956164 -0.188841
vn -0.223809 0.956163 -0.188841
vn 0.211201 0.956163 0.202845
vn 0.211201 0.956163 0.202845
vn -0.281268 0.956164 -0.081482
vn -0.281268 0.956164 -0.081482
vn 0.275445 0.956163 0.099405
vn 0.275445 0.956163 0.099405
vn -0.290093 0.956164 0.039964
vn -0.290093 0.956164 0.039964
vn 0.292063 0.956164 -0.021223
vn 0.292063 0.956164 -0.021223
vn -0.248758 0.956164 0.154500
vn -0.248758 0.956164 0.154500
vn 0.258180 0.956164 -0.138181
vn 0.258180 0.956164 -0.138181
vn -0.164411 0.956163 0.242323
vn -0.164411 0.956164 0.242323
vn 0.179656 0.956164 -0.231245
vn 0.179656 0.956164 -0.231245
vn -0.051636 0.956164 0.288243
vn -0.051636 0.956164 0.288243
vn 0.070068 0.956164 -0.284326
vn 0.070068 0.956164 -0.284326
vn 0.070068 0.956164 0.284326
vn 0.070068 0.956164 0.284326
vn -0.051636 0.956164 -0.288243
vn -0.051636 0.956164 -0.288243
vn 0.179656 0.956164 0.231246
vn 0.179656 0.956164 0.231246
vn -0.164411 0.956164 -0.242322
vn -0.164411 0.956164 -0.242322
vn 0.258180 0.956164 0.138181
vn 0.258180 0.956164 0.138181
vn -0.248759 0.956163 -0.154501
vn -0.248759 0.956164 -0.154501
vn 0.292063 0.956164 0.021223
vn 0.292063 0.956164 0.021223
vn -0.290093 0.956164 -0.039964
vn -0.290093 0.956164 -0.039964
vn 0.275445 0.956164 -0.099404
vn 0.275445 0.956164 -0.099404
vn -0.281268 0.956164 0.081483
vn -0.281268 0.956164 0.081483
vn 0.211201 0.956164 -0.202844
vn 0.211201 0.956164 -0.202844
vn -0.223809 0.956164 0.188840
vn -0.223809 0.956164 0.188840
vn 0.110437 0.956164 -0.271210
vn 0.110437 0.956164 -0.271210
vn -0.127652 0.956164 0.263544
vn -0.127652 0.956164 0.263544
vn -0.994570 -0.104074 0.000000
vn 0.996633 0.081991 -0.000004
vn -0.908584 -0.104077 0.404528
vn 0.910469 0.081996 -0.405367
vn -0.665496 -0.104058 0.739112
vn 0.666878 0.081993 -0.740642
vn -0.307342 -0.104068 0.945892
vn 0.307976 0.081999 -0.947854
vn 0.103959 -0.104069 0.989122
vn -0.104175 0.081993 -0.991173
vn 0.497284 -0.104070 0.861323
vn -0.498320 0.081991 -0.863108
vn 0.804625 -0.104072 0.584592
vn -0.806292 0.081992 -0.585808
vn 0.972837 -0.104059 0.206783
vn -0.974853 0.082007 -0.207213
vn 0.972836 -0.104072 -0.206783
vn -0.974853 0.082003 0.207213
vn 0.804625 -0.104063 -0.584594
vn -0.806293 0.081992 0.585807
vn 0.497285 -0.104072 -0.861323
vn -0.498316 0.081998 0.863110
vn 0.103962 -0.104069 -0.989122
vn -0.104173 0.081992 0.991174
vn -0.307341 -0.104068 -0.945892
vn 0.307978 0.081997 0.947853
vn -0.665499 -0.104059 -0.739109
vn 0.666879 0.081996 0.740641
vn -0.908584 -0.104069 -0.404530
vn 0.910470 0.081991 0.405366
s 1
g pPipe1
usemtl initialShadingGroup
f 2/1/1 1/2/2 93/3/3 92/4/4 31/5/5
f 3/10/6 2/1/1 31/5/5 102/11/7 101/12/8
f 4/17/9 3/10/6 101/12/8 100/18/10 32/19/11
f 5/24/12 4/17/9 32/19/11 110/25/13 109/26/14
f 6/31/15 5/24/12 109/26/14 108/32/16 33/33/17
f 7/331/18 6/332/15 33/333/17 118/334/19 117/335/20
f 8/337/21 7/331/18 117/335/20 116/338/22 34/339/23
f 9/340/24 8/337/21 34/339/23 126/341/25 125/342/26
f 10/344/27 9/340/24 125/342/26 124/345/28 35/346/29
f 11/347/30 10/344/27 35/346/29 134/348/31 133/349/32
f 12/50/33 11/57/30 133/58/32 132/59/34 36/51/35
f 13/43/36 12/50/33 36/51/35 142/52/37 141/44/38
f 14/39/39 13/43/36 141/44/38 140/45/40 37/40/41
f 15/38/42 14/39/39 37/40/41 150/41/43 149/42/44
f 16/47/45 15/38/42 149/42/44 148/48/46 38/49/47
f 17/54/48 16/47/45 38/49/47 158/55/49 157/56/50
f 18/61/51 17/54/48 157/56/50 156/62/52 39/63/53
f 19/65/54 18/61/51 39/63/53 166/66/55 165/67/56
f 20/69/57 19/65/54 165/67/56 164/70/58 40/71/59
f 21/72/60 20/69/57 40/71/59 174/73/61 173/74/62
f 22/351/63 21/352/60 173/353/62 172/354/64 41/355/65
f 23/357/66 22/351/63 41/355/65 182/358/67 181/359/68
f 24/361/69 23/357/66 181/359/68 180/362/70 42/363/71
f 25/364/72 24/361/69 42/363/71 190/365/73 189/366/74
f 26/368/75 25/364/72 189/366/74 188/369/76 43/370/77
f 27/27/78 26/34/75 43/35/77 198/36/79 197/28/80
f 28/20/81 27/27/78 197/28/80 196/29/82 44/21/83
f 29/13/84 28/20/81 44/21/83 206/22/85 205/14/86
f 30/6/87 29/13/84 205/14/86 204/15/88 45/7/89
f 1/2/2 30/6/87 45/7/89 94/8/90 93/3/3
s 2
f 31/163/91 92/167/92 96/168/93 46/164/94
f 106/160/95 102/159/96 31/163/91 46/164/94
s 3
f 32/151/97 100/152/98 104/153/99 47/154/100
f 114/157/101 110/158/102 32/151/97 47/154/100
s 4
f 33/169/103 108/165/104 112/166/105 48/170/106
f 122/173/107 118/174/108 33/169/103 48/170/106
s 5
f 34/185/109 116/181/110 120/182/111 49/186/112
f 130/189/113 126/190/114 34/185/109 49/186/112
s 6
f 35/201/115 124/197/116 128/198/117 50/202/118
f 138/205/119 134/206/120 35/201/115 50/202/118
s 7
f 36/217/121 132/213/122 136/214/123 51/218/124
f 146/221/125 142/222/126 36/217/121 51/218/124
s 8
f 37/233/127 140/229/128 144/230/129 52/234/130
f 154/237/131 150/238/132 37/233/127 52/234/130
s 9
f 38/249/133 148/245/134 152/246/135 53/250/136
f 162/253/137 158/254/138 38/249/133 53/250/136
s 10
f 39/265/139 156/261/140 160/262/141 54/266/142
f 170/269/143 166/270/144 39/265/139 54/266/142
s 11
f 40/259/145 164/263/146 168/264/147 55/260/148
f 178/256/149 174/255/150 40/259/145 55/260/148
s 12
f 41/243/151 172/247/152 176/248/153 56/244/154
f 186/240/155 182/239/156 41/243/151 56/244/154
s 13
f 42/227/157 180/231/158 184/232/159 57/228/160
f 194/224/161 190/223/162 42/227/157 57/228/160
s 14
f 43/211/163 188/215/164 192/216/165 58/212/166
f 202/208/167 198/207/168 43/211/163 58/212/166
s 15
f 44/195/169 196/199/170 200/200/171 59/196/172
f 210/192/173 206/191/174 44/195/169 59/196/172
s 16
f 45/179/175 204/183/176 208/184/177 60/180/178
f 98/176/179 94/175/180 45/179/175 60/180/178
s 17
f 46/76/181 96/77/182 95/78/183 61/79/184 62/80/185
f 47/92/186 104/93/187 103/85/188 63/87/189 64/94/190
f 48/106/191 112/107/192 111/99/193 65/101/194 66/108/195
f 49/371/196 120/372/197 119/373/198 67/374/199 68/375/200
f 50/384/201 128/385/202 127/380/203 69/382/204 70/386/205
f 51/134/206 136/139/207 135/140/208 71/141/209 72/135/210
f 52/120/211 144/125/212 143/126/213 73/127/214 74/121/215
f 53/113/216 152/114/217 151/115/218 75/116/219 76/117/220
f 54/129/221 160/130/222 159/122/223 77/124/224 78/131/225
f 55/143/226 168/144/227 167/136/228 79/138/229 80/145/230
f 56/391/231 176/392/232 175/393/233 81/394/234 82/395/235
f 57/401/236 184/402/237 183/397/238 83/399/239 84/403/240
f 58/408/241 192/409/242 191/404/243 85/406/244 86/410/245
f 59/97/246 200/102/247 199/103/248 87/104/249 88/98/250
f 60/83/251 208/88/252 207/89/253 89/90/254 90/84/255
s 32
f 62/271/256 61/272/257 1/273/258 2/274/259
f 63/277/260 62/271/256 2/274/259 3/278/261
f 64/281/262 63/277/260 3/278/261 4/282/263
f 65/285/264 64/281/262 4/282/263 5/286/265
f 66/289/266 65/285/264 5/286/265 6/290/267
f 67/293/268 66/289/266 6/290/267 7/294/269
f 68/297/270 67/293/268 7/294/269 8/298/271
f 69/301/272 68/297/270 8/298/271 9/302/273
f 70/305/274 69/301/272 9/302/273 10/306/275
f 71/309/276 70/305/274 10/306/275 11/310/277
f 72/313/278 71/309/276 11/310/277 12/314/279
f 73/317/280 72/313/278 12/314/279 13/318/281
f 74/321/282 73/317/280 13/318/281 14/322/283
f 75/325/284 74/321/282 14/322/283 15/326/285
f 76/329/286 75/325/284 15/326/285 16/330/287
f 77/327/288 76/329/286 16/330/287 17/328/289
f 78/323/290 77/327/288 17/328/289 18/324/291
f 79/319/292 78/323/290 18/324/291 19/320/293
f 80/315/294 79/319/292 19/320/293 20/316/295
f 81/311/296 80/315/294 20/316/295 21/312/297
f 82/307/298 81/311/296 21/312/297 22/308/299
f 83/303/300 82/307/298 22/308/299 23/304/301
f 84/299/302 83/303/300 23/304/301 24/300/303
f 85/295/304 84/299/302 24/300/303 25/296/305
f 86/291/306 85/295/304 25/296/305 26/292/307
f 87/287/308 86/291/306 26/292/307 27/288/309
f 88/283/310 87/287/308 27/288/309 28/284/311
f 89/279/312 88/283/310 28/284/311 29/280/313
f 90/275/314 89/279/312 29/280/313 30/276/315
f 61/272/257 90/275/314 30/276/315 1/273/258
s 17
f 95/78/183 98/82/316 60/83/251 90/84/255 61/79/184
f 103/85/188 106/86/317 46/76/181 62/80/185 63/87/189
f 111/99/193 114/100/318 47/92/186 64/94/190 65/101/194
f 119/373/198 122/377/319 48/378/191 66/379/195 67/374/199
f 127/380/203 130/381/320 49/371/196 68/375/200 69/382/204
f 135/387/208 138/388/321 50/384/201 70/386/205 71/389/209
f 143/126/213 146/133/322 51/134/206 72/135/210 73/127/214
f 151/115/218 154/119/323 52/120/211 74/121/215 75/116/219
f 159/122/223 162/123/324 53/113/216 76/117/220 77/124/224
f 167/136/228 170/137/325 54/129/221 78/131/225 79/138/229
f 175/147/233 178/148/326 55/143/226 80/145/230 81/149/234
f 183/397/238 186/398/327 56/391/231 82/395/235 83/399/239
f 191/404/243 194/405/328 57/401/236 84/403/240 85/406/244
f 199/103/248 202/110/329 58/111/241 86/112/245 87/104/249
f 207/89/253 210/96/330 59/97/246 88/98/250 89/90/254
s 2
f 92/167/92 91/171/331 97/172/332 96/168/93
s 16
f 91/171/333 94/175/180 98/176/179 97/172/334
s 3
f 100/152/98 99/155/335 105/156/336 104/153/99
s 2
f 99/155/337 102/159/96 106/160/95 105/156/338
s 4
f 108/165/104 107/161/339 113/162/340 112/166/105
s 3
f 107/161/341 110/158/102 114/157/101 113/162/342
s 5
f 116/181/110 115/177/343 121/178/344 120/182/111
s 4
f 115/177/345 118/174/108 122/173/107 121/178/346
s 6
f 124/197/116 123/193/347 129/194/348 128/198/117
s 5
f 123/193/349 126/190/114 130/189/113 129/194/350
s 7
f 132/213/122 131/209/351 137/210/352 136/214/123
s 6
f 131/209/353 134/206/120 138/205/119 137/210/354
s 8
f 140/229/128 139/225/355 145/226/356 144/230/129
s 7
f 139/225/357 142/222/126 146/221/125 145/226/358
s 9
f 148/245/134 147/241/359 153/242/360 152/246/135
s 8
f 147/241/361 150/238/132 154/237/131 153/242/362
s 10
f 156/261/140 155/257/363 161/258/364 160/262/141
s 9
f 155/257/365 158/254/138 162/253/137 161/258/366
s 11
f 164/263/146 163/267/367 169/268/368 168/264/147
s 10
f 163/267/369 166/270/144 170/269/143 169/268/370
s 12
f 172/247/152 171/251/371 177/252/372 176/248/153
s 11
f 171/251/373 174/255/150 178/256/149 177/252/374
s 13
f 180/231/158 179/235/375 185/236/376 184/232/159
s 12
f 179/235/377 182/239/156 186/240/155 185/236/378
s 14
f 188/215/164 187/219/379 193/220/380 192/216/165
s 13
f 187/219/381 190/223/162 194/224/161 193/220/382
s 15
f 196/199/170 195/203/383 201/204/384 200/200/171
s 14
f 195/203/385 198/207/168 202/208/167 201/204/386
s 16
f 204/183/176 203/187/387 209/188/388 208/184/177
s 15
f 203/187/389 206/191/174 210/192/173 209/188/390
s 1
f 93/3/3 94/8/90 91/9/391
f 93/3/3 91/9/391 92/4/4
s 17
f 95/78/183 96/77/182 97/81/392
f 95/78/183 97/81/392 98/82/316
s 1
f 101/12/8 102/11/7 99/16/393
f 101/12/8 99/16/393 100/18/10
s 17
f 103/85/188 104/93/187 105/91/394
f 103/85/188 105/91/394 106/86/317
s 1
f 109/26/14 110/25/13 107/30/395
f 109/26/14 107/30/395 108/32/16
s 17
f 111/99/193 112/107/192 113/105/396
f 111/99/193 113/105/396 114/100/318
s 1
f 117/335/20 118/334/19 115/336/397
f 117/335/20 115/336/397 116/338/22
s 17
f 119/373/198 120/372/197 121/376/398
f 119/373/198 121/376/398 122/377/319
s 1
f 125/342/26 126/341/25 123/343/399
f 125/342/26 123/343/399 124/345/28
s 17
f 127/380/203 128/385/202 129/383/400
f 127/380/203 129/383/400 130/381/320
s 1
f 133/349/32 134/348/31 131/350/401
f 133/58/32 131/64/401 132/59/34
s 17
f 135/140/208 136/139/207 137/146/402
f 135/387/208 137/390/402 138/388/321
s 1
f 141/44/38 142/52/37 139/53/403
f 141/44/38 139/53/403 140/45/40
s 17
f 143/126/213 144/125/212 145/132/404
f 143/126/213 145/132/404 146/133/322
s 1
f 149/42/44 150/41/43 147/46/405
f 149/42/44 147/46/405 148/48/46
s 17
f 151/115/218 152/114/217 153/118/406
f 151/115/218 153/118/406 154/119/323
s 1
f 157/56/50 158/55/49 155/60/407
f 157/56/50 155/60/407 156/62/52
s 17
f 159/122/223 160/130/222 161/128/408
f 159/122/223 161/128/408 162/123/324
s 1
f 165/67/56 166/66/55 163/68/409
f 165/67/56 163/68/409 164/70/58
s 17
f 167/136/228 168/144/227 169/142/410
f 167/136/228 169/142/410 170/137/325
s 1
f 173/74/62 174/73/61 171/75/411
f 173/353/62 171/356/411 172/354/64
s 17
f 175/393/233 176/392/232 177/396/412
f 175/147/233 177/150/412 178/148/326
s 1
f 181/359/68 182/358/67 179/360/413
f 181/359/68 179/360/413 180/362/70
s 17
f 183/397/238 184/402/237 185/400/414
f 183/397/238 185/400/414 186/398/327
s 1
f 189/366/74 190/365/73 187/367/415
f 189/366/74 187/367/415 188/369/76
s 17
f 191/404/243 192/409/242 193/407/416
f 191/404/243 193/407/416 194/405/328
s 1
f 197/28/80 198/36/79 195/37/417
f 197/28/80 195/37/417 196/29/82
s 17
f 199/103/248 200/102/247 201/109/418
f 199/103/248 201/109/418 202/110/329
s 1
f 205/14/86 206/22/85 203/23/419
f 205/14/86 203/23/419 204/15/88
s 17
f 207/89/253 208/88/252 209/95/420
f 207/89/253 209/95/420 210/96/330
g default
v 0.119327 0.012572 -1.927013
v 0.101506 0.047546 -1.927489
v 0.073748 0.075301 -1.927866
v 0.038772 0.093121 -1.928108
v 0.000000 0.099261 -1.928192
v -0.038772 0.093121 -1.928108
v -0.073748 0.075301 -1.927866
v -0.101506 0.047546 -1.927489
v -0.119327 0.012572 -1.927013
v -0.125468 -0.026196 -1.926486
v -0.119327 -0.064964 -1.925959
v -0.101506 -0.099937 -1.925483
v -0.073748 -0.127692 -1.925106
v -0.038772 -0.145512 -1.924864
v -0.000000 -0.151652 -1.924780
v 0.038772 -0.145512 -1.924864
v 0.073748 -0.127692 -1.925106
v 0.101506 -0.099937 -1.925483
v 0.119327 -0.064964 -1.925959
v 0.125468 -0.026196 -1.926486
v 0.119327 0.064964 1.925959
v 0.101506 0.099937 1.925483
v 0.073748 0.127692 1.925106
v 0.038772 0.145512 1.924864
v 0.000000 0.151652 1.924780
v -0.038772 0.145512 1.924864
v -0.073748 0.127692 1.925106
v -0.101506 0.099937 1.925483
v -0.119327 0.064964 1.925959
v -0.125468 0.026196 1.926486
v -0.119327 -0.012572 1.927013
v -0.101506 -0.047546 1.927489
v -0.073748 -0.075301 1.927866
v -0.038772 -0.093121 1.928108
v -0.000000 -0.099261 1.928192
v 0.038772 -0.093121 1.928108
v 0.073748 -0.075301 1.927866
v 0.101506 -0.047546 1.927489
v 0.119327 -0.012572 1.927013
v 0.125468 0.026196 1.926486
v 0.000000 -0.026196 -1.926486
v 0.000000 0.026196 1.926486
vt 0.591396 0.009302
vt 0.614380 0.009302
vt 0.614380 0.174199
vt 0.591396 0.174199
vt 0.632620 0.009302
vt 0.632620 0.174199
vt 0.565918 0.009302
vt 0.565918 0.174199
vt 0.540440 0.009302
vt 0.540440 0.174199
vt 0.517456 0.009302
vt 0.517456 0.174199
vt 0.499216 0.009302
vt 0.499216 0.174199
vt 0.753807 0.009302
vt 0.776791 0.009302
vt 0.776791 0.174199
vt 0.753807 0.174199
vt 0.802269 0.009302
vt 0.802269 0.174199
vt 0.735567 0.009302
vt 0.735567 0.174199
vt 0.827747 0.009302
vt 0.827747 0.174199
vt 0.850731 0.009302
vt 0.850731 0.174199
vt 0.868971 0.009302
vt 0.868971 0.174199
vt 0.807605 0.209883
vt 0.819315 0.232867
vt 0.740903 0.258345
vt 0.823351 0.258345
vt 0.789365 0.191643
vt 0.819315 0.283823
vt 0.766381 0.179932
vt 0.807605 0.306806
vt 0.740903 0.175896
vt 0.789364 0.325047
vt 0.715425 0.179932
vt 0.766381 0.336758
vt 0.692441 0.191643
vt 0.740903 0.340793
vt 0.674201 0.209883
vt 0.715425 0.336758
vt 0.662490 0.232867
vt 0.692441 0.325047
vt 0.658455 0.258345
vt 0.674201 0.306806
vt 0.662490 0.283823
vt 0.660077 0.450417
vt 0.648366 0.473401
vt 0.581665 0.424939
vt 0.630126 0.491641
vt 0.664113 0.424939
vt 0.607142 0.503352
vt 0.660077 0.399461
vt 0.581665 0.507387
vt 0.648366 0.376477
vt 0.556187 0.503352
vt 0.630126 0.358237
vt 0.533202 0.491641
vt 0.607142 0.346526
vt 0.514962 0.473401
vt 0.581665 0.342491
vt 0.503252 0.450417
vt 0.556186 0.346526
vt 0.499216 0.424939
vt 0.533203 0.358237
vt 0.503252 0.399461
vt 0.514962 0.376477
vt 0.732181 0.174199
vt 0.709197 0.174199
vt 0.709197 0.009302
vt 0.732181 0.009302
vt 0.683719 0.174199
vt 0.683719 0.009302
vt 0.658241 0.174199
vt 0.658241 0.009302
vt 0.635257 0.174199
vt 0.635257 0.009302
vt 0.825960 0.175896
vt 0.848944 0.175896
vt 0.848944 0.340793
vt 0.825960 0.340793
vt 0.874422 0.175896
vt 0.874422 0.340793
vt 0.899900 0.175896
vt 0.899900 0.340793
vt 0.922884 0.175896
vt 0.922884 0.340793
vn 0.951057 0.308987 -0.004202
vn 0.809017 0.587731 -0.007992
vn 0.809017 0.587731 -0.007992
vn 0.951057 0.308987 -0.004202
vn 0.587785 0.808942 -0.011000
vn 0.587785 0.808942 -0.011000
vn 0.309017 0.950969 -0.012931
vn 0.309017 0.950969 -0.012931
vn -0.000000 0.999908 -0.013596
vn -0.000000 0.999908 -0.013596
vn -0.309017 0.950969 -0.012931
vn -0.309017 0.950969 -0.012931
vn -0.587785 0.808942 -0.011000
vn -0.587785 0.808942 -0.011000
vn -0.809017 0.587731 -0.007992
vn -0.809017 0.587731 -0.007992
vn -0.951057 0.308988 -0.004202
vn -0.951057 0.308988 -0.004202
vn -1.000000 0.000000 0.000000
vn -1.000000 0.000000 0.000000
vn -0.951056 -0.308988 0.004202
vn -0.951056 -0.308988 0.004202
vn -0.809017 -0.587731 0.007992
vn -0.809017 -0.587731 0.007992
vn -0.587785 -0.808942 0.011000
vn -0.587785 -0.808942 0.011000
vn -0.309017 -0.950969 0.012931
vn -0.309017 -0.950969 0.012931
vn 0.000000 -0.999908 0.013596
vn 0.000000 -0.999908 0.013596
vn 0.309017 -0.950969 0.012931
vn 0.309017 -0.950969 0.012931
vn 0.587785 -0.808942 0.011000
vn 0.587785 -0.808942 0.011000
vn 0.809017 -0.587731 0.007992
vn 0.809017 -0.587731 0.007992
vn 0.951056 -0.308988 0.004202
vn 0.951056 -0.308988 0.004202
vn 1.000000 -0.000001 0.000000
vn 1.000000 -0.000001 0.000000
vn 0.000000 -0.013596 -0.999908
vn 0.000000 -0.013596 -0.999908
vn 0.000000 -0.013596 -0.999908
vn 0.000000 -0.013596 -0.999908
vn 0.000000 -0.013596 -0.999908
vn 0.000000 -0.013596 -0.999908
vn 0.000000 -0.013596 -0.999908
vn 0.000000 -0.013596 -0.999908
vn 0.000000 -0.013596 -0.999908
vn 0.000000 -0.013596 -0.999908
vn 0.000000 -0.013596 -0.999908
vn 0.000000 -0.013596 -0.999908
vn 0.000000 -0.013596 -0.999908
vn 0.000000 -0.013596 -0.999908
vn 0.000000 -0.013596 -0.999908
vn 0.000000 -0.013596 -0.999908
vn 0.000000 -0.013596 -0.999908
vn 0.000000 -0.013596 -0.999908
vn 0.000000 -0.013596 -0.999908
vn 0.000000 -0.013596 -0.999908
vn 0.000000 -0.013596 -0.999908
vn 0.000000 0.013596 0.999908
vn 0.000000 0.013596 0.999908
vn 0.000000 0.013596 0.999908
vn 0.000000 0.013596 0.999908
vn 0.000000 0.013596 0.999908
vn 0.000000 0.013596 0.999908
vn 0.000000 0.013596 0.999908
vn 0.000000 0.013596 0.999908
vn 0.000000 0.013596 0.999908
vn 0.000000 0.013596 0.999908
vn 0.000000 0.013596 0.999908
vn 0.000000 0.013596 0.999908
vn 0.000000 0.013596 0.999908
vn 0.000000 0.013596 0.999908
vn 0.000000 0.013596 0.999908
vn 0.000000 0.013596 0.999908
vn 0.000000 0.013596 0.999908
vn 0.000000 0.013596 0.999908
vn 0.000000 0.013596 0.999908
vn 0.000000 0.013596 0.999908
vn 0.000000 0.013596 0.999908
s 1
g pCylinder1
usemtl initialShadingGroup
f 211/411/421 212/412/422 232/413/423 231/414/424
f 212/412/422 213/415/425 233/416/426 232/413/423
f 213/481/425 214/482/427 234/483/428 233/484/426
f 214/482/427 215/485/429 235/486/430 234/483/428
f 215/485/429 216/487/431 236/488/432 235/486/430
f 216/487/431 217/489/433 237/490/434 236/488/432
f 217/431/433 218/425/435 238/428/436 237/432/434
f 218/425/435 219/426/437 239/427/438 238/428/436
f 219/426/437 220/429/439 240/430/440 239/427/438
f 220/429/439 221/433/441 241/434/442 240/430/440
f 221/433/441 222/435/443 242/436/444 241/434/442
f 222/435/443 223/437/445 243/438/446 242/436/444
f 223/491/445 224/492/447 244/493/448 243/494/446
f 224/492/447 225/495/449 245/496/450 244/493/448
f 225/495/449 226/497/451 246/498/452 245/496/450
f 226/497/451 227/499/453 247/500/454 246/498/452
f 227/423/453 228/421/455 248/422/456 247/424/454
f 228/421/455 229/419/457 249/420/458 248/422/456
f 229/419/457 230/417/459 250/418/460 249/420/458
f 230/417/459 211/411/421 231/414/424 250/418/460
s 2
f 212/439/461 211/440/462 251/441/463
f 213/443/464 212/439/461 251/441/463
f 214/445/465 213/443/464 251/441/463
f 215/447/466 214/445/465 251/441/463
f 216/449/467 215/447/466 251/441/463
f 217/451/468 216/449/467 251/441/463
f 218/453/469 217/451/468 251/441/463
f 219/455/470 218/453/469 251/441/463
f 220/457/471 219/455/470 251/441/463
f 221/459/472 220/457/471 251/441/463
f 222/458/473 221/459/472 251/441/463
f 223/456/474 222/458/473 251/441/463
f 224/454/475 223/456/474 251/441/463
f 225/452/476 224/454/475 251/441/463
f 226/450/477 225/452/476 251/441/463
f 227/448/478 226/450/477 251/441/463
f 228/446/479 227/448/478 251/441/463
f 229/444/480 228/446/479 251/441/463
f 230/442/481 229/444/480 251/441/463
f 211/440/462 230/442/481 251/441/463
s 3
f 231/460/482 232/461/483 252/462/484
f 232/461/483 233/463/485 252/462/484
f 233/463/485 234/465/486 252/462/484
f 234/465/486 235/467/487 252/462/484
f 235/467/487 236/469/488 252/462/484
f 236/469/488 237/471/489 252/462/484
f 237/471/489 238/473/490 252/462/484
f 238/473/490 239/475/491 252/462/484
f 239/475/491 240/477/492 252/462/484
f 240/477/492 241/479/493 252/462/484
f 241/479/493 242/480/494 252/462/484
f 242/480/494 243/478/495 252/462/484
f 243/478/495 244/476/496 252/462/484
f 244/476/496 245/474/497 252/462/484
f 245/474/497 246/472/498 252/462/484
f 246/472/498 247/470/499 252/462/484
f 247/470/499 248/468/500 252/462/484
f 248/468/500 249/466/501 252/462/484
f 249/466/501 250/464/502 252/462/484
f 250/464/502 231/460/482 252/462/484
g default
v 0.560226 0.087226 -0.182028
v 0.476557 0.087226 -0.346239
v 0.346239 0.087226 -0.476557
v 0.182028 0.087226 -0.560226
v 0.000000 0.087226 -0.589056
v -0.182028 0.087226 -0.560226
v -0.346239 0.087226 -0.476557
v -0.476557 0.087226 -0.346239
v -0.560226 0.087226 -0.182028
v -0.589056 0.087226 0.000000
v -0.560226 0.087226 0.182028
v -0.476557 0.087226 0.346239
v -0.346239 0.087226 0.476557
v -0.182028 0.087226 0.560226
v -0.000000 0.087226 0.589056
v 0.182028 0.087226 0.560226
v 0.346239 0.087226 0.476557
v 0.476556 0.087226 0.346239
v 0.560226 0.087226 0.182028
v 0.589056 0.087226 0.000000
v 0.560226 0.149427 -0.182028
v 0.476557 0.149427 -0.346239
v 0.346239 0.149427 -0.476557
v 0.182028 0.149427 -0.560226
v 0.000000 0.149427 -0.589056
v -0.182028 0.149427 -0.560226
v -0.346239 0.149427 -0.476557
v -0.476557 0.149427 -0.346239
v -0.560226 0.149427 -0.182028
v -0.589056 0.149427 0.000000
v -0.560226 0.149427 0.182028
v -0.476557 0.149427 0.346239
v -0.346239 0.149427 0.476557
v -0.182028 0.149427 0.560226
v -0.000000 0.149427 0.589056
v 0.182028 0.149427 0.560226
v 0.346239 0.149427 0.476557
v 0.476556 0.149427 0.346239
v 0.560226 0.149427 0.182028
v 0.589056 0.149427 0.000000
v 0.000000 0.087226 0.000000
v 0.000000 0.149427 0.000000
vt 0.591396 0.009302
vt 0.614380 0.009302
vt 0.614380 0.174199
vt 0.591396 0.174199
vt 0.632620 0.009302
vt 0.632620 0.174199
vt 0.565918 0.009302
vt 0.565918 0.174199
vt 0.540440 0.009302
vt 0.540440 0.174199
vt 0.517456 0.009302
vt 0.517456 0.174199
vt 0.499216 0.009302
vt 0.499216 0.174199
vt 0.753807 0.009302
vt 0.776791 0.009302
vt 0.776791 0.174199
vt 0.753807 0.174199
vt 0.802269 0.009302
vt 0.802269 0.174199
vt 0.735567 0.009302
vt 0.735567 0.174199
vt 0.827747 0.009302
vt 0.827747 0.174199
vt 0.850731 0.009302
vt 0.850731 0.174199
vt 0.868971 0.009302
vt 0.868971 0.174199
vt 0.807605 0.209883
vt 0.819315 0.232867
vt 0.740903 0.258345
vt 0.823351 0.258345
vt 0.789365 0.191643
vt 0.819315 0.283823
vt 0.766381 0.179932
vt 0.807605 0.306806
vt 0.740903 0.175896
vt 0.789364 0.325047
vt 0.715425 0.179932
vt 0.766381 0.336758
vt 0.692441 0.191643
vt 0.740903 0.340793
vt 0.674201 0.209883
vt 0.715425 0.336758
vt 0.662490 0.232867
vt 0.692441 0.325047
vt 0.658455 0.258345
vt 0.674201 0.306806
vt 0.662490 0.283823
vt 0.660077 0.450417
vt 0.648366 0.473401
vt 0.581665 0.424939
vt 0.630126 0.491641
vt 0.664113 0.424939
vt 0.607142 0.503352
vt 0.660077 0.399461
vt 0.581665 0.507387
vt 0.648366 0.376477
vt 0.556187 0.503352
vt 0.630126 0.358237
vt 0.533202 0.491641
vt 0.607142 0.346526
vt 0.514962 0.473401
vt 0.581665 0.342491
vt 0.503252 0.450417
vt 0.556186 0.346526
vt 0.499216 0.424939
vt 0.533203 0.358237
vt 0.503252 0.399461
vt 0.514962 0.376477
vt 0.732181 0.174199
vt 0.709197 0.174199
vt 0.709197 0.009302
vt 0.732181 0.009302
vt 0.683719 0.174199
vt 0.683719 0.009302
vt 0.658241 0.174199
vt 0.658241 0.009302
vt 0.635257 0.174199
vt 0.635257 0.009302
vt 0.825960 0.175896
vt 0.848944 0.175896
vt 0.848944 0.340793
vt 0.825960 0.340793
vt 0.874422 0.175896
vt 0.874422 0.340793
vt 0.899900 0.175896
vt 0.899900 0.340793
vt 0.922884 0.175896
vt 0.922884 0.340793
vn 0.951057 0.000000 -0.309016
vn 0.809017 0.000000 -0.587785
vn 0.809017 0.000000 -0.587785
vn 0.951057 0.000000 -0.309016
vn 0.587785 0.000000 -0.809017
vn 0.587785 0.000000 -0.809017
vn 0.309017 0.000000 -0.951057
vn 0.309017 0.000000 -0.951057
vn -0.000000 0.000000 -1.000000
vn -0.000000 0.000000 -1.000000
vn -0.309017 0.000000 -0.951056
vn -0.309017 0.000000 -0.951056
vn -0.587785 0.000000 -0.809017
vn -0.587785 0.000000 -0.809017
vn -0.809017 0.000000 -0.587785
vn -0.809017 0.000000 -0.587785
vn -0.951057 0.000000 -0.309017
vn -0.951057 0.000000 -0.309017
vn -1.000000 0.000000 0.000000
vn -1.000000 0.000000 0.000000
vn -0.951057 0.000000 0.309017
vn -0.951057 0.000000 0.309017
vn -0.809017 0.000000 0.587785
vn -0.809017 0.000000 0.587785
vn -0.587785 0.000000 0.809017
vn -0.587785 0.000000 0.809017
vn -0.309017 0.000000 0.951056
vn -0.309017 0.000000 0.951056
vn 0.000000 0.000000 1.000000
vn 0.000000 0.000000 1.000000
vn 0.309017 0.000000 0.951057
vn 0.309017 0.000000 0.951057
vn 0.587785 0.000000 0.809017
vn 0.587785 0.000000 0.809017
vn 0.809017 0.000000 0.587785
vn 0.809017 0.000000 0.587785
vn 0.951057 0.000000 0.309017
vn 0.951057 0.000000 0.309017
vn 1.000000 0.000000 0.000001
vn 1.000000 0.000000 0.000001
vn 0.000000 -1.000000 0.000000
vn 0.000000 -1.000000 0.000000
vn 0.000000 -1.000000 0.000000
vn 0.000000 -1.000000 0.000000
vn 0.000000 -1.000000 0.000000
vn 0.000000 -1.000000 0.000000
vn 0.000000 -1.000000 0.000000
vn 0.000000 -1.000000 0.000000
vn 0.000000 -1.000000 0.000000
vn 0.000000 -1.000000 0.000000
vn 0.000000 -1.000000 0.000000
vn 0.000000 -1.000000 0.000000
vn 0.000000 -1.000000 0.000000
vn 0.000000 -1.000000 0.000000
vn 0.000000 -1.000000 0.000000
vn 0.000000 -1.000000 0.000000
vn 0.000000 -1.000000 0.000000
vn 0.000000 -1.000000 0.000000
vn 0.000000 -1.000000 0.000000
vn 0.000000 -1.000000 0.000000
vn 0.000000 -1.000000 0.000000
vn 0.000000 1.000000 0.000000
vn 0.000000 1.000000 0.000000
vn 0.000000 1.000000 0.000000
vn 0.000000 1.000000 0.000000
vn 0.000000 1.000000 0.000000
vn 0.000000 1.000000 0.000000
vn 0.000000 1.000000 0.000000
vn 0.000000 1.000000 0.000000
vn 0.000000 1.000000 0.000000
vn 0.000000 1.000000 0.000000
vn 0.000000 1.000000 0.000000
vn 0.000000 1.000000 0.000000
vn 0.000000 1.000000 0.000000
vn 0.000000 1.000000 0.000000
vn 0.000000 1.000000 0.000000
vn 0.000000 1.000000 0.000000
vn 0.000000 1.000000 0.000000
vn 0.000000 1.000000 0.000000
vn 0.000000 1.000000 0.000000
vn 0.000000 1.000000 0.000000
vn 0.000000 1.000000 0.000000
s 1
g pCylinder2
usemtl initialShadingGroup
f 253/501/503 254/502/504 274/503/505 273/504/506
f 254/502/504 255/505/507 275/506/508 274/503/505
f 255/571/507 256/572/509 276/573/510 275/574/508
f 256/572/509 257/575/511 277/576/512 276/573/510
f 257/575/511 258/577/513 278/578/514 277/576/512
f 258/577/513 259/579/515 279/580/516 278/578/514
f 259/521/515 260/515/517 280/518/518 279/522/516
f 260/515/517 261/516/519 281/517/520 280/518/518
f 261/516/519 262/519/521 282/520/522 281/517/520
f 262/519/521 263/523/523 283/524/524 282/520/522
f 263/523/523 264/525/525 284/526/526 283/524/524
f 264/525/525 265/527/527 285/528/528 284/526/526
f 265/581/527 266/582/529 286/583/530 285/584/528
f 266/582/529 267/585/531 287/586/532 286/583/530
f 267/585/531 268/587/533 288/588/534 287/586/532
f 268/587/533 269/589/535 289/590/536 288/588/534
f 269/513/535 270/511/537 290/512/538 289/514/536
f 270/511/537 271/509/539 291/510/540 290/512/538
f 271/509/539 272/507/541 292/508/542 291/510/540
f 272/507/541 253/501/503 273/504/506 292/508/542
s 2
f 254/529/543 253/530/544 293/531/545
f 255/533/546 254/529/543 293/531/545
f 256/535/547 255/533/546 293/531/545
f 257/537/548 256/535/547 293/531/545
f 258/539/549 257/537/548 293/531/545
f 259/541/550 258/539/549 293/531/545
f 260/543/551 259/541/550 293/531/545
f 261/545/552 260/543/551 293/531/545
f 262/547/553 261/545/552 293/531/545
f 263/549/554 262/547/553 293/531/545
f 264/548/555 263/549/554 293/531/545
f 265/546/556 264/548/555 293/531/545
f 266/544/557 265/546/556 293/531/545
f 267/542/558 266/544/557 293/531/545
f 268/540/559 267/542/558 293/531/545
f 269/538/560 268/540/559 293/531/545
f 270/536/561 269/538/560 293/531/545
f 271/534/562 270/536/561 293/531/545
f 272/532/563 271/534/562 293/531/545
f 253/530/544 272/532/563 293/531/545
s 3
f 273/550/564 274/551/565 294/552/566
f 274/551/565 275/553/567 294/552/566
f 275/553/567 276/555/568 294/552/566
f 276/555/568 277/557/569 294/552/566
f 277/557/569 278/559/570 294/552/566
f 278/559/570 279/561/571 294/552/566
f 279/561/571 280/563/572 294/552/566
f 280/563/572 281/565/573 294/552/566
f 281/565/573 282/567/574 294/552/566
f 282/567/574 283/569/575 294/552/566
f 283/569/575 284/570/576 294/552/566
f 284/570/576 285/568/577 294/552/566
f 285/568/577 286/566/578 294/552/566
f 286/566/578 287/564/579 294/552/566
f 287/564/579 288/562/580 294/552/566
f 288/562/580 289/560/581 294/552/566
f 289/560/581 290/558/582 294/552/566
f 290/558/582 291/556/583 294/552/566
f 291/556/583 292/554/584 294/552/566
f 292/554/584 273/550/564 294/552/566
