# This file uses centimeters as units for non-parametric coordinates.

mtllib Tele.mtl
g default
v -2.943155 0.091449 2.106649
v 2.943155 0.091449 2.106649
v -2.643155 0.391449 2.106649
v 2.643155 0.391449 2.106649
v 2.643155 4.004747 2.106649
v -2.643155 4.004747 2.106649
v -2.443155 0.591449 2.106649
v 2.443155 0.591449 2.106649
v 2.443155 3.804747 2.106649
v -2.443155 3.804747 2.106649
v -2.443155 0.591449 1.862309
v 2.443155 0.591449 1.862309
v 2.443155 3.804747 1.862309
v -2.443155 3.804747 1.862309
v 2.443155 0.591449 2.263884
v -2.443155 0.591449 2.263884
v 2.443155 3.804747 2.263884
v -2.443155 3.804747 2.263883
v -2.643155 0.391449 2.216718
v -2.595990 0.438615 2.263884
v 2.595990 0.438615 2.263884
v 2.643155 0.391449 2.216718
v 2.595990 3.957582 2.263884
v 2.643155 4.004747 2.216718
v -2.595990 3.957582 2.263884
v -2.643155 4.004747 2.216718
v -1.063408 3.804748 1.862309
v -1.063408 3.804748 2.106649
v -1.063408 3.804748 2.263884
v -1.129931 3.957582 2.263884
v -1.150460 4.004747 2.216718
v -1.150460 4.004747 2.106649
v -1.281038 4.304748 2.106649
v -1.281038 4.304748 0.284495
v -1.281038 0.091449 -1.443275
v -1.281038 0.091449 2.106649
v -1.150460 0.391449 2.106649
v -1.150460 0.391449 2.216718
v -1.129931 0.438615 2.263884
v -1.063408 0.591449 2.263884
v -1.063408 0.591449 2.106649
v -1.063408 0.591449 1.862309
v 1.159734 3.804748 2.263884
v 1.232283 3.957582 2.263884
v 1.254672 4.004747 2.216718
v 1.254672 4.004747 2.106649
v 1.397078 4.304748 2.106649
v 1.397078 4.304748 0.284495
v 1.397078 0.091449 -1.443275
v 1.397078 0.091449 2.106649
v 1.254672 0.391449 2.106649
v 1.254672 0.391449 2.216718
v 1.232283 0.438615 2.263884
v 1.159734 0.591449 2.263884
v 1.159734 0.591449 2.106649
v 1.159734 0.591449 1.862309
v 1.159734 3.804748 1.862309
v 1.159734 3.804748 2.106649
v -2.443155 3.215647 1.862309
v -2.443155 3.215647 2.106649
v -2.443155 3.215647 2.263883
v -2.595990 3.295417 2.263884
v -2.643155 3.320035 2.216718
v -2.643155 3.320035 2.106649
v -2.943155 3.476617 2.106649
v -1.281038 3.476617 -1.443275
v 1.397078 3.476617 -1.443275
v 2.943155 3.476617 2.106649
v 2.643155 3.320035 2.106649
v 2.643155 3.320035 2.216718
v 2.595990 3.295417 2.263884
v 2.443155 3.215647 2.263884
v 2.443155 3.215647 2.106649
v 2.443155 3.215647 1.862309
v 1.159734 3.215647 2.125843
v -1.063408 3.215647 2.125843
v -2.443155 1.698656 2.263884
v -2.595990 1.651146 2.263884
v -2.643155 1.636484 2.216718
v -2.643155 1.636484 2.106649
v -2.943155 1.543226 2.106649
v 2.943155 1.543226 2.106649
v 2.643155 1.636484 2.106649
v 2.643155 1.636484 2.216718
v 2.595990 1.651146 2.263884
v 2.443155 1.698656 2.263884
v 2.443155 1.698656 2.106649
v 2.443155 1.698656 1.862309
v 1.159734 1.698656 2.125843
v -1.063408 1.698656 2.125843
v -2.443155 1.698656 1.862309
v -2.443155 1.698656 2.106649
v 1.397078 3.849237 -0.261509
v -1.281038 3.849237 -0.261509
v -2.943155 3.859278 2.106649
v -2.643155 3.622715 2.106649
v -2.643155 3.622715 2.216718
v -2.595990 3.585523 2.263884
v -2.443155 3.465007 2.263883
v -2.443155 3.465007 2.106649
v -2.443155 3.465007 1.862309
v -1.063408 3.465007 1.978877
v 1.159734 3.465007 1.978877
v 2.443155 3.465007 1.862309
v 2.443155 3.465007 2.106649
v 2.443155 3.465007 2.263884
v 2.595990 3.585523 2.263884
v 2.643155 3.622715 2.216718
v 2.643155 3.622715 2.106649
v 2.943155 3.859278 2.106649
v -2.943155 4.082035 2.106649
v -2.831344 4.192936 2.106649
v -2.718610 4.304748 2.106649
v -2.713873 4.089116 0.361993
v -2.486778 4.304748 0.284495
v 2.943155 4.082035 2.106649
v 2.718610 4.304748 2.106649
v 2.831344 4.192936 2.106649
v 2.714093 4.079483 0.365455
v 2.485879 4.304748 0.312195
v -2.353584 3.849237 -0.261509
v -2.658885 3.850342 -0.000792
v 2.353583 3.849237 -0.261509
v 2.662082 3.850443 0.022915
v -2.264887 3.476617 -1.443275
v -2.541625 3.476617 -1.193157
v -2.537682 1.543226 -1.232085
v -2.304014 1.543226 -1.443275
v 2.542766 3.451589 -1.217513
v 2.278147 3.476617 -1.443275
v 2.304014 1.543226 -1.443275
v 2.537682 1.543226 -1.232085
v -2.304014 0.091449 -1.443275
v -2.537682 0.091449 -1.232085
v 2.537682 0.091449 -1.232085
v 2.304014 0.091449 -1.443275
v -2.275407 3.023113 -1.443275
v -2.540565 3.023113 -1.203624
v -2.943155 3.023113 2.106649
v -2.643155 2.914028 2.106649
v -2.643155 2.914028 2.216718
v -2.595990 2.896878 2.263884
v -2.443155 2.841305 2.263883
v -2.443155 2.841305 2.106649
v -2.443155 2.841305 1.862309
v -1.063408 2.841305 2.125843
v 1.159734 2.841305 2.125843
v 2.443155 2.841305 1.862309
v 2.443155 2.841305 2.106649
v 2.443155 2.841305 2.263884
v 2.595990 2.896878 2.263884
v 2.643155 2.914028 2.216718
v 2.643155 2.914028 2.106649
v 2.943155 3.023113 2.106649
v 2.541399 3.000787 -1.221431
v 2.285102 3.023113 -1.443275
v -2.304014 0.393699 -1.443275
v -2.537682 0.393699 -1.232085
v -2.943155 0.393699 2.106649
v -2.643155 0.659059 2.106649
v -2.643155 0.659059 2.216718
v -2.595990 0.700779 2.263884
v -2.443155 0.835966 2.263884
v -2.443155 0.835966 2.106649
v -2.443155 0.835966 1.862309
v -1.063408 0.835966 1.967477
v 1.159734 0.835966 1.967477
v 2.443155 0.835966 1.862309
v 2.443155 0.835966 2.106649
v 2.443155 0.835966 2.263884
v 2.595990 0.700779 2.263884
v 2.643155 0.659059 2.216718
v 2.643155 0.659059 2.106649
v 2.943155 0.393699 2.106649
v 2.537682 0.393699 -1.232085
v 2.304014 0.393699 -1.443275
v -0.881038 1.543226 -2.740935
v -0.881038 1.070808 -2.740935
v 0.997078 1.543226 -2.740935
v 0.997078 1.070808 -2.740935
v -0.881038 2.425939 -2.740935
v 0.997078 2.425939 -2.740935
v -1.371722 1.543226 -1.443275
v -1.254325 1.543226 -1.529935
v -1.375501 0.308006 -1.443275
v -1.256399 0.435407 -1.523206
v 1.487763 1.543226 -1.443275
v 1.370365 1.543226 -1.529935
v 1.490429 0.309015 -1.443275
v 1.372730 0.434915 -1.522264
v 1.483725 3.109759 -1.443275
v 1.371931 2.985570 -1.524856
v -1.374003 3.116078 -1.443275
v -1.255891 2.985570 -1.524856
vt 0.520889 0.718220
vt 0.520889 0.773712
vt 0.505172 0.773712
vt 0.505172 0.718220
vt 0.531003 0.718220
vt 0.531003 0.773712
vt 0.520889 0.847213
vt 0.505172 0.847213
vt 0.520889 0.702491
vt 0.505172 0.702491
vt 0.531003 0.702491
vt 0.531003 0.847213
vt 0.520889 0.871293
vt 0.505172 0.871293
vt 0.531003 0.871293
vt 0.520889 0.887333
vt 0.505172 0.887333
vt 0.531003 0.887333
vt 0.520889 0.909187
vt 0.505172 0.909187
vt 0.531003 0.909187
vt 0.548457 0.773712
vt 0.548457 0.718220
vt 0.564175 0.718220
vt 0.564175 0.773712
vt 0.538343 0.773712
vt 0.538343 0.718220
vt 0.548457 0.702491
vt 0.564175 0.702491
vt 0.564175 0.847213
vt 0.548457 0.847213
vt 0.538343 0.847213
vt 0.538343 0.702491
vt 0.548457 0.871293
vt 0.564175 0.871293
vt 0.538343 0.871293
vt 0.564175 0.887333
vt 0.548457 0.887333
vt 0.538343 0.887333
vt 0.548457 0.909187
vt 0.564175 0.909187
vt 0.538343 0.909187
vt 0.498700 0.719705
vt 0.498700 0.782578
vt 0.491620 0.782578
vt 0.491620 0.719705
vt 0.498700 0.864756
vt 0.491620 0.864756
vt 0.488586 0.722389
vt 0.488586 0.783521
vt 0.498700 0.702491
vt 0.491620 0.702491
vt 0.498700 0.890873
vt 0.491620 0.890873
vt 0.488586 0.863653
vt 0.488586 0.705525
vt 0.498700 0.910343
vt 0.491620 0.910343
vt 0.488586 0.889289
vt 0.498700 0.934917
vt 0.491620 0.934917
vt 0.488586 0.907950
vt 0.488586 0.931883
vt 0.472000 0.782578
vt 0.472000 0.719705
vt 0.479080 0.719705
vt 0.479080 0.782578
vt 0.472000 0.702491
vt 0.479080 0.702491
vt 0.482114 0.722389
vt 0.482114 0.783521
vt 0.479080 0.864756
vt 0.472000 0.864756
vt 0.482114 0.705525
vt 0.482114 0.863653
vt 0.472000 0.890873
vt 0.479080 0.890873
vt 0.482114 0.889289
vt 0.479080 0.910343
vt 0.472000 0.910343
vt 0.482114 0.907950
vt 0.472000 0.934917
vt 0.479080 0.934917
vt 0.482114 0.931883
vt 0.236112 0.721933
vt 0.450877 0.721933
vt 0.450877 0.795877
vt 0.236112 0.795877
vt 0.236112 0.702491
vt 0.450877 0.702491
vt 0.464462 0.795877
vt 0.464462 0.721933
vt 0.450192 0.889635
vt 0.236112 0.891071
vt 0.464462 0.702491
vt 0.464462 0.891071
vt 0.449940 0.918633
vt 0.236112 0.920242
vt 0.464462 0.920242
vt 0.370149 0.944289
vt 0.236112 0.944857
vt 0.348115 0.959022
vt 0.236112 0.959186
vt 0.351541 0.973512
vt 0.388445 0.944211
vt 0.236112 0.973512
vt 0.015468 0.777976
vt 0.015468 0.704033
vt 0.230233 0.704033
vt 0.230233 0.777976
vt 0.001884 0.777976
vt 0.001884 0.704033
vt 0.015468 0.684590
vt 0.230233 0.684590
vt 0.230233 0.873170
vt 0.017299 0.873170
vt 0.001884 0.873170
vt 0.001884 0.684590
vt 0.230233 0.902342
vt 0.017972 0.902342
vt 0.001884 0.902342
vt 0.230233 0.926956
vt 0.094672 0.926382
vt 0.230233 0.941285
vt 0.118008 0.941741
vt 0.230233 0.955611
vt 0.113023 0.955611
vt 0.077901 0.926311
vt 0.830447 0.701460
vt 0.830014 0.772721
vt 0.752116 0.772721
vt 0.752116 0.742333
vt 0.835588 0.772721
vt 0.835588 0.693265
vt 0.830341 0.865500
vt 0.752116 0.829502
vt 0.835588 0.873895
vt 0.847991 0.772656
vt 0.847498 0.701364
vt 0.925889 0.742268
vt 0.925889 0.772656
vt 0.842417 0.772656
vt 0.842417 0.693265
vt 0.847665 0.865435
vt 0.925889 0.829437
vt 0.842417 0.873424
vt 0.483312 0.698717
vt 0.483312 0.609964
vt 0.499030 0.609964
vt 0.499030 0.698717
vt 0.473198 0.698717
vt 0.473198 0.609964
vt 0.483312 0.466960
vt 0.499030 0.466960
vt 0.473198 0.466960
vt 0.483312 0.384404
vt 0.499030 0.384404
vt 0.473198 0.384404
vt 0.457283 0.609964
vt 0.457283 0.698717
vt 0.441565 0.698717
vt 0.441565 0.609964
vt 0.467397 0.609964
vt 0.467397 0.698717
vt 0.457283 0.466960
vt 0.441565 0.466960
vt 0.467397 0.466960
vt 0.457283 0.384404
vt 0.441565 0.384404
vt 0.467397 0.384404
vt 0.752116 0.342035
vt 0.752116 0.246017
vt 0.759196 0.246017
vt 0.759196 0.342035
vt 0.752116 0.091306
vt 0.759196 0.091306
vt 0.762230 0.339001
vt 0.762230 0.244696
vt 0.752116 0.001992
vt 0.759196 0.001992
vt 0.762230 0.092747
vt 0.762230 0.005026
vt 0.778816 0.246017
vt 0.778816 0.342035
vt 0.771736 0.342035
vt 0.771736 0.246017
vt 0.768702 0.244696
vt 0.768702 0.339001
vt 0.778816 0.091306
vt 0.771736 0.091306
vt 0.768702 0.092747
vt 0.778816 0.001992
vt 0.771736 0.001992
vt 0.768702 0.005026
vt 0.633439 0.259270
vt 0.516229 0.259270
vt 0.516229 0.087000
vt 0.633439 0.087000
vt 0.633439 0.336829
vt 0.516229 0.351742
vt 0.516229 0.001992
vt 0.631657 0.016963
vt 0.668561 0.087000
vt 0.668561 0.259270
vt 0.668561 0.328262
vt 0.668561 0.025472
vt 0.744578 0.087000
vt 0.744578 0.259270
vt 0.744578 0.322556
vt 0.744578 0.030325
vt 0.651790 0.347900
vt 0.728489 0.340358
vt 0.650265 0.005628
vt 0.730056 0.013303
vt 0.508691 0.273714
vt 0.280341 0.273714
vt 0.280341 0.101444
vt 0.508691 0.101444
vt 0.293926 0.354548
vt 0.280341 0.339517
vt 0.508691 0.380630
vt 0.280341 0.043105
vt 0.293926 0.028074
vt 0.508691 0.001992
vt 0.649906 0.710062
vt 0.649846 0.879181
vt 0.571515 0.855036
vt 0.571515 0.734226
vt 0.654987 0.886842
vt 0.654987 0.702491
vt 0.667063 0.878717
vt 0.667063 0.709682
vt 0.745288 0.733795
vt 0.745288 0.854605
vt 0.661816 0.702491
vt 0.661816 0.886315
vt 0.520560 0.698717
vt 0.520560 0.609964
vt 0.576052 0.609964
vt 0.576052 0.698717
vt 0.504831 0.698717
vt 0.504831 0.609964
vt 0.520560 0.466960
vt 0.576052 0.466960
vt 0.649553 0.609964
vt 0.649553 0.698717
vt 0.504831 0.466960
vt 0.520560 0.384404
vt 0.576052 0.384404
vt 0.649553 0.466960
vt 0.673633 0.609964
vt 0.673633 0.698717
vt 0.504831 0.384404
vt 0.649553 0.384404
vt 0.673633 0.466960
vt 0.689673 0.609964
vt 0.689673 0.698717
vt 0.673633 0.384404
vt 0.689673 0.466960
vt 0.711527 0.609964
vt 0.711527 0.698717
vt 0.689673 0.384404
vt 0.711527 0.466960
vt 0.711527 0.384404
vt 0.001884 0.380630
vt 0.001884 0.273714
vt 0.021181 0.265314
vt 0.021181 0.361332
vt 0.001884 0.101444
vt 0.021181 0.110604
vt 0.038395 0.361332
vt 0.021326 0.380630
vt 0.001884 0.001992
vt 0.021181 0.021290
vt 0.095269 0.380630
vt 0.101268 0.361332
vt 0.021326 0.001992
vt 0.038395 0.021290
vt 0.183446 0.361332
vt 0.190463 0.380630
vt 0.095269 0.001992
vt 0.101268 0.021290
vt 0.219635 0.380630
vt 0.209563 0.361332
vt 0.190463 0.001992
vt 0.183446 0.021290
vt 0.229033 0.361332
vt 0.244250 0.380630
vt 0.219635 0.001992
vt 0.209563 0.021290
vt 0.265712 0.373438
vt 0.258579 0.380630
vt 0.253607 0.361332
vt 0.244250 0.001992
vt 0.229033 0.021290
vt 0.272905 0.273714
vt 0.272905 0.366186
vt 0.253607 0.265314
vt 0.258579 0.001992
vt 0.265712 0.009184
vt 0.253607 0.021290
vt 0.272905 0.101444
vt 0.253607 0.110604
vt 0.272905 0.016436
vt 0.717328 0.689491
vt 0.717328 0.595187
vt 0.727159 0.590908
vt 0.727159 0.679660
vt 0.717328 0.443237
vt 0.727159 0.447904
vt 0.742888 0.679660
vt 0.734192 0.689491
vt 0.717328 0.355516
vt 0.727159 0.365347
vt 0.795324 0.689491
vt 0.798381 0.679660
vt 0.734192 0.355516
vt 0.742888 0.365347
vt 0.871882 0.679660
vt 0.875456 0.689491
vt 0.795324 0.355516
vt 0.798381 0.365347
vt 0.901092 0.689491
vt 0.895961 0.679660
vt 0.875456 0.355516
vt 0.871882 0.365347
vt 0.912001 0.679660
vt 0.919754 0.689491
vt 0.901092 0.355516
vt 0.895961 0.365347
vt 0.943686 0.689491
vt 0.933855 0.679660
vt 0.919754 0.355516
vt 0.912001 0.365347
vt 0.943686 0.595187
vt 0.933855 0.590908
vt 0.943686 0.355516
vt 0.933855 0.365347
vt 0.943686 0.443237
vt 0.933855 0.447904
vt 0.943686 0.998008
vt 0.913298 0.998008
vt 0.913298 0.877198
vt 0.943686 0.877198
vt 0.856517 0.998008
vt 0.856517 0.877198
vt 0.850716 0.892113
vt 0.843582 0.884921
vt 0.836390 0.877669
vt 0.830589 0.877669
vt 0.816263 0.892113
vt 0.823455 0.884861
vt 0.241611 0.437169
vt 0.241204 0.620993
vt 0.218013 0.615013
vt 0.218013 0.442743
vt 0.218013 0.678299
vt 0.247184 0.678976
vt 0.247184 0.385621
vt 0.218013 0.386068
vt 0.342378 0.620846
vt 0.342378 0.680816
vt 0.342378 0.384404
vt 0.342378 0.436909
vt 0.421834 0.621089
vt 0.416322 0.680816
vt 0.416322 0.384404
vt 0.421769 0.436738
vt 0.435764 0.615013
vt 0.435764 0.680816
vt 0.435764 0.442743
vt 0.435764 0.384404
vn -0.111042 -0.117444 0.986852
vn -0.042518 -0.188521 0.981148
vn -0.063186 -0.063495 0.995980
vn -0.163935 -0.038921 0.985703
vn 0.000000 0.000000 1.000000
vn 0.000000 0.000000 1.000000
vn 0.000000 0.000000 1.000000
vn 0.000000 0.000000 1.000000
vn -0.000000 0.000000 1.000000
vn -0.000000 0.000000 1.000000
vn -0.000000 0.000000 1.000000
vn -0.000000 0.000000 1.000000
vn 0.000000 0.000000 1.000000
vn 0.000000 0.000000 1.000000
vn -0.000000 0.000000 1.000000
vn -0.000000 0.000000 1.000000
vn 0.000000 0.000000 1.000000
vn 0.000000 0.000000 1.000000
vn 0.000000 0.000000 1.000000
vn 0.000000 0.000000 1.000000
vn 0.000000 0.000000 1.000000
vn -0.000000 1.000000 0.000000
vn -0.000000 1.000000 0.000000
vn 0.000000 1.000000 0.000000
vn -0.000000 1.000000 0.000000
vn -1.000000 0.000000 0.000000
vn -1.000000 0.000000 0.000000
vn -1.000000 0.000000 0.000000
vn -1.000000 0.000000 0.000000
vn 0.000000 -1.000000 0.000000
vn 0.000000 -1.000000 0.000000
vn 0.000000 -1.000000 0.000000
vn 0.000000 -1.000000 0.000000
vn 1.000000 -0.000000 0.000000
vn 1.000000 0.000000 0.000000
vn 1.000000 0.000000 0.000000
vn 1.000000 0.000000 0.000000
vn -0.000000 1.000000 0.000000
vn 0.000000 1.000000 0.000000
vn -1.000000 0.000000 0.000000
vn -1.000000 0.000000 0.000000
vn 0.000000 -1.000000 0.000000
vn 0.000000 -1.000000 0.000000
vn 1.000000 -0.000000 0.000000
vn 1.000000 0.000000 0.000000
vn -0.707106 0.000000 0.707107
vn -0.707106 0.000000 0.707108
vn -0.707106 0.000000 0.707107
vn -0.707106 0.000000 0.707107
vn 0.000000 -0.707107 0.707106
vn 0.000000 -0.707107 0.707106
vn 0.000000 -0.707107 0.707106
vn 0.000000 -0.707107 0.707106
vn 0.707106 0.000000 0.707108
vn 0.707106 0.000000 0.707107
vn 0.707106 0.000000 0.707107
vn 0.707106 0.000000 0.707107
vn -0.000000 0.707107 0.707106
vn -0.000000 0.707108 0.707106
vn -0.000000 0.707110 0.707103
vn -0.000000 0.707110 0.707103
vn -0.000000 0.000000 1.000000
vn 0.000000 0.000000 1.000000
vn 0.000000 0.000000 1.000000
vn -0.000000 0.000000 1.000000
vn 0.000000 0.000000 1.000000
vn 0.000001 0.000000 1.000000
vn 0.000001 0.000000 1.000000
vn 0.000000 0.000000 1.000000
vn 0.000000 -0.000000 1.000000
vn 0.000000 -0.000001 1.000000
vn 0.000000 -0.000001 1.000000
vn 0.000000 -0.000000 1.000000
vn -0.000001 0.000000 1.000000
vn -0.000001 0.000000 1.000000
vn -0.000001 0.000000 1.000000
vn -0.000001 0.000000 1.000000
vn 0.000000 -1.000000 0.000000
vn 0.000000 -1.000000 0.000000
vn 0.000000 -1.000000 0.000000
vn 0.000000 -1.000000 0.000000
vn 1.000000 0.000000 0.000000
vn 1.000000 0.000000 0.000000
vn 1.000000 0.000000 0.000000
vn 1.000000 0.000000 0.000000
vn 0.000000 1.000000 -0.000000
vn 0.000000 1.000000 -0.000000
vn 0.000000 1.000000 -0.000000
vn 0.000000 1.000000 -0.000000
vn -1.000000 0.000000 0.000000
vn -1.000000 0.000000 0.000000
vn -1.000000 0.000000 0.000000
vn -1.000000 0.000000 0.000000
vn -0.000000 -1.000000 0.000000
vn -0.000000 -1.000000 0.000000
vn -0.000000 -1.000000 0.000000
vn 0.000000 0.000000 1.000000
vn 0.000000 0.000000 1.000000
vn 0.000000 0.707106 0.707107
vn 0.000000 0.707107 0.707107
vn 0.000000 1.000000 0.000000
vn 0.000000 1.000000 0.000000
vn 0.000000 0.000000 1.000000
vn 0.000000 0.000000 1.000000
vn 0.000000 1.000000 0.000000
vn 0.000000 1.000000 0.000000
vn 0.000000 1.000000 0.000000
vn 0.000000 1.000000 0.000000
vn 0.000000 0.000000 -1.000000
vn 0.000000 0.000000 -1.000000
vn 0.000000 0.000000 -1.000000
vn 0.000000 0.000000 -1.000000
vn 0.000000 -1.000000 0.000000
vn 0.000000 -1.000000 0.000000
vn -0.000000 -1.000000 0.000000
vn -0.000000 -1.000000 0.000000
vn 0.000000 0.000000 1.000000
vn 0.000000 0.000000 1.000000
vn 0.000000 -1.000000 0.000000
vn 0.000000 -1.000000 0.000000
vn 0.000000 -0.707107 0.707106
vn 0.000000 -0.707107 0.707106
vn 0.000000 0.000000 1.000000
vn 0.000000 0.000000 1.000000
vn 0.000000 1.000000 0.000000
vn 0.000000 1.000000 0.000000
vn 0.000000 1.000000 0.000000
vn 0.043687 -0.190410 0.980732
vn 0.064883 -0.064152 0.995829
vn 0.000000 0.000000 1.000000
vn 0.000000 0.000000 1.000000
vn 0.000000 0.707108 0.707106
vn 0.000000 0.707108 0.707106
vn 0.000000 1.000000 0.000000
vn 0.000000 1.000000 0.000000
vn 0.000000 -1.000000 0.000000
vn 0.000000 -1.000000 0.000000
vn 0.000000 -1.000000 0.000000
vn 0.000000 0.000000 1.000000
vn 0.000000 0.000000 1.000000
vn 0.000000 -1.000000 0.000000
vn 0.000000 -1.000000 0.000000
vn 0.000000 -0.707107 0.707106
vn 0.000000 -0.707107 0.707106
vn 0.000000 0.000000 1.000000
vn 0.000000 0.000000 1.000000
vn 0.000000 1.000000 0.000000
vn 0.000000 1.000000 0.000000
vn 0.000000 1.000000 0.000000
vn 0.119262 -0.117331 0.985906
vn 0.175872 -0.038840 0.983647
vn -0.000000 -1.000000 0.000000
vn -0.000000 -1.000000 0.000000
vn -0.000000 -1.000000 0.000000
vn 1.000000 0.000000 0.000000
vn 1.000000 0.000000 0.000000
vn 1.000000 0.000000 0.000000
vn 1.000000 0.000000 0.000000
vn 1.000000 0.000000 0.000000
vn 1.000000 0.000000 0.000000
vn 0.000002 0.000000 1.000000
vn 0.000002 0.000000 1.000000
vn -0.707107 0.000000 0.707107
vn -0.707107 0.000000 0.707106
vn -0.707107 0.000000 0.707107
vn -0.707107 0.000000 0.707107
vn -1.000000 0.000000 0.000000
vn -1.000000 0.000000 0.000000
vn -1.000000 0.000000 0.000000
vn -1.000000 0.000000 0.000000
vn 0.000904 0.900995 -0.433828
vn 0.000000 0.900596 -0.434657
vn 0.000000 0.767871 -0.640605
vn 0.002410 0.769941 -0.638111
vn 0.000001 0.000000 1.000000
vn 0.000001 0.000000 1.000000
vn 0.000001 0.000000 1.000000
vn 0.000000 0.000000 1.000000
vn 0.000000 0.000000 1.000000
vn 1.000000 0.000000 0.000000
vn 1.000000 0.000000 0.000000
vn 1.000000 0.000000 0.000000
vn 1.000000 0.000000 0.000000
vn 0.707107 0.000000 0.707106
vn 0.707107 0.000000 0.707107
vn 0.707107 0.000000 0.707107
vn 0.707107 0.000000 0.707107
vn 0.000000 0.000000 1.000000
vn 0.000000 0.000000 1.000000
vn -1.000000 0.000000 0.000000
vn -1.000000 0.000000 0.000000
vn -1.000000 0.000000 0.000000
vn -1.000000 0.000000 0.000000
vn -1.000000 0.000000 0.000000
vn -1.000000 0.000000 0.000000
vn 0.016003 0.269881 0.962761
vn 0.030976 0.343478 0.938650
vn 0.086404 0.217465 0.972236
vn 0.044715 0.168916 0.984616
vn -0.015587 0.267284 0.963492
vn -0.030154 0.340334 0.939821
vn -0.080413 0.217574 0.972726
vn -0.041599 0.168938 0.984748
vn 0.000001 0.000000 1.000000
vn -0.000000 0.000000 1.000000
vn -0.000001 0.000000 1.000000
vn 0.000001 0.000000 1.000000
vn -0.707107 0.000000 0.707107
vn -0.707107 0.000000 0.707107
vn -0.707107 0.000000 0.707106
vn -0.707107 0.000000 0.707106
vn -1.000000 0.000000 0.000000
vn -1.000000 0.000000 0.000000
vn -1.000000 0.000000 0.000000
vn -1.000000 0.000000 0.000000
vn 0.000000 0.000000 1.000000
vn 0.000000 0.000000 1.000000
vn 0.000000 0.000000 1.000000
vn 0.000000 0.000000 1.000000
vn 0.000000 0.000000 1.000000
vn 0.000000 0.000000 1.000000
vn 0.000000 0.000000 1.000000
vn 0.000000 0.000000 1.000000
vn 1.000000 0.000000 0.000000
vn 1.000000 0.000000 0.000000
vn 1.000000 0.000000 0.000000
vn 1.000000 0.000000 0.000000
vn 0.707107 0.000000 0.707107
vn 0.707107 0.000000 0.707107
vn 0.707107 0.000000 0.707106
vn 0.707107 0.000000 0.707106
vn 0.000001 0.000000 1.000000
vn 0.000001 0.000000 1.000000
vn 0.000000 0.000000 1.000000
vn 0.000001 0.000000 1.000000
vn -1.000000 0.000000 0.000000
vn -1.000000 0.000000 0.000000
vn -1.000000 0.000000 0.000000
vn -1.000000 0.000000 0.000000
vn -1.000000 0.000000 0.000000
vn -1.000000 0.000000 0.000000
vn 0.064680 0.187717 0.980091
vn 0.074943 0.000000 0.997188
vn 0.201141 0.000000 0.979562
vn 0.178290 0.115133 0.977219
vn -0.063057 0.185852 0.980552
vn -0.072950 0.000000 0.997336
vn -0.187610 0.000000 0.982244
vn -0.166199 0.115381 0.979319
vn 1.000000 0.000000 0.000000
vn 1.000000 -0.000000 0.000000
vn 1.000000 0.000000 0.000000
vn 1.000000 0.000000 0.000000
vn 1.000000 -0.000000 0.000000
vn 1.000000 0.000000 0.000000
vn 0.000000 0.953714 -0.300714
vn 0.000000 0.953714 -0.300714
vn -0.000000 0.000000 1.000000
vn -0.000000 0.000000 1.000000
vn -0.000001 0.000000 1.000000
vn 0.000000 0.000000 1.000000
vn 0.000000 -1.000000 0.000000
vn 0.000000 -1.000000 0.000000
vn 0.000000 -1.000000 0.000000
vn -0.701531 0.707023 -0.089290
vn -0.701531 0.707023 -0.089290
vn -0.688479 0.688785 -0.227094
vn -0.692411 0.693831 -0.197903
vn -0.590693 0.577519 -0.563519
vn -0.590693 0.577519 -0.563519
vn 0.705803 0.702318 -0.092692
vn 0.705803 0.702318 -0.092692
vn 0.694303 0.689302 -0.206897
vn 0.692782 0.687644 -0.217252
vn 0.495468 0.729906 -0.470902
vn 0.094674 0.896664 -0.432471
vn -0.270339 0.911494 -0.309994
vn -0.053983 0.901766 -0.428841
vn -0.032334 0.952438 -0.303013
vn -0.270339 0.911494 -0.309994
vn 0.314099 0.897021 -0.310958
vn 0.045754 0.951534 -0.304122
vn -0.670442 0.015552 -0.741799
vn -0.670442 0.015552 -0.741799
vn -0.670460 0.013618 -0.741820
vn -0.670460 0.013618 -0.741820
vn -0.670503 0.007531 -0.741868
vn -0.670503 0.007531 -0.741868
vn -0.670522 0.000000 -0.741889
vn -0.670522 0.000000 -0.741889
vn 0.652085 0.007314 -0.758110
vn 0.652085 0.007314 -0.758110
vn 0.660013 0.006414 -0.751227
vn 0.659686 0.006451 -0.751514
vn 0.665880 0.003512 -0.746051
vn 0.665884 0.003509 -0.746047
vn 0.670522 0.000000 -0.741889
vn 0.670522 0.000000 -0.741889
vn 0.000000 1.000000 0.000000
vn 0.000000 1.000000 0.000000
vn 0.992706 0.000000 -0.120560
vn 0.992706 0.000000 -0.120560
vn 0.992730 -0.000459 -0.120359
vn 0.992730 -0.000460 -0.120359
vn -0.992700 0.000108 -0.120607
vn -0.992706 0.000000 -0.120560
vn -0.992706 0.000000 -0.120560
vn -0.992700 0.000108 -0.120607
vn 0.000000 1.000000 0.000000
vn 0.000000 1.000000 0.000000
vn -0.991190 0.039876 -0.126299
vn -0.991446 0.026709 -0.127753
vn -0.991131 -0.014226 -0.132128
vn -0.991131 -0.014226 -0.132128
vn 0.000000 0.767871 -0.640605
vn 0.008555 0.775164 -0.631702
vn 0.991431 0.029440 -0.127268
vn 0.991148 0.042617 -0.125735
vn 0.991133 -0.013908 -0.132147
vn 0.991133 -0.013908 -0.132147
vn -0.992693 0.000202 -0.120670
vn -0.992693 0.000202 -0.120671
vn -0.992262 0.018228 -0.122820
vn -0.992596 0.005327 -0.121347
vn 0.992763 -0.000858 -0.120085
vn 0.992763 -0.000858 -0.120087
vn 0.992719 0.004700 -0.120366
vn 0.992348 0.018995 -0.122001
vn 0.000000 0.000000 -0.000000
vn 0.000000 0.000000 -1.000000
vn 0.000000 0.000000 -0.000000
vn 0.000000 0.000000 -0.000000
vn 0.000000 0.000000 -0.000000
vn 0.000000 0.000000 -1.000000
vn 0.000000 0.000000 -1.000000
vn 0.000000 0.000000 -1.000000
vn -0.670522 0.000001 -0.741889
vn -0.670522 0.000001 -0.741889
vn -0.992706 0.000000 -0.120560
vn -0.992706 0.000000 -0.120560
vn -1.000000 0.000000 0.000000
vn -1.000000 0.000000 0.000000
vn -0.707108 0.000000 0.707106
vn -0.707108 0.000000 0.707106
vn 1.000000 0.000000 0.000000
vn 1.000000 0.000000 0.000000
vn 1.000000 0.000000 0.000000
vn -0.037234 -0.210100 0.976971
vn -0.013784 -0.328425 0.944429
vn 0.014146 -0.331489 0.943353
vn 0.040024 -0.210077 0.976865
vn -1.000000 0.000000 0.000000
vn -1.000000 0.000000 0.000000
vn -1.000000 0.000000 0.000000
vn 0.707108 0.000000 0.707106
vn 0.707108 0.000000 0.707106
vn 1.000000 0.000000 0.000000
vn 1.000000 0.000000 0.000000
vn 0.992706 0.000000 -0.120560
vn 0.992706 0.000000 -0.120560
vn 0.670522 0.000000 -0.741889
vn 0.670522 0.000000 -0.741889
vn -0.578652 -0.000044 -0.815574
vn -0.578655 -0.000043 -0.815572
vn -0.575550 -0.000911 -0.817766
vn -0.575550 -0.000911 -0.817766
vn -0.581056 0.000630 -0.813864
vn -0.581056 0.000630 -0.813864
vn 0.000195 -0.531461 -0.847083
vn 0.000195 -0.531461 -0.847083
vn 0.000195 -0.531461 -0.847083
vn 0.000195 -0.531461 -0.847083
vn 0.584236 0.000397 -0.811584
vn 0.584252 0.000401 -0.811572
vn 0.591098 0.001847 -0.806598
vn 0.591098 0.001847 -0.806598
vn 0.575469 -0.001442 -0.817822
vn 0.575469 -0.001442 -0.817822
vn 0.000621 0.539432 -0.842029
vn 0.000621 0.539432 -0.842029
vn 0.000621 0.539432 -0.842029
vn 0.000621 0.539432 -0.842029
vn 0.000000 0.000000 -1.000000
vn 0.000000 0.000000 -1.000000
vn 0.000000 0.000000 -1.000000
vn 0.000000 0.000000 -1.000000
vn 0.000000 0.000000 -1.000000
vn 0.000000 0.000000 -1.000000
vn 0.000000 0.000000 -1.000000
vn 0.000000 0.000000 -1.000000
vn 0.000000 0.000000 -1.000000
vn 0.000000 0.000000 -1.000000
vn 0.000000 0.000000 -1.000000
vn 0.000000 0.000000 -1.000000
vn 0.000000 0.000000 -1.000000
vn 0.000000 0.000000 -1.000000
vn 0.000000 0.000000 -1.000000
vn 0.000000 0.000000 -1.000000
vn -0.000000 0.000001 -1.000000
vn -0.000000 0.000001 -1.000000
vn 0.000000 0.000001 -1.000000
vn 0.000000 0.000001 -1.000000
vn -0.955630 0.000000 -0.294570
vn -0.955630 0.000000 -0.294570
vn -0.955630 -0.000000 -0.294570
vn -0.955630 0.000000 -0.294570
vn 0.955630 0.000000 -0.294570
vn 0.955630 0.000000 -0.294570
vn 0.955630 0.000000 -0.294570
vn 0.955630 0.000000 -0.294570
vn 0.000000 -0.886566 -0.462603
vn 0.000000 -0.886566 -0.462603
vn 0.000000 -0.886566 -0.462603
vn 0.000000 -0.886566 -0.462603
vn -0.955630 -0.000000 -0.294570
vn -0.955630 -0.000000 -0.294570
vn 0.000000 0.908424 -0.418050
vn 0.000000 0.908424 -0.418050
vn 0.000000 0.908424 -0.418050
vn 0.000000 0.908424 -0.418050
vn 0.955630 -0.000000 -0.294570
vn 0.955630 -0.000000 -0.294570
s 1
g pCube1
usemtl initialShadingGroup
f 165/237/1 166/238/2 90/239/3 91/240/4
s 2
f 1/265/5 36/266/6 37/267/7 3/268/8
f 174/277/9 82/281/10 83/282/11 173/278/12
f 33/296/13 113/297/14 112/291/15 6/293/16 32/298/17
f 81/275/18 159/272/19 160/271/20 80/276/21
s 5
f 7/147/22 41/148/23 42/149/24 11/150/25
s 6
f 169/1/26 87/2/27 88/3/28 168/4/29
s 7
f 28/159/30 10/160/31 14/161/32 27/162/33
s 8
f 92/22/34 164/23/35 165/24/36 91/25/37
s 5
f 41/148/23 7/147/22 16/151/38 40/152/39
s 6
f 87/2/27 169/1/26 170/5/40 86/6/41
s 7
f 10/160/31 28/159/30 29/163/42 18/164/43
s 8
f 164/23/35 92/22/34 77/26/44 163/27/45
s 9
f 161/66/46 162/70/47 78/71/48 79/67/49
s 10
f 20/177/50 19/174/51 38/173/52 39/178/53
s 11
f 171/49/54 172/46/55 84/45/56 85/50/57
s 12
f 30/187/58 31/186/59 26/185/60 25/188/61
s 13
f 20/305/62 39/306/63 40/307/64 16/308/65
f 171/317/66 85/321/67 86/322/68 170/318/69
f 30/335/70 25/331/71 18/332/72 29/336/73
f 78/315/74 162/312/75 163/311/76 77/316/77
s 16
f 3/171/78 37/172/79 38/173/80 19/174/81
s 17
f 173/43/82 83/44/83 84/45/84 172/46/85
s 18
f 32/183/86 6/184/87 26/185/88 31/186/89
s 19
f 80/64/90 160/65/91 161/66/92 79/67/93
s 7
f 58/165/94 28/159/30 27/162/33 57/166/95
f 29/163/42 28/159/30 58/165/94 43/167/96
s 13
f 44/339/97 30/335/70 29/336/73 43/340/98
s 12
f 44/191/99 45/190/100 31/186/59 30/187/58
s 18
f 46/189/101 32/183/86 31/186/89 45/190/102
s 2
f 47/302/103 33/296/13 32/298/17 46/303/104
s 20
f 34/195/105 33/196/106 47/197/107 48/198/108
s 21
f 178/341/109 177/342/110 179/343/111 180/344/112
s 22
f 36/215/113 35/216/114 49/217/115 50/218/116
s 2
f 37/267/7 36/266/6 50/269/117 51/270/118
s 16
f 38/173/80 37/172/79 51/175/119 52/176/120
s 10
f 39/178/53 38/173/52 52/176/121 53/181/122
s 13
f 40/307/64 39/306/63 53/309/123 54/310/124
s 5
f 55/153/125 41/148/23 40/152/39 54/155/126
f 42/149/24 41/148/23 55/153/125 56/154/127
s 1
f 90/239/3 166/238/2 167/243/128 89/244/129
s 13
f 23/337/130 44/339/97 43/340/98 17/338/131
s 12
f 23/194/132 24/193/133 45/190/100 44/191/99
s 18
f 5/192/134 46/189/101 45/190/102 24/193/135
s 22
f 50/218/116 49/217/115 136/222/136 135/223/137 2/224/138
s 2
f 51/270/118 50/269/117 2/273/139 4/274/140
s 16
f 52/176/120 51/175/119 4/179/141 22/180/142
s 10
f 53/181/122 52/176/121 22/180/143 21/182/144
s 13
f 54/310/124 53/309/123 21/313/145 15/314/146
s 5
f 8/156/147 55/153/125 54/155/126 15/158/148
f 56/154/127 55/153/125 8/156/147 12/157/149
s 1
f 89/244/129 167/243/128 168/248/150 88/249/151
s 7
f 9/168/152 58/165/94 57/166/95 13/169/153
f 43/167/96 58/165/94 9/168/152 17/170/154
s 8
f 10/40/155 100/38/156 101/37/157 14/41/158
f 99/39/159 100/38/156 10/40/155 18/42/160
s 13
f 25/331/71 98/328/161 99/327/162 18/332/72
s 9
f 97/79/163 98/81/164 25/84/165 26/83/166
s 19
f 6/82/167 96/80/168 97/79/169 26/83/170
s 26
f 93/203/171 94/204/172 34/195/173 48/198/174
s 2
f 109/295/175 110/294/176 116/299/177 118/300/178 5/301/179
s 17
f 108/58/180 109/57/181 5/60/182 24/61/183
s 11
f 107/62/184 108/58/185 24/61/186 23/63/187
s 13
f 106/334/188 107/333/189 23/337/130 17/338/131
s 6
f 9/19/190 105/16/191 106/18/192 17/21/193
f 104/17/194 105/16/191 9/19/190 13/20/195
s 1
f 57/263/196 103/259/197 104/262/198 13/264/199
f 27/260/200 102/256/201 103/259/197 57/263/196
f 101/257/202 102/256/201 27/260/200 14/261/203
s 13
f 62/323/204 142/320/205 143/319/206 61/324/207
s 9
f 141/72/208 142/75/209 62/78/210 63/77/211
s 19
f 64/76/212 140/73/213 141/72/214 63/77/215
s 2
f 65/283/216 139/280/217 140/279/218 64/284/219
f 153/286/220 154/285/221 68/289/222 69/290/223
s 17
f 152/48/224 153/47/225 69/53/226 70/54/227
s 11
f 151/55/228 152/48/229 70/54/230 71/59/231
s 13
f 150/326/232 151/325/233 71/329/234 72/330/235
s 6
f 73/13/236 149/7/237 150/12/238 72/15/239
f 148/8/240 149/7/237 73/13/236 74/14/241
s 1
f 75/255/242 147/250/243 148/254/244 74/258/245
f 76/251/246 146/245/247 147/250/243 75/255/242
f 145/246/248 146/245/247 76/251/246 59/252/249
s 8
f 60/34/250 144/31/251 145/30/252 59/35/253
f 143/32/254 144/31/251 60/34/250 61/36/255
s 26
f 67/207/256 66/208/257 94/204/172 93/203/171
s 2
f 96/287/258 95/288/259 65/283/216 64/284/219
s 19
f 97/79/169 96/80/168 64/76/212 63/77/215
s 9
f 63/77/211 62/78/210 98/81/164 97/79/163
s 13
f 99/327/162 98/328/161 62/323/204 61/324/207
s 8
f 61/36/255 60/34/250 100/38/156 99/39/159
f 101/37/157 100/38/156 60/34/250 59/35/253
s 1
f 59/252/249 76/251/246 102/256/201 101/257/202
f 103/259/197 102/256/201 76/251/246 75/255/242
f 104/262/198 103/259/197 75/255/242 74/258/245
s 6
f 74/14/241 73/13/236 105/16/191 104/17/194
f 106/18/192 105/16/191 73/13/236 72/15/239
s 13
f 72/330/235 71/329/234 107/333/189 106/334/188
s 11
f 71/59/231 70/54/230 108/58/185 107/62/184
s 17
f 70/54/227 69/53/226 109/57/181 108/58/180
s 2
f 69/290/223 68/289/222 110/294/176 109/295/175
f 112/291/15 111/292/260 95/288/259 96/287/258 6/293/16
f 118/300/178 117/304/261 47/302/103 46/303/104 5/301/179
s 22
f 134/219/262 133/220/263 35/216/114 36/215/113 1/221/264
s 35
f 111/124/265 113/126/266 115/127/267 114/125/268
f 114/125/268 115/127/267 121/128/269 122/123/270
s 26
f 117/106/271 116/103/272 119/102/273 120/104/274
f 120/104/274 119/102/273 124/100/275 123/105/276
f 122/211/277 121/205/278 125/209/279 126/212/280
f 123/206/276 124/213/275 129/214/281 130/210/282
s 37
f 126/120/283 125/121/284 137/117/285 138/116/286
f 127/107/287 128/111/288 157/112/289 158/108/290
s 38
f 130/99/291 129/97/292 155/93/293 156/96/294
f 131/91/295 132/87/296 175/86/297 176/92/298
s 20
f 115/199/299 113/200/300 33/196/106 34/195/105
s 39
f 174/85/301 175/86/302 132/87/303 82/88/304
s 40
f 127/107/305 158/108/306 159/109/307 81/110/308
s 20
f 48/198/108 47/197/107 117/201/309 120/202/310
s 40
f 122/123/311 95/122/312 111/124/313 114/125/314
s 26
f 115/199/315 34/195/173 94/204/172 121/205/278
f 123/206/276 93/203/171 48/198/174 120/202/316
s 39
f 110/101/317 124/100/318 119/102/319 116/103/320
s 40
f 138/116/321 139/115/322 65/119/323 126/120/324
s 39
f 154/94/325 155/93/326 129/97/327 68/98/328
s 26
f 130/210/282 67/207/256 93/203/171 123/206/276
f 121/205/278 94/204/172 66/208/257 125/209/279
s 40
f 126/120/324 65/119/323 95/122/312 122/123/311
s 39
f 68/98/328 129/97/327 124/100/318 110/101/317
s off
f 111/347/329 112/348/330 113/349/331
f 116/350/332 117/351/333 118/352/334
s 21
f 179/343/111 177/342/110 181/345/335 182/346/336
s 37
f 138/116/286 137/117/285 128/111/288 127/107/287
s 40
f 127/107/305 81/110/308 139/115/322 138/116/321
s 2
f 140/279/218 139/280/217 81/275/18 80/276/21
s 19
f 141/72/214 140/73/213 80/64/90 79/67/93
s 9
f 79/67/49 78/71/48 142/75/209 141/72/208
s 13
f 143/319/206 142/320/205 78/315/74 77/316/77
s 8
f 77/26/44 92/22/34 144/31/251 143/32/254
f 145/30/252 144/31/251 92/22/34 91/25/37
s 1
f 91/240/4 90/239/3 146/245/247 145/246/248
f 147/250/243 146/245/247 90/239/3 89/244/129
f 148/254/244 147/250/243 89/244/129 88/249/151
s 6
f 88/3/28 87/2/27 149/7/237 148/8/240
f 150/12/238 149/7/237 87/2/27 86/6/41
s 13
f 86/322/68 85/321/67 151/325/233 150/326/232
s 11
f 85/50/57 84/45/56 152/48/229 151/55/228
s 17
f 84/45/84 83/44/83 153/47/225 152/48/224
s 2
f 83/282/11 82/281/10 154/285/221 153/286/220
s 39
f 82/88/304 132/87/303 155/93/326 154/94/325
s 38
f 156/96/294 155/93/293 132/87/296 131/91/295
s 37
f 158/108/290 157/112/289 133/118/337 134/113/338
s 40
f 159/109/307 158/108/306 134/113/339 1/114/340
s 2
f 160/271/20 159/272/19 1/265/5 3/268/8
s 19
f 161/66/92 160/65/91 3/68/341 19/69/342
s 9
f 19/69/343 20/74/344 162/70/47 161/66/46
s 13
f 163/311/76 162/312/75 20/305/62 16/308/65
s 8
f 7/28/345 164/23/35 163/27/45 16/33/346
f 165/24/36 164/23/35 7/28/345 11/29/347
s 1
f 11/241/348 42/242/349 166/238/2 165/237/1
f 167/243/128 166/238/2 42/242/349 56/247/350
f 168/248/150 167/243/128 56/247/350 12/253/351
s 6
f 8/9/352 169/1/26 168/4/29 12/10/353
f 170/5/40 169/1/26 8/9/352 15/11/354
s 13
f 21/313/145 171/317/66 170/318/69 15/314/146
s 11
f 21/56/355 22/52/356 172/46/55 171/49/54
s 17
f 4/51/357 173/43/82 172/46/85 22/52/358
s 2
f 2/273/139 174/277/9 173/278/12 4/274/140
s 39
f 2/89/359 135/90/360 175/86/302 174/85/301
s 38
f 176/92/298 175/86/297 135/90/361 136/95/362
s 43
f 183/133/363 184/130/364 186/129/365 185/134/366
f 184/130/364 183/133/363 193/137/367 194/135/368
s off
f 185/229/369 186/226/370 190/225/371 189/230/372
s 44
f 187/142/373 188/138/374 192/144/375 191/146/376
f 188/138/374 187/142/373 189/143/377 190/139/378
s off
f 191/235/379 192/232/380 194/231/381 193/236/382
s 45
f 191/353/383 193/354/384 66/355/385 67/356/386
f 128/362/387 183/361/388 185/365/389 157/366/390
f 176/367/391 189/368/392 187/364/393 131/363/394
f 125/357/395 66/355/385 193/354/384 137/358/396
f 156/359/397 191/353/383 67/356/386 130/360/398
f 137/358/396 193/354/384 183/361/388 128/362/387
f 131/363/394 187/364/393 191/353/383 156/359/397
f 35/369/399 185/365/389 189/368/392 49/371/400
f 157/366/390 185/365/389 35/369/399 133/370/401
f 49/371/400 189/368/392 176/367/391 136/372/402
s 48
f 186/129/403 184/130/404 177/131/405 178/132/406
s 49
f 188/138/407 190/139/408 180/140/409 179/141/410
s off
f 190/225/411 186/226/412 178/227/413 180/228/414
s 48
f 184/130/404 194/135/415 181/136/416 177/131/405
s off
f 194/231/417 192/232/418 182/233/419 181/234/420
s 49
f 192/144/421 188/138/407 179/141/410 182/145/422
